<svg xmlns="http://www.w3.org/2000/svg" width="403.234" height="167.82" viewBox="0 0 403.234 167.82"><defs><style>.a{fill:#00cd26;}</style></defs><path class="a" d="M21.582-186.28v-2.286a8.387,8.387,0,0,0-2.4-5.9L-9.6-223.566a7.8,7.8,0,0,0-5.558-2.346H-221.637a7.8,7.8,0,0,1-4.761-1.636l-1.812-1.4a7.794,7.794,0,0,0-4.757-1.636H-368.237a8.109,8.109,0,0,0-7.96,8.249V-120.2a8.347,8.347,0,0,0,3.2,6.608l.426.331a8.349,8.349,0,0,1,3.2,6.613v1.843a8.409,8.409,0,0,0,2.4,5.9l28.779,29.1a7.806,7.806,0,0,0,5.562,2.346H-92.308a7.831,7.831,0,0,1,5.562,2.346h0a7.823,7.823,0,0,0,5.562,2.346H19.077a8.109,8.109,0,0,0,7.96-8.249v-102.8a8.387,8.387,0,0,0-2.4-5.9l-.654-.663A8.409,8.409,0,0,1,21.582-186.28Zm-388.752,80.552V-215.443a8.106,8.106,0,0,1,7.96-8.248H-16.07a7.813,7.813,0,0,1,5.562,2.346l27.492,27.8a8.393,8.393,0,0,1,2.4,5.9V-77.93a8.109,8.109,0,0,1-7.96,8.249H-331.717a7.813,7.813,0,0,1-5.562-2.346l-27.492-27.8A8.4,8.4,0,0,1-367.169-105.728Z" transform="translate(376.197 230.588)"/></svg>