<svg xmlns="http://www.w3.org/2000/svg" width="762.391" height="557.103" viewBox="0 0 762.391 557.103">
  <g id="Grupo_1469" data-name="Grupo 1469" transform="translate(-10033.891 -2714.341)">
    <path id="Caminho_12708" data-name="Caminho 12708" d="M9731.426,1091.09l-6.1,165.594s6.879,43.261,7.7,44.082,1.368,12.039,1.368,12.039l-1.368,168v77.707l56.639,58.827,5.472,4.651s13.134,1.368,13.134,2.189,9.029,0,9.029,0l652,.3,3.913-22.053-1.779-188.521-3.315-17.5.6-243.647-56.827-59.774-4.21-2.947-5.893-1.473H9984.806s-177.1-3.754-178.953-3.754-67.049-1.85-68.9,0S9731.426,1091.09,9731.426,1091.09Z" transform="translate(315.086 1637)" fill="#00cd26" stroke="#707070" stroke-width="1" opacity="0.56"/>
    <g id="Grupo_1468" data-name="Grupo 1468" transform="translate(10410.088 2876.423)">
      <path id="Caminho_12390" data-name="Caminho 12390" d="M375.881,161.5V-82.632a15.857,15.857,0,0,0-4.542-11.159l-54.413-55.023a14.787,14.787,0,0,0-10.508-4.436H-83.971a14.69,14.69,0,0,1-9-3.093l-3.427-2.645a14.683,14.683,0,0,0-8.994-3.093H-361.147a15.332,15.332,0,0,0-15.05,15.6v193.1a15.8,15.8,0,0,0,6.056,12.5l.806.627a15.769,15.769,0,0,1,6.056,12.494v243.3a15.9,15.9,0,0,0,4.534,11.159l54.413,55.015a14.758,14.758,0,0,0,10.516,4.436H160.549a14.806,14.806,0,0,1,10.516,4.436h0a14.791,14.791,0,0,0,10.516,4.436H371.144a15.332,15.332,0,0,0,15.05-15.6V185.07a15.843,15.843,0,0,0-4.542-11.159l-1.237-1.253A15.9,15.9,0,0,1,375.881,161.5ZM-359.128,313.8V-133.455a15.332,15.332,0,0,1,15.05-15.6H304.692a14.806,14.806,0,0,1,10.517,4.436l51.979,52.557A15.9,15.9,0,0,1,371.722-80.9V366.354a15.332,15.332,0,0,1-15.05,15.6H-292.1a14.773,14.773,0,0,1-10.517-4.436l-51.979-52.557A15.885,15.885,0,0,1-359.128,313.8Z" transform="translate(0 0)" fill="#00cd26"/>
    </g>
  </g>
</svg>
