<svg width="763" height="558" viewBox="0 0 763 558" fill="none" xmlns="http://www.w3.org/2000/svg">
<path d="M752.078 323.583V79.4509C752.091 75.2786 750.459 71.2692 747.536 68.2919L693.123 13.269C691.752 11.8707 690.118 10.7585 688.314 9.99701C686.51 9.23551 684.573 8.83984 682.615 8.83295H292.226C288.966 8.82918 285.8 7.74105 283.226 5.73994L279.799 3.09494C277.227 1.09462 274.063 0.00652067 270.805 0.00195312H15.0499C10.9859 0.0760824 7.11759 1.76099 4.29542 4.68629C1.47325 7.6116 -0.0717777 11.5378 -5.11033e-05 15.6019V208.702C-0.00954002 211.109 0.531131 213.487 1.5807 215.653C2.63027 217.819 4.16098 219.717 6.05595 221.202L6.86195 221.829C8.75786 223.311 10.2893 225.208 11.339 227.374C12.3887 229.539 12.9288 231.916 12.9179 234.323V477.623C12.9074 481.793 14.5357 485.801 17.4519 488.782L71.8649 543.797C73.2355 545.197 74.8713 546.311 76.6768 547.073C78.4823 547.834 80.4214 548.229 82.3809 548.233H536.746C538.705 548.24 540.643 548.636 542.449 549.397C544.254 550.158 545.89 551.271 547.262 552.669V552.669C548.634 554.068 550.27 555.181 552.075 555.942C553.88 556.704 555.819 557.099 557.778 557.105H747.341C751.405 557.031 755.273 555.346 758.095 552.421C760.918 549.495 762.463 545.569 762.391 541.505V347.153C762.406 342.98 760.773 338.97 757.849 335.994L756.612 334.741C753.696 331.76 752.068 327.753 752.078 323.583V323.583ZM17.0689 475.883V28.6279C16.9972 24.5638 18.5423 20.6376 21.3644 17.7123C24.1866 14.787 28.0549 13.1021 32.1189 13.028H680.889C682.848 13.0347 684.787 13.4303 686.592 14.1917C688.397 14.9532 690.034 16.0654 691.406 17.4639L743.385 70.021C746.302 73.0028 747.93 77.0116 747.919 81.1829V528.437C747.991 532.501 746.446 536.427 743.623 539.353C740.801 542.278 736.933 543.963 732.869 544.037H84.0969C82.1373 544.032 80.1983 543.637 78.3927 542.876C76.5871 542.114 74.9511 541.001 73.5799 539.601L21.6009 487.044C18.6835 484.063 17.0557 480.054 17.0689 475.883V475.883Z" fill="#00CD26"/>
</svg>
