<svg xmlns="http://www.w3.org/2000/svg" xmlns:xlink="http://www.w3.org/1999/xlink" viewBox="0 0 1026.38 1001.36"><defs><style>.cls-1{isolation:isolate;}.cls-2{fill:url(#linear-gradient);}.cls-3{fill:url(#linear-gradient-2);}.cls-4{opacity:0.7;fill:url(#linear-gradient-3);}.cls-15,.cls-16,.cls-18,.cls-4,.cls-5,.cls-8{mix-blend-mode:screen;}.cls-5{opacity:0.9;fill:url(#linear-gradient-4);}.cls-6,.cls-7{fill:#fff;}.cls-7{opacity:0.4;mix-blend-mode:color-dodge;}.cls-8{fill:url(#linear-gradient-5);}.cls-9{fill:url(#linear-gradient-6);}.cls-10{opacity:0.8;fill:url(#linear-gradient-7);}.cls-10,.cls-12,.cls-17{mix-blend-mode:multiply;}.cls-11{fill:url(#linear-gradient-8);}.cls-13{fill:url(#linear-gradient-9);}.cls-14{fill:url(#linear-gradient-10);}.cls-15{fill:url(#linear-gradient-11);}.cls-16{fill:url(#linear-gradient-12);}.cls-17{fill:url(#linear-gradient-13);}.cls-18{fill:url(#linear-gradient-14);}</style><linearGradient id="linear-gradient" x1="11106.08" y1="-1089.08" x2="13036.6" y2="574.15" gradientTransform="translate(12314.51 37.07) rotate(180)" gradientUnits="userSpaceOnUse"><stop offset="0" stop-color="#fccf61"/><stop offset="0.08" stop-color="#fff"/><stop offset="0.19" stop-color="#f4d271"/><stop offset="0.26" stop-color="#d8a73b"/><stop offset="0.32" stop-color="#bf8729"/><stop offset="0.36" stop-color="#b2761f"/><stop offset="0.38" stop-color="#b1741e"/><stop offset="0.47" stop-color="#ad701d"/><stop offset="0.51" stop-color="#b77d26"/><stop offset="0.56" stop-color="#c69133"/><stop offset="0.68" stop-color="#f4d15e"/><stop offset="0.7" stop-color="#f1ce5c"/><stop offset="0.72" stop-color="#e9c456"/><stop offset="0.74" stop-color="#dbb34b"/><stop offset="0.75" stop-color="#c89a3d"/><stop offset="0.77" stop-color="#af7c2a"/><stop offset="0.79" stop-color="#905613"/><stop offset="0.81" stop-color="#965e18"/><stop offset="0.84" stop-color="#a87425"/><stop offset="0.88" stop-color="#c5973b"/><stop offset="0.92" stop-color="#edc95a"/><stop offset="0.94" stop-color="#fad964"/></linearGradient><linearGradient id="linear-gradient-2" x1="-65.43" y1="-206.35" x2="866.41" y2="981.66" gradientUnits="userSpaceOnUse"><stop offset="0" stop-color="#d8a73b"/><stop offset="0.08" stop-color="#bf8729"/><stop offset="0.14" stop-color="#b2761f"/><stop offset="0.15" stop-color="#b1741e"/><stop offset="0.22" stop-color="#ad701d"/><stop offset="0.3" stop-color="#b77d26"/><stop offset="0.39" stop-color="#c69133"/><stop offset="0.66" stop-color="#905613"/><stop offset="0.88" stop-color="#905613"/><stop offset="1" stop-color="#3f1400"/></linearGradient><linearGradient id="linear-gradient-3" x1="667.2" y1="-884.55" x2="520.76" y2="-529.36" gradientTransform="matrix(1, 0, 0, -1, -7.21, 37.07)" gradientUnits="userSpaceOnUse"><stop offset="0.02" stop-color="#fff"/><stop offset="0.29" stop-color="#fad964"/><stop offset="0.56" stop-color="#f4d15e"/><stop offset="0.59" stop-color="#bba049"/><stop offset="0.63" stop-color="#857235"/><stop offset="0.66" stop-color="#584c25"/><stop offset="0.7" stop-color="#352e18"/><stop offset="0.73" stop-color="#1b180f"/><stop offset="0.76" stop-color="#0c0b09"/><stop offset="0.79" stop-color="#070707"/></linearGradient><linearGradient id="linear-gradient-4" x1="46.68" y1="222.28" x2="479.82" y2="501.96" gradientUnits="userSpaceOnUse"><stop offset="0.02" stop-color="#fff"/><stop offset="0.29" stop-color="#fad964"/><stop offset="0.59" stop-color="#f4d15e"/><stop offset="0.65" stop-color="#bba049"/><stop offset="0.72" stop-color="#857235"/><stop offset="0.78" stop-color="#584c25"/><stop offset="0.84" stop-color="#352e18"/><stop offset="0.9" stop-color="#1b180f"/><stop offset="0.96" stop-color="#0c0b09"/><stop offset="1" stop-color="#070707"/></linearGradient><linearGradient id="linear-gradient-5" x1="11454.64" y1="-927.93" x2="12030.09" y2="-207.69" gradientTransform="translate(12314.51 37.07) rotate(180)" gradientUnits="userSpaceOnUse"><stop offset="0" stop-color="#fccf61"/><stop offset="0.06" stop-color="#fff"/><stop offset="0.19" stop-color="#f4d271"/><stop offset="0.37" stop-color="#fff"/><stop offset="0.49" stop-color="#fad964"/><stop offset="0.65" stop-color="#f4d15e"/><stop offset="0.76" stop-color="#c5973b"/><stop offset="0.87" stop-color="#9f681e"/><stop offset="0.92" stop-color="#905613"/></linearGradient><linearGradient id="linear-gradient-6" x1="572.86" y1="1020.75" x2="451.58" y2="147.06" xlink:href="#linear-gradient-2"/><linearGradient id="linear-gradient-7" x1="11817.22" y1="-48.92" x2="11636.28" y2="137.81" gradientTransform="matrix(-1, 0.07, -0.07, -1, 12327.84, -393.01)" gradientUnits="userSpaceOnUse"><stop offset="0" stop-color="#fff"/><stop offset="0.08" stop-color="#ebd8b7"/><stop offset="0.17" stop-color="#d7b270"/><stop offset="0.23" stop-color="#cb9a44"/><stop offset="0.26" stop-color="#c69133"/><stop offset="0.66" stop-color="#905613"/><stop offset="0.73" stop-color="#885011"/><stop offset="0.83" stop-color="#723e0c"/><stop offset="0.95" stop-color="#4f2104"/><stop offset="1" stop-color="#3f1400"/></linearGradient><linearGradient id="linear-gradient-8" x1="92.26" y1="54.03" x2="775.38" y2="826.24" gradientUnits="userSpaceOnUse"><stop offset="0" stop-color="#fccf61"/><stop offset="0.34" stop-color="#d8a73b"/><stop offset="0.49" stop-color="#ba8126"/><stop offset="0.58" stop-color="#ad701d"/><stop offset="0.67" stop-color="#c28d31"/><stop offset="0.86" stop-color="#f4d15e"/><stop offset="0.88" stop-color="#efcb5a"/><stop offset="0.91" stop-color="#e1ba50"/><stop offset="0.94" stop-color="#cb9e3f"/><stop offset="0.98" stop-color="#ab7828"/><stop offset="1" stop-color="#905613"/></linearGradient><linearGradient id="linear-gradient-9" x1="959.82" y1="809.06" x2="404.81" y2="14.6" gradientUnits="userSpaceOnUse"><stop offset="0" stop-color="#fccf61"/><stop offset="0.28" stop-color="#905613"/><stop offset="0.37" stop-color="#965e18"/><stop offset="0.51" stop-color="#a87425"/><stop offset="0.68" stop-color="#c5973b"/><stop offset="0.88" stop-color="#edc95a"/><stop offset="0.94" stop-color="#fad964"/></linearGradient><linearGradient id="linear-gradient-10" x1="560.92" y1="1087.73" x2="5.9" y2="293.26" xlink:href="#linear-gradient-9"/><linearGradient id="linear-gradient-11" x1="810.56" y1="568.08" x2="810.56" y2="685.08" gradientUnits="userSpaceOnUse"><stop offset="0.08" stop-color="#fff"/><stop offset="0.36" stop-color="#a77224"/></linearGradient><linearGradient id="linear-gradient-12" x1="172.67" y1="568.08" x2="172.67" y2="685.08" xlink:href="#linear-gradient-11"/><linearGradient id="linear-gradient-13" x1="294.3" y1="509.26" x2="733.26" y2="509.26" gradientUnits="userSpaceOnUse"><stop offset="0" stop-color="#fcce5d"/><stop offset="0.08" stop-color="#fff"/><stop offset="0.19" stop-color="#ebcd76"/><stop offset="0.26" stop-color="#cda240"/><stop offset="0.32" stop-color="#b4832e"/><stop offset="0.36" stop-color="#a77224"/><stop offset="0.38" stop-color="#a67023"/><stop offset="0.47" stop-color="#a26c21"/><stop offset="0.51" stop-color="#ad792a"/><stop offset="0.56" stop-color="#bc8c38"/><stop offset="0.68" stop-color="#eacb64"/><stop offset="0.7" stop-color="#e7c862"/><stop offset="0.72" stop-color="#dfbe5b"/><stop offset="0.74" stop-color="#d1ad50"/><stop offset="0.75" stop-color="#bd9441"/><stop offset="0.77" stop-color="#a4762d"/><stop offset="0.79" stop-color="#865216"/><stop offset="0.81" stop-color="#8d5a1b"/><stop offset="0.84" stop-color="#9e7029"/><stop offset="0.88" stop-color="#bc9341"/><stop offset="0.93" stop-color="#e4c561"/><stop offset="0.94" stop-color="#f0d36a"/></linearGradient><linearGradient id="linear-gradient-14" x1="358.76" y1="238.6" x2="1326.35" y2="1927.22" xlink:href="#linear-gradient-13"/></defs><g class="cls-1"><g id="layer_1" data-name="layer 1"><path class="cls-2" d="M65.94,518.49c0-241.42,195.78-437.14,437.19-437.14S940.27,277.07,940.27,518.49,744.55,955.63,503.13,955.63,65.94,759.91,65.94,518.49Z"/><path class="cls-3" d="M503.13,955.63c241.42,0,437.14-195.72,437.14-437.14S744.55,81.35,503.13,81.35,65.94,277.07,65.94,518.49,261.72,955.63,503.13,955.63Zm0-867.77c237.44,0,430.64,193.19,430.64,430.63S740.57,949.13,503.13,949.13,72.49,755.93,72.49,518.49,265.65,87.86,503.13,87.86Z"/><path class="cls-4" d="M197,662.3c64,115.25,158.86,189.08,299.77,189.08,206.7,0,339.91-159.16,339.91-365.89,0-23.35,71.43-42,75.71-42.61a428.14,428.14,0,0,1,6.63,75C919,751,729.88,940.11,496.74,940.11c-156.28,0-292.75-85-365.79-211.24C111.29,691.78,184.1,646.34,197,662.3Z"/><path class="cls-5" d="M278.89,767.86C184.66,675.62,138.55,564.64,175.8,428.77,230.48,229.42,419.21,143,618.57,197.71,641.09,203.89,678,140,679.68,136a426.65,426.65,0,0,0-70.53-26.23C384.26,48.08,151.9,180.45,90.26,405.31c-41.33,150.7,4.51,304.78,107,408.62C227.8,842.69,290.86,784.49,278.89,767.86Z"/><path class="cls-6" d="M84.23,443C15.6,904.63,634.51,1113.8,871.81,731.19,643.83,1145.29-9.33,907.07,84.23,443Z"/><path class="cls-7" d="M84.23,443C15.6,904.63,634.51,1113.8,871.81,731.19,643.83,1145.29-9.33,907.07,84.23,443Z"/><path class="cls-6" d="M217.51,204.4c204.57-175.49,447-130.33,607.7,44.11,106.88,116,139.08,298.11,55.6,469.11C1109.93,304.2,560.55-121.84,217.51,204.4Z"/><path class="cls-8" d="M175.27,518.49c0-181,146.77-327.88,327.86-327.88S831,337.45,831,518.49,684.18,846.36,503.13,846.36,175.27,699.58,175.27,518.49Z"/><path class="cls-9" d="M503.13,846.36c181,0,327.88-146.78,327.88-327.87S684.18,190.61,503.13,190.61,175.27,337.45,175.27,518.49,322,846.36,503.13,846.36Zm0-649.24c177.17,0,321.37,144.21,321.37,321.37S680.3,839.85,503.13,839.85,181.76,695.65,181.76,518.49,325.92,197.12,503.13,197.12Z"/><path class="cls-10" d="M275.26,299c244.85-240.74,637.27,36.6,512.6,343.43C935.25,327.55,510.74,42.35,275.26,299Z"/><path class="cls-11" d="M188.27,518.49c0-173.86,141-314.86,314.86-314.86S818,344.63,818,518.49,677,833.35,503.13,833.35,188.27,692.35,188.27,518.49Z"/><g class="cls-12"><path class="cls-13" d="M751.1,818.68a11.15,11.15,0,0,1-7.31-19.57,371.3,371.3,0,0,0,83.47-457.74,11.13,11.13,0,1,1,19.56-10.64A393.58,393.58,0,0,1,758.38,816,11,11,0,0,1,751.1,818.68Z"/><path class="cls-14" d="M250.56,818.68a11,11,0,0,1-7.28-2.73,393.48,393.48,0,0,1-88.43-485.22,11.13,11.13,0,0,1,19.56,10.64,371.19,371.19,0,0,0,83.47,457.74,11.15,11.15,0,0,1-7.32,19.57Z"/></g><path class="cls-15" d="M743.79,799.11s5.52-5.6,15.16-15.43c4.51-5.18,10.41-11,16.33-18.5,3-3.73,6.25-7.59,9.5-11.82s6.54-8.76,10.05-13.44S801.5,730,805,724.83s6.63-11,10.1-16.64,6.39-12,9.71-18.11l9.2-19.33c2.72-6.75,5.71-13.5,8.3-20.52,2.32-7.11,5.25-14.11,7.27-21.46,2.22-7.28,4.48-14.63,6.13-22.16,2-7.47,3.45-15.06,4.8-22.68a389.48,389.48,0,0,0,5.68-45.82c.14-7.56.66-15.29.63-22.53-.21-7.55-.13-15.12-.56-22.38s-1.15-14.28-1.72-21.21c-.91-6.94-1.81-13.74-2.68-20.36-2.38-13.14-4.73-25.58-7.95-36.83-1.37-5.68-2.92-11.07-4.62-16.11s-3.08-9.95-4.5-14.5c-3.38-8.9-6.25-16.71-8.85-23.07l-8.72-19.75s3.88,6.85,10.69,18.83c3.11,6.16,6.62,13.77,10.75,22.49,3.41,9,8.09,18.89,11.27,30.36,3.83,11.26,6.83,23.81,9.92,37.11,1.22,6.72,2.48,13.63,3.76,20.68,1,7.13,1.61,14.5,2.45,22,.62,7.43.74,14.84,1.13,22.45.28,7.92-.13,15.52-.26,23.41a395.84,395.84,0,0,1-5.47,47.24c-1.45,7.85-3,15.66-5.13,23.32-1.79,7.75-4.16,15.3-6.51,22.78-4.66,15-10.77,29.21-16.92,42.79-3.41,6.64-6.52,13.29-10.06,19.54-3.71,6.14-7.06,12.31-10.82,18s-7.31,11.31-11.12,16.47S803.49,739,799.8,743.67s-7.45,8.94-10.92,13.09-7.24,7.66-10.54,11.18c-6.53,7.06-13,12.51-17.92,17.33-5.14,4.59-9.44,7.87-12.25,10.26S743.79,799.11,743.79,799.11Z"/><path class="cls-16" d="M243.28,816s-1.61-1.31-4.62-3.81-7.53-6-12.95-10.9c-5.19-5.12-12.05-10.91-19-18.42-3.47-3.73-7.32-7.58-11.15-11.86q-5.49-6.62-11.54-13.89c-3.89-5-7.7-10.29-11.78-15.73s-7.7-11.47-11.76-17.47-7.51-12.59-11.43-19.11c-3.74-6.61-7-13.66-10.66-20.69-6.49-14.4-13-29.46-17.88-45.35-2.48-7.93-5-15.92-6.89-24.12-2.2-8.13-3.89-16.4-5.42-24.71a418,418,0,0,1-5.82-50c-.12-8.36-.56-16.43-.27-24.81.42-8,.54-15.92,1.17-23.79.89-7.9,1.54-15.71,2.58-23.27q2-11.22,4-21.92c3.25-14.1,6.42-27.38,10.46-39.34,3.35-12.13,8.31-22.65,11.91-32.18,4.35-9.24,8-17.32,11.34-23.85,7.17-12.72,11.28-20,11.28-20l-9.32,20.91c-2.77,6.72-5.84,15-9.45,24.43-1.5,4.82-3.11,9.95-4.81,15.35s-3.46,11.07-4.93,17.09c-3.44,11.92-5.93,25.12-8.5,39.05q-1.38,10.53-2.87,21.59-.9,11-1.85,22.52c-.44,7.69-.38,15.71-.6,23.71,0,7.7.5,15.89.65,23.91a411.24,411.24,0,0,0,6,48.61c1.43,8.08,3,16.15,5.09,24.06,1.77,8,4.16,15.78,6.53,23.51,2.12,7.82,5.24,15.23,7.71,22.77,2.75,7.43,5.93,14.61,8.82,21.76,3.31,7,6.58,13.81,9.79,20.5,3.52,6.53,6.71,13.09,10.31,19.19s7,12.09,10.74,17.63,7.27,10.95,10.87,16,7.27,9.72,10.67,14.25,6.93,8.56,10.09,12.5c6.29,7.94,12.57,14.1,17.36,19.6Z"/><path class="cls-17" d="M733,436.24,732,443,322.87,384.43l1-6.73a25.83,25.83,0,0,1,29.24-21.91l358,51.22A25.83,25.83,0,0,1,733,436.24Zm-438.43,146a25.83,25.83,0,0,0,21.92,29.23l358,51.23a25.83,25.83,0,0,0,29.23-21.92l21-146.7L315.55,435.58Zm343,10.09a16.34,16.34,0,1,1-13.87-18.49A16.38,16.38,0,0,1,637.55,592.37Zm18.14-42.48a16.34,16.34,0,1,1-18.49,13.86A16.36,16.36,0,0,1,655.69,549.89Zm-42.48-18.14a16.34,16.34,0,1,1,13.86,18.49A16.36,16.36,0,0,1,613.21,531.75Zm-32,24a16.34,16.34,0,1,1,13.86,18.49A16.36,16.36,0,0,1,581.21,555.74ZM349.44,509.48A5.76,5.76,0,0,1,356,504.6l19.94,2.85,2.86-19.94a5.75,5.75,0,0,1,6.51-4.89l25.65,3.67a5.76,5.76,0,0,1,4.88,6.52L413,512.75l19.94,2.86a5.75,5.75,0,0,1,4.89,6.51l-3.67,25.65a5.76,5.76,0,0,1-6.52,4.88l-19.94-2.85-2.86,19.94a5.75,5.75,0,0,1-6.51,4.89L372.63,571a5.76,5.76,0,0,1-4.88-6.52l2.85-19.94-19.94-2.86a5.76,5.76,0,0,1-4.89-6.51Z"/><path class="cls-18" d="M730,430.86l-1,6.73L319.86,379.05l1-6.73a25.83,25.83,0,0,1,29.23-21.92l358,51.23A25.83,25.83,0,0,1,730,430.86Zm-438.44,146a25.84,25.84,0,0,0,21.92,29.23l358,51.22a25.84,25.84,0,0,0,29.24-21.91l21-146.7L312.54,430.2Zm343,10.09a16.34,16.34,0,1,1-13.86-18.49A16.36,16.36,0,0,1,634.54,587Zm18.14-42.48a16.34,16.34,0,1,1-18.49,13.86A16.36,16.36,0,0,1,652.68,544.51ZM610.2,526.37a16.34,16.34,0,1,1,13.86,18.49A16.36,16.36,0,0,1,610.2,526.37Zm-32,24a16.34,16.34,0,1,1,13.86,18.49A16.36,16.36,0,0,1,578.2,550.36ZM346.44,504.1a5.75,5.75,0,0,1,6.51-4.89l19.95,2.86,2.85-19.95a5.76,5.76,0,0,1,6.52-4.88l25.64,3.67a5.75,5.75,0,0,1,4.88,6.51l-2.85,19.95,19.94,2.85a5.76,5.76,0,0,1,4.89,6.52l-3.67,25.64a5.76,5.76,0,0,1-6.52,4.89l-19.94-2.86-2.86,20a5.75,5.75,0,0,1-6.51,4.88l-25.64-3.67a5.76,5.76,0,0,1-4.89-6.51l2.85-19.95-19.94-2.85a5.76,5.76,0,0,1-4.88-6.52Z"/></g></g></svg>