<svg xmlns="http://www.w3.org/2000/svg" width="64" height="80.838" viewBox="0 0 64 80.838">
  <g id="Grupo_723" data-name="Grupo 723" transform="translate(-1088 -2488.162)">
    <g id="Interseção_1" data-name="Interseção 1" transform="translate(1166 2611) rotate(180)" fill="none">
      <path d="M14,47.242A33.745,33.745,0,0,1,14.408,42H77.593A33.745,33.745,0,0,1,78,47.242C78,65.333,63.673,80,46,80S14,65.333,14,47.242Z" stroke="none"/>
      <path d="M 19.00140380859375 47.00030517578125 C 19.000732421875 47.08079528808594 19.00039672851563 47.16124725341797 19.00039672851563 47.24171447753906 C 19.00039672851563 51.00560760498047 19.71897888183594 54.65325164794922 21.13619232177734 58.08332824707031 C 22.50302124023438 61.39144897460938 24.45893859863281 64.36161041259766 26.94962310791016 66.91133117675781 C 29.43234252929688 69.45290374755859 32.319580078125 71.44666290283203 35.5311279296875 72.83723449707031 C 38.84535598754883 74.27227783203125 42.36762237548828 74.99990844726563 46.00007629394531 74.99990844726563 C 49.63267517089844 74.99990844726563 53.15505981445313 74.27227783203125 56.46938323974609 72.83721923828125 C 59.68099594116211 71.4466552734375 62.56829071044922 69.45288848876953 65.05103302001953 66.91131591796875 C 67.54174041748047 64.36159515380859 69.49767303466797 61.39143753051758 70.864501953125 58.08331680297852 C 72.28173065185547 54.65325164794922 73.00031280517578 51.00560760498047 73.00031280517578 47.24171447753906 C 73.00031280517578 47.16124725341797 72.99997711181641 47.08078765869141 72.99930572509766 47.00030517578125 L 19.00140380859375 47.00030517578125 M 14.40782165527344 42.00030517578125 L 77.59286499023438 42.00030517578125 C 77.861083984375 43.70735931396484 78.00031280517578 45.45722198486328 78.00031280517578 47.24171447753906 C 78.00031280517578 65.33346557617188 63.6734619140625 79.99990844726563 46.00007629394531 79.99990844726563 C 28.32724761962891 79.99990844726563 14.00039672851563 65.33346557617188 14.00039672851563 47.24171447753906 C 14.00039672851563 45.45722198486328 14.13961029052734 43.70735931396484 14.40782165527344 42.00030517578125 Z" stroke="none" fill="#00cb24"/>
    </g>
    <path id="Op_component_1" data-name="Op component 1" d="M594.871,598.9c9.5,0,17.237-7.383,17.237-16.458s-7.733-16.457-17.237-16.457-17.237,7.383-17.237,16.457S585.368,598.9,594.871,598.9Z" transform="translate(524.865 1924.673)" fill="none" stroke="#00cb24" stroke-width="5"/>
  </g>
</svg>
