<svg id="Grupo_1527" data-name="Grupo 1527" xmlns="http://www.w3.org/2000/svg" viewBox="0 0 283.46 283.46"><defs><style>.cls-1{fill:#00cb24;}.cls-2{fill:#00cd26;}</style></defs><path id="Caminho_12767" data-name="Caminho 12767" class="cls-1" d="M269.07,213.68a4,4,0,0,0-3.75-2.55H239.89V13.76a4,4,0,0,0-4-4H165.55a4,4,0,0,0-4,4h0v5a100.79,100.79,0,0,0-53.15-15A101.67,101.67,0,1,0,161.52,192.1v19H136.1a4,4,0,0,0-2.76,7L198,278.62a4,4,0,0,0,5.51,0l64.61-60.51A4.05,4.05,0,0,0,269.07,213.68ZM161.52,157.77a4.07,4.07,0,0,0-1.57.94,73.67,73.67,0,0,1-51.57,20.88h-.57A74.17,74.17,0,1,1,160,52.13a4.07,4.07,0,0,0,1.57.94Zm-53.16,40.85A93.2,93.2,0,1,1,161.52,28.86V42.67a82.24,82.24,0,1,0-53.77,145h.63a81.62,81.62,0,0,0,53.14-19.49V182a92.46,92.46,0,0,1-53.16,16.64Zm92.35,71.54-54.41-51h19.25a4,4,0,0,0,4-4h0V17.8h62.24V215.17a4,4,0,0,0,4,4h19.26Z"/><path id="Caminho_12620" data-name="Caminho 12620" class="cls-2" d="M154,88.92l-.22,1.52L61.34,77.21l.22-1.53a5.83,5.83,0,0,1,6.61-5h0l80.92,11.58a5.83,5.83,0,0,1,4.95,6.6Zm-99.1,33a5.84,5.84,0,0,0,5,6.6h0l80.92,11.58a5.84,5.84,0,0,0,6.61-5L152.17,102,59.68,88.77Zm77.53,2.28a3.69,3.69,0,1,1-3.14-4.18,3.69,3.69,0,0,1,3.14,4.18Zm4.1-9.6a3.69,3.69,0,1,1-4.18,3.13,3.69,3.69,0,0,1,4.18-3.13Zm-9.6-4.1a3.69,3.69,0,1,1,3.13,4.18,3.71,3.71,0,0,1-3.13-4.18Zm-7.24,5.42a3.7,3.7,0,1,1,3.14,4.18,3.7,3.7,0,0,1-3.14-4.18ZM67.35,105.47a1.3,1.3,0,0,1,1.47-1.1l4.51.64.65-4.5a1.3,1.3,0,0,1,1.46-1.11h0l5.79.83a1.31,1.31,0,0,1,1.11,1.47l-.65,4.51,4.51.64a1.3,1.3,0,0,1,1.1,1.48h0l-.82,5.79A1.32,1.32,0,0,1,85,115.23h0l-4.5-.65-.65,4.51a1.29,1.29,0,0,1-1.47,1.1h0l-5.8-.82a1.31,1.31,0,0,1-1.1-1.48l.65-4.5-4.51-.65a1.31,1.31,0,0,1-1.11-1.47Z"/></svg>