<svg height="88" viewBox="0 0 121 88" width="121" xmlns="http://www.w3.org/2000/svg"><g fill="none"><g transform="matrix(-1 0 0 -1 48.92 65.039)"><path d="m0 2.558a16.11 16.11 0 0 1 .2-2.558h31.531a15.97 15.97 0 1 1 -31.731 2.558z"/><path d="m4.08522606 4.00000191c.31609154 2.6559124 1.50320434 5.11313724 3.42134666 7.03340053 2.2600708 2.26257038 5.26462937 3.50862027 8.46020985 3.50862027 3.19571018 0 6.20036983-1.24606038 8.46047115-3.50864029 1.91814995-1.92024708 3.1052723-4.37746811 3.42136574-7.03338051zm-3.88193321-4h31.52725029c.13384056.83296013.20330047 1.68680954.20330047 2.55755996 0 8.82792092-7.1486206 15.98446084-15.96706104 15.98446084-8.81816006 0-15.96678066-7.15653992-15.96678066-15.98446084 0-.87075042.06945991-1.72459983.20329094-2.55755996z" fill="#00cb24"/></g><g stroke="#00cb24" stroke-width="4"><path d="m586.189 582.324a8.176 8.176 0 1 0 -8.554-8.168 8.377 8.377 0 0 0 8.554 8.168z" transform="translate(-553.142 -539.973)"/><g transform="matrix(0 -1 1 0 0 88)"><rect height="121" rx="18" stroke="none" width="88"/><rect fill="none" height="117" rx="16" width="84" x="2" y="2"/></g><path d="m58.497 26.017h47.794"/><path d="m58.497 34.979h47.794"/><path d="m58.497 43.94h47.794"/><path d="m58.497 52.901h47.794"/><path d="m58.497 61.863h47.794"/></g></g></svg>