<svg xmlns="http://www.w3.org/2000/svg" width="80.739" height="101.327"><g fill="none"><path d="M80.739 94.715a42.571 42.571 0 01-.514 6.612H.514A42.571 42.571 0 010 94.715c0-22.824 18.074-41.326 40.37-41.326s40.369 18.502 40.369 41.326z"/><path d="M75.705 96.327c.023-.537.034-1.075.034-1.612 0-4.92-.94-9.69-2.794-14.177a36.279 36.279 0 00-7.607-11.551 35.22 35.22 0 00-11.241-7.762 34.344 34.344 0 00-13.727-2.836c-4.763 0-9.381.954-13.727 2.836A35.221 35.221 0 0015.4 68.987a36.278 36.278 0 00-7.608 11.551C5.94 85.024 5 89.794 5 94.715c0 .537.011 1.075.034 1.612h70.67m4.521 5H.514A42.57 42.57 0 010 94.715C0 71.89 18.074 53.389 40.37 53.389c22.295 0 40.369 18.502 40.369 41.326 0 2.25-.176 4.458-.514 6.612z" fill="#00cb24"/><path d="M40.037 44.025c11.99 0 21.746-9.314 21.746-20.763S52.027 2.501 40.037 2.501s-21.745 9.314-21.745 20.761 9.757 20.763 21.745 20.763z" stroke="#00cb24" stroke-width="5"/></g></svg>