<svg xmlns="http://www.w3.org/2000/svg" width="93.544" height="93.545" viewBox="0 0 93.544 93.545">
  <g id="wallet" transform="translate(-0.003 -359.331)">
    <g id="Grupo_645" data-name="Grupo 645" transform="translate(0.003 359.331)">
      <g id="Grupo_644" data-name="Grupo 644" transform="translate(0 0)">
        <path id="Caminho_11219" data-name="Caminho 11219" d="M89.295,47.165V34.017a8.486,8.486,0,0,0-7.827-8.435L69.258,4.256a8.414,8.414,0,0,0-11.544-3.11L15.858,25.513H8.507a8.512,8.512,0,0,0-8.5,8.5V85.041a8.512,8.512,0,0,0,8.5,8.5H80.791a8.512,8.512,0,0,0,8.5-8.5V71.893a6.368,6.368,0,0,0,4.252-5.986V53.151A6.368,6.368,0,0,0,89.295,47.165ZM76.527,25.513H58l13.9-8.091ZM69.782,13.732,49.546,25.513H41.152L67.683,10.067ZM59.855,4.82a4.111,4.111,0,0,1,3.158-.426,4.169,4.169,0,0,1,2.554,1.974l0,.008L32.7,25.513H24.309ZM85.043,85.041a4.258,4.258,0,0,1-4.252,4.252H8.507a4.258,4.258,0,0,1-4.252-4.252V34.017a4.258,4.258,0,0,1,4.252-4.252H80.791a4.258,4.258,0,0,1,4.252,4.252V46.773H72.287a12.756,12.756,0,1,0,0,25.512H85.043V85.041Zm4.252-19.134a2.128,2.128,0,0,1-2.126,2.126H72.287a8.5,8.5,0,1,1,0-17.008H87.169a2.128,2.128,0,0,1,2.126,2.126Z" transform="translate(-0.003 0)" fill="#00cb24"/>
      </g>
    </g>
  </g>
</svg>
