<svg xmlns="http://www.w3.org/2000/svg" width="125.191" height="67.073" viewBox="0 0 125.191 67.073">
  <g id="joystick" transform="translate(-5 -222.834)">
    <g id="Grupo_629" data-name="Grupo 629" transform="translate(24.566 242.008)">
      <g id="Grupo_628" data-name="Grupo 628" transform="translate(0 0)">
        <path id="Caminho_11211" data-name="Caminho 11211" d="M87.506,295.856H81.247V289.6a1.565,1.565,0,0,0-1.565-1.565H73.423a1.565,1.565,0,0,0-1.565,1.565v6.259H65.6a1.565,1.565,0,0,0-1.565,1.565v6.259a1.565,1.565,0,0,0,1.565,1.565h6.259V311.5a1.565,1.565,0,0,0,1.565,1.565h6.259a1.565,1.565,0,0,0,1.565-1.565v-6.259h6.259a1.565,1.565,0,0,0,1.565-1.565v-6.259A1.565,1.565,0,0,0,87.506,295.856Z" transform="translate(-64.034 -288.032)" fill="#00cb24"/>
      </g>
    </g>
    <g id="Grupo_631" data-name="Grupo 631" transform="translate(5 222.834)">
      <g id="Grupo_630" data-name="Grupo 630" transform="translate(0)">
        <path id="Caminho_11212" data-name="Caminho 11212" d="M124.973,252.714c-1.6-14.376-15.1-27.826-29.491-29.359a34.632,34.632,0,0,0-3.68-.209c-26.222-.009-29.176-.7-58.414,0a34.03,34.03,0,0,0-3.684.209C15.309,224.9,1.816,238.349.22,252.725A33.38,33.38,0,0,0,50.957,284.9a20.431,20.431,0,0,1,9.156-3.236,32.168,32.168,0,0,1,4.85-.017,20.587,20.587,0,0,1,9.3,3.271,33.38,33.38,0,0,0,50.71-32.2ZM113.572,276a29.188,29.188,0,0,1-37.11,5.372,24.618,24.618,0,0,0-11.2-3.887q-1.321-.1-2.666-.1c-.949,0-1.878.04-2.812.113a24.541,24.541,0,0,0-11.032,3.851A29.207,29.207,0,0,1,4.367,253.188C5.74,240.833,17.786,228.834,30.153,227.5a30.007,30.007,0,0,1,3.236-.186H91.8a30.681,30.681,0,0,1,3.236.173c12.365,1.329,24.409,13.329,25.786,25.683A29,29,0,0,1,113.572,276Z" transform="translate(0 -222.834)" fill="#00cb24"/>
      </g>
    </g>
    <g id="Grupo_633" data-name="Grupo 633" transform="translate(91.798 241.274)">
      <g id="Grupo_632" data-name="Grupo 632" transform="translate(0 0)">
        <path id="Caminho_11213" data-name="Caminho 11213" d="M325.735,272.032a5.7,5.7,0,1,0,5.7,5.7A5.7,5.7,0,0,0,325.735,272.032Z" transform="translate(-320.034 -272.032)" fill="#00cb24"/>
      </g>
    </g>
    <g id="Grupo_635" data-name="Grupo 635" transform="translate(91.798 258.377)">
      <g id="Grupo_634" data-name="Grupo 634" transform="translate(0 0)">
        <path id="Caminho_11214" data-name="Caminho 11214" d="M325.735,368.032a5.7,5.7,0,1,0,5.7,5.7A5.7,5.7,0,0,0,325.735,368.032Z" transform="translate(-320.034 -368.032)" fill="#00cb24"/>
      </g>
    </g>
    <g id="Grupo_637" data-name="Grupo 637" transform="translate(81.822 249.825)">
      <g id="Grupo_636" data-name="Grupo 636" transform="translate(0 0)">
        <path id="Caminho_11215" data-name="Caminho 11215" d="M269.735,320.032a5.7,5.7,0,1,0,5.7,5.7A5.7,5.7,0,0,0,269.735,320.032Z" transform="translate(-264.034 -320.032)" fill="#00cb24"/>
      </g>
    </g>
    <g id="Grupo_639" data-name="Grupo 639" transform="translate(101.774 249.825)">
      <g id="Grupo_638" data-name="Grupo 638" transform="translate(0 0)">
        <path id="Caminho_11216" data-name="Caminho 11216" d="M381.735,320.032a5.7,5.7,0,1,0,5.7,5.7A5.7,5.7,0,0,0,381.735,320.032Z" transform="translate(-376.034 -320.032)" fill="#00cb24"/>
      </g>
    </g>
  </g>
</svg>
