<svg xmlns="http://www.w3.org/2000/svg" width="70.999" height="50.131" viewBox="0 0 70.999 50.131">
  <g id="crown" transform="translate(-1.501 -11.934)">
    <path id="Caminho_12047" data-name="Caminho 12047" d="M22.791,40.252a1,1,0,0,1-.6-.2L9.271,30.359a1,1,0,0,1,1.2-1.6l12.074,9.058L34.2,20.337a1,1,0,1,1,1.664,1.109l-12.24,18.36a1,1,0,0,1-.663.431,1.038,1.038,0,0,1-.17.015Z" fill="#25475f" stroke="#25475f" stroke-width="1"/>
    <path id="Caminho_12048" data-name="Caminho 12048" d="M60.344,55.476H13.656a1,1,0,0,1-.968-.749L6.62,31.3a1,1,0,1,1,1.936-.5l5.875,22.675H59.569L65.444,30.8a1,1,0,1,1,1.936.5L61.312,54.727a1,1,0,0,1-.968.749Z" fill="#25475f" stroke="#25475f" stroke-width="1"/>
    <path id="Caminho_12049" data-name="Caminho 12049" d="M51.209,40.252a1.038,1.038,0,0,1-.169-.014,1,1,0,0,1-.663-.431l-12.24-18.36a1,1,0,1,1,1.663-1.11l11.653,17.48,12.074-9.058a1,1,0,1,1,1.2,1.6L51.81,40.052a1,1,0,0,1-.6.2Z" fill="#25475f" stroke="#25475f" stroke-width="1"/>
    <path id="Caminho_12050" data-name="Caminho 12050" d="M60.965,61.565H13.035a2.015,2.015,0,0,1-1.912-2.652l1.585-4.754a1,1,0,0,1,.948-.684H60.344a1,1,0,0,1,.948.684l1.584,4.754a2.014,2.014,0,0,1-1.911,2.652Zm-46.588-6.09-1.356,4.07,47.944.02-1.345-4.09Z" fill="#25475f" stroke="#25475f" stroke-width="1"/>
    <path id="Caminho_12051" data-name="Caminho 12051" d="M67.194,32.132A4.806,4.806,0,1,1,72,27.326a4.806,4.806,0,0,1-4.806,4.806Zm0-7.612A2.806,2.806,0,1,0,70,27.326a2.806,2.806,0,0,0-2.806-2.806Z" fill="#25475f" stroke="#25475f" stroke-width="1"/>
    <path id="Caminho_12052" data-name="Caminho 12052" d="M6.806,32.132a4.806,4.806,0,1,1,4.807-4.806,4.806,4.806,0,0,1-4.807,4.806Zm0-7.612a2.806,2.806,0,1,0,2.807,2.806A2.806,2.806,0,0,0,6.806,24.52Z" fill="#25475f" stroke="#25475f" stroke-width="1"/>
    <path id="Caminho_12053" data-name="Caminho 12053" d="M37,22.406a4.986,4.986,0,1,1,4.985-4.986A4.986,4.986,0,0,1,37,22.406Zm0-7.972a2.986,2.986,0,1,0,2.985,2.986A2.986,2.986,0,0,0,37,14.434Z" fill="#25475f" stroke="#25475f" stroke-width="1"/>
  </g>
</svg>
