<svg width="119" height="105" viewBox="0 0 119 105" fill="none" xmlns="http://www.w3.org/2000/svg">
<path d="M100.842 7.10352L76.6062 13.0562M100.842 7.10352L117 27.0877M100.842 7.10352L97.0156 19.4342M76.6062 13.0562L63 53.875M76.6062 13.0562L84.6849 22.8357M63 53.875L78.7322 74.2844M63 53.875L75.3306 51.3238M78.7322 74.2844L103.819 67.4812M78.7322 74.2844L83.4093 61.1033M103.819 67.4812L117 27.0877M103.819 67.4812L95.3148 58.1269M117 27.0877L104.669 29.2137M97.0156 19.4342L104.669 29.2137M97.0156 19.4342L84.6849 22.8357M104.669 29.2137L95.3148 58.1269M95.3148 58.1269L83.4093 61.1033M83.4093 61.1033L75.3306 51.3238M75.3306 51.3238L84.6849 22.8357" stroke="#284268" stroke-width="3"/>
<path d="M92.9932 4.95462L92.7473 4.92729C90.556 4.68382 88.4958 3.68479 86.9368 2.12581C86.8865 2.07546 86.7994 2.10483 86.7915 2.17559C86.5327 4.50536 85.3222 6.62448 83.4469 8.03094L83.1515 8.25252C83.0869 8.30099 83.11 8.40308 83.1892 8.41892L83.6516 8.5114C86.0019 8.98145 88.192 10.0475 90.0117 11.6073L90.0436 11.6346C90.1154 11.6962 90.2267 11.6522 90.2372 11.5583C90.4982 9.20911 91.4605 6.99295 92.9987 5.19836L93.0608 5.12591C93.1152 5.06239 93.0764 4.96385 92.9932 4.95462Z" stroke="#284268" stroke-width="3"/>
<path d="M25.4389 22.0759L53.2659 31.3985M25.4389 22.0759L4.56875 43.9319M25.4389 22.0759L28.7299 36.8972M53.2659 31.3985L65.2599 80.5527M53.2659 31.3985L42.8514 42.0773M65.2599 80.5527L44.8469 102.948M65.2599 80.5527L51.0561 76.3692M44.8469 102.948L16.1056 92.5468M44.8469 102.948L40.6416 87.0481M16.1056 92.5468L4.56875 43.9319M16.1056 92.5468L26.9773 82.4074M4.56875 43.9319L18.8137 47.6172M28.7299 36.8972L18.8137 47.6172M28.7299 36.8972L42.8514 42.0773M18.8137 47.6172L26.9773 82.4074M26.9773 82.4074L40.6416 87.0481M40.6416 87.0481L51.0561 76.3692M51.0561 76.3692L42.8514 42.0773" stroke="#284268" stroke-width="3"/>
<path d="M34.8457 20.3175L35.1366 20.3093C37.7282 20.2361 40.2393 19.2648 42.2173 17.5886C42.2811 17.5345 42.3804 17.5774 42.3828 17.6611C42.4606 20.4165 43.674 23.0171 45.7356 24.847L46.0603 25.1352C46.1314 25.1983 46.0944 25.3157 46 25.3266L45.4491 25.3902C42.6493 25.7136 39.9794 26.7509 37.6958 28.4027L37.6558 28.4316C37.5657 28.4968 37.4395 28.4345 37.4363 28.3234C37.3578 25.5451 36.4447 22.8547 34.8157 20.6026L34.7499 20.5117C34.6923 20.432 34.7474 20.3203 34.8457 20.3175Z" stroke="#284268" stroke-width="3"/>
<path d="M69.6213 87.4744L69.9105 87.4423C72.4873 87.156 74.9099 85.9812 76.7432 84.1479C76.8024 84.0887 76.9048 84.1233 76.9141 84.2065C77.2185 86.9461 78.6419 89.4381 80.8471 91.092L81.1945 91.3525C81.2705 91.4095 81.2433 91.5296 81.1501 91.5482L80.6063 91.657C77.8426 92.2097 75.2672 93.4633 73.1273 95.2976L73.0898 95.3297C73.0054 95.402 72.8745 95.3504 72.8622 95.2399C72.5553 92.4774 71.4237 89.8714 69.6149 87.761L69.5418 87.6758C69.4778 87.6012 69.5235 87.4853 69.6213 87.4744Z" stroke="#284268" stroke-width="3"/>
</svg>
