<svg xmlns="http://www.w3.org/2000/svg" width="112.904" height="78.981" viewBox="0 0 112.904 78.981">
  <g id="dollar" transform="translate(0 -75.4)">
    <g id="Grupo_641" data-name="Grupo 641" transform="translate(0 75.4)">
      <g id="Grupo_640" data-name="Grupo 640" transform="translate(0 0)">
        <path id="Caminho_11217" data-name="Caminho 11217" d="M112.881,119.2c-.135-3.127-3.194-5.624-9.111-7.423a64.908,64.908,0,0,0-16.714-2.34v-24a2.433,2.433,0,0,0-.337-1.125c-.63-2.722-3.667-4.926-9.043-6.546A66.974,66.974,0,0,0,59.05,75.4,65.293,65.293,0,0,0,40.6,77.762c-4.072,1.26-8.953,3.6-8.953,7.626a4.142,4.142,0,0,0,.067.742l.247,10.258a26.919,26.919,0,1,0,11.923,47.33,66.524,66.524,0,0,0,14.4,1.575c1.147,6.231,14.644,9.088,27.219,9.088a64.379,64.379,0,0,0,18.446-2.407c4.072-1.26,8.953-3.622,8.953-7.648v-24.7A2.723,2.723,0,0,0,112.881,119.2ZM82.355,97.873c0,.292-1.08,1.845-5.961,3.329a63.675,63.675,0,0,1-17.321,2.182A64.359,64.359,0,0,1,43.753,101.7c-.067-.022-.112-.022-.18-.045a25.954,25.954,0,0,0-7.041-3.982l-.157-6.344a24.924,24.924,0,0,0,4.859,1.867,66.489,66.489,0,0,0,17.839,2.182A67.089,67.089,0,0,0,77.7,93.014a26.98,26.98,0,0,0,4.881-1.957v5.894A1.292,1.292,0,0,0,82.355,97.873ZM41.954,82.1a60.765,60.765,0,0,1,17.1-2.182A62.805,62.805,0,0,1,76.372,82.1c4.881,1.485,5.961,3.014,5.961,3.307,0,.315-1.1,1.867-5.984,3.329a63.565,63.565,0,0,1-17.3,2.16,61.765,61.765,0,0,1-16.579-2.025c-4.836-1.395-6.186-2.924-6.3-3.419,0-.045-.022-.045-.022-.045C36.172,84.983,37.207,83.543,41.954,82.1Zm.067,57.318a22.421,22.421,0,1,1-15.094-38.984,22.912,22.912,0,0,1,6.636.99A22.514,22.514,0,0,1,48.9,118.321a23.525,23.525,0,0,1,.45,4.522A22.289,22.289,0,0,1,42.021,139.422Zm5.714.495a27.163,27.163,0,0,0,4.319-7.4c1.912.157,3.892.27,5.961.292v.4l.135,7.626A70.271,70.271,0,0,1,47.735,139.917Zm6.006-19.751c1.3.09,2.677.135,4.072.157l.135,7.963c-1.575-.022-3.127-.09-4.612-.2a27.652,27.652,0,0,0,.517-5.264C53.854,121.943,53.809,121.065,53.741,120.166Zm5.534-4.319H59.05c-2.16,0-4.252-.09-6.186-.225a26.669,26.669,0,0,0-4.027-8.368,81.021,81.021,0,0,0,10.19.652,67.143,67.143,0,0,0,18.649-2.362,28.408,28.408,0,0,0,4.859-1.935V109.5C72.885,109.773,62.964,111.8,59.275,115.847Zm2.969,3.577a.17.17,0,0,1,.022-.09c.2-.607,1.8-2.092,6.456-3.4a61.221,61.221,0,0,1,16.039-1.912h.382a63.045,63.045,0,0,1,17.321,2.137c4.792,1.44,5.916,2.924,5.939,3.262v.022c-.022.337-1.147,1.89-6.141,3.374a62.489,62.489,0,0,1-17.1,2.115,62.752,62.752,0,0,1-16.579-2c-4.836-1.395-6.164-2.947-6.3-3.419Zm40.4,28.277a60.058,60.058,0,0,1-17.119,2.2,61.214,61.214,0,0,1-17.074-2.137c-4.747-1.462-5.736-2.969-5.736-3.307v-.045l-.112-6.524a29.312,29.312,0,0,0,5.6,2.047A69.231,69.231,0,0,0,85.1,141.874a66.523,66.523,0,0,0,18.581-2.362A28.834,28.834,0,0,0,108.4,137.6v6.749h.023C108.427,144.663,107.393,146.215,102.646,147.7Zm5.8-16.557h-.022c0,.225-.135.495-.135.742,0,.315-1.057,1.845-5.916,3.329a62.239,62.239,0,0,1-17.254,2.16c-12.462,0-20.853-2.812-22.608-4.994l-.022-1.89-.09-5.174a27.6,27.6,0,0,0,4.9,1.89,66.489,66.489,0,0,0,17.839,2.182,67.333,67.333,0,0,0,18.379-2.295,25.761,25.761,0,0,0,4.926-1.935Z" transform="translate(0 -75.4)" fill="#00cb24"/>
      </g>
    </g>
    <g id="Grupo_643" data-name="Grupo 643" transform="translate(18.446 104.396)">
      <g id="Grupo_642" data-name="Grupo 642">
        <path id="Caminho_11218" data-name="Caminho 11218" d="M98.669,225.918a8.5,8.5,0,0,0-8.188-6.186,3.993,3.993,0,1,1,4-3.982,2.25,2.25,0,1,0,4.5,0,8.5,8.5,0,0,0-6.186-8.188V206.55a2.25,2.25,0,0,0-4.5,0v.967a8.49,8.49,0,0,0,2.182,16.692,3.993,3.993,0,1,1-3.982,4,2.25,2.25,0,0,0-4.5,0,8.545,8.545,0,0,0,6.3,8.211v1.957a2.25,2.25,0,0,0,4.5,0V236.4A8.486,8.486,0,0,0,98.669,225.918Z" transform="translate(-82 -204.3)" fill="#00cb24"/>
      </g>
    </g>
  </g>
</svg>
