<svg width="84" height="84" viewBox="0 0 84 84" fill="none" xmlns="http://www.w3.org/2000/svg">
<g clip-path="url(#clip0)">
<path d="M41.834 74.96C60.3245 74.96 75.314 59.9705 75.314 41.48C75.314 22.9895 60.3245 8 41.834 8C23.3435 8 8.354 22.9895 8.354 41.48C8.354 59.9705 23.3435 74.96 41.834 74.96Z" stroke="#00CB24" stroke-width="2"/>
<path d="M63.6432 34.0397L63.5432 34.7097L22.8012 28.8807L22.9012 28.2107C22.998 27.5353 23.359 26.926 23.9049 26.5167C24.4507 26.1073 25.1368 25.9315 25.8122 26.0277L61.4612 31.1277C61.7958 31.1755 62.1176 31.2888 62.4083 31.461C62.6991 31.6333 62.953 31.8611 63.1557 32.1315C63.3583 32.402 63.5057 32.7097 63.5893 33.0371C63.673 33.3645 63.6913 33.7052 63.6432 34.0397ZM19.9852 48.5807C19.889 49.256 20.0647 49.9419 20.4739 50.4877C20.883 51.0335 21.4921 51.3946 22.1672 51.4917L57.8172 56.5917C58.4924 56.6879 59.1782 56.5122 59.7239 56.103C60.2695 55.6939 60.6304 55.0848 60.7272 54.4097L62.8172 39.8017L22.0792 33.9727L19.9852 48.5807ZM54.1392 49.5857C54.0776 50.0125 53.8491 50.3974 53.5039 50.656C53.1588 50.9145 52.7252 51.0255 52.2982 50.9647C51.8713 50.9035 51.4861 50.6754 51.2274 50.3303C50.9686 49.9853 50.8574 49.5517 50.9182 49.1247C50.9796 48.6979 51.2079 48.3129 51.5528 48.0542C51.8978 47.7954 52.3313 47.6841 52.7582 47.7447C53.1853 47.8061 53.5706 48.0344 53.8295 48.3796C54.0884 48.7247 54.1998 49.1585 54.1392 49.5857ZM55.9452 45.3557C56.372 45.4173 56.757 45.6458 57.0155 45.991C57.274 46.3361 57.3851 46.7698 57.3242 47.1967C57.2626 47.6234 57.0343 48.0082 56.6894 48.2669C56.3445 48.5256 55.9111 48.637 55.4842 48.5767C55.0573 48.515 54.6723 48.2866 54.4136 47.9415C54.1549 47.5964 54.0437 47.1627 54.1042 46.7357C54.1656 46.3087 54.394 45.9235 54.7392 45.6648C55.0844 45.406 55.5181 45.2949 55.9452 45.3557ZM51.7152 43.5497C51.7769 43.1228 52.0053 42.7378 52.3504 42.4791C52.6956 42.2204 53.1292 42.1091 53.5562 42.1697C53.9831 42.2313 54.3681 42.4598 54.6268 42.8049C54.8855 43.15 54.9968 43.5837 54.9362 44.0107C54.8743 44.4375 54.6458 44.8223 54.3008 45.081C53.9557 45.3396 53.5222 45.451 53.0952 45.3907C52.6683 45.329 52.2833 45.1006 52.0246 44.7555C51.7659 44.4104 51.6547 43.9767 51.7152 43.5497ZM48.5292 45.9387C48.5909 45.5118 48.8193 45.1268 49.1644 44.8681C49.5096 44.6094 49.9432 44.4981 50.3702 44.5587C50.7971 44.6203 51.1821 44.8488 51.4408 45.1939C51.6995 45.539 51.8108 45.9727 51.7502 46.3997C51.6883 46.8265 51.4598 47.2113 51.1148 47.47C50.7697 47.7286 50.3362 47.84 49.9092 47.7797C49.4819 47.7183 49.0965 47.4898 48.8376 47.1444C48.5787 46.7991 48.4674 46.365 48.5282 45.9377L48.5292 45.9387ZM25.4512 41.3327C25.4728 41.1821 25.5532 41.0462 25.6749 40.9549C25.7966 40.8635 25.9496 40.8243 26.1002 40.8457L28.0872 41.1307L28.3712 39.1447C28.3818 39.0701 28.4069 38.9983 28.4453 38.9335C28.4836 38.8686 28.5344 38.812 28.5947 38.7668C28.655 38.7217 28.7237 38.6889 28.7967 38.6703C28.8697 38.6518 28.9457 38.6478 29.0202 38.6587L31.5742 39.0237C31.7247 39.0455 31.8603 39.126 31.9514 39.2477C32.0425 39.3694 32.0816 39.5222 32.0602 39.6727L31.7762 41.6587L33.7622 41.9427C33.8368 41.9534 33.9085 41.9786 33.9733 42.017C34.038 42.0554 34.0946 42.1062 34.1397 42.1665C34.1849 42.2267 34.2177 42.2953 34.2363 42.3683C34.2549 42.4412 34.259 42.5172 34.2482 42.5917L33.8832 45.1457C33.8726 45.2202 33.8473 45.2919 33.8089 45.3567C33.7705 45.4215 33.7197 45.4781 33.6595 45.5232C33.5992 45.5683 33.5306 45.6012 33.4576 45.6198C33.3847 45.6384 33.3088 45.6424 33.2342 45.6317L31.2482 45.3467L30.9632 47.3337C30.9417 47.484 30.8613 47.6197 30.7398 47.7108C30.6183 47.802 30.4656 47.8411 30.3152 47.8197L27.7612 47.4547C27.611 47.4329 27.4755 47.3525 27.3844 47.231C27.2934 47.1096 27.2541 46.957 27.2752 46.8067L27.5602 44.8197L25.5732 44.5357C25.4228 44.5139 25.2872 44.4333 25.1961 44.3117C25.1049 44.19 25.0658 44.0372 25.0872 43.8867L25.4512 41.3327Z" fill="#00CD26"/>
<path d="M41.645 81.788C63.8165 81.788 81.79 63.8149 81.79 41.644C81.79 19.4731 63.8165 1.5 41.645 1.5C19.4735 1.5 1.5 19.4731 1.5 41.644C1.5 63.8149 19.4735 81.788 41.645 81.788Z" stroke="#00CB24" stroke-width="3"/>
</g>
<defs>
<clipPath id="clip0">
<rect width="83.289" height="83.289" fill="white"/>
</clipPath>
</defs>
</svg>
