<svg xmlns="http://www.w3.org/2000/svg" width="88.814" height="88.823" viewBox="0 0 88.814 88.823">
  <path id="home" d="M86.928,38.633l-.007-.007L50.689,2.395a8.176,8.176,0,0,0-11.564,0L2.911,38.608l-.037.037A8.173,8.173,0,0,0,8.315,52.576c.084.008.168.012.253.012h1.443V79.252a9.581,9.581,0,0,0,9.571,9.57H33.758a2.6,2.6,0,0,0,2.6-2.6v-20.9a4.371,4.371,0,0,1,4.367-4.366h8.361a4.371,4.371,0,0,1,4.366,4.366v20.9a2.6,2.6,0,0,0,2.6,2.6H70.231a9.581,9.581,0,0,0,9.571-9.57V52.589h1.339a8.178,8.178,0,0,0,5.787-13.956Zm-3.685,7.88a2.954,2.954,0,0,1-2.1.871H77.2a2.6,2.6,0,0,0-2.6,2.6V79.252a4.371,4.371,0,0,1-4.366,4.366H58.658v-18.3a9.581,9.581,0,0,0-9.571-9.571H40.727a9.582,9.582,0,0,0-9.571,9.571v18.3H19.582a4.371,4.371,0,0,1-4.366-4.366V49.987a2.6,2.6,0,0,0-2.6-2.6H8.74c-.041,0-.081,0-.122-.005a2.969,2.969,0,0,1-2.047-5.071h0l0,0L42.806,6.075a2.971,2.971,0,0,1,4.2,0L83.232,42.3l.017.016a2.979,2.979,0,0,1-.005,4.2Zm0,0" transform="translate(-0.5 0.001)" fill="#00cb24"/>
</svg>
