<svg width="50" height="50" viewBox="0 0 50 50" fill="none" xmlns="http://www.w3.org/2000/svg">
<path d="M25 1.32666C31.3652 1.32666 37.4697 3.85523 41.9706 8.3561C46.4714 12.857 49 18.9615 49 25.3267C49 30.0734 47.5924 34.7136 44.9553 38.6603C42.3181 42.6071 38.5698 45.6833 34.1844 47.4998C29.799 49.3163 24.9734 49.7916 20.3178 48.8655C15.6623 47.9395 11.3859 45.6537 8.02945 42.2972C4.67299 38.9408 2.38721 34.6644 1.46117 30.0088C0.535121 25.3533 1.01039 20.5277 2.8269 16.1423C4.6434 11.7568 7.71954 8.00855 11.6663 5.3714C15.6131 2.73424 20.2533 1.32666 25 1.32666Z" stroke="white" stroke-width="0.91557"/>
<path d="M24.9999 2.64294C31.016 2.64294 36.7857 5.03284 41.0398 9.28687C45.2938 13.5409 47.6837 19.3106 47.6837 25.3267C47.6837 29.8131 46.3533 34.1988 43.8608 37.9291C41.3682 41.6594 37.8255 44.5669 33.6806 46.2838C29.5357 48.0006 24.9748 48.4498 20.5745 47.5746C16.1743 46.6993 12.1325 44.5389 8.96008 41.3665C5.7877 38.1941 3.62729 34.1523 2.75203 29.7521C1.87678 25.3519 2.32599 20.7909 4.04287 16.646C5.75975 12.5011 8.66719 8.95837 12.3975 6.46585C16.1278 3.97332 20.5135 2.64294 24.9999 2.64294V2.64294Z" stroke="white" stroke-width="0.343213"/>
<path d="M40.9149 13.897L40.8039 14.4891L40.8038 14.4894L40.8007 14.5061L40.7964 14.5226C40.045 17.4223 39.5705 20.2712 39.3596 23.072H41.4761H41.9761V23.572V26.5322V27.0322H41.4761H39.2364C39.2372 27.0925 39.2381 27.1528 39.2392 27.2131H41.4761H41.9761V27.7131V30.6734V31.1734H41.4761H39.4869C39.7394 33.5075 40.1779 35.8095 40.7949 38.0809L40.9663 38.7119H40.3124H40.2959H40.2794H40.2628H40.2463H40.2298H40.2133H40.1968H40.1803H40.1638H40.1473H40.1307H40.1142H40.0977H40.0812H40.0647H40.0482H40.0317H40.0152H39.9986H39.9821H39.9656H39.9491H39.9326H39.9161H39.8996H39.8831H39.8665H39.85H39.8335H39.817H39.8005H39.784H39.7675H39.751H39.7344H39.7179H39.7014H39.6849H39.6684H39.6519H39.6354H39.6189H39.6023H39.5858H39.5693H39.5528H39.5363H39.5198H39.5033H39.4868H39.4702H39.4537H39.4372H39.4207H39.4042H39.3877H39.3712H39.3547H39.3382H39.3216H39.3051H39.2886H39.2721H39.2556H39.2391H39.2226H39.2061H39.1895H39.173H39.1565H39.14H39.1235H39.107H39.0905H39.074H39.0574H39.0409H39.0244H39.0079H38.9914H38.9749H38.9584H38.9419H38.9253H38.9088H38.8923H38.8758H38.8593H38.8428H38.8263H38.8098H38.7932H38.7767H38.7602H38.7437H38.7272H38.7107H38.6942H38.6777H38.6611H38.6446H38.6281H38.6116H38.5951H38.5786H38.5621H38.5456H38.529H38.5125H38.496H38.4795H38.463H38.4465H38.43H38.4135H38.3969H38.3804H38.3639H38.3474H38.3309H38.3144H38.2979H38.2814H38.2648H38.2483H38.2318H38.2153H38.1988H38.1823H38.1658H38.1493H38.1327H38.1162H38.0997H38.0832H38.0667H38.0502H38.0337H38.0172H38.0006H37.9841H37.9676H37.9511H37.9346H37.9181H37.9016H37.8851H37.8685H37.852H37.8355H37.819H37.8025H37.786H37.7695H37.753H37.7364H37.7199H37.7034H37.6869H37.6704H37.6539H37.6374H37.6209H37.6043H37.5878H37.5713H37.5548H37.5383H37.5218H37.5053H37.4888H37.4722H37.4557H37.4392H37.4227H37.4062H37.3897H37.3732H37.3567H37.3402H37.3236H37.3071H37.2906H37.2741H37.2576H37.2411H37.2246H37.2081H37.1915H37.175H37.1585H37.142H37.1255H37.109H37.0925H37.076H37.0594H37.0429H37.0264H37.0099H36.9934H36.9769H36.9604H36.9439H36.9273H36.9108H36.8943H36.8778H36.8613H36.8448H36.8283H36.8118H36.7952H36.7787H36.7622H36.7457H36.7292H36.7127H36.6962H36.6797H36.6631H36.6466H36.6301H36.6136H36.5971H36.5806H36.5641H36.5476H36.531H36.5145H36.498H36.4815H36.465H36.4485H36.432H36.4155H36.3989H36.3824H36.3659H36.3494H36.3329H36.3164H36.2999H36.2834H36.2668H36.2503H36.2338H36.2173H36.2008H36.1843H36.1678H36.1513H36.1347H36.1182H36.1017H36.0852H36.0687H36.0522H36.0357H36.0192H36.0026H35.9861H35.9696H35.9531H35.9366H35.9201H35.9036H35.8871H35.8705H35.854H35.8375H35.821H35.8045H35.788H35.7715H35.755H35.7384H35.7219H35.7054H35.6889H35.6724H35.6559H35.6394H35.6229H35.6063H35.5898H35.5733H35.5568H35.5403H35.5238H35.5073H35.4908H35.4742H35.4577H35.4412H35.4247H35.4082H35.3917H35.3752H35.3587H35.3421H35.3256H35.3091H35.2926H35.2761H35.2596H35.2431H35.2266H35.21H35.1935H35.177H35.1605H35.144H35.1275H35.111H35.0945H35.0779H35.0614H35.0449H35.0284H35.0119H34.9954H34.9789H34.9624H34.9458H34.9293H34.9128H34.8963H34.8798H34.8633H34.8468H34.8303H34.8137H34.7972H34.7807H34.7642H34.7477H34.7312H34.7147H34.6982H34.6817H34.6651H34.6486H34.6321H34.6156H34.5991H34.5826H34.5661H34.5496H34.533H34.5165H34.5H34.4835H34.467H34.4505H34.434H34.4175H34.4009H34.3844H34.3679H34.3514H34.3349H34.3184H34.3019H34.2854H34.2688H34.2523H34.2358H34.2193H34.2028H34.1863H34.1698H34.1533H34.1367H34.1202H34.1037H34.0872H34.0707H34.0542H34.0377H34.0212H34.0046H33.9881H33.9716H33.9551H33.9386H33.9221H33.9056H33.8891H33.8725H33.856H33.8395H33.823H33.8065H33.79H33.7735H33.757H33.7404H33.7239H33.7074H33.6909H33.6744H33.6579H33.6414H33.6249H33.6083H33.5918H33.5753H33.5588H33.5423H33.5258H33.5093H33.4928H33.4762H33.4597H33.4432H33.4267H33.4102H33.3937H33.3772H33.3607H33.3441H33.3276H33.3111H33.2946H33.2781H33.2616H33.2451H33.2286H33.212H33.1955H33.179H33.1625H33.146H33.1295H33.113H33.0965H33.0799H33.0634H33.0469H33.0304H33.0139H32.9974H32.9809H32.9644H32.9478H32.9313H32.9148H32.8983H32.8818H32.8653H32.8488H32.8323H32.8158H32.7992H32.7827H32.7662H32.7497H32.7332H32.7167H32.7002H32.6837H32.6671H32.6506H32.6341H32.6176H32.6011H32.5846H32.5681H32.5516H32.535H32.5185H32.502H32.4855H32.469H32.4525H32.436H32.4195H32.4029H32.3864H32.3699H32.3534H32.3369H32.3204H32.3039H32.2874H32.2708H32.2543H32.2378H32.2213H32.2048H32.1883H32.1718H32.1553H32.1387H32.1222H32.1057H32.0892H32.0727H32.0562H32.0397H32.0232H32.0066H31.9901H31.9736H31.9571H31.9406H31.9241H31.9076H31.8911H31.8745H31.858H31.358V38.2119V31.1068L26.7106 38.4785L26.5634 38.7119H26.2876H25.7952H25.3251H25.0517L24.9042 38.4818L20.2454 31.2155V38.2119V38.7119H19.7454H19.7289H19.7123H19.6958H19.6793H19.6628H19.6463H19.6298H19.6133H19.5968H19.5803H19.5637H19.5472H19.5307H19.5142H19.4977H19.4812H19.4647H19.4482H19.4316H19.4151H19.3986H19.3821H19.3656H19.3491H19.3326H19.3161H19.2995H19.283H19.2665H19.25H19.2335H19.217H19.2005H19.184H19.1674H19.1509H19.1344H19.1179H19.1014H19.0849H19.0684H19.0519H19.0353H19.0188H19.0023H18.9858H18.9693H18.9528H18.9363H18.9198H18.9032H18.8867H18.8702H18.8537H18.8372H18.8207H18.8042H18.7877H18.7711H18.7546H18.7381H18.7216H18.7051H18.6886H18.6721H18.6556H18.639H18.6225H18.606H18.5895H18.573H18.5565H18.54H18.5235H18.507H18.4904H18.4739H18.4574H18.4409H18.4244H18.4079H18.3914H18.3749H18.3583H18.3418H18.3253H18.3088H18.2923H18.2758H18.2593H18.2428H18.2262H18.2097H18.1932H18.1767H18.1602H18.1437H18.1272H18.1107H18.0941H18.0776H18.0611H18.0446H18.0281H18.0116H17.9951H17.9786H17.962H17.9455H17.929H17.9125H17.896H17.8795H17.863H17.8465H17.8299H17.8134H17.7969H17.7804H17.7639H17.7474H17.7309H17.7144H17.6978H17.6813H17.6648H17.6483H17.6318H17.6153H17.5988H17.5823H17.5658H17.5492H17.5327H17.5162H17.4997H17.4832H17.4667H17.4502H17.4337H17.4171H17.4006H17.3841H17.3676H17.3511H17.3346H17.3181H17.3016H17.285H17.2685H17.252H17.2355H17.219H17.2025H17.186H17.1695H17.1529H17.1364H17.1199H17.1034H17.0869H17.0704H17.0539H17.0374H17.0208H17.0043H16.9878H16.9713H16.9548H16.9383H16.9218H16.9053H16.8887H16.8722H16.8557H16.8392H16.8227H16.8062H16.7897H16.7732H16.7566H16.7401H16.7236H16.7071H16.6906H16.6741H16.6576H16.6411H16.6245H16.608H16.5915H16.575H16.5585H16.542H16.5255H16.509H16.4924H16.4759H16.4594H16.4429H16.4264H16.4099H16.3934H16.3769H16.3604H16.3438H16.3273H16.3108H16.2943H16.2778H16.2613H16.2448H16.2283H16.2117H16.1952H16.1787H16.1622H16.1457H16.1292H16.1127H16.0962H16.0796H16.0631H16.0466H16.0301H16.0136H15.9971H15.9806H15.9641H15.9475H15.931H15.9145H15.898H15.8815H15.865H15.8485H15.832H15.8154H15.7989H15.7824H15.7659H15.7494H15.7329H15.7164H15.6999H15.6833H15.6668H15.6503H15.6338H15.6173H15.6008H15.5843H15.5678H15.5512H15.5347H15.5182H15.5017H15.4852H15.4687H15.4522H15.4357H15.4191H15.4026H15.3861H15.3696H15.3531H15.3366H15.3201H15.3036H15.287H15.2705H15.254H15.2375H15.221H15.2045H15.188H15.1715H15.1549H15.1384H15.1219H15.1054H15.0889H15.0724H15.0559H15.0394H15.0228H15.0063H14.9898H14.9733H14.9568H14.9403H14.9238H14.9073H14.8907H14.8742H14.8577H14.8412H14.8247H14.8082H14.7917H14.7752H14.7587H14.7421H14.7256H14.7091H14.6926H14.6761H14.6596H14.6431H14.6266H14.61H14.5935H14.577H14.5605H14.544H14.5275H14.511H14.4945H14.4779H14.4614H14.4449H14.4284H14.4119H14.3954H14.3789H14.3624H14.3458H14.3293H14.3128H14.2963H14.2798H14.2633H14.2468H14.2303H14.2137H14.1972H14.1807H14.1642H14.1477H14.1312H14.1147H14.0982H14.0816H14.0651H14.0486H14.0321H14.0156H13.9991H13.9826H13.9661H13.9495H13.933H13.9165H13.9H13.8835H13.867H13.8505H13.834H13.8174H13.8009H13.7844H13.7679H13.7514H13.7349H13.7184H13.7019H13.6853H13.6688H13.6523H13.6358H13.6193H13.6028H13.5863H13.5698H13.5532H13.5367H13.5202H13.5037H13.4872H13.4707H13.4542H13.4377H13.4211H13.4046H13.3881H13.3716H13.3551H13.3386H13.3221H13.3056H13.289H13.2725H13.256H13.2395H13.223H13.2065H13.19H13.1735H13.1569H13.1404H13.1239H13.1074H13.0909H13.0744H13.0579H13.0414H13.0248H13.0083H12.9918H12.9753H12.9588H12.9423H12.9258H12.9093H12.8927H12.8762H12.8597H12.8432H12.8267H12.8102H12.7937H12.7772H12.7606H12.7441H12.7276H12.7111H12.6946H12.6781H12.6616H12.6451H12.6285H12.612H12.5955H12.579H12.5625H12.546H12.5295H12.513H12.4964H12.4799H12.4634H12.4469H12.4304H12.4139H12.3974H12.3809H12.3643H12.3478H12.3313H12.3148H12.2983H12.2818H12.2653H12.2488H12.2322H12.2157H12.1992H12.1827H12.1662H12.1497H12.1332H12.1167H12.1001H12.0836H12.0671H12.0506H12.0341H12.0176H12.0011H11.9846H11.968H11.9515H11.935H11.9185H11.902H11.8855H11.869H11.8525H11.8359H11.8194H11.8029H11.7864H11.7699H11.7534H11.7369H11.7204H11.7038H11.6873H11.6708H11.6543H11.6378H11.6213H11.6048H11.5883H11.5717H11.5552H11.5387H11.5222H11.5057H11.4892H11.4727H11.4562H11.4396H11.4231H11.4066H11.3901H11.3736H11.3571H11.3406H11.3241H11.3075H11.291H10.6371L10.8085 38.0808C11.4255 35.8094 11.8639 33.5074 12.1163 31.1733H10.1382H9.63817V30.6733V27.7131V27.2131H10.1382H12.364C12.3651 27.1528 12.366 27.0925 12.3668 27.0322H10.1382H9.63817V26.5322V23.5719V23.0719H10.1382H12.2434C12.1423 21.7298 11.9808 20.3767 11.7572 19.0123C11.6255 19.0176 11.4487 19.0325 11.2619 19.0631C10.9882 19.1078 10.746 19.1779 10.5943 19.2656L10.5872 19.2696L10.5872 19.2696C10.2908 19.4343 10.1315 19.5741 10.0401 19.6744C9.9653 19.7564 9.92961 19.8161 9.88421 19.892C9.87284 19.911 9.86086 19.931 9.8475 19.9527L40.9149 13.897ZM40.9149 13.897H40.3124H32.5068H31.8581H29.3285H28.9464L28.8461 14.2657L25.8195 25.3895M40.9149 13.897L25.8195 25.3895M25.8195 25.3895L25.813 25.3894L22.6127 14.259L22.5086 13.8971H22.1321H19.7454H19.0982H17.9549C16.4796 12.3756 14.5753 11.9661 13.0745 11.9432C12.295 11.9313 11.6083 12.0229 11.1175 12.1258C10.8729 12.1772 10.6698 12.2328 10.5236 12.2829C10.4537 12.3068 10.381 12.3348 10.3196 12.3665C10.2953 12.3791 10.2373 12.4098 10.1813 12.4606C10.1572 12.4825 10.09 12.546 10.0474 12.6519C9.99193 12.7899 9.98775 12.9887 10.1206 13.1557L10.1207 13.1558C10.2263 13.2886 10.362 13.3274 10.4081 13.339C10.4651 13.3533 10.5153 13.3564 10.5401 13.3575C10.5804 13.3594 10.6309 13.3582 10.6626 13.3575C10.6685 13.3574 10.6737 13.3573 10.6781 13.3572C10.7555 13.3558 10.8368 13.3564 10.929 13.372C11.032 13.3895 11.1649 13.4284 11.3144 13.5272C11.181 13.5145 11.0371 13.5101 10.8828 13.5169L10.8559 13.5181L10.8292 13.5221C9.13454 13.7817 7.98568 15.1605 8.02489 16.7088L8.02491 16.7094L8.02493 16.7103C8.02532 16.7256 8.02701 16.7915 8.05553 16.869C8.07438 16.9135 8.13997 17.0156 8.19076 17.0684C8.27115 17.1272 8.46121 17.1923 8.56348 17.1948C8.64088 17.1827 8.76231 17.1363 8.80663 17.1093C8.83427 17.089 8.87737 17.0509 8.89353 17.034C8.92382 17.001 8.94266 16.9712 8.94927 16.9606C8.96437 16.9364 8.97406 16.916 8.97656 16.9108L8.97667 16.9105C8.98054 16.9024 8.98342 16.8958 8.98484 16.8924L8.99058 16.8786L8.99271 16.8733L8.99686 16.8631C8.99986 16.8561 9.00562 16.8436 9.01479 16.8275C9.03369 16.7945 9.06435 16.7515 9.11028 16.7129C9.17446 16.659 9.33136 16.5579 9.69214 16.622C9.2856 17.0398 9.05911 17.5317 8.9449 18.1225L8.94473 18.1225L8.94254 18.1357C8.83106 18.8086 8.80979 19.2412 8.83366 19.5148C8.84452 19.6393 8.86865 19.7869 8.937 19.9123C8.96202 19.9582 9.0546 20.1192 9.26076 20.1798C9.38289 20.2157 9.51722 20.2061 9.63664 20.1463C9.74588 20.0916 9.81142 20.0112 9.84748 19.9527L25.8195 25.3895ZM10.1678 16.2305C10.2673 16.2654 10.3036 16.2927 10.3554 16.3317C10.3834 16.3528 10.4158 16.3772 10.4651 16.4081C10.6295 16.511 10.5657 16.5558 10.4317 16.6497C10.4062 16.6676 10.3782 16.6872 10.3487 16.7093C10.2976 16.7479 10.249 16.7871 10.2028 16.8272L10.3093 16.6571L10.3093 16.6569L10.4649 16.4085L10.3093 16.6569L10.3092 16.657L10.2026 16.8273C10.2014 16.8284 10.2002 16.8294 10.199 16.8305C10.1974 16.8292 10.1956 16.8277 10.1936 16.8259C10.1829 16.8165 10.1481 16.7845 10.1168 16.7274C10.0816 16.663 10.0544 16.5723 10.0658 16.467C10.07 16.4285 10.0786 16.3945 10.0891 16.3651C10.0892 16.3649 10.0893 16.3646 10.0894 16.3643C10.1059 16.3184 10.127 16.2839 10.1427 16.2619C10.1517 16.2493 10.1604 16.2388 10.1678 16.2305Z" stroke="white"/>
</svg>
