<svg width="424" height="272" viewBox="0 0 424 272" fill="none" xmlns="http://www.w3.org/2000/svg">
<g opacity="0.9">
<path d="M404.089 256.64H397.789V254.84H402.289V250.34H404.089V256.64Z" fill="#00CC25"/>
<path d="M387.211 256.64H376.641V254.84H387.211V256.64ZM366.071 256.64H355.491V254.84H366.071V256.64ZM344.921 256.64H334.351V254.84H344.921V256.64ZM323.781 256.64H313.201V254.84H323.781V256.64ZM302.631 256.64H292.061V254.84H302.631V256.64ZM281.481 256.64H270.911V254.84H281.481V256.64ZM260.341 256.64H249.771V254.84H260.341V256.64ZM239.191 256.64H228.621V254.84H239.191V256.64ZM218.051 256.64H207.481V254.84H218.051V256.64ZM196.901 256.64H186.331V254.84H196.901V256.64ZM175.761 256.64H165.181V254.84H175.761V256.64ZM154.611 256.64H144.001V254.84H154.571L154.611 256.64ZM133.471 256.64H122.891V254.84H133.471V256.64ZM112.321 256.64H101.751V254.84H112.321V256.64ZM91.1805 256.64H80.6005V254.84H91.1805V256.64ZM70.0305 256.64H59.4605V254.84H70.0005L70.0305 256.64ZM48.8805 256.64H38.3105V254.84H48.8805V256.64Z" fill="#00CC25"/>
<path d="M27.7395 256.64H21.4395V250.34H23.2395V254.84H27.7395V256.64Z" fill="#00CC25"/>
<path d="M23.8 246H22V235.532H23.8V246ZM23.8 225.054H22V214.576H23.8V225.054ZM23.8 204.107H22V193.629H23.8V204.107ZM23.8 183.151H22V172.683H23.8V183.151ZM23.8 162.205H22V151.727H23.8V162.205ZM23.8 141.258H22V130.78H23.8V141.258ZM23.8 120.302H22V109.834H23.8V120.302ZM23.8 99.356H22V88.8877H23.8V99.356ZM23.8 78.4096H22V67.9316H23.8V78.4096ZM23.8 57.4633H22V46.9852H23.8V57.4633ZM23.8 36.5072H22V26H23.8V36.5072Z" fill="#00CC25"/>
<path d="M23.2395 22.2492H21.4395V15.9492H27.7395V17.7492H23.2395V22.2492Z" fill="#00CC25"/>
<path d="M387.211 17.75H376.641V16H387.211V17.75ZM366.071 17.75H355.491V16H366.071V17.75ZM344.921 17.75H334.351V16H344.921V17.75ZM323.781 17.75H313.201V16H323.781V17.75ZM302.631 17.75H292.061V16H302.631V17.75ZM281.481 17.75H270.911V16H281.481V17.75ZM260.341 17.75H249.771V16H260.341V17.75ZM239.191 17.75H228.621V16H239.191V17.75ZM218.051 17.75H207.481V16H218.051V17.75ZM196.901 17.75H186.331V16H196.901V17.75ZM175.761 17.75H165.181V16H175.761V17.75ZM154.611 17.75H144.001V16H154.571L154.611 17.75ZM133.471 17.75H122.891V16H133.471V17.75ZM112.321 17.75H101.751V16H112.321V17.75ZM91.1805 17.75H80.6005V16H91.1805V17.75ZM70.0005 17.75H59.4605V16H70.0005V17.75ZM48.8505 17.75H38.3105V16H48.8805L48.8505 17.75Z" fill="#00CC25"/>
<path d="M404.089 22.2492H402.289V17.7492H397.789V15.9492H404.089V22.2492Z" fill="#00CC25"/>
<path d="M404.089 247H402.289V236.532H404.089V247ZM404.089 226.054H402.289V215.576H404.089V226.054ZM404.089 205.107H402.289V194.629H404.089V205.107ZM404.089 184.151H402.289V173.683H404.089V184.151ZM404.089 163.205H402.289V152.727H404.089V163.205ZM404.089 142.258H402.289V131.78H404.089V142.258ZM404.089 121.302H402.289V110.834H404.089V121.302ZM404.089 100.356H402.289V89.878H404.089V100.356ZM404.089 79.4096H402.289V68.9316H404.089V79.4096ZM404.089 58.4535H402.289V47.9852H404.089V58.4535ZM404.089 37.5072H402.289V27H404.089V37.5072Z" fill="#00CC25"/>
<path d="M377.41 110.68H365.71V108.88H375.61V99.8803H377.41V110.68ZM354.9 110.68H344.1V108.88H354.9V110.68ZM333.3 110.68H322.49V108.88H333.3V110.68ZM311.69 110.68H300.88V108.88H311.69V110.68ZM290.08 110.68H279.28V108.88H290.08V110.68ZM268.47 110.68H257.67V108.88H268.47V110.68ZM246.87 110.68H236.06V108.88H246.87V110.68ZM225.26 110.68H214.46V108.88H225.26V110.68ZM203.65 110.68H192.85V108.88H203.65V110.68ZM182.05 110.68H171.24V108.88H182.05V110.68ZM160.44 110.68H149.64V108.88H160.44V110.68ZM138.83 110.68H128V108.88H138.8L138.83 110.68ZM117.22 110.68H106.42V108.88H117.22V110.68ZM95.6199 110.68H84.8099V108.88H95.6199V110.68ZM80.2199 104.48H78.4199V93.6703H80.2199V104.48ZM377.41 89.1103H375.61V78.3103H377.41V89.1103ZM80.2199 82.8703H78.4199V72.0603H80.2199V82.8703ZM377.41 67.5003H375.61V56.7003H377.41V67.5003ZM80.2199 61.2603H78.4199V50.4603H80.2199V61.2603ZM377.41 45.9003H375.61V35.0903H377.41V45.9003ZM80.2199 39.6503H78.4199V33.8203H85.1899V35.6203H80.1899L80.2199 39.6503ZM366.08 35.6503H355.28V33.8503H366.08V35.6503ZM344.47 35.6503H333.67V33.8503H344.47V35.6503ZM322.87 35.6503H312.06V33.8503H322.87V35.6503ZM301.26 35.6503H290.45V33.8503H301.26V35.6503ZM279.65 35.6503H268.85V33.8503H279.65V35.6503ZM258.04 35.6503H247.24V33.8503H258L258.04 35.6503ZM236.44 35.6503H225.63V33.8503H236.44V35.6503ZM214.83 35.6503H204V33.8503H214.8L214.83 35.6503ZM193.22 35.6503H182.42V33.8503H193.22V35.6503ZM171.62 35.6503H160.81V33.8503H171.62V35.6503ZM150.01 35.6503H139.2V33.8503H150L150.01 35.6503ZM128.4 35.6503H117.6V33.8503H128.4V35.6503ZM106.79 35.6503H95.9999V33.8503H106.8L106.79 35.6503Z" fill="#00CC25"/>
<path d="M241.37 210.13H230.57V208.33H241.37V210.13ZM219.76 210.13H209V208.33H219.8L219.76 210.13ZM198.16 210.13H187.35V208.33H198.16V210.13ZM176.55 210.13H165.75V208.33H176.55V210.13ZM154.94 210.13H144.14V208.33H154.94V210.13ZM133.34 210.13H122.53V208.33H133.34V210.13ZM111.73 210.13H100.92V208.33H111.73V210.13ZM90.1203 210.13H79.3203V208.33H90.1203V210.13Z" fill="#00CC25"/>
</g>
</svg>
