<svg id="Layer_1" data-name="Layer 1" xmlns="http://www.w3.org/2000/svg" viewBox="0 0 518.23 322.47"><defs><style>.cls-1{fill:#00cc25;}</style></defs><path class="cls-1" d="M257,196.08l-1.1-.93a31.21,31.21,0,0,1,3.36-3.43c7.23-6.3,16-9.07,28.47-8.94h.89c.49,0,.91,0,1.64,0l-.07,1.45c-.7,0-1.09,0-1.55,0h-.92c-12.09-.11-20.56,2.54-27.51,8.59A29.25,29.25,0,0,0,257,196.08Z"/><path class="cls-1" d="M285.4,131.19c-14.19,0-21.42-4.5-27.08-9.43a31.21,31.21,0,0,1-3.36-3.43l1.1-.93a29.25,29.25,0,0,0,3.21,3.27c6.8,5.92,14.42,9.72,29.57,9l.07,1.44Q287.09,131.19,285.4,131.19Z"/><path class="cls-1" d="M317.14,119c-1.38-.92-2.85-2.27-2-4.63,1.37-3.9,4.6-4.27,8-4.66a35.53,35.53,0,0,0,3.67-.56c.78-.32,1.66-.72,2.6-1.16,5.27-2.43,13.23-6.11,17.82-.76a3.31,3.31,0,0,1,.77,2.55,7.36,7.36,0,0,1-3.12,4.69l-.85-1.08c1.56-1.22,2.49-2.55,2.6-3.74a2,2,0,0,0-.44-1.52c-3.92-4.57-11-1.29-16.21,1.11-1,.45-1.89.87-2.7,1.2l-.11,0a33.49,33.49,0,0,1-3.87.6c-3.36.39-5.79.67-6.87,3.76-.37,1-.24,1.88,1.49,3Z"/><path class="cls-1" d="M340.9,207.49c-3.91,0-8.23-2-11.51-3.51-.94-.43-1.82-.84-2.6-1.16a35.53,35.53,0,0,0-3.67-.56c-3.41-.39-6.64-.76-8-4.66-.62-1.8-.05-3.19,1.87-4.52l.78,1.13c-1.59,1.1-1.7,1.94-1.35,2.94,1.08,3.09,3.51,3.36,6.87,3.75a33.49,33.49,0,0,1,3.87.6l.11,0c.81.33,1.73.76,2.71,1.21,5.18,2.39,12.28,5.67,16.2,1.11a2,2,0,0,0,.45-1.51,6,6,0,0,0-2.52-3.69l.85-1.07a7.22,7.22,0,0,1,3,4.63,3.35,3.35,0,0,1-.77,2.53A7.9,7.9,0,0,1,340.9,207.49Z"/><path class="cls-1" d="M347.85,198.84c-1.24,0-2.47,0-3.69-.05a89,89,0,0,1-12.4-1,66.25,66.25,0,0,1-7.23-1.82,34.9,34.9,0,0,0-7.69-1.68c-1.35-.08-2.71-.13-4-.18-5.43-.19-10.56-.38-14.87-2.47-3.25-1.57-6-5.21-8.62-8.72-1.18-1.57-2.29-3-3.41-4.29s-2-2.15-2.86-3.08a45.91,45.91,0,0,1-4-4.58,18.36,18.36,0,0,1-2.9-5.84c-1-3.31-1-14.87,0-18.19a18.36,18.36,0,0,1,2.9-5.84,47.06,47.06,0,0,1,4-4.58c.89-.93,1.84-1.93,2.87-3.08s2.23-2.72,3.41-4.29c2.64-3.51,5.37-7.15,8.62-8.72,4.31-2.09,9.44-2.28,14.87-2.48,1.34,0,2.7-.09,4-.17a35.48,35.48,0,0,0,7.69-1.68,66.25,66.25,0,0,1,7.23-1.82,88.88,88.88,0,0,1,12.4-1c3.58-.11,7.23-.06,10.85.14,24.46,1.36,49.5,7,49.85,38.69,0,.49,0,1,0,1.49s0,1.07,0,1.61l0,.85,0,.79q0,.83,0,1.62c0,.5,0,1,0,1.49-.35,31.67-25.39,37.33-49.85,38.69C352.63,198.78,350.23,198.84,347.85,198.84Zm0-84.25c-1.22,0-2.44,0-3.65.06a86,86,0,0,0-12.2,1,63,63,0,0,0-7.08,1.79,36.67,36.67,0,0,1-8,1.73c-1.36.08-2.73.13-4.08.18-5.28.19-10.27.37-14.32,2.33-2.95,1.43-5.58,4.93-8.13,8.32-1.19,1.59-2.32,3.09-3.48,4.38s-2,2.17-2.89,3.1a43.84,43.84,0,0,0-3.9,4.45,17,17,0,0,0-2.7,5.43c-.94,3.09-.94,14.3,0,17.39a17,17,0,0,0,2.69,5.42h0a43.84,43.84,0,0,0,3.9,4.45c.89.93,1.85,1.94,2.89,3.1s2.29,2.79,3.48,4.38c2.55,3.39,5.18,6.89,8.13,8.32,4.05,2,9,2.14,14.32,2.33,1.35,0,2.72.1,4.08.18a36.09,36.09,0,0,1,8,1.73,65.79,65.79,0,0,0,7.08,1.79,89.31,89.31,0,0,0,12.19,1c3.56.1,7.17.06,10.75-.14,25-1.39,48.21-6.88,48.55-37.33,0-.48,0-1,0-1.46s0-1.05,0-1.59l0-.84,0-.9c0-.53,0-1.06,0-1.58s0-1,0-1.46c-.34-30.45-23.53-35.94-48.55-37.33C352.58,114.66,350.21,114.59,347.85,114.59Z"/><polygon class="cls-1" points="499.9 301.45 492.64 301.45 492.64 299.38 497.82 299.38 497.82 294.19 499.9 294.19 499.9 301.45"/><path class="cls-1" d="M480,301.45H467.39v-2.07H480Zm-25.25,0H442.15v-2.07h12.62Zm-25.24,0H416.9v-2.07h12.63Zm-25.25,0H391.66v-2.07h12.62Zm-25.25,0H366.41v-2.07H379Zm-25.24,0H341.17v-2.07h12.62Zm-25.25,0H315.92v-2.07h12.62Zm-25.24,0H290.67v-2.07H303.3Zm-25.25,0H265.43v-2.07h12.62Zm-25.24,0H240.18v-2.07h12.63Zm-25.25,0H214.94v-2.07h12.62Zm-25.25,0H189.69v-2.07h12.62Zm-25.24,0H164.45v-2.07h12.62Zm-25.25,0H139.2v-2.07h12.62Zm-25.24,0H114v-2.07h12.63Zm-25.25,0H88.71v-2.07h12.62Zm-25.24,0H63.46v-2.07H76.09Zm-25.25,0H38.22v-2.07H50.84Z"/><polygon class="cls-1" points="25.59 301.45 18.34 301.45 18.34 294.19 20.41 294.19 20.41 299.38 25.59 299.38 25.59 301.45"/><path class="cls-1" d="M20.41,281.53H18.34V268.87h2.07Zm0-25.33H18.34V243.54h2.07Zm0-25.32H18.34V218.22h2.07Zm0-25.33H18.34V192.89h2.07Zm0-25.32H18.34V167.57h2.07Zm0-25.33H18.34V142.24h2.07Zm0-25.32H18.34V116.92h2.07Zm0-25.33H18.34V91.59h2.07Zm0-25.32H18.34V66.27h2.07Zm0-25.33H18.34V40.94h2.07Z"/><polygon class="cls-1" points="20.41 28.28 18.34 28.28 18.34 21.02 25.59 21.02 25.59 23.09 20.41 23.09 20.41 28.28"/><path class="cls-1" d="M480,23.09H467.39V21H480Zm-25.25,0H442.15V21h12.62Zm-25.24,0H416.9V21h12.63Zm-25.25,0H391.66V21h12.62Zm-25.25,0H366.41V21H379Zm-25.24,0H341.17V21h12.62Zm-25.25,0H315.92V21h12.62Zm-25.24,0H290.67V21H303.3Zm-25.25,0H265.43V21h12.62Zm-25.24,0H240.18V21h12.63Zm-25.25,0H214.94V21h12.62Zm-25.25,0H189.69V21h12.62Zm-25.24,0H164.45V21h12.62Zm-25.25,0H139.2V21h12.62Zm-25.24,0H114V21h12.63Zm-25.25,0H88.71V21h12.62Zm-25.24,0H63.46V21H76.09Zm-25.25,0H38.22V21H50.84Z"/><polygon class="cls-1" points="499.9 28.28 497.82 28.28 497.82 23.09 492.64 23.09 492.64 21.02 499.9 21.02 499.9 28.28"/><path class="cls-1" d="M499.9,281.53h-2.08V268.87h2.08Zm0-25.33h-2.08V243.54h2.08Zm0-25.32h-2.08V218.21h2.08Zm0-25.33h-2.08V192.89h2.08Zm0-25.32h-2.08V167.57h2.08Zm0-25.33h-2.08V142.24h2.08Zm0-25.32h-2.08V116.91h2.08Zm0-25.33h-2.08V91.59h2.08Zm0-25.32h-2.08V66.26h2.08Zm0-25.33h-2.08V40.94h2.08Z"/><polygon class="cls-1" points="451.38 221.84 445.22 221.84 445.22 219.78 449.32 219.78 449.32 215.68 451.38 215.68 451.38 221.84"/><path class="cls-1" d="M435.12,221.84H425v-2.06h10.11Zm-20.21,0h-10.1v-2.06h10.1Zm-20.2,0H384.6v-2.06h10.11Zm-20.21,0H364.4v-2.06h10.1Zm-20.2,0H344.19v-2.06H354.3Zm-20.21,0H324v-2.06h10.1Zm-20.2,0H303.78v-2.06h10.11Zm-20.21,0h-10.1v-2.06h10.1Zm-20.2,0H263.37v-2.06h10.11Z"/><polygon class="cls-1" points="253.27 221.84 247.11 221.84 247.11 215.68 249.16 215.68 249.16 219.78 253.27 219.78 253.27 221.84"/><path class="cls-1" d="M249.16,204.82h-2V194h2Zm0-21.71h-2V172.26h2Zm0-21.71h-2V150.55h2Zm0-21.7h-2V128.84h2Zm0-21.71h-2V107.13h2Z"/><polygon class="cls-1" points="249.16 96.28 247.11 96.28 247.11 90.12 253.27 90.12 253.27 92.17 249.16 92.17 249.16 96.28"/><path class="cls-1" d="M435.12,92.17H425v-2h10.11Zm-20.21,0h-10.1v-2h10.1Zm-20.2,0H384.6v-2h10.11Zm-20.21,0H364.4v-2h10.1Zm-20.2,0H344.19v-2H354.3Zm-20.21,0H324v-2h10.1Zm-20.2,0H303.78v-2h10.11Zm-20.21,0h-10.1v-2h10.1Zm-20.2,0H263.37v-2h10.11Z"/><polygon class="cls-1" points="451.38 96.28 449.32 96.28 449.32 92.17 445.22 92.17 445.22 90.12 451.38 90.12 451.38 96.28"/><path class="cls-1" d="M451.38,204.82h-2.06V194h2.06Zm0-21.71h-2.06V172.26h2.06Zm0-21.71h-2.06V150.55h2.06Zm0-21.7h-2.06V128.84h2.06Zm0-21.71h-2.06V107.13h2.06Z"/></svg>