<svg width="424" height="271" viewBox="0 0 424 271" fill="none" xmlns="http://www.w3.org/2000/svg">
<path d="M168.73 197.712C167.97 197.076 167.261 196.381 166.61 195.634C162.72 191.147 161.02 185.707 161.09 177.988V177.426C161.09 177.125 161.09 176.874 161.09 176.422H161.99C161.99 176.853 161.99 177.094 161.99 177.426V177.998C161.92 185.486 163.56 190.746 167.29 195.062C167.903 195.783 168.572 196.454 169.29 197.069L168.73 197.712Z" fill="#00CC25"/>
<path d="M121.291 198.326L120.721 197.643C121.439 197.028 122.108 196.356 122.721 195.636C126.381 191.42 128.721 186.692 128.271 177.307H129.161C129.651 187.555 126.681 192.474 123.391 196.258C122.748 197.003 122.045 197.695 121.291 198.326V198.326Z" fill="#00CC25"/>
<path d="M119.639 161.185C119.366 161.185 119.095 161.134 118.839 161.035C116.429 160.192 116.199 158.194 115.959 156.076C115.883 155.301 115.766 154.53 115.609 153.768C115.429 153.346 115.169 152.764 114.899 152.192C113.399 148.929 111.129 143.991 114.429 141.15C114.642 140.963 114.892 140.823 115.163 140.74C115.434 140.657 115.719 140.633 115.999 140.668C116.586 140.784 117.144 141.015 117.641 141.347C118.139 141.68 118.567 142.107 118.899 142.606L118.229 143.128C117.695 142.311 116.868 141.732 115.919 141.511C115.752 141.492 115.582 141.507 115.421 141.556C115.259 141.604 115.109 141.684 114.979 141.793C112.159 144.222 114.189 148.618 115.669 151.83C115.949 152.433 116.209 153.005 116.409 153.507C116.588 154.318 116.718 155.139 116.799 155.966C117.039 158.054 117.209 159.559 119.119 160.232C119.769 160.453 120.279 160.372 120.989 159.298L121.699 159.77C121.503 160.162 121.212 160.497 120.851 160.745C120.491 160.992 120.074 161.144 119.639 161.185V161.185Z" fill="#00CC25"/>
<path d="M169.43 161.195C169.012 161.166 168.609 161.03 168.259 160.799C167.909 160.569 167.623 160.253 167.43 159.88L168.13 159.399C168.81 160.402 169.33 160.402 169.94 160.242C171.85 159.569 172.02 158.064 172.26 155.976C172.339 155.17 172.463 154.369 172.63 153.577C172.85 153.015 173.11 152.453 173.39 151.84C174.87 148.618 176.9 144.222 174.08 141.802C173.951 141.696 173.802 141.617 173.643 141.568C173.483 141.52 173.316 141.504 173.15 141.521C172.216 141.727 171.399 142.289 170.87 143.087L170.21 142.555C170.879 141.575 171.907 140.9 173.07 140.678C173.349 140.648 173.631 140.675 173.899 140.757C174.168 140.84 174.416 140.977 174.63 141.16C177.93 144.001 175.63 148.939 174.16 152.202C173.89 152.804 173.63 153.356 173.43 153.848C173.28 154.57 173.19 155.343 173.1 156.086C172.86 158.204 172.63 160.202 170.22 161.045C169.967 161.139 169.7 161.19 169.43 161.195V161.195Z" fill="#00CC25"/>
<path d="M144.58 185.666C142.695 185.723 140.809 185.565 138.96 185.195C137.659 184.818 136.436 184.209 135.35 183.398C134.356 182.628 133.411 181.796 132.52 180.908C131.95 180.366 131.34 179.774 130.62 179.132C129.9 178.489 128.94 177.757 127.98 177.024C125.81 175.388 123.56 173.691 122.59 171.674C121.3 169.004 121.18 165.822 121.06 162.459C121.06 161.626 121 160.783 120.95 159.95C120.794 158.328 120.459 156.729 119.95 155.182C119.49 153.712 119.112 152.217 118.82 150.705C118.441 148.159 118.234 145.59 118.2 143.016C118.14 140.798 118.2 138.539 118.29 136.291C119.13 121.134 122.63 105.615 142.18 105.395H143.1H144.1H144.62H145.11H146.11H147C166.55 105.605 170.05 121.134 170.89 136.291C171.01 138.529 171.04 140.788 170.98 143.016C170.946 145.59 170.739 148.159 170.36 150.705C170.068 152.217 169.69 153.712 169.23 155.182C168.721 156.729 168.385 158.328 168.23 159.95C168.23 160.783 168.15 161.626 168.12 162.459C168 165.822 167.88 169.004 166.59 171.674C165.59 173.681 163.37 175.388 161.2 177.024C160.2 177.757 159.32 178.439 158.56 179.132C157.8 179.824 157.23 180.366 156.65 180.908C155.767 181.801 154.825 182.633 153.83 183.398C152.744 184.209 151.521 184.818 150.22 185.195C148.364 185.567 146.472 185.725 144.58 185.666V185.666ZM142.58 106.238H142.13C123.32 106.448 119.94 120.833 119.13 136.351C119 138.579 118.98 140.818 119.04 143.016C119.065 145.547 119.269 148.072 119.65 150.574C119.931 152.057 120.299 153.521 120.75 154.961C121.292 156.568 121.651 158.231 121.82 159.92C121.82 160.763 121.9 161.606 121.93 162.449C122.05 165.721 122.16 168.813 123.37 171.322C124.25 173.149 126.42 174.785 128.51 176.341C129.51 177.084 130.41 177.787 131.21 178.499C132.01 179.212 132.55 179.744 133.13 180.296C133.993 181.158 134.908 181.966 135.87 182.715C136.882 183.467 138.02 184.032 139.23 184.381C142.783 184.964 146.407 184.964 149.96 184.381C151.168 184.034 152.303 183.469 153.31 182.715V182.715C154.272 181.966 155.187 181.158 156.05 180.296C156.63 179.744 157.25 179.142 157.97 178.499C158.69 177.857 159.69 177.084 160.67 176.341C162.76 174.765 164.93 173.139 165.81 171.322C167.02 168.813 167.13 165.721 167.25 162.449C167.25 161.606 167.31 160.763 167.36 159.92C167.528 158.231 167.887 156.568 168.43 154.961C168.881 153.521 169.249 152.057 169.53 150.574C169.91 148.072 170.114 145.547 170.14 143.016C170.2 140.808 170.14 138.569 170.05 136.361C169.19 120.853 165.81 106.469 147.05 106.248H146.15H145.15H144.63H144.08H143.08L142.58 106.238Z" fill="#00CC25"/>
<path d="M403.191 257.578H396.881V255.771H401.391V251.254H403.191V257.578Z" fill="#00CC25"/>
<path d="M386.31 257.578H375.74V255.771H386.31V257.578ZM365.17 257.578H354.59V255.771H365.17V257.578ZM344.02 257.578H333.45V255.771H344L344.02 257.578ZM322.88 257.578H312.3V255.771H322.88V257.578ZM301.73 257.578H291.16V255.771H301.73V257.578ZM280.58 257.578H270V255.771H280.57L280.58 257.578ZM259.44 257.578H248.87V255.771H259.44V257.578ZM238.29 257.578H227.72V255.771H238.29V257.578ZM217.15 257.578H206.58V255.771H217.15V257.578ZM196 257.578H185.43V255.771H196V257.578ZM174.86 257.578H164.28V255.771H174.86V257.578ZM153.71 257.578H143.14V255.771H153.71V257.578ZM132.57 257.578H122V255.771H132.58L132.57 257.578ZM111.42 257.578H100.85V255.771H111.42V257.578ZM90.2802 257.578H79.7002V255.771H90.2802V257.578ZM69.1302 257.578H58.5602V255.771H69.1302V257.578ZM47.9802 257.578H37.4102V255.771H48.0002L47.9802 257.578Z" fill="#00CC25"/>
<path d="M26.8391 257.578H20.5391V251.254H22.3391V255.771H26.8391V257.578Z" fill="#00CC25"/>
<path d="M22.3391 243.109H20.5391V232.879H22.3391V243.109ZM22.3391 222.639H20.5391V212.399H22.3391V222.639ZM22.3391 202.169H20.5391V191.929H22.3391V202.169ZM22.3391 181.689H20.5391V171.459H22.3391V181.689ZM22.3391 161.219H20.5391V150.979H22.3391V161.219ZM22.3391 140.748H20.5391V130.508H22.3391V140.748ZM22.3391 120.269H20.5391V110.038H22.3391V120.269ZM22.3391 99.7982H20.5391V89.5678H22.3391V99.7982ZM22.3391 79.3279H20.5391V69.088H22.3391V79.3279ZM22.3391 58.8576H20.5391V48.6177H22.3391V58.8576ZM22.3391 38.3777H20.5391V28.1094H22.3391V38.3777Z" fill="#00CC25"/>
<path d="M22.3391 22.3414H20.5391V16.0176H26.8391V17.8244H22.3391V22.3414Z" fill="#00CC25"/>
<path d="M386.31 17.825H375.74V16.0684H386.31V17.825ZM365.17 17.825H354.59V16.0684H365.17V17.825ZM344.02 17.825H333.45V16.0684H344L344.02 17.825ZM322.88 17.825H312.3V16.0684H322.88V17.825ZM301.73 17.825H291.16V16.0684H301.73V17.825ZM280.58 17.825H270V16.0684H280.57L280.58 17.825ZM259.44 17.825H248.87V16.0684H259.44V17.825ZM238.29 17.825H227.72V16.0684H238.29V17.825ZM217.15 17.825H206.58V16.0684H217.15V17.825ZM196 17.825H185.43V16.0684H196V17.825ZM174.86 17.825H164.28V16.0684H174.86V17.825ZM153.71 17.825H143.14V16.0684H153.71V17.825ZM132.57 17.825H122V16.0684H132.58L132.57 17.825ZM111.42 17.825H100.85V16.0684H111.42V17.825ZM90.2802 17.825H79.7002V16.0684H90.2802V17.825ZM69.1302 17.825H58.5602V16.0684H69.1302V17.825ZM48.0002 17.825H37.4102V16.0684H48.0002V17.825Z" fill="#00CC25"/>
<path d="M403.191 22.3414H401.391V17.8244H396.881V16.0176H403.191V22.3414Z" fill="#00CC25"/>
<path d="M403.191 245.109H401.391V234.879H403.191V245.109ZM403.191 224.639H401.391V214.399H403.191V224.639ZM403.191 204.169H401.391V193.929H403.191V204.169ZM403.191 183.689H401.391V173.459H403.191V183.689ZM403.191 163.219H401.391V152.979H403.191V163.219ZM403.191 142.748H401.391V132.508H403.191V142.748ZM403.191 122.269H401.391V112.038H403.191V122.269ZM403.191 101.798H401.391V91.5583H403.191V101.798ZM403.191 81.3279H401.391V71.088H403.191V81.3279ZM403.191 60.8481H401.391V50.6177H403.191V60.8481ZM403.191 40.3777H401.391V30.1094H403.191V40.3777Z" fill="#00CC25"/>
<path d="M102.621 210.832H96.3105V204.508H98.1105V209.025H102.621V210.832Z" fill="#00CC25"/>
<path d="M98.1206 194.269H96.3105V184.04H98.1206V194.269ZM98.1206 173.802H96.3105V163.584H98.1206V173.802ZM98.1206 153.325H96.3105V143.086H98.1206V153.325ZM98.1206 132.858H96.3105V122.62H98.1206V132.858ZM98.1206 112.381H96.3105V102.143H98.1206V112.381Z" fill="#00CC25"/>
<path d="M98.1105 91.9038H96.3105V85.5801H102.621V87.3869H98.1105V91.9038Z" fill="#00CC25"/>
<path d="M174.49 87.3869H162.49V85.5801H174.49V87.3869ZM150.49 87.3869H138.49V85.5801H150.49V87.3869ZM126.49 87.3869H114.49V85.5801H126.49V87.3869Z" fill="#00CC25"/>
<path d="M192.771 91.9038H190.971V87.3869H186.461V85.5801H192.771V91.9038Z" fill="#00CC25"/>
<path d="M192.77 194.269H191V184.04H192.81L192.77 194.269ZM192.77 173.802H191V163.584H192.81L192.77 173.802ZM192.77 153.325H191V143.086H192.81L192.77 153.325ZM192.77 132.858H191V122.62H192.81L192.77 132.858ZM192.77 112.381H191V102.143H192.81L192.77 112.381Z" fill="#00CC25"/>
<path d="M192.771 210.832H186.461V209.025H190.971V204.508H192.771V210.832Z" fill="#00CC25"/>
<path d="M174.49 210.832H162.49V209.025H174.49V210.832ZM150.49 210.832H138.49V209.025H150.49V210.832ZM126.49 210.832H114.49V209.025H126.49V210.832Z" fill="#00CC25"/>
</svg>
