<svg width="222" height="293" viewBox="0 0 222 293" fill="none" xmlns="http://www.w3.org/2000/svg">
<path d="M179.191 272.361C177.045 270.559 175.04 268.596 173.191 266.491C163.751 255.651 157.291 241.111 157.521 216.441C157.521 214.581 157.461 213.941 157.521 211.961" stroke="#00CC25" stroke-width="3.27" stroke-miterlimit="10"/>
<path d="M66.5892 214.4C67.9392 242.61 60.3392 256.54 50.1992 268.18C48.3506 270.289 46.3448 272.255 44.1992 274.06" stroke="#00CC25" stroke-width="3.27" stroke-miterlimit="10"/>
<path d="M35.6796 112.73C31.6796 107.42 27.2896 106.25 24.5996 108.45C13.9096 117.2 24.0496 134.45 27.5996 143.72C29.4396 152.72 27.3196 160.85 35.7096 164.01C38.4196 165.01 39.2696 164.56 41.4696 161.43" stroke="#00CC25" stroke-width="2.45" stroke-miterlimit="10"/>
<path d="M186.209 112.67C190.019 107.41 194.359 106.19 197.069 108.3C207.959 116.81 198.209 134.3 194.879 143.64C193.239 152.64 195.549 160.76 187.229 164.1C184.619 165.15 182.629 164.4 180.439 161.53" stroke="#00CC25" stroke-width="2.45" stroke-miterlimit="10"/>
<path d="M186.92 99.8499C186.92 121.15 184.83 165.7 171.74 192.15C159.45 216.98 139.12 230.34 112.46 231.15C85.7996 231.96 65.9996 221.66 49.9996 189.43C33.9996 157.2 34.8396 100.25 34.8396 100.25C34.8396 100.25 34.8396 24.1699 110.03 24.1699C189.27 24.1699 186.92 99.8499 186.92 99.8499Z" stroke="#00CC25" stroke-width="3.74" stroke-linejoin="round"/>
</svg>
