<svg xmlns="http://www.w3.org/2000/svg" width="243" height="176" viewBox="0 0 243 176">
  <g id="Grupo_725" data-name="Grupo 725" transform="translate(-813 -1282)">
    <g id="Interseção_5" data-name="Interseção 5" transform="translate(911.263 1411.88) rotate(180)" fill="none">
      <path d="M0,5.137A32.359,32.359,0,0,1,.408,0H63.735A32.077,32.077,0,1,1,0,5.137Z" stroke="none"/>
      <path d="M 5.000343322753906 4.999996185302734 C 5.000114440917969 5.045730590820313 5 5.091499328613281 5 5.137226104736328 C 5 8.799491882324219 5.71533203125 12.34951782226563 7.126132965087891 15.68869209289551 C 8.489719390869141 18.91611862182617 10.4427604675293 21.81559753417969 12.93102645874023 24.30661010742188 C 15.41890716552734 26.7972526550293 18.31450653076172 28.7520637512207 21.53741455078125 30.11674499511719 C 24.87115859985352 31.52837181091309 28.41530609130859 32.24413299560547 32.07141494750977 32.24413299560547 C 35.72766876220703 32.24413299560547 39.27193450927734 31.52837181091309 42.60577392578125 30.11673164367676 C 45.8287353515625 28.75205230712891 48.72439956665039 26.79723739624023 51.21230697631836 24.30659866333008 C 53.70058441162109 21.81558418273926 55.65365219116211 18.91610527038574 57.01725387573242 15.68867874145508 C 58.42805480957031 12.34951782226563 59.14338684082031 8.799491882324219 59.14338684082031 5.137226104736328 C 59.14338684082031 5.091499328613281 59.14327239990234 5.045730590820313 59.14304351806641 4.999996185302734 L 5.000343322753906 4.999996185302734 M 0.4083328247070313 -3.814697265625e-06 L 63.73502731323242 -3.814697265625e-06 C 64.00385284423828 1.673118591308594 64.14338684082031 3.388198852539063 64.14338684082031 5.137226104736328 C 64.14338684082031 22.86926460266113 49.78442764282227 37.24413299560547 32.07141494750977 37.24413299560547 C 14.35895919799805 37.24413299560547 0 22.86926460266113 0 5.137226104736328 C 0 3.388198852539063 0.1395187377929688 1.673118591308594 0.4083328247070313 -3.814697265625e-06 Z" stroke="none" fill="#00cb24"/>
    </g>
    <path id="Op_component_1" data-name="Op component 1" d="M594.817,598.8c9.474,0,17.183-7.359,17.183-16.406s-7.709-16.4-17.183-16.4-17.182,7.359-17.182,16.4S585.344,598.8,594.817,598.8Z" transform="translate(284.563 767.51)" fill="none" stroke="#00cb24" stroke-width="5"/>
    <g id="Retângulo_516" data-name="Retângulo 516" transform="translate(813 1458) rotate(-90)" fill="none" stroke="#00cb24" stroke-width="5">
      <rect width="176" height="243" rx="18" stroke="none"/>
      <rect x="2.5" y="2.5" width="171" height="238" rx="15.5" fill="none"/>
    </g>
    <line id="Linha_3" data-name="Linha 3" x2="96" transform="translate(930.5 1333.5)" fill="none" stroke="#00cb24" stroke-width="5"/>
    <line id="Linha_4" data-name="Linha 4" x2="96" transform="translate(930.5 1351.5)" fill="none" stroke="#00cb24" stroke-width="5"/>
    <line id="Linha_5" data-name="Linha 5" x2="96" transform="translate(930.5 1369.5)" fill="none" stroke="#00cb24" stroke-width="5"/>
    <line id="Linha_6" data-name="Linha 6" x2="96" transform="translate(930.5 1387.5)" fill="none" stroke="#00cb24" stroke-width="5"/>
    <line id="Linha_7" data-name="Linha 7" x2="96" transform="translate(930.5 1405.5)" fill="none" stroke="#00cb24" stroke-width="5"/>
  </g>
</svg>
