<svg xmlns="http://www.w3.org/2000/svg" width="187" height="243" viewBox="0 0 187 243">
  <g id="Grupo_724" data-name="Grupo 724" transform="translate(-235 -1252)">
    <g id="Interseção_4" data-name="Interseção 4" transform="translate(359 1355) rotate(180)" fill="none">
      <path d="M0,4.966A31.279,31.279,0,0,1,.395,0H61.605A31.005,31.005,0,1,1,0,4.966Z" stroke="none"/>
      <path d="M 5.000022888183594 5 C 5.004451751708984 8.505411148071289 5.691383361816406 11.90304946899414 7.041923522949219 15.09962463378906 C 8.351535797119141 18.19933700561523 10.22731399536133 20.9841251373291 12.61714935302734 23.37663650512695 C 15.00661087036133 25.76877593994141 17.78761291503906 27.64624977111816 20.88288879394531 28.95691299438477 C 24.08451080322266 30.31259918212891 27.48830032348633 31 30.99972534179688 31 C 34.51128768920898 31 37.91519927978516 30.31259918212891 41.11691284179688 28.95689964294434 C 44.21226501464844 27.64622497558594 46.99330139160156 25.76874923706055 49.3828010559082 23.37662506103516 C 51.77266311645508 20.98411178588867 53.6484489440918 18.19932556152344 54.95807647705078 15.09961318969727 C 56.30861663818359 11.90304946899414 56.99554824829102 8.505411148071289 56.99997711181641 5 L 5.000022888183594 5 M 0.3946876525878906 0 L 61.60527420043945 0 C 61.8651237487793 1.617225646972656 62 3.275012969970703 62 4.965612411499023 C 62 22.10532379150391 48.120849609375 36 30.99972534179688 36 C 13.879150390625 36 0 22.10532379150391 0 4.965612411499023 C 0 3.275012969970703 0.1348495483398438 1.617225646972656 0.3946876525878906 0 Z" stroke="none" fill="#00cb24"/>
    </g>
    <path id="Op_component_1" data-name="Op component 1" d="M594.242,597.7c9.157,0,16.608-7.114,16.608-15.858s-7.451-15.856-16.608-15.856-16.608,7.114-16.608,15.856S585.086,597.7,594.242,597.7Z" transform="translate(-266.061 713.249)" fill="none" stroke="#00cb24" stroke-width="5"/>
    <g id="Retângulo_514" data-name="Retângulo 514" transform="translate(235 1252)" fill="none" stroke="#00cb24" stroke-width="5">
      <rect width="187" height="243" rx="18" stroke="none"/>
      <rect x="2.5" y="2.5" width="182" height="238" rx="15.5" fill="none"/>
    </g>
    <g id="Retângulo_515" data-name="Retângulo 515" transform="translate(286 1374)" fill="none" stroke="#00cb24" stroke-width="5">
      <rect width="85" height="95" rx="18" stroke="none"/>
      <rect x="2.5" y="2.5" width="80" height="90" rx="15.5" fill="none"/>
    </g>
  </g>
</svg>
