<svg xmlns="http://www.w3.org/2000/svg" width="218.043" height="171.616" viewBox="0 0 218.043 171.616">
  <g id="camera" transform="translate(0 -44.8)">
    <g id="Grupo_682" data-name="Grupo 682" transform="translate(0 44.8)">
      <g id="Grupo_681" data-name="Grupo 681">
        <path id="Caminho_11295" data-name="Caminho 11295" d="M210.789,71.537a23.443,23.443,0,0,0-17.2-7.254H159.18v-.415a18.609,18.609,0,0,0-5.6-13.472,18.964,18.964,0,0,0-13.472-5.6H77.932A19.108,19.108,0,0,0,58.656,63.868v.415h-34.2a23.443,23.443,0,0,0-17.2,7.254A24.642,24.642,0,0,0,0,88.74V191.958a23.443,23.443,0,0,0,7.254,17.2,24.642,24.642,0,0,0,17.2,7.254H193.586a23.443,23.443,0,0,0,17.2-7.254,24.642,24.642,0,0,0,7.254-17.2V88.74A23.443,23.443,0,0,0,210.789,71.537Zm-3.523,120.421h-.207a13.445,13.445,0,0,1-13.472,13.472H24.457a13.445,13.445,0,0,1-13.472-13.472V88.74A13.445,13.445,0,0,1,24.457,75.268h40a5.573,5.573,0,0,0,5.6-5.6V63.661a7.8,7.8,0,0,1,8.083-8.083h61.972a7.8,7.8,0,0,1,8.083,8.083v6.011a5.573,5.573,0,0,0,5.6,5.6h40A13.445,13.445,0,0,1,207.265,88.74Z" transform="translate(0 -44.8)" fill="#00cd24"/>
        <path id="Caminho_11296" data-name="Caminho 11296" d="M162.987,130.8a50.951,50.951,0,1,0,36.064,14.923A51.078,51.078,0,0,0,162.987,130.8Zm28.188,79.383a40.032,40.032,0,0,1-56.376,0,39.623,39.623,0,0,1-11.607-28.188A40.5,40.5,0,0,1,134.8,153.806,39.623,39.623,0,0,1,162.987,142.2a40.5,40.5,0,0,1,28.188,11.607,39.623,39.623,0,0,1,11.607,28.188A38.783,38.783,0,0,1,191.175,210.183Z" transform="translate(-53.966 -86.238)" fill="#00cd24"/>
        <circle id="Elipse_924" data-name="Elipse 924" cx="10.156" cy="10.156" r="10.156" transform="translate(172.652 44.355)" fill="#00cd24"/>
      </g>
    </g>
  </g>
</svg>
