<svg viewBox="0 0 671.57 773.62" xmlns="http://www.w3.org/2000/svg" xmlns:xlink="http://www.w3.org/1999/xlink"><radialGradient id="a" cx="258.09" cy="408.41" gradientUnits="userSpaceOnUse" r="493.06"><stop offset="0" stop-color="#67c73b"/><stop offset=".25" stop-color="#4f982d"/><stop offset=".83" stop-color="#13240b"/><stop offset="1"/></radialGradient><radialGradient id="b" cx="258.09" cy="408.41" r="493.08" xlink:href="#a"/><linearGradient id="c" gradientTransform="matrix(-1 0 0 1 12439.38 0)" gradientUnits="userSpaceOnUse" x1="11870.91" x2="12368.19" y1="427.8" y2="427.8"><stop offset="0" stop-color="#2f054a"/><stop offset="1" stop-color="#5824b0"/></linearGradient><linearGradient id="d" gradientTransform="matrix(-1 0 0 1 12439.38 0)" gradientUnits="userSpaceOnUse" x1="11936.29" x2="12433.57" y1="425.66" y2="425.66"><stop offset=".06" stop-color="#2f0d5e"/><stop offset=".28" stop-color="#2f105f"/><stop offset=".47" stop-color="#311b61"/><stop offset=".48" stop-color="#351f65"/><stop offset=".5" stop-color="#422c73"/><stop offset=".51" stop-color="#584188"/><stop offset=".52" stop-color="#765fa7"/><stop offset=".53" stop-color="#8770b8"/><stop offset=".54" stop-color="#7e67ae"/><stop offset=".56" stop-color="#5c468d"/><stop offset=".59" stop-color="#442e75"/><stop offset=".61" stop-color="#362066"/><stop offset=".63" stop-color="#311b61"/><stop offset=".67" stop-color="#2a1155"/><stop offset=".75" stop-color="#230446"/><stop offset=".81" stop-color="#200041"/><stop offset="1" stop-color="#200041"/></linearGradient><linearGradient id="e" gradientTransform="matrix(-1 0 0 1 12439.38 0)" gradientUnits="userSpaceOnUse" x1="11870.91" x2="12368.19" y1="414.94" y2="414.94"><stop offset="0" stop-color="#58098a"/><stop offset="1" stop-color="#9e3bdb"/></linearGradient><radialGradient id="f" cx="286.55" cy="469.95" gradientUnits="userSpaceOnUse" r="189.01"><stop offset="0" stop-color="#fff"/><stop offset="1"/></radialGradient><linearGradient id="g" gradientTransform="matrix(-1 0 0 1 12439.38 0)" gradientUnits="userSpaceOnUse" x1="11875.88" x2="12363.22" y1="414.94" y2="414.94"><stop offset="0" stop-color="#2f054a"/><stop offset="1" stop-color="#5e1d9a"/></linearGradient><linearGradient id="h" gradientUnits="userSpaceOnUse" x1="344.63" x2="258.32" y1="290.93" y2="722.49"><stop offset=".01" stop-color="#9f19ab"/><stop offset=".43" stop-color="#5f27bd"/><stop offset=".9" stop-color="#3d065f"/></linearGradient><linearGradient id="i" gradientTransform="matrix(-.87 .5 -.5 1.44 13226.33 -4861)" gradientUnits="userSpaceOnUse" x1="15710.75" x2="15734.72" y1="-1791.64" y2="-1791.64"><stop offset="0" stop-color="#3d065f"/><stop offset="1" stop-color="#5f27bd"/></linearGradient><linearGradient id="j" gradientTransform="matrix(-.87 .5 -.5 1.44 13226.33 -4861)" x1="15710.75" x2="15734.72" xlink:href="#c" y1="-1791.64" y2="-1791.64"/><linearGradient id="k" gradientTransform="matrix(-.87 .5 -.5 1.44 13226.33 -4861)" gradientUnits="userSpaceOnUse" x1="15684.66" x2="15674.74" y1="-1720.63" y2="-1702.14"><stop offset=".06" stop-color="#9f79b8"/><stop offset=".26" stop-color="#a17bba"/><stop offset=".36" stop-color="#a783bf"/><stop offset=".43" stop-color="#b290c9"/><stop offset=".49" stop-color="#c1a1d5"/><stop offset=".51" stop-color="#c4a5d7"/><stop offset=".52" stop-color="#cdb3dd"/><stop offset=".53" stop-color="#dbc8e7"/><stop offset=".55" stop-color="#efe7f4"/><stop offset=".56" stop-color="#fff"/><stop offset=".57" stop-color="#ece0f3"/><stop offset=".58" stop-color="#ddc8ea"/><stop offset=".59" stop-color="#d4b9e5"/><stop offset=".6" stop-color="#d1b4e3"/><stop offset=".66" stop-color="#b395d6"/><stop offset=".72" stop-color="#9c7dcb"/><stop offset=".77" stop-color="#8e6ec5"/><stop offset=".81" stop-color="#8969c3"/><stop offset="1" stop-color="#b086cc"/></linearGradient><linearGradient id="l" x1="15738.86" x2="15762.83" xlink:href="#i" y1="-1791.64" y2="-1791.64"/><linearGradient id="m" gradientTransform="matrix(-.87 .5 -.5 1.44 13226.33 -4861)" x1="15738.86" x2="15762.83" xlink:href="#c" y1="-1791.64" y2="-1791.64"/><linearGradient id="n" x1="15706.49" x2="15696.57" xlink:href="#k" y1="-1708.92" y2="-1690.43"/><linearGradient id="o" gradientTransform="matrix(.87 .5 -1 .58 7448.37 29.59)" gradientUnits="userSpaceOnUse" x1="-3809.2" x2="-3670.08" y1="3884.42" y2="3884.42"><stop offset="0" stop-color="#25054d"/><stop offset="1" stop-color="#45108a"/></linearGradient><linearGradient id="p" gradientUnits="userSpaceOnUse" x1="353.93" x2="506.34" y1="341.92" y2="341.92"><stop offset="0" stop-color="#68cc3d"/><stop offset=".21" stop-color="#5db838"/><stop offset="1" stop-color="#599428"/></linearGradient><linearGradient id="q" gradientTransform="matrix(.87 .5 -1.5 .29 10797.28 1962.91)" x1="-5307.08" x2="-5252.86" xlink:href="#p" y1="3973.92" y2="3973.92"/><linearGradient id="r" gradientTransform="matrix(.87 .5 -1 .58 7448.37 29.59)" x1="-3798.22" x2="-3746.1" xlink:href="#p" y1="3973.67" y2="3973.67"/><linearGradient id="s" x1="149.94" x2="506.08" xlink:href="#o" y1="435.58" y2="435.58"/><linearGradient id="t" gradientTransform="matrix(.87 .5 -1 .58 7472.7 39.88)" gradientUnits="userSpaceOnUse" x1="-3849.5" x2="-3713.19" y1="3853.81" y2="3853.81"><stop offset=".04" stop-color="#6b24d6"/><stop offset=".29" stop-color="#7733dc"/><stop offset=".79" stop-color="#975ced"/><stop offset="1" stop-color="#a56ef4"/></linearGradient><linearGradient id="u" gradientUnits="userSpaceOnUse" x1="213.44" x2="179.53" y1="243.95" y2="168.3"><stop offset="0" stop-color="#ffbb96"/><stop offset=".23" stop-color="#fffbc9"/><stop offset=".54" stop-color="#f9b673"/><stop offset=".64" stop-color="#f9b876"/><stop offset=".72" stop-color="#fabe81"/><stop offset=".81" stop-color="#fcc993"/><stop offset=".86" stop-color="#fed2a3"/><stop offset=".97" stop-color="#ffc28c"/></linearGradient><linearGradient id="v" gradientUnits="userSpaceOnUse" x1="154.48" x2="203.13" y1="197.79" y2="213.3"><stop offset="0" stop-color="#f9b673"/><stop offset=".21" stop-color="#fab876"/><stop offset=".39" stop-color="#fcbd81"/><stop offset=".51" stop-color="#ffc28c"/><stop offset="1" stop-color="#fed2a3"/></linearGradient><linearGradient id="w" x1="192.3" x2="214.8" xlink:href="#u" y1="157.53" y2="191.11"/><linearGradient id="x" x1="227.25" x2="323.12" xlink:href="#u" y1="416.89" y2="416.89"/><linearGradient id="y" gradientUnits="userSpaceOnUse" x1="362.45" x2="270.39" y1="313.15" y2="405.8"><stop offset=".04" stop-color="#ffba78"/><stop offset=".4" stop-color="#ffc987"/><stop offset="1" stop-color="#feeca8"/></linearGradient><linearGradient id="z" x1="324.18" x2="324.19" xlink:href="#u" y1="410.3" y2="410.3"/><linearGradient id="A" x1="247.79" x2="302.84" xlink:href="#u" y1="404.08" y2="404.08"/><linearGradient id="B" x1="257.36" x2="295.51" xlink:href="#u" y1="383.33" y2="395.49"/><linearGradient id="C" x1="262.66" x2="288.16" xlink:href="#u" y1="366.1" y2="366.1"/><radialGradient id="D" cx="269.2" cy="331.51" gradientUnits="userSpaceOnUse" r="28.65"><stop offset=".15" stop-color="#fffbc9"/><stop offset=".54" stop-color="#f9b673"/><stop offset=".64" stop-color="#f9b876"/><stop offset=".72" stop-color="#fabe81"/><stop offset=".81" stop-color="#fcc993"/><stop offset=".86" stop-color="#fed2a3"/><stop offset=".97" stop-color="#ffc28c"/></radialGradient><linearGradient id="E" x1="201.77" x2="348.53" xlink:href="#u" y1="277.66" y2="277.66"/><linearGradient id="F" x1="199.04" x2="351.23" xlink:href="#u" y1="228.91" y2="228.91"/><linearGradient id="G" x1="418.49" x2="267.25" xlink:href="#y" y1="58.24" y2="210.44"/><linearGradient id="H" x1="347.32" x2="204.17" xlink:href="#u" y1="201.67" y2="201.67"/><linearGradient id="I" x1="322.58" x2="362.51" xlink:href="#u" y1="242.62" y2="318.84"/><linearGradient id="J" x1="277.57" x2="354.54" xlink:href="#v" y1="310.43" y2="259.27"/><linearGradient id="K" x1="310.7" x2="327.56" xlink:href="#y" y1="312.92" y2="318.29"/><linearGradient id="L" gradientTransform="matrix(.84 -.35 .3 1.06 189.74 894.77)" x1="75.01" x2="127.48" xlink:href="#u" y1="-419.97" y2="-419.97"/><linearGradient id="M" gradientTransform="matrix(.84 -.35 .3 1.06 189.74 894.77)" x1="74.76" x2="74.77" xlink:href="#u" y1="-424.97" y2="-424.97"/><linearGradient id="N" gradientTransform="matrix(.84 -.35 .3 1.06 189.74 894.77)" x1="75.01" x2="127.48" xlink:href="#u" y1="-416.93" y2="-416.93"/><linearGradient id="O" gradientTransform="matrix(.84 -.35 .3 1.06 189.74 894.77)" x1="128.06" x2="128.07" xlink:href="#u" y1="-424.97" y2="-424.97"/><linearGradient id="P" gradientTransform="matrix(.91 .1 -.26 1.07 -57.71 853.67)" x1="150.67" x2="98.53" xlink:href="#y" y1="-481.05" y2="-428.58"/><radialGradient id="Q" cx="89.96" cy="-420.07" gradientTransform="matrix(.84 -.35 .3 1.06 189.74 894.77)" r="33.5" xlink:href="#f"/><linearGradient id="R" gradientTransform="matrix(.84 -.35 .3 1.06 189.74 894.77)" x1="122.83" x2="83.86" xlink:href="#y" y1="-453.05" y2="-413.82"/><radialGradient id="S" cx="110.8" cy="-444.2" gradientTransform="matrix(.84 -.35 .3 1.06 189.74 894.77)" r="14.74" xlink:href="#f"/><linearGradient id="T" gradientTransform="matrix(.84 -.35 .3 1.06 189.74 894.77)" x1="130.01" x2="93.23" xlink:href="#u" y1="-461.54" y2="-424.53"/><linearGradient id="U" gradientTransform="matrix(.84 -.35 .3 1.06 189.74 894.77)" x1="91.46" x2="111.33" xlink:href="#u" y1="-431.34" y2="-431.34"/><linearGradient id="V" gradientTransform="matrix(.84 -.35 .3 1.06 189.74 894.77)" x1="120.86" x2="103.93" xlink:href="#y" y1="-442.75" y2="-433.51"/><radialGradient id="W" cx="87.8" cy="-430.7" gradientTransform="matrix(.84 -.35 .3 1.06 189.74 894.77)" gradientUnits="userSpaceOnUse" r="17.78"><stop offset="0" stop-color="#f49587"/><stop offset=".12" stop-color="#bd7368"/><stop offset=".24" stop-color="#8b554d"/><stop offset=".36" stop-color="#603b35"/><stop offset=".48" stop-color="#3e2622"/><stop offset=".61" stop-color="#231513"/><stop offset=".74" stop-color="#0f0908"/><stop offset=".86" stop-color="#040202"/><stop offset="1"/></radialGradient><linearGradient id="X" gradientTransform="matrix(.6 -.8 .8 .6 709.8 2153.17)" x1="1325.46" x2="1371.93" xlink:href="#u" y1="-1206.59" y2="-1206.59"/><linearGradient id="Y" gradientTransform="matrix(.6 -.8 .8 .6 709.8 2153.17)" x1="1325.23" x2="1325.24" xlink:href="#u" y1="-1211.02" y2="-1211.02"/><linearGradient id="Z" gradientTransform="matrix(.6 -.8 .8 .6 709.8 2153.17)" x1="1325.46" x2="1371.93" xlink:href="#u" y1="-1203.9" y2="-1203.9"/><linearGradient id="aa" gradientTransform="matrix(.6 -.8 .8 .6 709.8 2153.17)" x1="1372.45" x2="1372.46" xlink:href="#u" y1="-1211.02" y2="-1211.02"/><linearGradient id="ab" x1="599.04" x2="552.86" xlink:href="#y" y1="299.25" y2="345.73"/><radialGradient id="ac" cx="1338.7" cy="-1206.69" gradientTransform="matrix(.6 -.8 .8 .6 709.8 2153.17)" r="29.68" xlink:href="#f"/><linearGradient id="ad" gradientTransform="matrix(.6 -.8 .8 .6 709.8 2153.17)" x1="1367.82" x2="1333.29" xlink:href="#y" y1="-1235.89" y2="-1201.15"/><radialGradient id="ae" cx="1357.15" cy="-1228.06" gradientTransform="matrix(.6 -.8 .8 .6 709.8 2153.17)" r="13.05" xlink:href="#f"/><linearGradient id="af" gradientTransform="matrix(.6 -.8 .8 .6 709.8 2153.17)" x1="1374.17" x2="1341.59" xlink:href="#u" y1="-1243.42" y2="-1210.63"/><linearGradient id="ag" gradientTransform="matrix(.6 -.8 .8 .6 709.8 2153.17)" x1="1340.03" x2="1357.62" xlink:href="#u" y1="-1216.67" y2="-1216.67"/><linearGradient id="ah" gradientTransform="matrix(.6 -.8 .8 .6 709.8 2153.17)" x1="1366.07" x2="1351.07" xlink:href="#y" y1="-1226.77" y2="-1218.58"/><linearGradient id="ai" gradientTransform="matrix(1.04 .01 -.23 .96 2498.73 -1373.91)" x1="-1655.78" x2="-1626.61" xlink:href="#u" y1="1614.91" y2="1668.11"/><linearGradient id="aj" gradientTransform="matrix(.99 .32 -.5 .85 2865.68 -694.68)" x1="-1652.27" x2="-1647.14" xlink:href="#y" y1="1673.29" y2="1627.38"/><linearGradient id="ak" gradientTransform="matrix(1.04 .01 -.23 .96 2498.73 -1373.91)" x1="-1644.3" x2="-1661.75" xlink:href="#y" y1="1622.16" y2="1706.5"/><linearGradient id="al" gradientTransform="matrix(1.04 .01 -.23 .96 2498.73 -1373.91)" x1="-1652.3" x2="-1648.72" xlink:href="#u" y1="1666.01" y2="1633.89"/><linearGradient id="am" gradientTransform="matrix(.93819134 -.34611706 .34611706 .93819134 -116.97 956.52)" x1="770.56" x2="749.37" xlink:href="#u" y1="-535.54" y2="-530.97"/><linearGradient id="an" gradientTransform="matrix(.93819134 -.34611706 .34611706 .93819134 -116.97 956.52)" x1="773.33" x2="762.97" xlink:href="#y" y1="-510.61" y2="-538.34"/><radialGradient id="ao" cx="759" cy="-545.97" gradientTransform="matrix(.93819134 -.34611706 .34611706 .93819134 -116.97 956.52)" r="22.93" xlink:href="#W"/><linearGradient id="ap" gradientTransform="matrix(1.04 .01 -.23 .96 2498.73 -1373.91)" x1="-1649.59" x2="-1620.61" xlink:href="#u" y1="1611.51" y2="1664.37"/><radialGradient id="aq" cx="-1642.13" cy="1635.6" gradientTransform="matrix(1.04 .01 -.23 .96 2498.73 -1373.91)" r="23.32" xlink:href="#f"/><path d="m532.85 456.83a.8.8 0 0 1 -.41-1.5l2.77-1.63a.8.8 0 0 1 1.1.28.81.81 0 0 1 -.28 1.11l-2.78 1.63a.8.8 0 0 1 -.4.11zm5.55-3.27a.8.8 0 0 1 -.41-1.5l2.77-1.63a.8.8 0 0 1 1.1.28.81.81 0 0 1 -.28 1.11l-2.78 1.63a.71.71 0 0 1 -.4.11zm5.55-3.27a.8.8 0 0 1 -.41-1.5l2.77-1.63a.8.8 0 0 1 1.1.28.81.81 0 0 1 -.28 1.11l-2.78 1.63a.73.73 0 0 1 -.35.11zm5.54-3.27a.8.8 0 0 1 -.4-1.5l2.77-1.63a.81.81 0 0 1 .82 1.39l-2.78 1.63a.77.77 0 0 1 -.41.09zm5.56-3.27a.8.8 0 0 1 -.41-1.5l2.77-1.63a.81.81 0 0 1 .82 1.39l-2.78 1.63a.71.71 0 0 1 -.4.11zm5.55-3.27a.81.81 0 0 1 -.7-.39.8.8 0 0 1 .29-1.1l2.77-1.64a.81.81 0 0 1 .82 1.39l-2.78 1.63a.71.71 0 0 1 -.4.11zm5.55-3.27a.81.81 0 0 1 -.7-.39.8.8 0 0 1 .29-1.1l2.77-1.64a.81.81 0 0 1 .82 1.39l-2.78 1.63a.71.71 0 0 1 -.4.11zm5.55-3.27a.81.81 0 0 1 -.7-.39.8.8 0 0 1 .29-1.1l2.77-1.64a.81.81 0 0 1 .82 1.39l-2.78 1.63a.73.73 0 0 1 -.4.11zm5.54-3.26a.82.82 0 0 1 -.69-.4.79.79 0 0 1 .29-1.1l2.77-1.64a.81.81 0 0 1 .82 1.39l-2.78 1.63a.78.78 0 0 1 -.41.12zm5.55-3.27a.82.82 0 0 1 -.69-.4.79.79 0 0 1 .29-1.1l2.77-1.64a.81.81 0 0 1 .82 1.39l-2.78 1.63a.78.78 0 0 1 -.41.12zm5.56-3.27a.8.8 0 0 1 -.41-1.5l2.77-1.64a.81.81 0 0 1 .82 1.39l-2.78 1.61a.8.8 0 0 1 -.4.14zm5.55-3.27a.8.8 0 0 1 -.41-1.5l2.77-1.64a.81.81 0 0 1 .82 1.39l-2.78 1.64a.8.8 0 0 1 -.4.11zm5.55-3.27a.8.8 0 0 1 -.41-1.5l2.77-1.63a.79.79 0 0 1 1.1.28.8.8 0 0 1 -.28 1.1l-2.78 1.64a.8.8 0 0 1 -.4.11zm4.25-4a.8.8 0 0 1 -.8-.81v-3.22a.81.81 0 0 1 1.61 0v3.22a.81.81 0 0 1 -.81.8zm0-6.44a.8.8 0 0 1 -.8-.81v-3.22a.81.81 0 0 1 1.61 0v3.22a.81.81 0 0 1 -.81.8zm0-6.44a.8.8 0 0 1 -.8-.81v-3.22a.81.81 0 0 1 1.61 0v3.22a.81.81 0 0 1 -.81.8zm0-6.44a.8.8 0 0 1 -.8-.81v-3.22a.81.81 0 1 1 1.61 0v3.22a.81.81 0 0 1 -.81.8zm0-6.45a.8.8 0 0 1 -.8-.8v-3.23a.81.81 0 1 1 1.61 0v3.2a.8.8 0 0 1 -.81.82zm0-6.44a.8.8 0 0 1 -.8-.8v-3.22a.81.81 0 1 1 1.61 0v3.22a.8.8 0 0 1 -.81.79zm0-6.44a.8.8 0 0 1 -.8-.8v-3.22a.81.81 0 1 1 1.61 0v3.22a.8.8 0 0 1 -.81.79zm0-6.44a.8.8 0 0 1 -.8-.81v-3.22a.81.81 0 0 1 1.61 0v3.22a.81.81 0 0 1 -.81.8zm0-6.44a.8.8 0 0 1 -.8-.81v-.54l-1.52-.88a.8.8 0 0 1 .81-1.39l1.91 1.11a.82.82 0 0 1 .41.7v1a.81.81 0 0 1 -.81.8zm-4.7-3.74a.71.71 0 0 1 -.4-.11l-2.79-1.61a.82.82 0 0 1 -.29-1.11.81.81 0 0 1 1.1-.29l2.78 1.62a.8.8 0 0 1 -.4 1.5zm-5.57-3.23a.8.8 0 0 1 -.4-.11l-2.79-1.62a.8.8 0 0 1 -.29-1.1.79.79 0 0 1 1.1-.29l2.78 1.62a.8.8 0 0 1 .3 1.1.82.82 0 0 1 -.7.39zm-5.57-3.24a.71.71 0 0 1 -.4-.11l-2.79-1.62a.8.8 0 1 1 .81-1.39l2.78 1.62a.8.8 0 0 1 -.4 1.5zm-5.57-3.23a.8.8 0 0 1 -.4-.11l-2.79-1.62a.81.81 0 0 1 -.29-1.1.79.79 0 0 1 1.1-.29l2.78 1.61a.81.81 0 0 1 -.4 1.51zm-5.57-3.24a.8.8 0 0 1 -.4-.11l-2.79-1.62a.8.8 0 0 1 .81-1.39l2.79 1.62a.8.8 0 0 1 -.41 1.5zm-5.57-3.24a.71.71 0 0 1 -.4-.11l-2.75-1.62a.81.81 0 0 1 .81-1.4l2.79 1.62a.81.81 0 0 1 .29 1.1.8.8 0 0 1 -.74.4zm-5.57-3.23a.8.8 0 0 1 -.4-.11l-2.79-1.62a.81.81 0 0 1 -.29-1.1.79.79 0 0 1 1.1-.29l2.78 1.62a.8.8 0 0 1 -.4 1.5zm-5.58-3.25a.73.73 0 0 1 -.4-.11l-2.78-1.56a.81.81 0 0 1 .81-1.4l2.79 1.62a.81.81 0 0 1 .29 1.1.8.8 0 0 1 -.71.35zm-5.57-3.23a.83.83 0 0 1 -.4-.11l-2.79-1.62a.81.81 0 0 1 -.29-1.1.79.79 0 0 1 1.1-.29l2.79 1.62a.81.81 0 0 1 .29 1.1.82.82 0 0 1 -.69.4zm-5.57-3.24a.73.73 0 0 1 -.4-.11l-2.79-1.62a.8.8 0 1 1 .81-1.39l2.79 1.62a.81.81 0 0 1 .29 1.1.8.8 0 0 1 -.69.4zm-5.56-3.2a.86.86 0 0 1 -.4-.11l-2.79-1.62a.81.81 0 0 1 -.29-1.1.79.79 0 0 1 1.1-.29l2.79 1.61a.81.81 0 0 1 -.41 1.51zm-5.57-3.24a.83.83 0 0 1 -.4-.11l-2.79-1.65a.8.8 0 1 1 .81-1.39l2.79 1.62a.8.8 0 0 1 -.41 1.5zm-5.57-3.24a.73.73 0 0 1 -.4-.11l-2.76-1.64a.81.81 0 0 1 .81-1.4l2.79 1.62a.81.81 0 0 1 .29 1.1.8.8 0 0 1 -.73.4zm-5.57-3.23a.83.83 0 0 1 -.4-.11l-2.78-1.62a.81.81 0 0 1 -.3-1.1.8.8 0 0 1 1.1-.29l2.79 1.62a.81.81 0 0 1 .29 1.1.82.82 0 0 1 -.7.37zm-5.59-3.29a.76.76 0 0 1 -.4-.11l-2.78-1.61a.81.81 0 0 1 .8-1.4l2.79 1.62a.81.81 0 0 1 .29 1.1.8.8 0 0 1 -.7.4zm-5.57-3.23a.86.86 0 0 1 -.4-.11l-2.78-1.62a.81.81 0 0 1 -.3-1.1.8.8 0 0 1 1.1-.29l2.79 1.61a.81.81 0 0 1 -.41 1.51zm-5.57-3.24a.76.76 0 0 1 -.4-.11l-2.79-1.62a.8.8 0 0 1 .81-1.39l2.79 1.62a.81.81 0 0 1 .29 1.1.8.8 0 0 1 -.68.42zm-5.56-3.23a.87.87 0 0 1 -.41-.11l-2.78-1.62a.81.81 0 0 1 -.3-1.1.8.8 0 0 1 1.1-.29l2.79 1.61a.81.81 0 0 1 -.4 1.51z" fill="url(#a)" opacity=".5"/><g opacity=".5"><path d="m457.28 471.47-44.36 25.61-44.27-25.56 44.35-25.61 44.27 25.56zm3.31 0-47.59-27.47-47.66 27.52 47.59 27.48 47.66-27.51z" fill="url(#a)"/><path d="m406.24 502.64-47.41-27.37 1.92-1.11 47.41 27.37z" fill="url(#a)"/><path d="m400.74 505.82-47.41-27.37 1.92-1.11 47.41 27.37z" fill="url(#b)"/><g fill="url(#a)"><path d="m373.01 496.27-25.27-14.59 1.92-1.11 25.28 14.59z"/><path d="m518.71 506.94-44.36 25.61-44.28-25.55 44.37-25.61 44.27 25.56zm3.31 0-47.59-27.48-47.67 27.54 47.6 27.48 47.64-27.54z"/><path d="m467.67 538.11-47.41-27.37 1.92-1.11 47.41 27.37z"/><path d="m462.17 541.28-47.41-27.37 1.92-1.11 47.41 27.37z"/><path d="m434.44 531.73-25.27-14.59 1.92-1.11 25.27 14.59z"/><path d="m374.79 519.1-44.36 25.61-44.27-25.56 44.36-25.61zm3.31 0-47.59-27.47-47.66 27.51 47.59 27.48z"/><path d="m323.75 550.27-47.41-27.37 1.92-1.11 47.41 27.37z"/><path d="m318.25 553.45-47.41-27.37 1.92-1.12 47.41 27.38z"/><path d="m290.52 543.89-25.27-14.59 1.92-1.11 25.27 14.59z"/><path d="m436.22 554.56-44.37 25.61-44.27-25.56 44.42-25.61 44.27 25.56zm3.31 0-47.6-27.48-47.66 27.52 47.6 27.48z"/><path d="m385.17 585.74-47.41-27.37 1.93-1.12 47.41 27.38z"/><path d="m379.67 588.91-47.4-27.37 1.92-1.11 47.41 27.37z"/><path d="m351.95 579.36-25.27-14.59 1.92-1.11 25.27 14.59z"/><path d="m291.93 566.94-44.36 25.61-44.27-25.55 44.36-25.61 44.27 25.56zm3.31 0-47.59-27.48-47.65 27.54 47.59 27.48 47.66-27.52z"/><path d="m240.89 598.11-47.41-27.37 1.93-1.11 47.4 27.37z"/><path d="m235.39 601.28-47.41-27.37 1.93-1.11 47.4 27.37z"/><path d="m207.66 591.73-25.27-14.59 1.92-1.11 25.28 14.59z"/><path d="m353.36 602.4-44.36 25.6-44.28-25.56 44.37-25.61 44.27 25.56zm3.31 0-47.59-27.48-47.67 27.52 47.59 27.48 47.66-27.51z"/><path d="m302.31 633.58-47.4-27.38 1.92-1.11 47.41 27.37z"/><path d="m296.81 636.75-47.4-27.37 1.92-1.11 47.41 27.37z"/><path d="m269.09 627.2-25.27-14.59 1.92-1.11 25.27 14.59z"/><path d="m437.34 423.79 16.21 9.36a2.66 2.66 0 0 0 2.41 0 .74.74 0 0 0 0-1.4l-16.21-9.36a2.71 2.71 0 0 0 -2.42 0c-.67.39-.66 1.02.01 1.4zm14.55 10.32-16.21-9.36a2.63 2.63 0 0 0 -2.41 0c-.67.38-.67 1 0 1.39l16.21 9.36a2.65 2.65 0 0 0 2.42 0c.66-.38.66-1-.01-1.39zm-4.06 2.35-16.21-9.36a2.68 2.68 0 0 0 -2.42 0c-.67.39-.66 1 0 1.4l16.21 9.36a2.66 2.66 0 0 0 2.41 0 .73.73 0 0 0 .01-1.4z"/><path d="m269.52 656.66-115.84-66.88c-7.63-4.41-7.67-11.55-.09-15.93l272.78-157.48c7.63-4.37 19.95-4.37 27.63.05l115.79 66.88c7.63 4.4 7.67 11.55.09 15.92l-272.77 157.49c-7.58 4.38-19.96 4.35-27.59-.05zm183.33-239.61c-7-4.05-18.4-4.07-25.38 0l-272.77 157.44c-7 4-6.94 10.6.08 14.65l115.84 66.86c7 4.05 18.41 4.07 25.38 0l272.77-157.41c7-4 6.94-10.6-.08-14.66z"/><path d="m548.14 491.28c0 .49-.7.9-1.56.89s-1.56-.4-1.57-.9.7-.9 1.56-.9 1.56.41 1.57.91z"/><path d="m545.76 484.07h-.26v.9h.26c6.45 0 11.72 3 11.74 6.77h1.56c-.06-4.22-5.99-7.66-13.3-7.67z"/><path d="m545.78 487.67h-.26v.9h.26c3 0 5.47 1.42 5.48 3.16h1.56c-.01-2.23-3.17-4.05-7.04-4.06z"/><path d="m545.77 485.87h-.26v.9h.26c4.73 0 8.59 2.24 8.61 5h1.56c-.02-3.26-4.58-5.89-10.17-5.9z"/><path d="m515.64 474.68-46.76-27 3.02-1.74 46.76 27z"/></g></g><g opacity=".2"><path d="m237.24 593.09c8.29 0 15.81-1.81 21.76-5.24l303.18-174.51c7.93-4.58 12.48-11.83 12.48-19.89 0-8.83-5.48-17.06-15-22.58l-130.78-75.5a53.57 53.57 0 0 0 -26.42-6.72c-8.29 0-15.82 1.82-21.76 5.25l-303.21 174.51c-7.94 4.59-12.49 11.83-12.49 19.89 0 8.83 5.48 17.06 15 22.57l130.77 75.51a53.63 53.63 0 0 0 26.47 6.71z" opacity="0"/><path d="m380.91 294.42-303.18 174.51c-7.62 4.4-11.94 11.32-11.9 19 0 8.37 5.28 16.2 14.45 21.5l124.89 72.11c.2.11 6.31 3.6 6.54 3.67a52.11 52.11 0 0 0 26.59 6 46.73 46.73 0 0 0 21.46-5.73l301.51-173.62c7.62-4.4 11.94-11.31 11.9-19 0-8.37-5.28-16.2-14.45-21.49l-130-75.06a54.45 54.45 0 0 0 -9.63-4.28 55.88 55.88 0 0 0 -16.53-2.7c-8.22-.05-15.76 1.67-21.65 5.09z" opacity=".09"/><path d="m381.15 294.94-303.15 174.51c-7.31 4.22-11.39 10.8-11.32 18.06.08 7.91 5.09 15.34 13.87 20.41l125.45 72.45c.4.23 6.14 3.48 6.61 3.62a50.56 50.56 0 0 0 26.76 5.2c6.79 0 16.29-3.41 21.15-6.22l299.84-172.58c7.31-4.22 11.39-10.8 11.32-18.06-.08-7.91-5.09-15.34-13.87-20.41l-129.21-74.6a62.63 62.63 0 0 0 -9.53-4.36 56.21 56.21 0 0 0 -16.38-2.9c-8.15-.16-15.69 1.52-21.54 4.88z" opacity=".18"/><path d="m381.4 295.47-303.18 174.53c-7 4-10.85 10.28-10.74 17.14.11 7.44 4.89 14.48 13.29 19.33l126.06 72.79c.61.34 6 3.34 6.68 3.56a49.15 49.15 0 0 0 26.93 4.44c6 0 16.52-4.21 20.84-6.7l298.17-171.65c7-4 10.85-10.28 10.74-17.14-.11-7.45-4.9-14.48-13.29-19.33l-128.43-74.15a73.39 73.39 0 0 0 -9.43-4.42 55.69 55.69 0 0 0 -16.21-3.11c-8.09-.23-15.66 1.37-21.43 4.71z" opacity=".27"/><path d="m381.64 296-303.18 174.5c-6.69 3.86-10.31 9.77-10.16 16.23.15 7 4.7 13.62 12.71 18.24l126.66 73.13c.8.46 5.8 3.22 6.74 3.51a47.57 47.57 0 0 0 27.1 3.68c5.28 0 16.75-5 20.53-7.19l296.5-170.66c6.68-3.86 10.31-9.77 10.16-16.23-.15-7-4.7-13.62-12.71-18.25l-127.65-73.7a87.07 87.07 0 0 0 -9.32-4.48 55.37 55.37 0 0 0 -16.02-3.31c-8.06-.32-15.64 1.21-21.36 4.53z" opacity=".36"/><path d="m381.88 296.51-303.18 174.49c-6.37 3.68-9.76 9.25-9.58 15.31.19 6.52 4.51 12.77 12.13 17.17l127.25 73.52a73.52 73.52 0 0 0 6.81 3.44 46.07 46.07 0 0 0 27.27 2.93c4.52 0 17-5.8 20.23-7.68l294.82-169.69c6.37-3.68 9.76-9.25 9.58-15.31-.19-6.52-4.51-12.76-12.13-17.16l-126.87-73.29c-1.63-.94-7.35-3.88-9.22-4.56a55.17 55.17 0 0 0 -15.9-3.51c-7.95-.4-15.54 1.07-21.21 4.34z" opacity=".45"/><path d="m382.13 297-303.13 174.54c-6.07 3.5-9.22 8.74-9 14.4.17 6.06 4.26 11.91 11.5 16.06l127.83 73.8a61 61 0 0 0 6.88 3.39c8.68 3.6 19.18 4.43 27.44 2.16 3.77 0 17.22-6.59 19.92-8.15l293.15-168.71c6.06-3.5 9.22-8.74 9-14.4-.23-6.06-4.31-11.9-11.55-16.08l-126.09-72.8c-1.35-.78-7.57-4-9.11-4.62a54.61 54.61 0 0 0 -15.75-3.71c-7.88-.48-15.48.91-21.09 4.12z" opacity=".55"/><path d="m382.37 297.56-303.18 174.51c-5.75 3.32-8.67 8.22-8.42 13.48.27 5.59 4.12 11 11 15l128.42 74.14a51.77 51.77 0 0 0 7 3.34c8.88 3.47 19.56 4 27.6 1.4 3 0 17.46-7.39 19.62-8.64l291.4-167.79c5.75-3.32 8.67-8.23 8.41-13.49-.26-5.6-4.11-11-11-15l-125.22-72.32c-1.08-.63-7.77-4.22-9-4.7a54.49 54.49 0 0 0 -15.59-3.91c-7.87-.58-15.49.77-21.04 3.98z" opacity=".64"/><path d="m382.61 298.08-303.18 174.51c-5.43 3.14-8.13 7.7-7.83 12.57.3 5.13 3.92 10.18 10.38 13.92l129 74.48a45.92 45.92 0 0 0 7 3.27c9.07 3.35 19.94 3.67 27.77.65 2.26 0 17.69-8.19 19.31-9.13l289.84-166.81c5.44-3.14 8.13-7.7 7.83-12.57-.3-5.13-3.91-10.18-10.38-13.92l-124.52-71.89c-.82-.47-8-4.39-8.91-4.76a53.88 53.88 0 0 0 -15.43-4.11c-7.75-.64-15.38.61-20.88 3.79z" opacity=".73"/><path d="m382.86 298.6-303.18 174.51c-5.13 3-7.59 7.19-7.26 11.65.34 4.68 3.72 9.33 9.81 12.84l129.59 74.82a41.48 41.48 0 0 0 7.09 3.22c9.27 3.23 20.33 3.29 27.94-.11 1.51 0 17.92-9 19-9.61l288.15-165.85c5.12-3 7.58-7.19 7.25-11.66-.34-4.67-3.72-9.32-9.8-12.84l-123.75-71.44c-.54-.31-8.2-4.57-8.81-4.83-4.7-1.94-9.86-3.8-15.27-4.31-7.68-.72-15.32.47-20.76 3.61z" opacity=".82"/><path d="m383.1 299.12-303.18 174.51c-4.81 2.78-7 6.68-6.67 10.74s3.52 8.47 9.22 11.76l130.19 75.16a38 38 0 0 0 7.14 3.16c9.47 3.1 20.72 2.9 28.12-.87.75 0 18.16-9.79 18.7-10.1l286.46-164.89c4.81-2.78 7-6.67 6.67-10.74s-3.53-8.47-9.22-11.75l-123-71c-.27-.16-8.4-4.77-8.7-4.9-4.66-2-9.75-3.95-15.12-4.52-7.57-.79-15.22.32-20.61 3.44z" opacity=".91"/><path d="m249 571.63 303.17-174.51c9.1-5.26 8-14.43-2.55-20.5l-130.78-75.5c-10.5-6.07-26.4-6.73-35.5-1.48l-303.18 174.51c-9.1 5.26-8 14.44 2.55 20.5l130.78 75.5c10.51 6.07 26.4 6.73 35.51 1.48z"/></g><g opacity=".2"><path d="m237.73 585.56c8.48 0 16.18-1.85 22.26-5.36l310.19-178.54c8.12-4.66 12.82-12.11 12.82-20.35 0-9-5.61-17.46-15.38-23.1l-133.85-77.21a54.79 54.79 0 0 0 -27-6.87c-8.48 0-16.18 1.85-22.26 5.36l-310.22 178.51c-8.12 4.69-12.77 12.1-12.77 20.34 0 9 5.6 17.46 15.38 23.1l133.79 77.25a54.86 54.86 0 0 0 27.04 6.87z" opacity="0"/><path d="m384.72 280-310.18 178.53c-7.8 4.51-12.22 11.58-12.18 19.41 0 8.57 5.41 16.58 14.79 22l127.77 73.78c.21.12 6.45 3.69 6.69 3.76a53.39 53.39 0 0 0 27.21 6.1 47.69 47.69 0 0 0 21.95-5.87l308.48-177.56c7.8-4.51 12.21-11.58 12.18-19.42 0-8.56-5.41-16.57-14.79-22l-133-76.73a55.2 55.2 0 0 0 -9.85-4.39 57.81 57.81 0 0 0 -16.92-2.76c-8.41-.12-16.12 1.66-22.15 5.15z" opacity=".09"/><path d="m385 280.52-310.21 178.55c-7.48 4.32-11.66 11-11.59 18.47.08 8.09 5.21 15.7 14.19 20.89l128.38 74.12c.41.23 6.29 3.55 6.76 3.7a51.86 51.86 0 0 0 27.39 5.32c6.94 0 16.66-3.49 21.63-6.36l306.77-176.57c7.48-4.32 11.66-11.05 11.58-18.48-.08-8.09-5.21-15.7-14.19-20.88l-132.2-76.28a64.07 64.07 0 0 0 -9.75-4.45 57 57 0 0 0 -16.75-3c-8.35-.18-16.07 1.53-22.01 4.97z" opacity=".18"/><path d="m385.22 281.06-310.22 178.54c-7.17 4.14-11.11 10.52-11 17.54.11 7.62 5 14.82 13.59 19.78l129 74.47c.62.35 6.12 3.42 6.83 3.64a50.21 50.21 0 0 0 27.58 4.54c6.17 0 16.9-4.3 21.32-6.85l305.07-175.59c7.16-4.14 11.1-10.52 11-17.54-.11-7.62-5-14.82-13.59-19.78l-131.42-75.81a73.38 73.38 0 0 0 -9.64-4.52 56.58 56.58 0 0 0 -16.6-3.18c-8.27-.3-16.01 1.35-21.92 4.76z" opacity=".27"/><path d="m385.47 281.59-310.19 178.55c-6.84 3.95-10.54 10-10.39 16.6.15 7.14 4.81 13.94 13 18.67l129.58 74.81c.83.48 5.95 3.3 6.9 3.59a48.71 48.71 0 0 0 27.73 3.77c5.4 0 17.14-5.12 21-7.36l303.34-174.6c6.85-3.95 10.55-10 10.4-16.6-.15-7.15-4.81-13.94-13-18.67l-130.6-75.41a88.37 88.37 0 0 0 -9.54-4.59 56.78 56.78 0 0 0 -16.42-3.35c-8.21-.36-15.96 1.21-21.81 4.59z" opacity=".36"/><path d="m385.72 282.13-310.19 178.54c-6.52 3.77-10 9.47-9.8 15.67.2 6.67 4.61 13.06 12.41 17.56l130.19 75.16a74.38 74.38 0 0 0 7 3.53 47.15 47.15 0 0 0 27.9 3c4.63 0 17.38-5.93 20.7-7.85l301.59-173.63c6.53-3.76 10-9.47 9.8-15.67-.19-6.67-4.6-13.06-12.4-17.56l-129.8-74.94c-1.67-1-7.53-4-9.43-4.66a56.4 56.4 0 0 0 -16.28-3.59c-8.13-.41-15.89 1.09-21.69 4.44z" opacity=".45"/><path d="m386 282.66-310.22 178.54c-6.2 3.59-9.43 8.94-9.2 14.74.23 6.19 4.4 12.17 11.81 16.45l130.79 75.51a62 62 0 0 0 7 3.47c8.89 3.68 19.63 4.53 28.08 2.21 3.85 0 17.62-6.75 20.38-8.34l299.95-172.64c6.21-3.58 9.44-8.94 9.21-14.73-.23-6.2-4.41-12.18-11.82-16.45l-128.98-74.48c-1.39-.8-7.75-4.14-9.33-4.73a56 56 0 0 0 -16.11-3.8c-8.08-.49-15.85.94-21.56 4.25z" opacity=".55"/><path d="m386.22 283.2-310.22 178.54c-5.88 3.4-8.87 8.41-8.61 13.79.27 5.73 4.21 11.3 11.22 15.35l131.39 75.86a54 54 0 0 0 7.1 3.41c9.09 3.55 20 4.14 28.25 1.44 3.09 0 17.86-7.57 20.07-8.85l298.24-171.65c5.88-3.39 8.88-8.41 8.61-13.79-.27-5.73-4.2-11.3-11.22-15.35l-128.2-74c-1.11-.64-8-4.31-9.21-4.8a55.67 55.67 0 0 0 -15.95-4c-8-.59-15.79.76-21.47 4.05z" opacity=".64"/><path d="m386.47 283.73-310.19 178.54c-5.56 3.22-8.32 7.89-8 12.86.31 5.26 4 10.42 10.63 14.24l132 76.21a47.48 47.48 0 0 0 7.17 3.35c9.29 3.43 20.41 3.75 28.42.66 2.32 0 18.1-8.38 19.76-9.34l296.5-170.67c5.56-3.21 8.32-7.88 8-12.86-.31-5.25-4-10.42-10.63-14.24l-127.4-73.55c-.83-.48-8.17-4.49-9.11-4.87a55.24 55.24 0 0 0 -15.79-4.21c-7.94-.65-15.74.63-21.36 3.88z" opacity=".73"/><path d="m386.71 284.26-310.18 178.55c-5.25 3-7.76 7.35-7.42 11.92.34 4.78 3.8 9.54 10 13.13l132.59 76.56a43.26 43.26 0 0 0 7.24 3.29c9.49 3.3 20.8 3.36 28.6-.12 1.54 0 18.33-9.19 19.44-9.83l294.82-169.68c5.24-3 7.76-7.36 7.42-11.93-.34-4.78-3.81-9.54-10-13.13l-126.6-73.09c-.55-.33-8.38-4.69-9-4.94-4.81-2-10.09-3.9-15.62-4.42-7.9-.74-15.72.48-21.29 3.69z" opacity=".82"/><path d="m387 284.8-310.22 178.54c-4.93 2.85-7.21 6.83-6.83 11 .38 4.31 3.61 8.66 9.43 12l133.2 76.9a39.83 39.83 0 0 0 7.31 3.23c9.69 3.17 21.2 3 28.77-.89.77 0 18.58-10 19.13-10.34l293.08-168.67c4.92-2.85 7.2-6.83 6.83-11s-3.61-8.66-9.44-12l-125.8-72.63c-.28-.16-8.59-4.88-8.9-5-4.76-2-10-4-15.47-4.62-7.79-.85-15.62.3-21.09 3.48z" opacity=".91"/><path d="m249.75 563.6 310.19-178.54c9.31-5.38 8.14-14.77-2.61-21l-133.8-77.25c-10.75-6.21-27-6.88-36.32-1.51l-310.21 178.58c-9.31 5.37-8.15 14.76 2.6 21l133.8 77.24c10.78 6.18 27.04 6.88 36.35 1.48z"/></g><path d="m205.81 565.86-125.09-72.22c-14.11-8.15-12.34-22.38 4-31.79l294.09-169.85c16.29-9.4 40.94-10.42 55.05-2.28l125.14 72.28c14.11 8.15 12.34 22.38-4 31.78l-294.14 169.8c-16.3 9.42-40.94 10.42-55.05 2.28z" fill="url(#c)"/><path d="m205.81 563.71-125.09-72.22c-6.31-3.64-9.44-8.49-9.53-13.59 0-.45 0-10.25 0-10.71.52-5.9 5.06-2.65 13.43-7.48l294.19-169.82c16.29-9.41 40.94-10.43 55.05-2.28l125.14 72.22c6.3 3.64 9.43-2.77 9.52 2.33 0 .44 0 12.14-.05 12.58-.5 5.91-5 12-13.43 16.87l-294.18 169.82c-16.3 9.41-40.94 10.43-55.05 2.28z" fill="url(#d)"/><path d="m205.81 553-125.09-72.22c-14.11-8.15-12.34-22.38 4-31.79l294.09-169.82c16.29-9.4 40.94-10.43 55.05-2.28l125.14 72.22c14.11 8.15 12.34 22.38-4 31.78l-294.14 169.82c-16.3 9.41-40.94 10.43-55.05 2.29z" fill="url(#e)"/><path d="m80.72 479.37 125.09 72.22c14.11 8.15 38.75 7.12 55.05-2.28l294.14-169.82c8.58-5 13.13-11.24 13.46-17.28.35 6.45-4.21 13.35-13.46 18.68l-294.14 169.82c-16.3 9.41-40.94 10.43-55.05 2.29l-125.09-72.22c-6.69-3.86-9.8-9.09-9.5-14.52.27 4.92 3.39 9.59 9.5 13.11z" fill="url(#f)"/><path d="m88 451.11 294.49-170c14.28-8.25 35.89-9.14 48.26-2l124.42 71.84c12.37 7.14 10.82 19.61-3.46 27.86l-294.5 170c-14.28 8.25-35.88 9.15-48.25 2l-124.45-71.81c-12.37-7.17-10.82-19.65 3.49-27.89z" fill="url(#g)"/><path d="m93.69 453.56 293-169.18c11.95-6.91 30-7.66 40.39-1.68l121.8 70.3c10.35 6 9 16.42-2.9 23.32l-292.98 169.19c-12 6.9-30 7.65-40.39 1.67l-121.83-70.3c-10.35-5.98-9.05-16.42 2.91-23.32z" fill="#1f0d3d"/><path d="m530.54 345.27c-6 3.47-15.78 3.46-21.83 0l-68.14-39.34c-6.05-3.49-6.08-9.13-.07-12.6l-14.45-8.35c-9.76-5.63-25.53-5.66-35.23-.06l-296.26 171.01c-9.7 5.6-9.65 14.7.11 20.34l119 68.67c9.76 5.64 25.53 5.66 35.22.06l296.22-171c9.69-5.6 9.64-14.71-.11-20.34z" fill="#3d065f"/><path d="m231.33 546.77a33.27 33.27 0 0 0 16.31-3.85l296.26-171c3.89-2.25 6-5.1 6-8s-2.19-5.85-6.15-8.14l-13.27-7.78a25.37 25.37 0 0 1 -10.79 2.26 24.71 24.71 0 0 1 -12.19-3l-68.14-39.26c-3.71-2.14-5.76-5.13-5.76-8.42a8.54 8.54 0 0 1 2.59-6l-11.35-6.58a33.56 33.56 0 0 0 -16.51-3.92c-6.21 0-12 1.37-16.3 3.86l-296.27 171.06c-3.89 2.24-6 5.09-6 8s2.18 5.85 6.14 8.14l119 68.67a33.59 33.59 0 0 0 16.43 3.96z" fill="url(#h)"/><path d="m499.44 422.36 13.64-7.88a7.36 7.36 0 0 0 3.08-5.88c0-2.27-1.38-3.32-3.08-2.33l-13.64 7.87a7.38 7.38 0 0 0 -3.08 5.89c0 2.27 1.38 3.31 3.08 2.33z" fill="url(#i)"/><path d="m499.44 422.36 13.64-7.88a7.36 7.36 0 0 0 3.08-5.88c0-2.27-1.38-3.32-3.08-2.33l-13.64 7.87a7.38 7.38 0 0 0 -3.08 5.89c0 2.27 1.38 3.31 3.08 2.33z" fill="url(#j)"/><path d="m498.22 421.92a1.73 1.73 0 0 0 .82-.26l13.63-7.87a6.59 6.59 0 0 0 2.68-5.19c0-.88-.27-1.9-1.05-1.9a1.69 1.69 0 0 0 -.82.26l-13.64 7.87a6.63 6.63 0 0 0 -2.68 5.2c0 .87.28 1.89 1.06 1.89z" fill="url(#k)"/><path d="m475.1 436.41 13.63-7.87a7.36 7.36 0 0 0 3.09-5.89c0-2.27-1.38-3.31-3.09-2.33l-13.63 7.87a7.4 7.4 0 0 0 -3.08 5.89c-.02 2.27 1.38 3.31 3.08 2.33z" fill="url(#l)"/><path d="m475.1 436.41 13.63-7.87a7.36 7.36 0 0 0 3.09-5.89c0-2.27-1.38-3.31-3.09-2.33l-13.63 7.87a7.4 7.4 0 0 0 -3.08 5.89c-.02 2.27 1.38 3.31 3.08 2.33z" fill="url(#m)"/><path d="m473.88 436a1.75 1.75 0 0 0 .82-.27l13.63-7.87a6.61 6.61 0 0 0 2.68-5.19c0-.87-.27-1.9-1.05-1.9a1.72 1.72 0 0 0 -.82.27l-13.64 7.87a6.62 6.62 0 0 0 -2.68 5.19c0 .9.28 1.9 1.06 1.9z" fill="url(#n)"/><path d="m356.27 495.87 198.73-115.25c8.39-4.84 12.93-10.95 13.43-16.86 0-.2 0-2.58 0-5.22v12.72c-.5 5.91-5 12-13.43 16.87z" fill="#3d065f"/><path d="m131.83 520.13 22.38 12.93c0-4.09-2.48-8.85-5.55-10.62l-11.28-6.51c-3.07-1.77-5.55.11-5.55 4.2z"/><path d="m268.26 524.79-124.25-71.74 238.39-138.33 124.25 71.73z" opacity=".02"/><path d="m268.73 523.25-122.51-70.73 235.47-136.65 122.51 70.73z" opacity=".05"/><path d="m269.2 521.71-120.77-69.73 232.55-134.96 120.77 69.73z" opacity=".07"/><path d="m269.67 520.17-119.04-68.72 229.64-133.28 119.04 68.72z" opacity=".1"/><path d="m270.14 518.64-117.3-67.73 226.72-131.59 117.3 67.72z" opacity=".12"/><path d="m270.62 517.1-115.57-66.72 223.8-129.91 115.57 66.72z" opacity=".15"/><path d="m271.09 515.57-113.83-65.72 220.88-128.23 113.83 65.72z" opacity=".17"/><path d="m271.56 514.03-112.1-64.72 217.97-126.54 112.1 64.71z" opacity=".2"/><path d="m272.03 512.49-110.36-63.71 215.06-124.86 110.35 63.71z" opacity=".22"/><path d="m272.5 510.95-108.62-62.71 212.13-123.17 108.63 62.71z" opacity=".25"/><path d="m272.97 509.42-106.88-61.71 209.22-121.49 106.88 61.71z" opacity=".27"/><path d="m273.44 507.88-105.15-60.71 206.31-119.8 105.15 60.7z" opacity=".3"/><path d="m269.83 504.3-119.89-69.22 231.07-134.1 119.88 69.22z" fill="url(#o)"/><path d="m473.82 386-119.89-69.21 32.52-18.96 119.89 69.22z" fill="url(#p)"/><path d="m273.86 483.75-33.4-19.28c-3.24-1.87-2.83-5.14.91-7.3 3.75-2.16 9.41-2.4 12.65-.52l33.4 19.28c3.24 1.87 2.83 5.14-.91 7.3s-9.41 2.4-12.65.52z" fill="url(#q)"/><path d="m229.45 443.72c3.16 1.82 3.17 4.78 0 6.59a12.64 12.64 0 0 1 -11.41 0l-31.5-18.19c-3.16-1.82-3.17-4.78 0-6.59a12.64 12.64 0 0 1 11.41 0zm1.09-.63-31.54-18.18a15 15 0 0 0 -13.59 0c-3.75 2.16-3.73 5.68 0 7.85l31.59 18.16a15 15 0 0 0 13.59 0c3.75-2.16 3.73-5.68 0-7.85z" fill="url(#r)"/><g fill="#7c1dc9"><path d="m369.08 347.06-19.39 11.2-19.76-11.41 19.39-11.19zm3.28 0-23.05-13.3-22.66 13.08 23.05 13.3z"/><path d="m411.99 377.19-39.34-22.71 1.6-.93 39.34 22.72z"/><path d="m314.42 473.44-112.21-64.78.51-.29 112.21 64.78z"/><path d="m407.43 379.82-39.34-22.71 1.6-.92 39.34 22.71z"/><path d="m389.9 375.06-26.45-15.27 1.6-.92 26.45 15.27z"/><path d="m327.87 370.86-19.39 11.19-19.76-11.4 19.39-11.2zm3.28 0-23-13.3-22.66 13.08 23.05 13.3 22.66-13.08z"/><path d="m370.78 400.98-39.34-22.71 1.6-.92 39.34 22.71z"/><path d="m366.22 403.62-39.34-22.72 1.6-.92 39.34 22.71z"/><path d="m348.69 398.86-26.45-15.28 1.6-.92 26.45 15.27z"/><path d="m286.54 394.72-19.39 11.19-19.76-11.4 19.39-11.2zm3.28 0-23.05-13.3-22.66 13.08 23.05 13.31z"/><path d="m329.45 424.84-39.34-22.71 1.6-.92 39.34 22.71z"/><path d="m324.89 427.48-39.34-22.71 1.6-.93 39.34 22.72z"/><path d="m307.36 422.72-26.45-15.28 1.6-.92 26.45 15.28z"/><path d="m431.77 395.84c-2.72-1.57-2.73-4.12 0-5.68a10.9 10.9 0 0 1 9.84 0c2.72 1.57 2.73 4.12 0 5.68a10.9 10.9 0 0 1 -9.84 0zm9.11-5.26a9.36 9.36 0 0 0 -8.44 0c-2.31 1.34-2.3 3.52 0 4.87a9.34 9.34 0 0 0 8.43 0c2.35-1.33 2.34-3.52.01-4.87z"/><path d="m437.67 393.59h1.41c.55 0 1-.26 1-.57s-.45-.58-1-.58h-1.41v-.81c0-.32-.45-.58-1-.58s-1 .26-1 .57v.82h-1.41c-.55 0-1 .26-1 .58a.49.49 0 0 0 .29.4 1.37 1.37 0 0 0 .7.17h1.41v.82a.49.49 0 0 0 .29.4 1.37 1.37 0 0 0 .7.17c.55 0 1-.25 1-.57z"/><path d="m391.09 419.33c-2.72-1.57-2.74-4.12 0-5.68a10.88 10.88 0 0 1 9.83 0c2.73 1.57 2.74 4.12 0 5.68a10.9 10.9 0 0 1 -9.83 0zm9.1-5.26a9.34 9.34 0 0 0 -8.43 0c-2.32 1.34-2.3 3.52 0 4.87a9.34 9.34 0 0 0 8.43 0c2.35-1.34 2.34-3.52 0-4.87z"/><path d="m397 417.07h1.41c.55 0 1-.26 1-.57s-.45-.58-1-.58h-1.41v-.82c0-.31-.45-.57-1-.57s-1 .25-1 .57v.81h-1.4c-.55 0-1 .26-1 .57a.49.49 0 0 0 .29.41 1.48 1.48 0 0 0 .7.17h1.41v.81a.49.49 0 0 0 .29.41 1.48 1.48 0 0 0 .7.17c.55 0 1-.26 1-.57z"/><path d="m349.41 443.39c-2.72-1.57-2.74-4.11 0-5.68a10.88 10.88 0 0 1 9.83 0c2.72 1.57 2.74 4.12 0 5.68a10.85 10.85 0 0 1 -9.83 0zm9.1-5.25a9.31 9.31 0 0 0 -8.43 0c-2.32 1.34-2.3 3.52 0 4.87a9.34 9.34 0 0 0 8.43 0c2.35-1.34 2.34-3.53 0-4.87z"/><path d="m355.31 441.14h1.41c.54 0 1-.25 1-.57s-.45-.57-1-.58h-1.42v-.81c0-.32-.45-.58-1-.58s-1 .26-1 .58v.82h-1.4c-.55 0-1 .25-1 .57a.51.51 0 0 0 .3.4 1.37 1.37 0 0 0 .7.17h1.41v.86a.51.51 0 0 0 .3.4 1.37 1.37 0 0 0 .7.17c.55 0 1-.25 1-.57z"/></g><path d="m477.39 369.34h5.9c.51 0 .93-.24.93-.53s-.42-.54-.93-.54h-5.91v-3.41c0-.29-.42-.53-.93-.53s-.93.24-.93.53v3.41h-5.9c-.51 0-.93.23-.92.53a.46.46 0 0 0 .27.38 1.31 1.31 0 0 0 .66.16h5.9v3.4a.45.45 0 0 0 .27.38 1.31 1.31 0 0 0 .66.16c.51 0 .92-.24.92-.53z" fill="#e6e7e8"/><path d="m269.83 503.03-118.05-69.01-1.84 1.06 119.89 69.22 236.25-137.24-1.84-.21z" fill="url(#s)"/><path d="m381.46 432.08-126.83-73.23 50.41-28.93 126.83 73.22z" opacity=".02"/><path d="m382.98 420.19-118.05-68.15 40.59-23.44 118.05 68.15z" fill="url(#t)"/><g fill="#a56ef4"><path d="m327.22 354.53-19.09 11-19.45-11.23 19.09-11zm3.23 0-22.69-13.1-22.31 12.88 22.69 13.1z"/><path d="m369.48 384.19-38.73-22.36 1.57-.91 38.73 22.36z"/><path d="m364.99 386.79-38.74-22.37 1.57-.91 38.74 22.37z"/><path d="m347.73 382.1-26.05-15.04 1.58-.91 26.04 15.04z"/><path d="m389.47 402.26c-2.68-1.55-2.69-4.06 0-5.59a10.74 10.74 0 0 1 9.69 0c2.68 1.55 2.69 4.06 0 5.6a10.74 10.74 0 0 1 -9.69-.01zm9-5.18a9.19 9.19 0 0 0 -8.3 0c-2.29 1.32-2.28 3.47 0 4.79a9.19 9.19 0 0 0 8.3 0c2.28-1.31 2.26-3.46-.03-4.79z"/><path d="m395.28 400h1.39c.54 0 1-.25 1-.56s-.44-.57-1-.57h-1.39v-.8c0-.31-.44-.57-1-.57s-1 .25-1 .56v.81h-1.39c-.54 0-1 .25-1 .57a.52.52 0 0 0 .28.4 1.48 1.48 0 0 0 .7.16h1.38v.81a.51.51 0 0 0 .29.4 1.41 1.41 0 0 0 .69.16c.54 0 1-.25 1-.56z"/><path d="m404.26 294.26 14.74 8.51a2.44 2.44 0 0 0 2.2 0 .67.67 0 0 0 0-1.27l-14.75-8.5a2.41 2.41 0 0 0 -2.2 0 .67.67 0 0 0 .01 1.26zm13.23 9.38-14.74-8.51a2.45 2.45 0 0 0 -2.19 0 .67.67 0 0 0 0 1.27l14.74 8.51a2.42 2.42 0 0 0 2.19 0 .66.66 0 0 0 0-1.27zm-3.7 2.13-14.73-8.51a2.44 2.44 0 0 0 -2.2 0c-.6.35-.6.91 0 1.27l14.74 8.47a2.44 2.44 0 0 0 2.2 0 .67.67 0 0 0 -.01-1.23z"/></g><path d="m188.48 165.8a22 22 0 0 1 1.89-2.8c-3.56 0-7.1 2-10.15 7.37-11.64 20.47 29.72 89.39 29.72 89.39l.12-19.1c-11.39-21.37-29.84-60.32-21.58-74.86z" fill="url(#u)"/><path d="m203.33 240.75c-13.23-25.24-26-56.63-20.1-67 2.7-4.75 4.92-4.75 5.65-4.75 4.53 0 11.06 6.59 14.84 11.91l5.17 7.25.06-8.85s-18.62-28.62-30.25-8.14 29.71 89.4 29.71 89.4l.07-10.6z" fill="url(#v)"/><path d="m192.32 160.28-8.52 5h.09c11.26-7.17 25.06 14 25.06 14l8.31-4.89s-13.7-21.05-24.94-14.11z" fill="url(#w)"/><path d="m184.1 173.6a14.05 14.05 0 0 1 2.33-3.15 11.07 11.07 0 0 0 -3.52 4.12c-5.91 10.43 6.86 41.81 20.09 67.05l5.16 9.18v7.61l1.17 2 .07-10.6-5.15-9.18c-13.25-25.23-26.07-56.63-20.15-67.03z" fill="#fff8c5" opacity=".37"/><path d="m324.19 400.47h-97.4v4.09.4c0 15.66 21.8 28.36 48.7 28.36s48.7-12.7 48.7-28.36c0-.14 0-.26 0-.4z" fill="url(#x)"/><ellipse cx="275.49" cy="400.67" fill="url(#y)" rx="48.7" ry="24.41"/><path d="m324.19 410.4v-.2c-.01.07 0 .13 0 .2z" fill="url(#z)"/><path d="m275.49 424.48c-26.2 0-47.56-11-48.65-24 0 .35-.05.69-.05 1 0 13.48 21.8 24.41 48.7 24.41s48.7-10.93 48.7-24.41c0-.35 0-.69-.05-1-1.09 13.02-22.45 24-48.65 24z" fill="#fcf5ca"/><path d="m303.46 392.94h-55.94v5.77.22c0 9 12.52 16.29 28 16.29s28-7.29 28-16.29c0-.07 0-.15 0-.22z" fill="url(#A)"/><ellipse cx="275.49" cy="393.05" fill="url(#y)" rx="27.97" ry="14.02"/><path d="m275.49 406.34c-15 0-27.14-5.89-27.9-13.29 0 .24-.07.48-.07.73 0 7.74 12.52 14 28 14s28-6.28 28-14c0-.25 0-.49-.07-.73-.83 7.4-13 13.29-27.96 13.29z" fill="#fcf5ca"/><path d="m288.44 376.59h-25.9s-9.82 13.57-9.82 15.64c0 6.31 10.19 11.41 22.77 11.41s22.77-5.1 22.77-11.41c0-2.07-9.82-15.64-9.82-15.64z" fill="url(#B)"/><ellipse cx="275.49" cy="378.11" fill="url(#y)" rx="12.95" ry="6.49"/><path d="m288.44 348.38h-25.9v27.78.11c0 4.16 5.8 7.54 12.95 7.54s12.95-3.38 12.95-7.54v-.11z" fill="url(#C)"/><path d="m288.44 348.44c0 3.58-5.8 6.49-12.95 6.49s-12.95-2.91-12.95-6.49 5.8-6.5 12.95-6.5 12.95 2.91 12.95 6.5z" fill="url(#y)"/><circle cx="275.49" cy="336.42" fill="url(#D)" r="17.5"/><path d="m201.08 215.07s0 7.59 0 7.88c12.88 93.55 47.3 117.3 74.54 117.3s63.54-32.74 74.54-117.3c0-.29 0-7.88 0-7.88z" fill="url(#E)"/><path d="m352.94 201.7h-154.64v8.78.62c0 24.87 34.62 45 77.32 45s77.32-20.15 77.32-45c0-.21 0-.42 0-.62z" fill="url(#F)"/><ellipse cx="275.62" cy="202.01" fill="url(#G)" rx="77.32" ry="45.03"/><ellipse cx="275.62" cy="201.67" fill="url(#H)" rx="72.89" ry="40.76"/><path d="m363 254.15c-6.71-17.31-27.9-21.25-27.9-21.25l-11.21 6.1s21 3.88 27.62 21 6.62 42.67-24.4 57.24l11-5.13c31.61-14.71 31.59-40.64 24.89-57.96z" fill="url(#I)"/><path d="m351.51 260c-6.64-17.13-27.62-21-27.62-21l.47 5.64c4.5 1.67 17.82 5.73 22.28 17.25 8.73 22.52.21 40.42-21.95 50.74-16 7.47-24.34 11.33-28.63 13.31l-2.36 6.83s1.93-.85 33.19-15.41 31.26-40.23 24.62-57.36z" fill="url(#J)"/><path d="m338.1 304-1.11.73c-7.5 4.67-23.48 11.3-23.48 11.3l-17.45 9.92c4.29-2 12.59-5.84 28.63-13.31a53.37 53.37 0 0 0 13.41-8.64z" fill="url(#K)"/><g fill="#a56ef4"><path d="m135.38 455.53a6.77 6.77 0 0 1 3.46 1c2.68 1.54 1.8 3-.07 4.16.22.24.07.6-.4.88a1.84 1.84 0 0 1 -.85.18 3 3 0 0 1 -1-.15 12.42 12.42 0 0 1 -2.79.3c-.72 0-1.31.33-1.29.75a2.91 2.91 0 0 0 1 2c.86.81.69 1.87-.51 2.56l-2.08 1.2a1.42 1.42 0 0 1 -.72.17 1.47 1.47 0 0 1 -.74-.17l-11.13-6.43c-.4-.23-.41-.61 0-.84l2.07-1.2a5.24 5.24 0 0 1 2.54-.61 5.9 5.9 0 0 1 1.89.31 10.67 10.67 0 0 0 3.41.6c.7 0 1.26-.34 1.26-.75a2.81 2.81 0 0 1 .53-1.61.62.62 0 0 1 .05-1 2.29 2.29 0 0 1 1.1-.29 1.49 1.49 0 0 1 .43.06 8 8 0 0 1 3.74-1zm0-1.5a9.31 9.31 0 0 0 -4 1h-.18a3.71 3.71 0 0 0 -1.85.49 2.07 2.07 0 0 0 -1 1.53 2 2 0 0 0 .05.77 4.79 4.79 0 0 0 -.27.89 9.07 9.07 0 0 1 -2.76-.5 7.24 7.24 0 0 0 -2.4-.4 6.68 6.68 0 0 0 -3.29.81l-2.07 1.2a1.93 1.93 0 0 0 0 3.44l11.13 6.43a3.05 3.05 0 0 0 1.49.38 2.87 2.87 0 0 0 1.47-.38l2.08-1.2a3.33 3.33 0 0 0 1.78-2.45 2.94 2.94 0 0 0 -1-2.5l-.13-.13a14.3 14.3 0 0 0 2.12-.25 4.69 4.69 0 0 0 1 .11 3.21 3.21 0 0 0 1.6-.38 2.45 2.45 0 0 0 1.18-1.42 3.84 3.84 0 0 0 1.73-3c0-1.24-.85-2.33-2.44-3.24a8.33 8.33 0 0 0 -4.21-1.18z"/><path d="m234 515.78 1.47 1.37h1.17s.81 0 1.22.06l1.45-1.37a15.42 15.42 0 0 1 2.6.62l-.64 1.57a8.72 8.72 0 0 1 .92.45 8.15 8.15 0 0 1 .78.53l2.71-.37a5.11 5.11 0 0 1 1.09 1.5l-2.38.84a2.59 2.59 0 0 1 0 1.38l2.38.85a5 5 0 0 1 -1.06 1.5l-2.72-.38a8.15 8.15 0 0 1 -.78.53 7.67 7.67 0 0 1 -.91.44l.66 1.57a15.42 15.42 0 0 1 -2.6.62l-1.47-1.38c-.38 0-.77.05-1.16.05s-.82 0-1.23-.05l-1.5 1.32a15.43 15.43 0 0 1 -2.6-.63l.64-1.57a8.67 8.67 0 0 1 -.92-.44 8.15 8.15 0 0 1 -.78-.53l-2.71.37a5.14 5.14 0 0 1 -1.09-1.51l2.38-.84a2.69 2.69 0 0 1 0-1.38l-2.38-.84a5 5 0 0 1 1.06-1.5l2.73.38a5.77 5.77 0 0 1 .77-.53 7.7 7.7 0 0 1 .9-.41l-.66-1.57a15.41 15.41 0 0 1 2.6-.61zm2.71 7.64a4.53 4.53 0 0 0 2.2-.53c1.22-.7 1.22-1.85 0-2.56a4.65 4.65 0 0 0 -2.23-.53 4.54 4.54 0 0 0 -2.21.52c-1.22.71-1.21 1.85 0 2.56a4.56 4.56 0 0 0 2.24.54zm-2.71-9.14h-.22a16.61 16.61 0 0 0 -2.86.68 1.51 1.51 0 0 0 -.89.81 1.49 1.49 0 0 0 0 1.19l.12.3-.16.1-2.12-.3h-.21a1.48 1.48 0 0 0 -1.05.43 6.51 6.51 0 0 0 -1.38 2 1.5 1.5 0 0 0 .87 2l.34.12-.33.12a1.5 1.5 0 0 0 -.86 2 6.72 6.72 0 0 0 1.4 2 1.53 1.53 0 0 0 1 .43h.2l2.12-.29.18.12-.12.29a1.49 1.49 0 0 0 0 1.19 1.47 1.47 0 0 0 .89.8 15.74 15.74 0 0 0 2.86.69h.22a1.52 1.52 0 0 0 1-.41l1-.92h1.28l1 .93a1.5 1.5 0 0 0 1 .41h.22a16.61 16.61 0 0 0 2.86-.68 1.5 1.5 0 0 0 .89-.8 1.48 1.48 0 0 0 0-1.2l-.12-.29.16-.1 2.12.3h.21a1.45 1.45 0 0 0 1.05-.44 6.39 6.39 0 0 0 1.38-2 1.5 1.5 0 0 0 -.86-2l-.35-.13.33-.11a1.53 1.53 0 0 0 .88-.83 1.5 1.5 0 0 0 0-1.21 6.73 6.73 0 0 0 -1.39-2 1.52 1.52 0 0 0 -1.06-.43h-.2l-2.12.29-.18-.11.12-.3a1.5 1.5 0 0 0 -.9-2 18.11 18.11 0 0 0 -2.86-.69h-.23a1.48 1.48 0 0 0 -1 .41l-1 .92h-.66-.62l-1-.94a1.51 1.51 0 0 0 -1-.4zm1.25 7.32a3.48 3.48 0 0 1 2.87 0 3.48 3.48 0 0 1 -2.87 0z"/><path d="m157.17 477.51 3.39 2-6.15 3.49-3.4-2 6.16-3.55zm9.06.71 3.39 2-10.06 5.78-3.4-2 10.07-5.81zm9.06.71 3.39 2-14 8.08-3.4-2 14-8.08zm-18.12-2.93a1.53 1.53 0 0 0 -.75.2l-6.16 3.55a1.5 1.5 0 0 0 0 2.6l3.4 2a1.43 1.43 0 0 0 .75.2 1.66 1.66 0 0 0 .32 0 1.48 1.48 0 0 0 .68.84l3.4 2a1.43 1.43 0 0 0 .75.2 1.73 1.73 0 0 0 .32 0 1.48 1.48 0 0 0 .68.84l3.4 2a1.44 1.44 0 0 0 .75.21 1.5 1.5 0 0 0 .75-.21l14-8.07a1.49 1.49 0 0 0 0-2.59l-3.39-2a1.44 1.44 0 0 0 -1.5 0l-3.51 2a1.52 1.52 0 0 0 -.66-.78l-3.39-2a1.51 1.51 0 0 0 -1.5 0l-3.51 2.01a1.52 1.52 0 0 0 -.66-.78l-3.39-2a1.53 1.53 0 0 0 -.75-.2z"/><path d="m200.29 494.81a7.75 7.75 0 0 1 3.81.91c1.46.84 1.9 2 1.34 3.11a9.19 9.19 0 0 1 1.58-.14 7.71 7.71 0 0 1 3.8.91c2.1 1.21 2.11 3.17 0 4.37-1.67 1-4.87 1.23-7.95 1.23a73.91 73.91 0 0 1 -7.73-.45s-2.45-6.85 1.36-9.05a7.68 7.68 0 0 1 3.76-.89zm0-1.5a9.26 9.26 0 0 0 -4.51 1.09c-4.84 2.8-2.14 10.53-2 10.86a1.51 1.51 0 0 0 1.24 1 74.1 74.1 0 0 0 7.9.46c4.18 0 7-.47 8.7-1.43a3.78 3.78 0 0 0 0-7 9.13 9.13 0 0 0 -4.47-1.11 4.33 4.33 0 0 0 -2.25-2.77 9.22 9.22 0 0 0 -4.56-1.11z"/></g><path d="m167 391.38-44.86 18.91 2.28 8v.23c2.59 9.09 14.74 12.23 27.12 7s20.33-16.82 17.74-25.92a2 2 0 0 0 -.08-.22z" fill="url(#L)"/><path d="m124.13 417.21.06.23z" fill="url(#M)"/><path d="m151.11 423.75c-12.38 5.22-24.53 2.08-27.12-7l.44 1.54v.23c2.59 9.09 14.74 12.23 27.12 7s20.33-16.82 17.74-25.92a2 2 0 0 0 -.08-.22l-.43-1.53c2.66 9.08-5.28 20.68-17.67 25.9z" fill="url(#N)"/><path d="m169.05 398.53-.07-.22c.02.08.02.15.07.22z" fill="url(#O)"/><g fill="#fdd65b"><path d="m158.26 421.82.58-.43-6-20.91-.63.26z"/><path d="m160.84 419.8c.18-.16.38-.32.56-.49l-5.7-20-.63.26z"/><path d="m163.32 417.45c.19-.2.35-.41.53-.61l-5.34-18.74-.63.27z"/><path d="m155.59 423.52.6-.34-6.13-21.52-.63.27z"/><path d="m167.81 411.06c.15-.31.31-.62.44-.92l-4.1-14.41-.63.26z"/><path d="m169.54 406c.1-.56.18-1.12.23-1.67l-2.8-9.83-.63.27z"/><path d="m165.66 414.59c.17-.23.35-.46.51-.7l-4.84-17-.63.27z"/><path d="m152.84 425 .62-.29-6.22-21.81-.63.27z"/><path d="m150 426.12c.22-.07.43-.16.64-.24l-6.21-21.88-.63.26z"/><path d="m144.14 427.67.68-.1-6-21.16-.63.27z"/><path d="m147.12 427.05.65-.2-6.16-21.62-.63.26z"/><path d="m141.08 428 .69-.05-5.77-20.35-.63.27z"/><path d="m127.08 423.15a13.19 13.19 0 0 0 1 1l-3.36-11.8-.63.27z"/><path d="m131.09 426.15c.26.13.53.24.8.35l-4.37-15.34-.63.27z"/><path d="m137.91 428h.72l-5.47-19.2-.63.26z"/><path d="m134.6 427.42.75.15-5-17.59-.63.26z"/></g><ellipse cx="144.61" cy="400.95" fill="url(#P)" rx="24.51" ry="16.88" transform="matrix(.87206927 -.48938245 .48938245 .87206927 -177.72 122.07)"/><path d="m149.18 417c-12.12 5.11-24 2.19-26.92-6.46 0 .19.07.39.13.59 2.59 9.09 14.73 12.23 27.12 7s20.32-16.82 17.73-25.92c-.05-.19-.14-.36-.2-.55 2.1 8.99-5.74 20.21-17.86 25.34z" fill="url(#Q)"/><path d="m161.38 393.88c1.94 6.8-4 15.48-13.26 19.38s-18.33 1.56-20.27-5.24 4-15.48 13.26-19.38 18.33-1.55 20.27 5.24z" fill="url(#R)"/><path d="m141.84 389c9-3.77 17.72-1.69 20 4.6 0-.22-.08-.45-.14-.68-1.94-6.8-11-9.14-20.28-5.24s-15.19 12.58-13.25 19.38c.06.22.15.42.23.64-1.34-6.7 4.48-14.91 13.44-18.7z" fill="url(#S)"/><path d="m141.48 390c9-3.77 17.72-1.69 20 4.6-.05-.22-.08-.45-.14-.68-1.94-6.8-11-9.14-20.27-5.24s-15.2 12.58-13.26 19.38c.06.22.15.42.23.64-1.34-6.7 4.49-14.97 13.44-18.7z" fill="url(#T)"/><path d="m144.81 396.54c-.39.27-.79.58-1.19.92s-.72.61-1.11 1a14.47 14.47 0 0 0 -1.09 1.13l1.63.41.38-.38.43-.43c.67-.66 1.31-1.25 1.92-1.76a12.07 12.07 0 0 1 1.77-1.27 5.64 5.64 0 0 1 1.72-.66 4.21 4.21 0 0 1 1.76.07 2.46 2.46 0 0 1 1.51.91 2.39 2.39 0 0 1 .43 1.48 5.68 5.68 0 0 1 -.42 1.84 13.59 13.59 0 0 1 -1 2l2.18.55-1.19 1.73-2.22-.56a29.05 29.05 0 0 1 -2.54 2.84 25.61 25.61 0 0 1 -2.77 2.4l-1.84-2.6q.71-.51 1.44-1.11c.42-.34.87-.74 1.37-1.2a14.16 14.16 0 0 0 1.36-1.44l-1.59-.4c-.4.42-.82.84-1.26 1.25-.67.63-1.28 1.16-1.84 1.6a9.22 9.22 0 0 1 -1.59 1 4.59 4.59 0 0 1 -1.45.46 3.74 3.74 0 0 1 -1.41-.09 2.68 2.68 0 0 1 -1.46-.83 2.51 2.51 0 0 1 -.56-1.38 4.65 4.65 0 0 1 .22-1.79 9.1 9.1 0 0 1 .9-2l-1.82-.47 1.19-1.73 1.84.47c.38-.47.77-.91 1.18-1.33s.81-.83 1.22-1.2.81-.74 1.19-1.06l1.08-.9zm-4.2 5.16a.76.76 0 0 0 .59-.1 4.13 4.13 0 0 0 .8-.6l-1.37-.35c-.38.62-.37.96-.02 1.05zm7.63-1.52a.88.88 0 0 0 -.62.15 4.28 4.28 0 0 0 -.81.61l1.33.34a1.79 1.79 0 0 0 .33-.78.29.29 0 0 0 -.23-.32z" fill="url(#U)"/><path d="m144.61 395.83c-.39.28-.79.58-1.19.92s-.72.61-1.11 1-.75.75-1.09 1.14l1.63.41c.11-.13.24-.25.38-.39l.43-.42q1-1 1.92-1.77a12.74 12.74 0 0 1 1.77-1.26 5.64 5.64 0 0 1 1.72-.66 3.9 3.9 0 0 1 1.76.07 2.53 2.53 0 0 1 1.51.9 2.34 2.34 0 0 1 .42 1.48 5.3 5.3 0 0 1 -.41 1.84 13.12 13.12 0 0 1 -1 2l2.18.56-1.19 1.73-2.22-.56a30.26 30.26 0 0 1 -2.54 2.84 25.7 25.7 0 0 1 -2.78 2.39l-1.83-2.6q.7-.51 1.44-1.11c.42-.33.87-.73 1.37-1.19a14.25 14.25 0 0 0 1.36-1.45l-1.59-.4c-.4.42-.82.84-1.27 1.26a22.86 22.86 0 0 1 -1.83 1.59 10 10 0 0 1 -1.59 1 4.59 4.59 0 0 1 -1.45.46 3.74 3.74 0 0 1 -1.41-.09 2.7 2.7 0 0 1 -1.46-.83 2.57 2.57 0 0 1 -.56-1.39 4.67 4.67 0 0 1 .22-1.79 8.85 8.85 0 0 1 .9-2l-1.82-.46 1.19-1.73 1.84.46c.38-.46.77-.9 1.18-1.33s.81-.82 1.22-1.2.81-.73 1.19-1.06l1.08-.89zm-4.2 5.17a.82.82 0 0 0 .59-.11 4 4 0 0 0 .76-.56l-1.37-.35c-.34.59-.33.93.02 1.02zm7.63-1.52a.82.82 0 0 0 -.62.15 4.65 4.65 0 0 0 -.81.6l1.33.34a1.74 1.74 0 0 0 .33-.78.28.28 0 0 0 -.27-.31z" fill="url(#V)"/><path d="m144.61 395.83c-.39.28-.79.58-1.19.92s-.72.61-1.11 1-.75.75-1.09 1.14l1.63.41c.11-.13.24-.25.38-.39l.43-.42q1-1 1.92-1.77a12.74 12.74 0 0 1 1.77-1.26 5.64 5.64 0 0 1 1.72-.66 3.9 3.9 0 0 1 1.76.07 2.53 2.53 0 0 1 1.51.9 2.34 2.34 0 0 1 .42 1.48 5.3 5.3 0 0 1 -.41 1.84 13.12 13.12 0 0 1 -1 2l2.18.56-1.19 1.73-2.22-.56a30.26 30.26 0 0 1 -2.54 2.84 25.7 25.7 0 0 1 -2.78 2.39l-1.83-2.6q.7-.51 1.44-1.11c.42-.33.87-.73 1.37-1.19a14.25 14.25 0 0 0 1.36-1.45l-1.59-.4c-.4.42-.82.84-1.27 1.26a22.86 22.86 0 0 1 -1.83 1.59 10 10 0 0 1 -1.59 1 4.59 4.59 0 0 1 -1.45.46 3.74 3.74 0 0 1 -1.41-.09 2.7 2.7 0 0 1 -1.46-.83 2.57 2.57 0 0 1 -.56-1.39 4.67 4.67 0 0 1 .22-1.79 8.85 8.85 0 0 1 .9-2l-1.82-.46 1.19-1.73 1.84.46c.38-.46.77-.9 1.18-1.33s.81-.82 1.22-1.2.81-.73 1.19-1.06l1.08-.89zm-4.2 5.17a.82.82 0 0 0 .59-.11 4 4 0 0 0 .76-.56l-1.37-.35c-.34.59-.33.93.02 1.02zm7.63-1.52a.82.82 0 0 0 -.62.15 4.65 4.65 0 0 0 -.81.6l1.33.34a1.74 1.74 0 0 0 .33-.78.28.28 0 0 0 -.27-.31z" fill="url(#W)"/><path d="m569.61 324.28-28.53 37.63 5.3 4a1.49 1.49 0 0 1 .14.12c6.05 4.58 17.35-.12 25.23-10.51s9.36-22.53 3.31-27.12l-.16-.11z" fill="url(#X)"/><path d="m545.68 365.4.15.11-.15-.12z" fill="url(#Y)"/><path d="m570.58 354.65c-7.88 10.39-19.17 15.1-25.22 10.51l1 .77.14.13c6.05 4.58 17.35-.12 25.23-10.51s9.36-22.53 3.31-27.12l-.16-.11-1-.78c6.12 4.58 4.58 16.72-3.3 27.11z" fill="url(#Z)"/><path d="m574.37 327.89-.15-.12z" fill="url(#aa)"/><g fill="#fdd65b"><path d="m575.6 349.38c.1-.2.19-.41.29-.61l-13.89-10.55-.4.53z"/><path d="m576.83 346.59c.09-.21.18-.42.26-.64l-13.32-10.1-.4.53z"/><path d="m577.85 343.64c.07-.23.11-.46.17-.7l-12.46-9.45-.4.53z"/><path d="m574.15 352 .34-.57-14.31-10.85-.4.53z"/><path d="m578.77 336.89c0-.29 0-.58 0-.86l-9.58-7.27-.4.53z"/><path d="m578 332.59a11.38 11.38 0 0 0 -.53-1.23l-6.54-5-.4.53z"/><path d="m578.53 340.44c0-.25.09-.5.12-.75l-11.3-8.56-.4.53z"/><path d="m572.51 354.48.39-.53-14.51-11-.4.53z"/><path d="m570.71 356.84.42-.51-14.53-11-.4.52z"/><path d="m566.57 361.15.51-.45-14.08-10.7-.4.53z"/><path d="m568.74 359.07.45-.49-14.38-10.91-.4.53z"/><path d="m564.2 363.07c.19-.13.37-.27.55-.41l-13.53-10.26-.4.52z"/><path d="m550.66 367.69a9.86 9.86 0 0 0 1.24.11l-7.85-5.95-.4.53z"/><path d="m555.24 367.44.81-.21-10.21-7.74-.4.52z"/><path d="m561.59 364.82.61-.37-12.77-9.69-.4.53z"/><path d="m558.66 366.32.68-.32-11.7-8.88-.4.53z"/></g><ellipse cx="555.42" cy="343.15" fill="url(#ab)" rx="23.61" ry="13.75" transform="matrix(.60432104 -.79674091 .79674091 .60432104 -53.63 578.32)"/><path d="m566.08 351.24c-7.71 10.17-18.68 14.86-24.82 10.76.13.1.23.22.36.32 6 4.59 17.34-.12 25.22-10.5s9.37-22.54 3.32-27.12c-.13-.1-.28-.17-.41-.26 5.61 4.8 4.04 16.63-3.67 26.8z" fill="url(#ac)"/><path d="m566.08 329.09c4.53 3.43 3.42 12.51-2.47 20.27s-14.33 11.28-18.86 7.85-3.41-12.5 2.48-20.27 14.33-11.28 18.85-7.85z" fill="url(#ad)"/><path d="m548 336.78c5.69-7.51 13.77-11 18.38-8.14a5 5 0 0 0 -.41-.38c-4.52-3.43-13 .09-18.85 7.86s-7 16.84-2.48 20.27a4.57 4.57 0 0 0 .47.29c-4.02-3.68-2.81-12.39 2.89-19.9z" fill="url(#ae)"/><path d="m548.11 337.61c5.7-7.51 13.77-11 18.38-8.15a4.89 4.89 0 0 0 -.41-.37c-4.52-3.43-13 .08-18.85 7.85s-7 16.84-2.48 20.27a4.66 4.66 0 0 0 .47.3c-4.02-3.67-2.81-12.39 2.89-19.9z" fill="url(#af)"/><path d="m553.67 340.12c-.2.39-.39.82-.57 1.27s-.33.81-.49 1.27-.29.91-.4 1.36l1.51-.63c0-.15.09-.31.15-.47s.11-.35.16-.53c.27-.81.53-1.56.81-2.24a13 13 0 0 1 .91-1.83 6.27 6.27 0 0 1 1.12-1.4 4.87 4.87 0 0 1 1.47-.94 2.5 2.5 0 0 1 1.62-.24 1.58 1.58 0 0 1 1 .74 3.64 3.64 0 0 1 .45 1.46 9.19 9.19 0 0 1 0 1.9l2-.85-.23 1.81-2.06.87a27 27 0 0 1 -2.08 6.45l-2.63-.7c.24-.49.48-1 .7-1.54s.4-1 .6-1.56a12.8 12.8 0 0 0 .5-1.72l-1.48.62c-.14.51-.31 1-.49 1.54-.27.79-.54 1.48-.81 2.08a9.14 9.14 0 0 1 -.87 1.57 5.18 5.18 0 0 1 -1 1.12 4.45 4.45 0 0 1 -1.18.72 2.77 2.77 0 0 1 -1.56.27 1.74 1.74 0 0 1 -1-.61 3 3 0 0 1 -.6-1.31 6.75 6.75 0 0 1 -.13-1.85l-1.7.72.23-1.82 1.71-.72c.11-.52.24-1 .39-1.54s.3-1 .48-1.48.34-.94.52-1.37.34-.83.49-1.2zm-1.2 5.77a1 1 0 0 0 .44-.4 5.07 5.07 0 0 0 .38-.8l-1.28.53c-.01.58.13.78.46.67zm5.58-5.28a1.11 1.11 0 0 0 -.44.45 5.39 5.39 0 0 0 -.4.86l1.24-.53a1.41 1.41 0 0 0 -.07-.7.24.24 0 0 0 -.33-.08z" fill="url(#ag)"/><path d="m553.2 339.76c-.2.4-.39.82-.57 1.27s-.33.81-.49 1.27-.29.92-.4 1.36l1.51-.63c0-.15.09-.3.15-.47s.11-.34.17-.52c.26-.82.53-1.56.8-2.25a13 13 0 0 1 .91-1.83 6.82 6.82 0 0 1 1.12-1.4 5.07 5.07 0 0 1 1.47-.94 2.66 2.66 0 0 1 1.63-.24 1.6 1.6 0 0 1 1 .75 3.59 3.59 0 0 1 .45 1.45 10 10 0 0 1 0 1.91l2-.86-.22 1.82-2.07.87a27.57 27.57 0 0 1 -.84 3.3 26 26 0 0 1 -1.24 3.14l-2.63-.7c.24-.49.48-1 .71-1.54s.39-1 .6-1.55a15.08 15.08 0 0 0 .49-1.73l-1.47.62c-.15.51-.32 1-.5 1.54-.27.79-.54 1.49-.81 2.09a10 10 0 0 1 -.87 1.57 5.37 5.37 0 0 1 -1 1.11 4.76 4.76 0 0 1 -1.18.73 2.81 2.81 0 0 1 -1.55.26 1.74 1.74 0 0 1 -1.06-.61 2.91 2.91 0 0 1 -.6-1.3 6.78 6.78 0 0 1 -.13-1.85l-1.7.71.23-1.81 1.71-.72c.11-.52.24-1 .39-1.54s.31-1 .48-1.48.34-.94.52-1.38l.49-1.19zm-1.2 5.78a1.11 1.11 0 0 0 .44-.4 5.24 5.24 0 0 0 .38-.81l-1.28.54c-.02.58.13.8.46.67zm5.59-5.28a1 1 0 0 0 -.45.44 5.83 5.83 0 0 0 -.4.86l1.26-.56a1.39 1.39 0 0 0 -.07-.7.22.22 0 0 0 -.34-.04z" fill="url(#ah)"/><path d="m442.1 199.23c-1.53 6.43-5 11-9.41 13.12l-7.67 3.8c-4.53 2-.82-2.68-6.17-6.05-10.77-6.78-17-22.95-13.83-36.13 1.55-6.51-4.91-6.64-.43-8.77l8.46-3.89c4.51-2 9.93-1.54 15.22 1.79 10.73 6.78 16.96 22.95 13.83 36.13z" fill="url(#ai)"/><ellipse cx="414.33" cy="190.91" fill="url(#aj)" rx="19.51" ry="27.41" transform="matrix(.95615154 -.29287238 .29287238 .95615154 -37.75 129.75)"/><path d="m428.75 200c-2.32 9.75-10.65 13.58-18.61 8.57s-12.54-17-10.22-26.71 10.64-13.58 18.6-8.57 12.54 16.95 10.23 26.71z" fill="url(#ak)"/><path d="m412 207.22c-8-5-12.54-17-10.23-26.71a15.27 15.27 0 0 1 4.52-8c-3 1.71-5.3 4.91-6.36 9.37-2.32 9.74 2.26 21.7 10.22 26.71 5.11 3.22 10.37 2.77 14.09-.53-3.52 1.94-7.94 1.88-12.24-.84z" fill="url(#al)"/><path d="m420.83 189.94a13.94 13.94 0 0 0 -.95-1.17c-.3-.35-.64-.72-1-1.1a14.66 14.66 0 0 0 -1.18-1.06l-.41 1.73c.13.11.26.23.4.37l.44.42c.69.66 1.3 1.28 1.84 1.88a12.53 12.53 0 0 1 1.31 1.77 5.49 5.49 0 0 1 .7 1.75 4.26 4.26 0 0 1 -.06 1.84 2.83 2.83 0 0 1 -.92 1.63 2.55 2.55 0 0 1 -1.52.54 5.2 5.2 0 0 1 -1.9-.31 12.48 12.48 0 0 1 -2.07-.93l-.55 2.32-1.79-1.13.56-2.36a28.79 28.79 0 0 1 -3-2.45 24.8 24.8 0 0 1 -2.49-2.74l2.66-2.09c.36.47.74.95 1.16 1.43s.76.86 1.24 1.34a13.46 13.46 0 0 0 1.5 1.33l.4-1.69c-.44-.39-.88-.8-1.3-1.24a19.9 19.9 0 0 1 -1.66-1.8 8.82 8.82 0 0 1 -1.06-1.6 4.68 4.68 0 0 1 -.49-1.48 4.08 4.08 0 0 1 .08-1.47 3.1 3.1 0 0 1 .84-1.58 2.74 2.74 0 0 1 1.42-.68 4.74 4.74 0 0 1 1.85.1 8.74 8.74 0 0 1 2.08.81l.46-1.94 1.8 1.13-.47 1.95c.48.36.94.74 1.38 1.13s.85.8 1.25 1.2.76.79 1.1 1.18l.93 1.06zm-5.35-4a.86.86 0 0 0 .11.61 3.76 3.76 0 0 0 .6.76l.34-1.46q-.91-.49-1.05.06zm1.63 7.87a.86.86 0 0 0 -.15-.64 4.59 4.59 0 0 0 -.64-.81l-.33 1.42a1.76 1.76 0 0 0 .8.29.32.32 0 0 0 .32-.29z" fill="url(#am)"/><path d="m419.76 190.38c-.29-.39-.6-.78-1-1.18s-.63-.71-1-1.09-.78-.73-1.18-1.06l-.41 1.73c.13.11.26.23.4.37l.44.42c.69.65 1.3 1.28 1.83 1.88a11 11 0 0 1 1.32 1.77 5.24 5.24 0 0 1 .69 1.75 4.25 4.25 0 0 1 -.05 1.84 2.82 2.82 0 0 1 -.92 1.64 2.5 2.5 0 0 1 -1.51.54 5.13 5.13 0 0 1 -1.9-.31 11.78 11.78 0 0 1 -2.07-.94l-.55 2.32-1.79-1.12.56-2.36a29 29 0 0 1 -2.95-2.45 24.8 24.8 0 0 1 -2.49-2.74l2.66-2.09c.36.47.74.94 1.16 1.43s.76.86 1.24 1.34a15.56 15.56 0 0 0 1.49 1.33l.41-1.69c-.44-.39-.88-.81-1.31-1.24a22.87 22.87 0 0 1 -1.65-1.8 8.91 8.91 0 0 1 -1.07-1.6 4.91 4.91 0 0 1 -.48-1.48 3.85 3.85 0 0 1 .08-1.47 3 3 0 0 1 .84-1.58 2.7 2.7 0 0 1 1.42-.68 4.5 4.5 0 0 1 1.84.1 9.2 9.2 0 0 1 2.09.8l.46-1.93 1.79 1.12-.46 2c.48.36.94.74 1.38 1.13s.85.79 1.25 1.19.75.8 1.09 1.18l.94 1.06zm-5.35-4a.81.81 0 0 0 .11.61 4 4 0 0 0 .59.76l.35-1.46q-.91-.49-1.05.06zm1.63 7.86a.88.88 0 0 0 -.16-.64 4.35 4.35 0 0 0 -.63-.8l-.33 1.42a1.89 1.89 0 0 0 .8.29.32.32 0 0 0 .28-.3z" fill="url(#an)"/><path d="m419.76 190.38c-.29-.39-.6-.78-1-1.18s-.63-.71-1-1.09-.78-.73-1.18-1.06l-.41 1.73c.13.11.26.23.4.37l.44.42c.69.65 1.3 1.28 1.83 1.88a11 11 0 0 1 1.32 1.77 5.24 5.24 0 0 1 .69 1.75 4.25 4.25 0 0 1 -.05 1.84 2.82 2.82 0 0 1 -.92 1.64 2.5 2.5 0 0 1 -1.51.54 5.13 5.13 0 0 1 -1.9-.31 11.78 11.78 0 0 1 -2.07-.94l-.55 2.32-1.79-1.12.56-2.36a29 29 0 0 1 -2.95-2.45 24.8 24.8 0 0 1 -2.49-2.74l2.66-2.09c.36.47.74.94 1.16 1.43s.76.86 1.24 1.34a15.56 15.56 0 0 0 1.49 1.33l.41-1.69c-.44-.39-.88-.81-1.31-1.24a22.87 22.87 0 0 1 -1.65-1.8 8.91 8.91 0 0 1 -1.07-1.6 4.91 4.91 0 0 1 -.48-1.48 3.85 3.85 0 0 1 .08-1.47 3 3 0 0 1 .84-1.58 2.7 2.7 0 0 1 1.42-.68 4.5 4.5 0 0 1 1.84.1 9.2 9.2 0 0 1 2.09.8l.46-1.93 1.79 1.12-.46 2c.48.36.94.74 1.38 1.13s.85.79 1.25 1.19.75.8 1.09 1.18l.94 1.06zm-5.35-4a.81.81 0 0 0 .11.61 4 4 0 0 0 .59.76l.35-1.46q-.91-.49-1.05.06zm1.63 7.86a.88.88 0 0 0 -.16-.64 4.35 4.35 0 0 0 -.63-.8l-.33 1.42a1.89 1.89 0 0 0 .8.29.32.32 0 0 0 .28-.3z" fill="url(#ao)"/><g fill="#fdd65b"><path d="m428.69 163.4c-.14-.1-.27-.21-.42-.3l-.39-.22-8.38 3.9c.17.1.34.17.5.28s.22.16.33.23z"/><path d="m421.29 160.37-8.44 3.93c.44.07.88.17 1.33.28l8.45-3.94c-.45-.11-.9-.19-1.34-.27z"/><path d="m432.38 166.36-8.38 3.89c.21.19.4.41.61.61l8.39-3.86c-.21-.23-.41-.44-.62-.64z"/><path d="m438.52 174.66-8.31 3.87c.13.24.24.48.37.73l8.31-3.88c-.12-.24-.24-.48-.37-.72z"/><path d="m435.83 170.34-8.33 3.87c.17.22.32.45.48.68l8.32-3.89c-.15-.22-.3-.44-.47-.66z"/><path d="m440.58 179.28-8.3 3.87c.09.25.17.51.26.77l8.3-3.87c-.09-.25-.17-.51-.26-.77z"/><path d="m439.1 206.42-8.17 3.81a14.89 14.89 0 0 1 -.89 1.3l8.15-3.79c.32-.42.62-.86.91-1.32z"/><path d="m433.68 203.69c-.09.35-.19.69-.3 1l8.25-3.84c.1-.33.2-.68.29-1z"/><path d="m442.75 195.11c0-.32.08-.63.1-.94l-8.27 3.83c0 .31-.06.62-.09.93z"/><path d="m434.49 192.81c0 .28 0 .57.05.86l8.28-3.85c0-.29 0-.58-.05-.87z"/><path d="m442.15 184.87c0-.27-.1-.54-.16-.82l-8.29 3.87c.06.27.11.54.16.81z"/></g><path d="m428.27 163.1c-5.29-3.33-10.71-3.77-15.22-1.79l-1.13.51c4.3-1.51 9.3-.93 14.21 2.16 10.77 6.77 17 23 13.83 36.12-1.53 6.44-5 11-9.41 13.13-.11.05 2-.81 2.14-.88 4.41-2.16 7.88-6.69 9.41-13.12 3.13-13.18-3.1-29.35-13.83-36.13z" fill="url(#ap)"/><path d="m421.12 166.48c-5.16-3.25-10.36-3.65-14.8-1.84 3.95-.92 8.41-.14 12.78 2.61 10.76 6.77 16.95 22.95 13.82 36.12-1.63 6.86-5.47 11.55-10.29 13.52 5.8-1.36 10.46-6.46 12.32-14.29 3.13-13.17-3.06-29.34-13.83-36.12z" fill="url(#aq)"/><path d="m567 18a1.79 1.79 0 0 0 -1.93-1.76 1.67 1.67 0 0 0 -1.68 1.8 1.69 1.69 0 0 0 1.9 1.77 1.79 1.79 0 0 0 1.71-1.81zm11 77.67a1.78 1.78 0 0 0 -1.65-1.83 1.79 1.79 0 1 0 -.15 3.57 1.79 1.79 0 0 0 1.8-1.7zm53.77 46.11a1.85 1.85 0 0 0 1.89-1.84 1.83 1.83 0 0 0 -3.66-.16c-.07 1.22.67 1.81 1.78 2.04zm-66.62-114.57c-1.11.22-1.82.85-1.71 2a1.66 1.66 0 0 0 1.85 1.61 1.69 1.69 0 0 0 1.71-1.95 1.8 1.8 0 0 0 -1.85-1.66zm1.94 24.12c-.22-1.11-.85-1.87-2-1.78a1.83 1.83 0 0 0 .12 3.66 1.86 1.86 0 0 0 1.88-1.88zm-1.93-12.8c-1.12.23-1.87.86-1.77 2a1.83 1.83 0 0 0 3.66-.16 1.87 1.87 0 0 0 -1.89-1.84zm79.35 112.47c-.06-1.09-.58-1.76-1.66-1.78a1.67 1.67 0 0 0 -.17 3.34 1.61 1.61 0 0 0 1.83-1.56zm-79.34-64.62a1.6 1.6 0 0 0 1.72-1.68 1.53 1.53 0 0 0 -1.52-1.7 1.55 1.55 0 0 0 -1.82 1.56 1.6 1.6 0 0 0 1.62 1.82zm1.79-13a1.67 1.67 0 0 0 -1.69-1.76 1.72 1.72 0 0 0 -.11 3.44 1.66 1.66 0 0 0 1.84-1.7zm31.6 57.3a1.59 1.59 0 0 0 1.64-1.77 1.54 1.54 0 0 0 -1.8-1.58 1.51 1.51 0 0 0 -1.54 1.65 1.59 1.59 0 0 0 1.7 1.68zm-11-11a1.59 1.59 0 0 0 1.63-1.78 1.54 1.54 0 0 0 -1.8-1.58 1.52 1.52 0 0 0 -1.53 1.66 1.59 1.59 0 0 0 1.73 1.71zm-20.65-112.6a1.6 1.6 0 0 0 -1.75-1.66 1.54 1.54 0 0 0 -1.61 1.78 1.51 1.51 0 0 0 1.63 1.56 1.6 1.6 0 0 0 1.73-1.68zm53.54 134.61a1.65 1.65 0 0 0 1.74-1.69 1.72 1.72 0 1 0 -3.43-.11 1.67 1.67 0 0 0 1.69 1.8zm33.37 7.49a1.65 1.65 0 0 0 -1.75 1.68 1.72 1.72 0 1 0 3.44.12 1.67 1.67 0 0 0 -1.69-1.8zm-109.51-108.83c-.17-.88-.68-1.44-1.58-1.34a1.31 1.31 0 0 0 -1.25 1.45 1.33 1.33 0 0 0 1.52 1.34 1.41 1.41 0 0 0 1.31-1.45zm11.54.24c-.09-1.12-.58-1.73-1.57-1.75a1.57 1.57 0 1 0 -.07 3.13 1.56 1.56 0 0 0 1.64-1.38zm-1.67 20.16a1.53 1.53 0 0 0 -1.5 1.66 1.57 1.57 0 0 0 3.13-.12 1.52 1.52 0 0 0 -1.63-1.54zm1.65 12.74c-.12-1.09-.62-1.72-1.63-1.7a1.4 1.4 0 0 0 -1.49 1.48 1.44 1.44 0 0 0 1.58 1.59 1.58 1.58 0 0 0 1.54-1.37zm0-21.93c-.09-1.11-.58-1.73-1.57-1.75a1.43 1.43 0 0 0 -1.6 1.53 1.45 1.45 0 0 0 1.55 1.66 1.56 1.56 0 0 0 1.64-1.44zm-11.54-.2a1.42 1.42 0 0 0 -1.5-1.36 1.32 1.32 0 0 0 -1.31 1.4 1.33 1.33 0 0 0 1.52 1.38 1.42 1.42 0 0 0 1.31-1.42zm55.77 88.56c-.2-.92-.69-1.53-1.59-1.47a1.5 1.5 0 1 0 .18 3 1.56 1.56 0 0 0 1.43-1.53zm9.49 1.65a1.52 1.52 0 0 0 1.53-1.64 1.48 1.48 0 0 0 -1.75-1.58 1.46 1.46 0 0 0 -1.44 1.7 1.53 1.53 0 0 0 1.68 1.52zm-55.41-132.93c1-.12 1.58-.58 1.6-1.47a1.5 1.5 0 1 0 -3-.06c0 .89.64 1.34 1.4 1.53zm.09 7.85a1.53 1.53 0 0 0 -1.52 1.67 1.42 1.42 0 0 0 1.53 1.44 1.44 1.44 0 0 0 1.54-1.6 1.53 1.53 0 0 0 -1.55-1.51zm1.61 12.59a1.52 1.52 0 0 0 -1.56-1.61 1.57 1.57 0 0 0 -.07 3.13 1.51 1.51 0 0 0 1.63-1.52zm-11.53 0a1.41 1.41 0 0 0 -1.31-1.44 1.34 1.34 0 0 0 -1.52 1.36 1.3 1.3 0 0 0 1.24 1.46c.9.07 1.41-.46 1.59-1.37zm89.15 121.83a1.51 1.51 0 0 0 -1.57-1.6 1.47 1.47 0 0 0 -1.64 1.69 1.45 1.45 0 0 0 1.63 1.51 1.52 1.52 0 0 0 1.58-1.59zm-13-1.57c-1 .12-1.58.62-1.55 1.63a1.41 1.41 0 0 0 1.5 1.47 1.43 1.43 0 0 0 1.57-1.6c.02-.84-.59-1.36-1.49-1.49zm-11 3.06c.88-.16 1.49-.66 1.43-1.57a1.46 1.46 0 0 0 -2.92.06 1.5 1.5 0 0 0 1.56 1.52zm-33.35-44.16a1.51 1.51 0 0 0 1.61-1.56 1.47 1.47 0 0 0 -1.62-1.68 1.45 1.45 0 0 0 -1.51 1.63 1.51 1.51 0 0 0 1.59 1.62zm-9.43-1.61c-.12-.88-.59-1.49-1.48-1.51a1.51 1.51 0 1 0 0 3 1.51 1.51 0 0 0 1.55-1.48zm-11-10.91a1.42 1.42 0 0 0 -1.28-1.45 1.4 1.4 0 1 0 -.31 2.79c.91.1 1.41-.47 1.59-1.34zm9.63 1.54a1.52 1.52 0 0 0 1.47-1.68 1.57 1.57 0 0 0 -3.13.16 1.53 1.53 0 0 0 1.66 1.52zm22.31 41.25a1.4 1.4 0 0 0 -1.45 1.25 1.4 1.4 0 1 0 2.79.18c.04-.81-.53-1.27-1.34-1.43zm-.19-7.95c1.08-.14 1.7-.66 1.66-1.66a1.4 1.4 0 0 0 -1.51-1.46 1.44 1.44 0 0 0 -1.56 1.61 1.57 1.57 0 0 0 1.41 1.51zm-11.28-3c-.88.16-1.44.67-1.36 1.57a1.32 1.32 0 0 0 1.44 1.27 1.34 1.34 0 0 0 1.36-1.54 1.41 1.41 0 0 0 -1.44-1.32zm89 36.33c1-.18 1.67-.71 1.59-1.72a1.42 1.42 0 0 0 -1.57-1.4 1.44 1.44 0 0 0 -1.51 1.66 1.57 1.57 0 0 0 1.44 1.44zm-89.15-44.3c1.08-.13 1.72-.63 1.7-1.64a1.42 1.42 0 0 0 -1.49-1.49 1.44 1.44 0 0 0 -1.59 1.58c.03.96.68 1.34 1.38 1.55zm77.82 44.23a1.51 1.51 0 0 0 1.44-1.55 1.5 1.5 0 1 0 -3 .12 1.51 1.51 0 0 0 1.59 1.43zm-11-3c-.88.14-1.5.63-1.46 1.54a1.38 1.38 0 0 0 1.55 1.41 1.36 1.36 0 0 0 1.36-1.4c.03-.95-.57-1.43-1.45-1.58zm-9.55 1.54a1.39 1.39 0 0 0 -1.28-1.44 1.33 1.33 0 0 0 -1.55 1.34 1.31 1.31 0 0 0 1.25 1.45c.9.06 1.41-.5 1.58-1.38zm-77.47-77.63c-.18-1-.66-1.56-1.56-1.54a1.5 1.5 0 1 0 .1 3 1.57 1.57 0 0 0 1.46-1.46zm-12.94-23.67a1.2 1.2 0 0 0 -1.25 1.41 1.15 1.15 0 0 0 1.3 1.15 1.28 1.28 0 0 0 0-2.56zm-12.09 1.25c.16.72.52 1.17 1.19 1.13a1.09 1.09 0 0 0 -.1-2.18 1.16 1.16 0 0 0 -1.09 1.05zm13.23 33.29a1.12 1.12 0 0 0 -1.3-1.08 1 1 0 0 0 -1 1.18 1.08 1.08 0 0 0 1.3 1.1 1.12 1.12 0 0 0 1-1.2zm77.55 77.61c-.14-.64-.5-1.08-1.16-1a1.09 1.09 0 0 0 .1 2.18 1.11 1.11 0 0 0 1.1-1.18zm33.43 0a1.23 1.23 0 1 0 -2.45.09 1.1 1.1 0 0 0 1.27 1.13 1.12 1.12 0 0 0 1.2-1.17zm-22 0c-.12-.71-.53-1.17-1.28-1.09a1 1 0 0 0 -1 1.16 1.08 1.08 0 0 0 1.3 1.12 1.13 1.13 0 0 0 1-1.19zm-66.58-44.21c-.13-.81-.53-1.27-1.29-1.21a1.05 1.05 0 0 0 -1 1.15 1.07 1.07 0 0 0 1.24 1.13 1.16 1.16 0 0 0 1.05-1.07zm77.6 44.3c-.11-.87-.55-1.28-1.32-1.22a1.08 1.08 0 0 0 -1.07 1.33 1.06 1.06 0 0 0 1.18 1 1.14 1.14 0 0 0 1.21-1.11zm-101.19-156.52a1.18 1.18 0 0 0 -1.2 1.26 1.16 1.16 0 0 0 1.39 1.29 1.17 1.17 0 0 0 1.2-1.44 1.19 1.19 0 0 0 -1.39-1.11zm11.44 91.09a1.23 1.23 0 1 0 -.11-2.46 1.11 1.11 0 0 0 -1.12 1.28 1.14 1.14 0 0 0 1.23 1.18zm0 9c-.73.16-1.17.52-1.13 1.19a1 1 0 0 0 1.13 1 1 1 0 0 0 1.05-1.14 1.18 1.18 0 0 0 -1.01-1.06zm10.91 2.43c.85-.08 1.29-.5 1.29-1.27a1.27 1.27 0 1 0 -1.29 1.27zm-22.16-113.45c-.82 0-1.3.38-1.34 1.14a1.12 1.12 0 0 0 1.27 1.32 1.09 1.09 0 0 0 1.17-1.22 1.12 1.12 0 0 0 -1.1-1.24zm-10 45.48c-.14-.64-.5-1.08-1.16-1a1 1 0 0 0 -1 1.14 1 1 0 0 0 1.14 1 1.12 1.12 0 0 0 1.02-1.14zm9.86 32.16c-.78.07-1.22.48-1.18 1.25a1.09 1.09 0 0 0 1.32 1.13 1.06 1.06 0 0 0 1.07-1.14 1.11 1.11 0 0 0 -1.19-1.24zm-9.86-43a1.12 1.12 0 0 0 -1-1.18 1.09 1.09 0 0 0 -.09 2.18c.62.04.97-.41 1.09-1.04zm11.09 32.88a1.23 1.23 0 1 0 -2.45.07 1.11 1.11 0 0 0 1.25 1.15 1.13 1.13 0 0 0 1.22-1.26zm55.54 88.91c-.14-.64-.5-1.09-1.17-1.05a1.09 1.09 0 0 0 .1 2.18 1.11 1.11 0 0 0 1.09-1.17zm11.06.11c-.09-.88-.52-1.3-1.29-1.25a1.1 1.1 0 0 0 -1.1 1.32 1.07 1.07 0 0 0 1.17 1.05 1.13 1.13 0 0 0 1.24-1.16zm9.74-1.35a1.2 1.2 0 0 0 -1.24 1.41 1.13 1.13 0 0 0 1.29 1.14 1.16 1.16 0 0 0 1.24-1.39 1.18 1.18 0 0 0 -1.27-1.2zm-31.73-9.89c0-.77-.35-1.23-1-1.32a1.14 1.14 0 1 0 -.16 2.27 1.15 1.15 0 0 0 1.18-.99zm11.09-.2a1.18 1.18 0 0 0 -1.35-1.26 1.13 1.13 0 0 0 -1.2 1.24 1.16 1.16 0 0 0 1.34 1.3c.79-.06 1.18-.53 1.23-1.32zm66.58 22.43c0-.75-.35-1.25-1.11-1.3a1.12 1.12 0 0 0 -1.35 1.23 1.1 1.1 0 0 0 1.19 1.21 1.14 1.14 0 0 0 1.29-1.18zm-134.51-143.23a1.11 1.11 0 0 0 1.14-1.07 1.09 1.09 0 0 0 -2.18-.09c-.04.67.41 1.01 1.04 1.16zm43.14 109.79c.12.87.59 1.26 1.35 1.18a1.09 1.09 0 0 0 1-1.36 1.06 1.06 0 0 0 -1.21-1 1.14 1.14 0 0 0 -1.14 1.18zm90.13 45.31a1 1 0 0 0 1-.92.94.94 0 0 0 -.85-1.09 1 1 0 0 0 -1.15 1c-.01.56.4.89.98 1.01zm-122.29-77.59a1 1 0 0 0 1-.92 1 1 0 1 0 -2-.12c.01.59.42.92 1 1.04zm-10.84-90.66c-.65.13-1.06.45-1 1a1 1 0 1 0 2-.07 1.08 1.08 0 0 0 -1-.93zm1 56.29a1 1 0 0 0 -1-1 1 1 0 0 0 -1 1.11.94.94 0 0 0 1.06.9 1 1 0 0 0 .87-.99zm54.54 88.17a.75.75 0 0 0 -.7.94.74.74 0 0 0 1 .64.71.71 0 0 0 .61-.82.75.75 0 0 0 -.98-.74zm-10.42-10.6a.86.86 0 1 0 -1.71.18.76.76 0 0 0 .94.71.77.77 0 0 0 .7-.87zm31.59 22.35a.79.79 0 0 0 .79.88.77.77 0 0 0 .92-.73.86.86 0 1 0 -1.71-.15zm-75.94-88.6a.87.87 0 1 0 -1.71.25.78.78 0 0 0 1 .68.8.8 0 0 0 .71-.93zm121.88 99.69a.79.79 0 0 0 -.75-.92.78.78 0 0 0 -1 .69.8.8 0 0 0 .83 1 .79.79 0 0 0 .92-.77zm-11 0c-.07-.62-.35-.91-.88-.9a.81.81 0 0 0 -.85 1 .87.87 0 0 0 1.73-.11zm-11.85-.84a.8.8 0 1 0 .2 1.54.72.72 0 0 0 .69-.76.74.74 0 0 0 -.85-.81zm-66.55-42.62a.79.79 0 0 0 .78-.89.8.8 0 0 0 -1-.83.79.79 0 0 0 -.69 1 .8.8 0 0 0 .95.69zm-11.07-11a.8.8 0 0 0 .88-.79.78.78 0 0 0 -.74-.93.86.86 0 1 0 -.14 1.72zm-22.3-121.84a.8.8 0 0 0 .88-.79.77.77 0 0 0 -.73-.93c-.6 0-1 .23-1 .87a.8.8 0 0 0 .85.85zm135 143a1.66 1.66 0 0 0 -1.76-1.71 1.72 1.72 0 0 0 0 3.44 1.66 1.66 0 0 0 1.77-1.82zm-22.16-11c-.16-1.1-.75-1.86-1.87-1.87a1.87 1.87 0 1 0 0 3.74 1.91 1.91 0 0 0 1.88-1.87zm8.95-1.95c-1.15.25-1.91.91-1.79 2.13a1.9 1.9 0 0 0 3.79-.37 1.91 1.91 0 0 0 -1.99-1.81zm-90.27-75.73a1.77 1.77 0 0 0 1.68 1.81 1.79 1.79 0 1 0 .08-3.57 1.79 1.79 0 0 0 -1.76 1.76zm46.05 68.54c1.17-.2 1.93-.82 1.88-2a1.83 1.83 0 0 0 -3.66 0 1.91 1.91 0 0 0 1.78 2zm-9.05-12.8c-.13-1.1-.71-1.88-1.85-1.89a1.83 1.83 0 0 0 -.14 3.66c1.14.07 1.77-.66 1.99-1.77zm-24.22-35.29c-1.09.17-1.86.77-1.86 1.88a1.87 1.87 0 1 0 3.74 0 1.9 1.9 0 0 0 -1.88-1.88zm13.25 23.91a1.86 1.86 0 0 0 -1.87-1.88 1.84 1.84 0 0 0 -.11 3.67c1.14.06 1.77-.68 1.98-1.79zm-13.27-97.68a1.89 1.89 0 0 0 1.9-1.84 1.77 1.77 0 0 0 -1.93-1.95 1.75 1.75 0 0 0 -1.81 1.89 1.91 1.91 0 0 0 1.84 1.9zm44.36 118c-1.17.14-2 .76-1.94 2a1.76 1.76 0 0 0 1.84 1.86 1.79 1.79 0 0 0 2-1.94c-.05-1.11-.8-1.71-1.9-1.92zm13.31 2c-.09-1.22-.68-2-1.92-2a2 2 0 0 0 -.14 3.9 1.89 1.89 0 0 0 2.06-1.84zm-44.3-33.47c-.21-1.17-.85-1.93-2.08-1.86a1.93 1.93 0 0 0 .12 3.86c1.23.06 1.83-.74 1.96-1.94zm77.57 44.24c-.25-1.14-.91-1.9-2.13-1.78a1.77 1.77 0 0 0 -1.72 2 1.8 1.8 0 0 0 2.09 1.8 1.92 1.92 0 0 0 1.76-1.96zm-66.59-33c-.12-1.31-.72-2.11-2-2.12a1.93 1.93 0 0 0 -.16 3.86 2 2 0 0 0 2.16-1.68zm-22.33-77.77c-.16-1.2-.79-1.94-2-1.91a1.79 1.79 0 0 0 -1.91 2 1.79 1.79 0 0 0 2 1.91c1.2 0 1.8-.8 1.91-2zm0 44.21c-.24-1.14-.9-1.91-2.13-1.78a1.77 1.77 0 0 0 -1.71 2 1.8 1.8 0 0 0 2.09 1.81 1.91 1.91 0 0 0 1.7-2.03zm-1.85-12.84c-1.2.12-2 .72-2 2a1.81 1.81 0 0 0 2 2 1.78 1.78 0 0 0 1.91-1.8c-.04-1.32-.8-1.97-1.96-2.2zm35.15 57.63c-.16-1.18-.78-2-2-1.94a1.93 1.93 0 0 0 0 3.86c1.19.08 1.82-.72 2-1.92zm-35.3-101.91c-1.19.17-2 .81-1.92 2a1.93 1.93 0 0 0 3.86 0c.01-1.22-.75-1.84-1.94-2zm.1 26.3a1.89 1.89 0 0 0 1.86-2.07 2 2 0 1 0 -3.9.16 1.9 1.9 0 0 0 2.04 1.91zm1.9 9c-.14-1.19-.75-1.95-2-1.95a2 2 0 0 0 0 3.91 1.9 1.9 0 0 0 2-1.98zm11.41 22c-.06-1.31-.69-2.1-2-2.1a1.8 1.8 0 0 0 -2 1.92 1.83 1.83 0 0 0 2 2.1 1.87 1.87 0 0 0 2-1.9zm20 35.26a1.87 1.87 0 0 0 1.89-2 2 2 0 1 0 -4 .18c.1 1.24.89 1.8 2.14 1.84zm-9-12.93c-.07-1.32-.71-2.09-2.06-2.09a1.81 1.81 0 0 0 -2 1.93 1.84 1.84 0 0 0 2 2.09 1.88 1.88 0 0 0 2.04-1.91zm-13.07-86.59a1.89 1.89 0 0 0 2-2.09 1.81 1.81 0 0 0 -2-2 1.83 1.83 0 0 0 -2.05 2.06 1.88 1.88 0 0 0 2.05 2.03zm79.7 119.77a1.91 1.91 0 0 0 -2.18-2 1.85 1.85 0 0 0 -1.92 2.2 1.82 1.82 0 0 0 2 1.87 1.92 1.92 0 0 0 2.1-2.07zm-13.49 2.1a1.9 1.9 0 0 0 2.07-2.07 2 2 0 1 0 -4 .07 1.87 1.87 0 0 0 1.93 2zm-8.91-1.93c-.05-1.24-.63-2-1.88-2.09a1.82 1.82 0 0 0 -2.11 2 1.79 1.79 0 0 0 1.95 2 1.86 1.86 0 0 0 2.04-1.9zm-57.22-46.39a1.86 1.86 0 0 0 -2 1.92 2 2 0 1 0 4 .08 1.87 1.87 0 0 0 -2-2zm32.76 37.32c1.24-.05 2-.63 2.09-1.88a2 2 0 1 0 -4-.17 1.87 1.87 0 0 0 1.91 2.05zm-30.73-101.83c-.09-1.39-.75-2.16-2.09-2.14a1.84 1.84 0 0 0 -2 2.1 1.83 1.83 0 0 0 2 2 1.92 1.92 0 0 0 2.09-1.96zm-2 46.27a2 2 0 0 0 2-2.14 2.08 2.08 0 0 0 -4.15.09 2 2 0 0 0 2.12 2.05zm46.31 53.56a1.94 1.94 0 0 0 -2.14-2 2.07 2.07 0 1 0 .09 4.14 1.94 1.94 0 0 0 2.05-2.14zm-46.4-91a2 2 0 0 0 -2.06 2.11 2.08 2.08 0 1 0 4.15 0 2 2 0 0 0 -2.09-2.17zm13.09 57.81c-.1-1.38-.78-2.14-2.11-2.13a2.07 2.07 0 0 0 0 4.14 1.93 1.93 0 0 0 2.11-2.07zm-15.17-33.27a2 2 0 0 0 2.26 1.9 2.07 2.07 0 1 0 -.33-4.13c-1.34.08-1.92.94-1.93 2.23zm4.29-11.18c-.21-1.35-1-2.2-2.34-2.11a2.16 2.16 0 1 0 .3 4.3 2.14 2.14 0 0 0 2.04-2.19zm32.93 66.27c-.21-1.38-1-2.23-2.34-2.15a2 2 0 0 0 -2 2.2 2 2 0 0 0 2.3 2.11 2.17 2.17 0 0 0 2.04-2.16zm20.11 13.56a2.13 2.13 0 0 0 2.18-2 2.16 2.16 0 1 0 -4.31-.09 2.13 2.13 0 0 0 2.13 2.09zm-42.07-113.09a2.12 2.12 0 0 0 -2.07-2.16 2 2 0 0 0 -2.27 2.12 2 2 0 0 0 2.22 2.19 2.14 2.14 0 0 0 2.12-2.15zm11 88.53a2.15 2.15 0 0 0 -2.32-2.12 2 2 0 0 0 -2 2.18 2 2 0 0 0 2.28 2.13 2.15 2.15 0 0 0 2.02-2.19zm44.28 22.37a2.2 2.2 0 0 0 -2.24-2.23 2.2 2.2 0 0 0 -.11 4.39c1.35.09 2.15-.78 2.35-2.16zm-55.22-44.63c-.19-1.36-.92-2.26-2.28-2.24a2.2 2.2 0 0 0 0 4.39 2.23 2.23 0 0 0 2.28-2.15zm-2.29-8.7c1.38-.17 2.32-.9 2.31-2.35a2.11 2.11 0 0 0 -2.2-2.24 2.13 2.13 0 0 0 -2.34 2.3c-.01 1.34.89 2.07 2.23 2.29zm35.64 41.92a2.33 2.33 0 0 0 -2.3-2.22 2.29 2.29 0 0 0 -2.25 2.42 2.19 2.19 0 0 0 2.36 2.09 2.26 2.26 0 0 0 2.19-2.29zm-22.3-21.86a2.29 2.29 0 0 0 -2.36-2.32 2.28 2.28 0 0 0 .06 4.55c1.35.04 2.07-.89 2.3-2.23zm53.3 31a2.28 2.28 0 1 0 .14 4.55 2.19 2.19 0 0 0 2.13-2.33 2.26 2.26 0 0 0 -2.27-2.24zm-66.62-99.96a2.33 2.33 0 0 0 -2.24 2.23 2.28 2.28 0 0 0 2.38 2.28 2.16 2.16 0 0 0 2.12-2.28 2.26 2.26 0 0 0 -2.26-2.23zm2.34 13.28a2.28 2.28 0 0 0 -2.38-2.29 2.12 2.12 0 0 0 -2.21 2.24 2.13 2.13 0 0 0 2.33 2.31c1.34-.01 2.06-.92 2.26-2.26zm0 22.38c-.16-1.4-.89-2.35-2.34-2.35a2.3 2.3 0 0 0 -.12 4.59c1.48.07 2.25-.84 2.49-2.24zm0-11c-.2-1.41-1-2.34-2.39-2.3a2.3 2.3 0 0 0 0 4.59c1.47.01 2.22-.91 2.42-2.31zm41.93 68.57c1.4-.17 2.34-.9 2.33-2.35a2.3 2.3 0 0 0 -4.59-.08c-.05 1.43.85 2.19 2.26 2.43zm-33.33-104.26c-1.4.24-2.32 1-2.24 2.45a2.3 2.3 0 0 0 4.59-.1c-.01-1.45-.94-2.18-2.35-2.35zm13.36 91c-.24-1.47-1-2.39-2.46-2.31a2.27 2.27 0 1 0 .25 4.54 2.3 2.3 0 0 0 2.21-2.27zm33.36 11c-.22-1.48-1-2.4-2.42-2.37a2.33 2.33 0 0 0 .08 4.65 2.32 2.32 0 0 0 2.34-2.34zm-44.3-33.42c-.22-1.39-1-2.3-2.42-2.26a2.32 2.32 0 1 0 .11 4.64c1.44-.09 2.16-1.03 2.31-2.44zm8.7 9a2.32 2.32 0 0 0 -2.45 2.27 2.29 2.29 0 0 0 2.38 2.41 2.19 2.19 0 0 0 2.32-2.33 2.28 2.28 0 0 0 -2.25-2.37zm-8.66-20a2.4 2.4 0 1 0 -2.3 2.39 2.3 2.3 0 0 0 2.3-2.38zm19.81 35.72a2.33 2.33 0 0 0 2.47-2.25 2.28 2.28 0 0 0 -2.36-2.49 2.17 2.17 0 0 0 -2.33 2.31 2.28 2.28 0 0 0 2.22 2.44zm-22.28-77.6a2.32 2.32 0 0 0 2.42-2.29 2.29 2.29 0 0 0 -2.41-2.45 2.19 2.19 0 0 0 -2.29 2.36 2.26 2.26 0 0 0 2.28 2.39zm55.56 83.81a2.38 2.38 0 1 0 .44 4.73 2.2 2.2 0 0 0 2.09-2.55 2.29 2.29 0 0 0 -2.53-2.18zm-42.12-97.25a2.4 2.4 0 0 0 -4.79.16 2.4 2.4 0 0 0 4.79-.16zm-13.36 42a2.33 2.33 0 0 0 -2.41 2.49 2.23 2.23 0 0 0 2.38 2.31 2.31 2.31 0 0 0 2.41-2.48 2.33 2.33 0 0 0 -2.38-2.32zm2.36-20.23a2.22 2.22 0 0 0 -2.32-2.08 2.32 2.32 0 0 0 -2.44 2.41 2.35 2.35 0 0 0 2.52 2.35 2.42 2.42 0 0 0 2.24-2.71zm33.33 67.2a2.38 2.38 0 0 0 -2.48-2.67 2.23 2.23 0 0 0 -2.31 2.38 2.3 2.3 0 0 0 2.48 2.41 2.22 2.22 0 0 0 2.31-2.15zm-10.94-11.2a2.33 2.33 0 0 0 -2.4-2.5 2.42 2.42 0 0 0 -.16 4.83 2.35 2.35 0 0 0 2.56-2.33zm-11.37-11.49a2.42 2.42 0 1 0 -4.84.19 2.25 2.25 0 0 0 2.41 2.27 2.32 2.32 0 0 0 2.43-2.46zm-11-32.63a2.4 2.4 0 0 0 -2.51-2.65 2.22 2.22 0 0 0 -2.28 2.41 2.3 2.3 0 0 0 2.5 2.38 2.23 2.23 0 0 0 2.3-2.14zm41.78 57.44a2.43 2.43 0 1 0 .09-4.85 2.25 2.25 0 0 0 -2.41 2.28 2.35 2.35 0 0 0 2.33 2.57zm-33-77.6a2.24 2.24 0 0 0 2.21-2.49 2.29 2.29 0 0 0 -2.49-2.39 2.24 2.24 0 0 0 -2.34 2.39 2.4 2.4 0 0 0 2.65 2.49zm46.91 75.19a2.3 2.3 0 0 0 -2.44-2.46 2.44 2.44 0 0 0 0 4.88 2.3 2.3 0 0 0 2.47-2.42zm-35.85-86.12a2.31 2.31 0 0 0 2.54-2.37 2.44 2.44 0 0 0 -4.88-.19 2.31 2.31 0 0 0 2.34 2.56zm-8.74 52.75a2.31 2.31 0 0 0 -2.51-2.4 2.44 2.44 0 0 0 .07 4.88 2.32 2.32 0 0 0 2.44-2.48zm-2.49-30.77a2.49 2.49 0 1 0 -.06-5 2.27 2.27 0 0 0 -2.45 2.53 2.33 2.33 0 0 0 2.46 2.47zm0 17.34a2.49 2.49 0 1 0 .13 5 2.27 2.27 0 0 0 2.35-2.54 2.32 2.32 0 0 0 -2.53-2.46zm22.2 33.31a2.49 2.49 0 1 0 .41 5 2.28 2.28 0 0 0 2.2-2.67 2.34 2.34 0 0 0 -2.66-2.33zm-22.3-44.38a2.69 2.69 0 0 0 -2.53 2.71 2.63 2.63 0 0 0 2.76 2.48 2.53 2.53 0 0 0 2.41-2.6 2.62 2.62 0 0 0 -2.64-2.59zm14 35.6a2.67 2.67 0 0 0 -2.55-2.68 2.62 2.62 0 0 0 -2.62 2.6 2.54 2.54 0 0 0 2.45 2.57 2.62 2.62 0 0 0 2.74-2.49zm-2.52-52.71a2.75 2.75 0 0 0 2.58-2.7 2.63 2.63 0 1 0 -5.26.11 2.74 2.74 0 0 0 2.68 2.59zm24.53 63.94a2.63 2.63 0 1 0 -2.58 2.68 2.74 2.74 0 0 0 2.58-2.68zm-13.56-80.18a2.74 2.74 0 0 0 -2.68 2.54 2.63 2.63 0 1 0 5.26.1 2.74 2.74 0 0 0 -2.58-2.64zm-11.04 60.54a2.66 2.66 0 1 0 -2.64-2.63 2.78 2.78 0 0 0 2.64 2.63zm2.7-35.95a2.68 2.68 0 1 0 -2.61 2.66 2.78 2.78 0 0 0 2.61-2.65zm33.29 55.59a2.66 2.66 0 1 0 -5.32.18 2.81 2.81 0 0 0 2.75 2.52 2.77 2.77 0 0 0 2.57-2.69zm-25-14a2.68 2.68 0 1 0 2.66 2.61 2.79 2.79 0 0 0 -2.63-2.61zm13.66-63.54a2.69 2.69 0 0 0 -5.37 0 2.69 2.69 0 0 0 5.37 0zm-24.66 41.59a2.69 2.69 0 1 0 2.71 2.56 2.8 2.8 0 0 0 -2.71-2.56zm35.66-41.69a2.83 2.83 0 0 0 -2.85-2.61 2.77 2.77 0 0 0 -2.55 2.89 2.66 2.66 0 0 0 2.73 2.5 2.77 2.77 0 0 0 2.67-2.78zm-35.64 36.11a2.81 2.81 0 0 0 2.72-2.74 2.76 2.76 0 0 0 -2.79-2.66 2.65 2.65 0 0 0 -2.61 2.63 2.75 2.75 0 0 0 2.68 2.77zm13.69-25a2.81 2.81 0 0 0 -2.74-2.72 2.76 2.76 0 0 0 -2.66 2.79 2.65 2.65 0 0 0 2.63 2.6 2.74 2.74 0 0 0 2.77-2.7zm8.33 52.52a2.72 2.72 0 1 0 2.66 2.83 2.8 2.8 0 0 0 -2.66-2.86zm-8.31-8.28a2.73 2.73 0 1 0 -2.75 2.75 2.8 2.8 0 0 0 2.75-2.78zm0-21.84a2.76 2.76 0 1 0 -2.78 2.68 2.77 2.77 0 0 0 2.81-2.71zm21.94-22.39a2.75 2.75 0 1 0 -2.72 2.73 2.76 2.76 0 0 0 2.75-2.76zm-13.68 2.69a2.75 2.75 0 1 0 -2.8-2.73 2.8 2.8 0 0 0 2.8 2.73zm14.1 52.5a2.75 2.75 0 1 0 -2.74 2.76 2.81 2.81 0 0 0 2.74-2.76zm-22.34-44.43a2.75 2.75 0 1 0 -2.59 2.9 2.83 2.83 0 0 0 2.59-2.9zm-2.71 25.25a2.76 2.76 0 1 0 -2.79-2.66 2.77 2.77 0 0 0 2.79 2.66zm13.71 8.26a2.77 2.77 0 1 0 -2.72 2.73 2.72 2.72 0 0 0 2.72-2.73zm-2.93-36.14a2.79 2.79 0 1 0 3 2.68 2.73 2.73 0 0 0 -3-2.68zm14.31 36.09a2.79 2.79 0 1 0 -2.82 2.8 2.72 2.72 0 0 0 2.82-2.8zm-14.17-13.77a2.81 2.81 0 1 0 2.82 2.79 2.72 2.72 0 0 0 -2.82-2.79zm0-11a2.81 2.81 0 1 0 2.85 2.75 2.71 2.71 0 0 0 -2.88-2.72zm11.43-5.75a2.81 2.81 0 1 0 -2.83-2.8 2.72 2.72 0 0 0 2.8 2.83zm0 22.38a2.86 2.86 0 1 0 -2.84-2.81 2.75 2.75 0 0 0 2.78 2.84zm0-10.95a2.88 2.88 0 1 0 -2.86-2.81 2.78 2.78 0 0 0 2.79 2.84z" fill="#fff" opacity=".42"/><g fill="#50f73e"><path d="m90.13 661.57 15.3-22.93a2.38 2.38 0 0 1 3.3-.66l22.93 15.3a2.38 2.38 0 0 1 .66 3.3l-15.32 22.93a2.37 2.37 0 0 1 -3.3.66l-22.91-15.29a2.39 2.39 0 0 1 -.66-3.31zm36.9-5.65-19-12.65-12.65 19 19 12.65z" opacity=".53"/><path d="m557.5 621.05a17.17 17.17 0 1 1 17.16 17.16 17.18 17.18 0 0 1 -17.16-17.16zm5.06 0a12.1 12.1 0 1 0 12.1-12.11 12.12 12.12 0 0 0 -12.1 12.11z" opacity=".43"/><path d="m132.56 325.68 10-4.61-4.61-10a2.6 2.6 0 1 1 4.72-2.19l4.62 10 10-4.61a2.6 2.6 0 1 1 2.18 4.72l-10 4.62 4.62 10a2.6 2.6 0 0 1 -4.73 2.18l-4.61-10-10 4.62a2.61 2.61 0 1 1 -2.19-4.73z" opacity=".43"/><path d="m53 92.89a1.93 1.93 0 0 0 2.53-1l6.47-15.75 15.7 6.49a1.94 1.94 0 0 0 2.53-1l6.49-15.7 15.7 6.49a1.93 1.93 0 0 0 2.53-1l6.5-15.7 15.7 6.5a1.94 1.94 0 1 0 1.48-3.58l-17.49-7.24a1.93 1.93 0 0 0 -2.53 1l-6.5 15.7-15.7-6.49a1.93 1.93 0 0 0 -2.53 1l-6.49 15.7-15.7-6.49a1.93 1.93 0 0 0 -2.53 1.05l-7.24 17.49a1.93 1.93 0 0 0 1.08 2.53z" opacity=".27"/></g></svg>