<svg viewBox="0 0 741.87 1045.79" xmlns="http://www.w3.org/2000/svg" xmlns:xlink="http://www.w3.org/1999/xlink"><linearGradient id="a" gradientUnits="userSpaceOnUse" x1="569.54" x2="1240.52" y1="399.29" y2="134.78"><stop offset=".04" stop-color="#9f19ab"/><stop offset=".24" stop-color="#ae25b1"/><stop offset=".65" stop-color="#d744bf"/><stop offset="1" stop-color="#ff63ce"/></linearGradient><radialGradient id="b" cx="182.29" cy="457.02" gradientUnits="userSpaceOnUse" r="274.26"><stop offset="0" stop-color="#dc3daa"/><stop offset=".32" stop-color="#ae2eb9"/><stop offset=".64" stop-color="#7c1dc9"/><stop offset="1"/></radialGradient><linearGradient id="c" gradientTransform="matrix(.86330748 .50467831 -.50467831 .86330748 2167.92 960.7)" x1="-2476.32" x2="-1043.95" xlink:href="#a" y1="629.16" y2="308.07"/><radialGradient id="d" cx="564.98" cy="784.02" gradientUnits="userSpaceOnUse" r="1.88"><stop offset="0" stop-color="#fff"/><stop offset=".07" stop-color="#d8d8d8"/><stop offset=".16" stop-color="#a6a6a6"/><stop offset=".26" stop-color="#797979"/><stop offset=".37" stop-color="#545454"/><stop offset=".47" stop-color="#353535"/><stop offset=".59" stop-color="#1e1e1e"/><stop offset=".7" stop-color="#0d0d0d"/><stop offset=".84" stop-color="#030303"/><stop offset="1"/></radialGradient><linearGradient id="e" gradientUnits="userSpaceOnUse" x1="226.64" x2="572.09" y1="525.91" y2="525.91"><stop offset=".04" stop-color="#138bbd"/><stop offset=".23" stop-color="#169ac7"/><stop offset=".59" stop-color="#1fc3df"/><stop offset="1" stop-color="#2af6ff"/></linearGradient><radialGradient id="f" cx="383.66" cy="384.59" gradientUnits="userSpaceOnUse" r="472.35"><stop offset=".38" stop-color="#fff"/><stop offset=".47" stop-color="#f4f2f9"/><stop offset=".63" stop-color="#d8d0e8"/><stop offset=".85" stop-color="#a9c"/><stop offset="1" stop-color="#8770b8"/></radialGradient><radialGradient id="g" cx="361.26" cy="268.94" gradientUnits="userSpaceOnUse" r="130.45"><stop offset=".03" stop-color="#fedfcb"/><stop offset="1" stop-color="#f9b69e"/></radialGradient><linearGradient id="h" gradientUnits="userSpaceOnUse" x1="425.82" x2="371.01" y1="368.95" y2="56.4"><stop offset=".04" stop-color="#602213"/><stop offset=".57" stop-color="#6d310e"/><stop offset="1" stop-color="#7a4108"/></linearGradient><linearGradient id="i" gradientUnits="userSpaceOnUse" x1="496.1" x2="718.8" y1="509.7" y2="879.78"><stop offset=".01" stop-color="#9f19ab"/><stop offset=".43" stop-color="#5f27bd"/><stop offset=".9" stop-color="#3d065f"/></linearGradient><linearGradient id="j" gradientTransform="matrix(.86330748 .50467831 -.50467831 .86330748 2300.54 916.73)" x1="-1983.66" x2="-1256.98" xlink:href="#i" y1="774.61" y2="611.71"/><g fill="#50f73e"><path d="m136.7 51.2 18.35-8.49-8.48-18.35a4.79 4.79 0 0 1 8.69-4l8.48 18.35 18.35-8.48a4.78 4.78 0 1 1 4 8.68l-18.35 8.49 8.49 18.35a4.79 4.79 0 1 1 -8.69 4l-8.47-18.35-18.35 8.48a4.78 4.78 0 0 1 -4-8.68z" opacity=".43"/><path d="m524 959.32a3.31 3.31 0 0 0 4 2.44l28.23-6.82 6.82 28.24a3.31 3.31 0 0 0 4 2.44l28.23-6.82 6.82 28.2a3.31 3.31 0 0 0 4 2.44l28.24-6.82 6.82 28.23a3.31 3.31 0 1 0 6.43-1.55l-7.59-31.41a3.31 3.31 0 0 0 -4-2.44l-28.23 6.81-6.83-28.26a3.31 3.31 0 0 0 -4-2.44l-28.24 6.81-6.82-28.23a3.3 3.3 0 0 0 -4-2.44l-31.45 7.59a3.32 3.32 0 0 0 -2.43 4.03z" opacity=".53"/><path d="m607.29 197.68 28.13-42.16a4.37 4.37 0 0 1 6.07-1.21l42.17 28.13a4.38 4.38 0 0 1 1.21 6.07l-28.13 42.16a4.38 4.38 0 0 1 -6.08 1.22l-42.16-28.13a4.38 4.38 0 0 1 -1.21-6.08zm67.86-10.39-34.87-23.29-23.28 34.9 34.87 23.26z" opacity=".53"/><path d="m15.81 638.51a31.56 31.56 0 1 1 31.56 31.56 31.6 31.6 0 0 1 -31.56-31.56zm9.3 0a22.26 22.26 0 1 0 22.26-22.26 22.28 22.28 0 0 0 -22.26 22.26z" opacity=".43"/></g><path d="m686.25 595c0 78.3-27 133.76-70.94 160.61-1.32.8-28.91 20.36-30.26 21.12-45.7 25.55-16.48-32.44-85.88-72.51-139.69-80.65-252.93-276-252.93-436.26 0-79.27-74.74-77.56-29.86-104 1.25-.74 39.1-24 40.38-24.72 45.58-24.69 107.88-20.14 176.56 19.52 139.68 80.61 252.93 275.93 252.93 436.24z" fill="url(#a)"/><path d="m376.71 799a2 2 0 0 1 -1-.27c-73.81-42.66-142.77-114.95-194.17-203.61s-79.74-184.25-79.74-269c0-64.46 16.57-119.19 47.93-158.27a2 2 0 0 1 3.12 2.49c-30.78 38.37-47.06 92.24-47.06 155.78 0 84.11 28.13 179 79.21 267.05s119.49 159.83 192.71 202.06a2 2 0 0 1 -1 3.73z" fill="url(#b)"/><ellipse cx="396.7" cy="472.1" fill="url(#c)" rx="205.87" ry="356.59" transform="matrix(.86330748 -.50467831 .50467831 .86330748 -184.04 264.75)"/><path d="m560 786c.71-.19 1.4-.43 2.1-.64 1.51-.94 3-2 4.43-3-2.11 1.28-4.26 2.54-6.53 3.64z" fill="url(#d)"/><path d="m403.76 178c-67-38.66-127.8-43.87-173-21.24 3.77-1.06 7.64-1.88 11.56-2.61 42.57-12.82 95.75-4.42 153.51 28.93 139.64 80.62 252.88 275.92 252.88 436.24 0 74.69-24.59 128.58-65 156.69 45.11-26.37 73-82.29 73-161.77-.02-160.24-113.26-355.62-252.95-436.24z" fill="#d75fff"/><path d="m410.71 379.76c-51.46-29.87-107.23-27.69-147.32-4.72s-45 189-26.2 201.88 169.29 95.92 194.81 111.08c29.48 17.57 140-4.48 140-35.15 0-18.29 4.66-163-35.15-196.52-24.46-20.52-74.33-46.49-126.14-76.57z" fill="url(#e)"/><path d="m365.22 652.09-23.35-13.58z" fill="#e6e7e8"/><path d="m365.22 652.09-23.35-13.58z" fill="url(#f)"/><path d="m292.81 210c-7.52 32.43-6.05 129.43 18.36 150.14 19.32 16.39 36.64 5.58 37.83 29.4s-8.83 26.05 5.76 36.51c14 10 94.47 2.76 92.52-22.76-1.83-24-7.18-32.51 3.93-54.74s43.28-58 38.51-89.72-170.31-163.54-196.91-48.83z" fill="url(#g)"/><path d="m280.11 205.86c-12.77-4.91-14.53-40.07 50.26-83.37 49.81-33.29 147.63-26.7 176.54 40.25 30.1 69.6 2.68 107.94-20.18 158.22-13.77 30.31-38.34 34.77-38.34 34.77s10.23-30.82 19.1-42.08c12.94-16.44 22.33-38.18 12.34-50.76-5.57-7-14.3-10.8-26.43 1.33-20.13 20.12-41.3-45.82-91.91-56.18-42.68-8.73-68.55 2.75-81.38-2.18z" fill="url(#h)"/><path d="m714.48 744c0 39.73-13.71 67.86-36 81.48-.67.41-38.07 23.61-38.76 24-23.18 13-8.36-16.46-43.57-36.79-70.87-40.91-128.32-140-128.32-221.33 0-40.21-37.18-40.54-14.4-54 .63-.38 42.5-24.28 43.14-24.63 23.13-12.52 54.73-10.22 89.58 9.9 70.85 40.95 128.33 140.04 128.33 221.37z" fill="url(#i)"/><ellipse cx="544.18" cy="694.93" fill="url(#j)" rx="104.44" ry="180.91" transform="matrix(.86330748 -.50467831 .50467831 .86330748 -276.34 369.64)"/><path d="m550.33 544.61c-34-19.62-64.83-22.26-87.79-10.78 21.4-6 47.95-1.52 76.71 15.09 70.87 40.91 128.32 140 128.32 221.33 0 42.34-15.6 71.47-40.53 83.94 31.33-8.76 51.61-39.93 51.61-88.25 0-81.32-57.45-180.42-128.32-221.33z" fill="#d75fff"/><path d="m461.83 660.72 56.64 123.35a4.8 4.8 0 0 0 7.84 1.31l99.29-104.23a11 11 0 0 0 -.56-15.77l-33.44-30.45a11 11 0 0 0 -16.93 2.53l-53.25 89.77-26.13-62.72a11 11 0 0 0 -8.08-6.59l-20.1-3.92a4.8 4.8 0 0 0 -5.28 6.72z" fill="#fff"/></svg>