<svg xmlns="http://www.w3.org/2000/svg" width="100.229" height="96.491" viewBox="0 0 100.229 96.491">
  <g id="Grupo_727" data-name="Grupo 727" transform="translate(9549 -7073.509)">
    <g id="Interseção_2" data-name="Interseção 2" transform="translate(-9472 7170) rotate(180)" fill="none">
      <path d="M0,6.207A39.347,39.347,0,0,1,.49,0H76.51A39.346,39.346,0,0,1,77,6.207a38.5,38.5,0,1,1-77,0Z" stroke="none"/>
      <path d="M 5.021095275878906 5.000003814697266 C 5.007049560546875 5.402191162109375 5 5.804794311523438 5 6.207019805908203 C 5 10.7758903503418 5.886817932128906 15.20513343811035 7.63580322265625 19.37169075012207 C 9.325157165527344 23.39616203308105 11.74402618408203 27.01096343994141 14.82525634765625 30.11566162109375 C 17.90388488769531 33.21775054931641 21.48671340942383 35.65232086181641 25.4742431640625 37.35176086425781 C 29.5974006652832 39.10900497436523 33.97978591918945 40.00000762939453 38.49965667724609 40.00000762939453 C 43.01969909667969 40.00000762939453 47.40222930908203 39.10900497436523 51.52549743652344 37.35174942016602 C 55.51309967041016 35.65230560302734 59.09600067138672 33.21772003173828 62.1746711730957 30.11563491821289 C 65.25592803955078 27.01094818115234 67.67482757568359 23.39616203308105 69.36418914794922 19.37167739868164 C 71.11318969726563 15.20513343811035 72 10.77590560913086 72 6.207019805908203 C 72 5.804805755615234 71.99295043945313 5.402187347412109 71.97890472412109 5.000003814697266 L 5.021095275878906 5.000003814697266 M 0.4901885986328125 3.814697265625e-06 L 76.50978851318359 3.814697265625e-06 C 76.83249664306641 2.021533966064453 77 4.093776702880859 77 6.207019805908203 C 77 27.63166236877441 59.76298522949219 45.00000762939453 38.49965667724609 45.00000762939453 C 17.23699951171875 45.00000762939453 0 27.63166236877441 0 6.207019805908203 C 0 4.093776702880859 0.1674880981445313 2.021533966064453 0.4901885986328125 3.814697265625e-06 Z" stroke="none" fill="#00cb24"/>
    </g>
    <path id="Op_component_1" data-name="Op component 1" d="M598.239,605.335c11.361,0,20.6-8.825,20.6-19.674s-9.244-19.672-20.6-19.672-20.6,8.825-20.6,19.672S586.879,605.335,598.239,605.335Z" transform="translate(-10108.554 6510.02)" fill="none" stroke="#00cb24" stroke-width="5"/>
    <rect id="Op_component_3" data-name="Op component 3" width="27.257" height="6.709" transform="translate(-9476.027 7114.643)" fill="#00cd23"/>
    <rect id="Op_component_4" data-name="Op component 4" width="6.831" height="26.835" transform="translate(-9465.813 7104.563)" fill="#00cd23"/>
  </g>
</svg>
