<svg xmlns="http://www.w3.org/2000/svg" width="63.507" height="78.134" viewBox="0 0 63.507 78.134">
  <g id="Grupo_657" data-name="Grupo 657" transform="translate(-0.001 0)">
    <g id="money_1_" data-name="money (1)" transform="translate(0.001 0)">
      <g id="Grupo_653" data-name="Grupo 653" transform="translate(18.896 17.869)">
        <g id="Grupo_652" data-name="Grupo 652">
          <g id="Grupo_651" data-name="Grupo 651">
            <path id="Caminho_11228" data-name="Caminho 11228" d="M316.209,117.174h.091S316.229,117,316.209,117.174Z" transform="translate(-294.163 -117.095)" fill="#00cb24"/>
            <path id="Caminho_11229" data-name="Caminho 11229" d="M171.747,117.174h.091C171.818,117,171.747,117.174,171.747,117.174Z" transform="translate(-171.747 -117.095)" fill="#00cb24"/>
          </g>
        </g>
      </g>
      <g id="Grupo_655" data-name="Grupo 655" transform="translate(0 0)">
        <g id="Grupo_654" data-name="Grupo 654">
          <path id="Caminho_11230" data-name="Caminho 11230" d="M110.884,23.57a3.589,3.589,0,0,0-2.253-1.6l-4.953-1.138,2.287-.64a3.613,3.613,0,1,0-1.947-6.958L93.354,16.215a3.637,3.637,0,0,0-1.148-1.259c2.164-4.027,5.282-10.862,5.282-13.8A1.165,1.165,0,0,0,96.107.024,57.19,57.19,0,0,1,84.05,1.231a69.549,69.549,0,0,1-12.07-1.2A1.163,1.163,0,0,0,70.75,1.747,11.956,11.956,0,0,1,72.231,5.7c-3.914.12-7.973-.354-11.046-1.891a1.163,1.163,0,0,0-1.653,1.221A24.983,24.983,0,0,0,64.4,16.8H64.36a3.612,3.612,0,0,0-.472,7.194,43.2,43.2,0,0,1-5.068,6.362c-4.116,4.574-8.782,9.759-10.352,18.131a26.837,26.837,0,0,0,.075,11.14,20.634,20.634,0,0,0,4.231,8.506,26.052,26.052,0,0,0,11.166,7.6,41.626,41.626,0,0,0,27.894,0A26.054,26.054,0,0,0,103,68.129a20.633,20.633,0,0,0,4.231-8.506,26.84,26.84,0,0,0,.075-11.14c-1.57-8.372-6.235-13.557-10.351-18.131-1.4-1.553-2.727-3.034-3.842-4.537l13.9,3.193a3.613,3.613,0,0,0,3.871-5.439ZM84.024,3.536a58.23,58.23,0,0,0,10.938-.948,59.732,59.732,0,0,1-5.05,11.76A3.62,3.62,0,0,0,86.763,16.8h-3.2c-.072-.156-.152-.327-.242-.516-.99-2.1-3.05-6.482-3.05-10.207a1.164,1.164,0,0,0-1.379-1.13,40.688,40.688,0,0,1-4.354.622,14.87,14.87,0,0,0-.774-2.873A77.65,77.65,0,0,0,84.024,3.536Zm7.468,14.413v4.919a1.307,1.307,0,1,1-2.614,0V17.949a1.307,1.307,0,1,1,2.614,0ZM62.221,6.731A29.154,29.154,0,0,0,72.478,8.017l2.285-.144c1.078-.1,2.171-.241,3.273-.428A30.807,30.807,0,0,0,81.015,16.8H67.346a1.18,1.18,0,0,0-.085-.118A22.064,22.064,0,0,1,62.221,6.731ZM95.242,31.894c3.914,4.349,8.349,9.278,9.8,17.013,1.335,7.119.052,13.091-3.814,17.748C96.46,72.4,87.736,75.828,77.888,75.828S59.315,72.4,54.549,66.656C50.683,62,49.4,56.027,50.735,48.908c1.451-7.736,5.886-12.665,9.8-17.014A37.8,37.8,0,0,0,66.5,24.022h2.816a1.153,1.153,0,1,0,0-2.306H64.359a1.307,1.307,0,1,1,0-2.614H86.573v2.613l-17.256-.031a1.153,1.153,0,0,0,0,2.306l17.446.031a3.613,3.613,0,0,0,3.963,2.419A56.069,56.069,0,0,0,95.242,31.894ZM93.8,18.485l10.84-3.034a1.307,1.307,0,1,1,.7,2.517l-6.2,1.734a1.146,1.146,0,0,0-.146.053l-5.2-1.2Zm15.3,7.295a1.308,1.308,0,0,1-1.566.981l-13.8-3.171a3.621,3.621,0,0,0,.072-.721V20.925l14.316,3.289A1.319,1.319,0,0,1,109.1,25.78Z" transform="translate(-47.923 -0.001)" fill="#00cb24"/>
        </g>
      </g>
    </g>
    <g id="Grupo_656" data-name="Grupo 656" transform="translate(21.689 31.916)">
      <path id="Caminho_11218" data-name="Caminho 11218" d="M97.862,224.871a8.092,8.092,0,0,0-7.792-5.887,3.8,3.8,0,1,1,3.81-3.789,2.141,2.141,0,1,0,4.281,0,8.092,8.092,0,0,0-5.887-7.792v-.963a2.141,2.141,0,0,0-4.281,0v.92a8.079,8.079,0,0,0,2.076,15.883,3.8,3.8,0,1,1-3.789,3.81,2.141,2.141,0,1,0-4.281,0,8.132,8.132,0,0,0,5.994,7.813v1.862a2.141,2.141,0,1,0,4.281,0v-1.884A8.075,8.075,0,0,0,97.862,224.871Z" transform="translate(-82 -204.3)" fill="#00cb24"/>
    </g>
  </g>
</svg>
