<svg xmlns="http://www.w3.org/2000/svg" width="77.329" height="51.553" viewBox="0 0 77.329 51.553">
  <g id="credit-card" transform="translate(0 -85.333)">
    <g id="Grupo_689" data-name="Grupo 689" transform="translate(0 85.333)">
      <g id="Grupo_688" data-name="Grupo 688" transform="translate(0 0)">
        <path id="Caminho_11313" data-name="Caminho 11313" d="M69.274,85.333H8.055A8.066,8.066,0,0,0,0,93.388v35.442a8.066,8.066,0,0,0,8.055,8.055H69.274a8.066,8.066,0,0,0,8.055-8.055V93.388A8.066,8.066,0,0,0,69.274,85.333Zm4.833,43.5a4.839,4.839,0,0,1-4.833,4.833H8.055a4.839,4.839,0,0,1-4.833-4.833V93.388a4.839,4.839,0,0,1,4.833-4.833H69.274a4.839,4.839,0,0,1,4.833,4.833v35.442Z" transform="translate(0 -85.333)" fill="#25475f"/>
      </g>
    </g>
    <g id="Grupo_691" data-name="Grupo 691" transform="translate(0 94.999)">
      <g id="Grupo_690" data-name="Grupo 690" transform="translate(0 0)">
        <path id="Caminho_11314" data-name="Caminho 11314" d="M75.718,149.333H1.611A1.612,1.612,0,0,0,0,150.944v9.666a1.612,1.612,0,0,0,1.611,1.611H75.718a1.612,1.612,0,0,0,1.611-1.611v-9.666A1.612,1.612,0,0,0,75.718,149.333ZM74.107,159H3.222v-6.444H74.107V159Z" transform="translate(0 -149.333)" fill="#25475f"/>
      </g>
    </g>
    <g id="Grupo_693" data-name="Grupo 693" transform="translate(9.666 117.553)">
      <g id="Grupo_692" data-name="Grupo 692" transform="translate(0 0)">
        <path id="Caminho_11315" data-name="Caminho 11315" d="M84.943,298.667H65.611a1.611,1.611,0,1,0,0,3.222H84.943a1.611,1.611,0,1,0,0-3.222Z" transform="translate(-64 -298.667)" fill="#25475f"/>
      </g>
    </g>
    <g id="Grupo_695" data-name="Grupo 695" transform="translate(9.666 123.997)">
      <g id="Grupo_694" data-name="Grupo 694" transform="translate(0 0)">
        <path id="Caminho_11316" data-name="Caminho 11316" d="M84.943,341.333H65.611a1.611,1.611,0,1,0,0,3.222H84.943a1.611,1.611,0,0,0,0-3.222Z" transform="translate(-64 -341.333)" fill="#25475f"/>
      </g>
    </g>
    <g id="Grupo_697" data-name="Grupo 697" transform="translate(54.775 114.331)">
      <g id="Grupo_696" data-name="Grupo 696">
        <path id="Caminho_11317" data-name="Caminho 11317" d="M370.722,277.333H367.5a4.839,4.839,0,0,0-4.833,4.833v3.222a4.839,4.839,0,0,0,4.833,4.833h3.222a4.839,4.839,0,0,0,4.833-4.833v-3.222A4.839,4.839,0,0,0,370.722,277.333Zm1.611,8.055A1.612,1.612,0,0,1,370.722,287H367.5a1.612,1.612,0,0,1-1.611-1.611v-3.222a1.612,1.612,0,0,1,1.611-1.611h3.222a1.612,1.612,0,0,1,1.611,1.611Z" transform="translate(-362.667 -277.333)" fill="#25475f"/>
      </g>
    </g>
  </g>
</svg>
