<svg xmlns="http://www.w3.org/2000/svg" width="73" height="92.431" viewBox="0 0 73 92.431">
  <g id="Grupo_726" data-name="Grupo 726" transform="translate(-147 -624.569)">
    <g id="Interseção_6" data-name="Interseção 6" transform="translate(220 717) rotate(180)" fill="none">
      <path d="M0,6.069A39.653,39.653,0,0,1,.465,0H72.535A39.653,39.653,0,0,1,73,6.069C73,27.018,56.658,44,36.5,44S0,27.018,0,6.069Z" stroke="none"/>
      <path d="M 5.016395568847656 4.999996185302734 C 5.005477905273438 5.356266021728516 5 5.712818145751953 5 6.069080352783203 C 5 10.54038238525391 5.8409423828125 14.87365341186523 7.499458312988281 18.94855308532715 C 9.097499847412109 22.87492561340332 11.38332748413086 26.39913940429688 14.29339981079102 29.42333984375 C 17.19052886962891 32.43405151367188 20.55870056152344 34.79542541503906 24.30437088012695 36.44185256958008 C 28.16617202758789 38.13930892944336 32.26925659179688 38.99999618530273 36.49967193603516 38.99999618530273 C 40.73024368286133 38.99999618530273 44.83347320556641 38.13930892944336 48.69537353515625 36.44184112548828 C 52.44112777709961 34.79541015625 55.80937194824219 32.43404006958008 58.70652770996094 29.42330932617188 C 61.61664199829102 26.39912414550781 63.90247344970703 22.87491035461426 65.50054168701172 18.94855308532715 C 67.1590576171875 14.87365341186523 68 10.54038238525391 68 6.069080352783203 C 68 5.712837219238281 67.99452209472656 5.356254577636719 67.98360443115234 4.999996185302734 L 5.016395568847656 4.999996185302734 M 0.4647140502929688 -3.814697265625e-06 L 72.53524017333984 -3.814697265625e-06 C 72.8411865234375 1.976612091064453 73 4.002796173095703 73 6.069080352783203 C 73 27.01762390136719 56.65841674804688 43.99999618530273 36.49967193603516 43.99999618530273 C 16.34157180786133 43.99999618530273 0 27.01762390136719 0 6.069080352783203 C 0 4.002796173095703 0.158782958984375 1.976612091064453 0.4647140502929688 -3.814697265625e-06 Z" stroke="none" fill="#00cb24"/>
    </g>
    <path id="Op_component_1" data-name="Op component 1" d="M597.422,603.776c10.91,0,19.788-8.476,19.788-18.894s-8.878-18.893-19.788-18.893-19.788,8.476-19.788,18.893S586.513,603.776,597.422,603.776Z" transform="translate(-413.989 61.08)" fill="none" stroke="#00cb24" stroke-width="5"/>
  </g>
</svg>
