<svg xmlns="http://www.w3.org/2000/svg" width="80.098" height="98.545" viewBox="0 0 80.098 98.545">
  <g id="Grupo_658" data-name="Grupo 658" transform="translate(-867.958 -1516.525)">
    <g id="money_1_" data-name="money (1)" transform="translate(867.958 1516.525)">
      <g id="Grupo_653" data-name="Grupo 653" transform="translate(23.833 22.537)">
        <g id="Grupo_652" data-name="Grupo 652">
          <g id="Grupo_651" data-name="Grupo 651">
            <path id="Caminho_11228" data-name="Caminho 11228" d="M316.209,117.2h.115S316.235,116.97,316.209,117.2Z" transform="translate(-288.404 -117.095)" fill="#25475f"/>
            <path id="Caminho_11229" data-name="Caminho 11229" d="M171.747,117.2h.115C171.837,116.97,171.747,117.2,171.747,117.2Z" transform="translate(-171.747 -117.095)" fill="#25475f"/>
          </g>
        </g>
      </g>
      <g id="Grupo_655" data-name="Grupo 655" transform="translate(0 0)">
        <g id="Grupo_654" data-name="Grupo 654">
          <path id="Caminho_11230" data-name="Caminho 11230" d="M127.332,29.727a4.527,4.527,0,0,0-2.841-2.022l-6.247-1.435,2.884-.807a4.556,4.556,0,1,0-2.456-8.776l-13.449,3.764a4.587,4.587,0,0,0-1.448-1.588c2.729-5.08,6.662-13.7,6.662-17.408A1.469,1.469,0,0,0,108.695.03,72.13,72.13,0,0,1,93.487,1.552,87.718,87.718,0,0,1,78.264.033,1.467,1.467,0,0,0,76.713,2.2a15.08,15.08,0,0,1,1.869,4.989c-4.937.151-10.056-.447-13.931-2.385a1.467,1.467,0,0,0-2.085,1.54,31.51,31.51,0,0,0,6.142,14.837h-.055a4.556,4.556,0,0,0-.6,9.073,54.485,54.485,0,0,1-6.392,8.024c-5.192,5.77-11.076,12.309-13.056,22.868A33.848,33.848,0,0,0,48.7,75.2a26.025,26.025,0,0,0,5.336,10.728,32.858,32.858,0,0,0,14.084,9.584,52.5,52.5,0,0,0,35.181,0,32.86,32.86,0,0,0,14.084-9.584A26.024,26.024,0,0,0,122.726,75.2a33.852,33.852,0,0,0,.094-14.051c-1.98-10.559-7.864-17.1-13.056-22.868-1.762-1.959-3.439-3.826-4.845-5.722l17.53,4.028a4.556,4.556,0,0,0,4.882-6.859ZM93.455,4.46a73.441,73.441,0,0,0,13.8-1.2c-.878,3.588-3.7,9.97-6.369,14.832a4.565,4.565,0,0,0-3.972,3.088H92.872c-.091-.2-.192-.412-.3-.651-1.248-2.654-3.846-8.176-3.846-12.874a1.468,1.468,0,0,0-1.739-1.426,51.316,51.316,0,0,1-5.491.784,18.754,18.754,0,0,0-.976-3.624A97.935,97.935,0,0,0,93.455,4.46Zm9.42,18.178v6.2a1.648,1.648,0,1,1-3.3,0v-6.2a1.648,1.648,0,1,1,3.3,0ZM65.956,8.49a36.771,36.771,0,0,0,12.937,1.621l2.882-.182c1.359-.125,2.739-.3,4.128-.539.453,4.5,2.509,9.122,3.757,11.794H72.419a1.487,1.487,0,0,0-.107-.149A27.828,27.828,0,0,1,65.956,8.49ZM107.6,40.226c4.936,5.485,10.53,11.7,12.359,21.458,1.684,8.979.065,16.511-4.81,22.385-6.012,7.244-17.016,11.568-29.436,11.568S62.291,91.313,56.28,84.069c-4.875-5.874-6.494-13.406-4.81-22.385C53.3,51.928,58.893,45.71,63.829,40.226c2.951-3.28,5.739-6.382,7.526-9.929h3.551a1.454,1.454,0,1,0,0-2.908H68.653a1.648,1.648,0,1,1,0-3.3H96.67v3.3l-21.764-.04a1.454,1.454,0,0,0,0,2.908l22,.04a4.557,4.557,0,0,0,5,3.051A70.715,70.715,0,0,0,107.6,40.226Zm-1.82-16.912,13.672-3.827a1.648,1.648,0,1,1,.888,3.174l-7.814,2.187a1.445,1.445,0,0,0-.184.067l-6.563-1.508Zm19.293,9.2a1.649,1.649,0,0,1-1.975,1.237l-17.409-4a4.567,4.567,0,0,0,.091-.909V26.391l18.056,4.149A1.664,1.664,0,0,1,125.077,32.514Z" transform="translate(-47.923 -0.001)" fill="#25475f"/>
        </g>
      </g>
    </g>
    <g id="Grupo_656" data-name="Grupo 656" transform="translate(895.312 1556.779)">
      <path id="Caminho_11218" data-name="Caminho 11218" d="M102.006,230.246a10.206,10.206,0,0,0-9.827-7.425,4.792,4.792,0,1,1,4.806-4.779,2.7,2.7,0,1,0,5.4,0,10.206,10.206,0,0,0-7.425-9.827V207a2.7,2.7,0,0,0-5.4,0v1.161a10.19,10.19,0,0,0,2.619,20.033A4.792,4.792,0,1,1,87.4,233a2.7,2.7,0,1,0-5.4,0,10.256,10.256,0,0,0,7.56,9.854V245.2a2.7,2.7,0,0,0,5.4,0v-2.376A10.185,10.185,0,0,0,102.006,230.246Z" transform="translate(-82 -204.3)" fill="#25475f"/>
    </g>
  </g>
</svg>
