<svg width="22" height="22" viewBox="0 0 22 22" fill="none" xmlns="http://www.w3.org/2000/svg">
<path fill-rule="evenodd" clip-rule="evenodd" d="M22 11C22 17.0751 17.0751 22 11 22C4.92487 22 0 17.0751 0 11C0 4.92487 4.92487 0 11 0C17.0751 0 22 4.92487 22 11ZM12.8047 6.25293C14.4123 6.37523 15.7735 7.44043 15.7735 7.44043C15.7735 7.44043 17.2938 9.64473 17.5548 13.9716C16.0223 15.7389 13.6954 15.7529 13.6954 15.7529L13.2088 15.1042C14.0347 14.8172 14.9675 14.3044 15.7735 13.3779C14.8122 14.1053 13.3614 14.8623 11.0235 14.8623C8.68559 14.8623 7.23479 14.1052 6.27349 13.3779C7.07949 14.3044 8.01229 14.8171 8.83819 15.1042L8.35159 15.7529C8.35159 15.7529 6.02469 15.7389 4.49219 13.9717C4.75319 9.64473 6.27349 7.44043 6.27349 7.44043C6.27349 7.44043 7.55569 6.41233 9.24209 6.25293L9.38699 6.54263C8.05999 6.84213 7.26679 7.40803 6.57029 8.03413C7.77109 7.42113 8.95689 6.84663 11.0234 6.84663C13.0899 6.84663 14.2756 7.42113 15.4765 8.03413C14.7801 7.40803 14.1133 6.89833 12.6598 6.54263L12.8047 6.25293ZM8.05469 11.5967C8.05469 12.2525 8.51989 12.7842 9.09379 12.7842C9.66769 12.7842 10.1329 12.2525 10.1329 11.5967C10.1329 10.9409 9.66769 10.4092 9.09379 10.4092C8.51989 10.4092 8.05469 10.9409 8.05469 11.5967ZM11.9141 11.5967C11.9141 12.2525 12.3793 12.7842 12.9532 12.7842C13.527 12.7842 13.9923 12.2525 13.9923 11.5967C13.9923 10.9409 13.5271 10.4092 12.9532 10.4092C12.3793 10.4092 11.9141 10.9409 11.9141 11.5967Z" fill="black"/>
</svg>
