<svg id="Grupo_1526" data-name="Grupo 1526" xmlns="http://www.w3.org/2000/svg" width="285.667" height="300.903" viewBox="0 0 285.667 300.903">
  <path id="Caminho_12764" data-name="Caminho 12764" d="M1085.78-875.477a4.378,4.378,0,0,0,4.378,4.378,4.378,4.378,0,0,0,4.378-4.378c0-12.468-10.718-22.826-24.66-24.643v-4.126a4.378,4.378,0,0,0-4.378-4.378,4.378,4.378,0,0,0-4.378,4.378v4.126c-13.942,1.817-24.66,12.175-24.66,24.643s10.718,22.827,24.66,24.645v32.244c-9.085-1.6-15.9-8.069-15.9-15.788a4.378,4.378,0,0,0-4.378-4.378,4.378,4.378,0,0,0-4.378,4.378c0,12.468,10.718,22.826,24.66,24.643v4.125a4.378,4.378,0,0,0,4.378,4.378,4.378,4.378,0,0,0,4.378-4.378v-4.125c13.942-1.818,24.66-12.175,24.66-24.643s-10.718-22.826-24.66-24.644v-32.244C1078.962-889.664,1085.78-883.2,1085.78-875.477Zm-24.66,15.789c-9.086-1.6-15.9-8.07-15.9-15.789s6.818-14.188,15.9-15.788Zm24.66,25.311c0,7.719-6.819,14.188-15.9,15.789v-31.577C1078.962-848.565,1085.78-842.1,1085.78-834.377Z" transform="translate(-953.373 1045.46)" fill="#00cb24"/>
  <path id="Caminho_12765" data-name="Caminho 12765" d="M1176.139-1079.891l-70.143-65.7a4.366,4.366,0,0,0-2.993-1.182,4.366,4.366,0,0,0-2.992,1.182l-70.143,65.7a4.376,4.376,0,0,0-1.078,4.8,4.377,4.377,0,0,0,4.072,2.769h27.6v22.3a109.448,109.448,0,0,0-58.233-16.591,110.5,110.5,0,0,0-110.37,110.37,110.5,110.5,0,0,0,110.37,110.37,110.989,110.989,0,0,0,25.732-3,108.7,108.7,0,0,0,32.5-12.965v3.791a4.378,4.378,0,0,0,4.378,4.378h76.332a4.377,4.377,0,0,0,4.378-4.378v-214.273h27.6a4.378,4.378,0,0,0,4.072-2.769A4.379,4.379,0,0,0,1176.139-1079.891ZM1060.46-985.243v86.465a4.453,4.453,0,0,0-.472.392,80.01,80.01,0,0,1-55.995,22.671l-.616,0A80.049,80.049,0,0,1,947.043-899.3a79.994,79.994,0,0,1-23.583-56.937,80,80,0,0,1,23.583-56.938,80.056,80.056,0,0,1,56.334-23.579,80.031,80.031,0,0,1,56.611,22.665,4.394,4.394,0,0,0,.473.392ZM901.05-956.238a101.292,101.292,0,0,1,101.177-101.177,100.34,100.34,0,0,1,58.233,18.429v13.607a88.738,88.738,0,0,0-57.149-20.132,88.763,88.763,0,0,0-62.459,26.143A88.691,88.691,0,0,0,914.7-956.239a88.692,88.692,0,0,0,26.148,63.129,88.755,88.755,0,0,0,62.459,26.148c.229,0,.454,0,.683,0A88.65,88.65,0,0,0,1060.46-887.1v13.608a100.363,100.363,0,0,1-58.232,18.427A101.292,101.292,0,0,1,901.05-956.238Zm240.119-124.836a4.378,4.378,0,0,0-4.378,4.378v214.273h-67.576V-1076.7a4.377,4.377,0,0,0-4.378-4.378h-20.9L1103-1136.395l59.065,55.322Z" transform="translate(-891.857 1146.771)" fill="#00cb24"/>
</svg>
