<svg xmlns="http://www.w3.org/2000/svg" width="76.74" height="76.742" viewBox="0 0 76.74 76.742">
  <g id="smartphone_1_" data-name="smartphone (1)" transform="translate(0)">
    <path id="Caminho_11220" data-name="Caminho 11220" d="M50.853,0H18.634A5.642,5.642,0,0,0,13,5.634V71.107a5.642,5.642,0,0,0,5.634,5.635H50.852a5.642,5.642,0,0,0,5.635-5.634V5.634A5.642,5.642,0,0,0,50.853,0Zm-35.3,10.232H53.929v48.6H15.558Zm3.076-7.674H50.852a3.08,3.08,0,0,1,3.077,3.076v2.04H15.558V5.634A3.08,3.08,0,0,1,18.634,2.558ZM50.853,74.184H18.634a3.08,3.08,0,0,1-3.076-3.076V61.394H53.929v9.714A3.08,3.08,0,0,1,50.853,74.184Z" transform="translate(3.626)" fill="#00cd23"/>
    <path id="Caminho_11221" data-name="Caminho 11221" d="M31.116,49a5.116,5.116,0,1,0,5.116,5.116A5.121,5.121,0,0,0,31.116,49Zm0,7.674a2.558,2.558,0,1,1,2.558-2.558A2.561,2.561,0,0,1,31.116,56.674Z" transform="translate(7.254 13.673)" fill="#00cd23"/>
    <path id="Caminho_11222" data-name="Caminho 11222" d="M26.279,5.558H31.4A1.279,1.279,0,0,0,31.4,3H26.279a1.279,1.279,0,1,0,0,2.558Z" transform="translate(6.975 0.837)" fill="#00cd23"/>
    <path id="Caminho_11223" data-name="Caminho 11223" d="M33.279,5.558h1.279a1.279,1.279,0,0,0,0-2.558H33.279a1.279,1.279,0,0,0,0,2.558Z" transform="translate(8.928 0.837)" fill="#00cd23"/>
    <path id="Caminho_11224" data-name="Caminho 11224" d="M57.088,4.651A1.279,1.279,0,0,0,55.28,6.459a12.271,12.271,0,0,1,0,17.334A1.279,1.279,0,1,0,57.088,25.6,14.831,14.831,0,0,0,57.088,4.651Z" transform="translate(15.319 1.193)" fill="#00cd23"/>
    <path id="Caminho_11225" data-name="Caminho 11225" d="M52.877,6.927a1.279,1.279,0,0,0-1.809,1.809,8.4,8.4,0,0,1,0,11.866,1.279,1.279,0,1,0,1.809,1.809,10.957,10.957,0,0,0,0-15.483Z" transform="translate(14.144 1.828)" fill="#00cd23"/>
    <path id="Caminho_11226" data-name="Caminho 11226" d="M6.142,6.459A1.279,1.279,0,0,0,4.333,4.651a14.831,14.831,0,0,0,0,20.951,1.279,1.279,0,0,0,1.809-1.809A12.269,12.269,0,0,1,6.142,6.459Z" transform="translate(-0.001 1.193)" fill="#00cd23"/>
    <path id="Caminho_11227" data-name="Caminho 11227" d="M10.106,6.651a1.278,1.278,0,0,0-1.809,0,10.957,10.957,0,0,0,0,15.483,1.279,1.279,0,1,0,1.809-1.809,8.4,8.4,0,0,1,0-11.866A1.28,1.28,0,0,0,10.106,6.651Z" transform="translate(1.42 1.751)" fill="#00cd23"/>
  </g>
</svg>
