<svg xmlns="http://www.w3.org/2000/svg" viewBox="0 0 96.8 120.11"><defs><style>.cls-1{fill:#00cb24;}</style></defs><g id="Camada_2" data-name="Camada 2"><g id="icon"><path class="cls-1" d="M27.85,82H31v3.1a.78.78,0,0,0,.78.78h3.1a.78.78,0,0,0,.78-.78V82h3.1a.78.78,0,0,0,.78-.78v-3.1a.78.78,0,0,0-.78-.78h-3.1v-3.1a.78.78,0,0,0-.78-.78h-3.1a.78.78,0,0,0-.78.78v3.1h-3.1a.78.78,0,0,0-.78.78v3.1A.78.78,0,0,0,27.85,82Z"/><path class="cls-1" d="M31.91,98.42a17.91,17.91,0,0,0,11.45-2.57,8.9,8.9,0,0,1,3.92-1.39,14.31,14.31,0,0,1,2.17,0,8.82,8.82,0,0,1,4,1.43A17.88,17.88,0,0,0,80.65,78.63v0A18.76,18.76,0,0,0,64.86,62.91a18.43,18.43,0,0,0-2-.11c-4.78,0-8,0-10.88-.09-5-.07-8.93-.13-18.09.09a17.76,17.76,0,0,0-2,.12A18.75,18.75,0,0,0,16.17,78.64,17.88,17.88,0,0,0,31.91,98.42Zm2-30.9h29c.49,0,1,0,1.39.07A14.17,14.17,0,0,1,76,79.17,13.08,13.08,0,0,1,72.7,89.44h0A13.12,13.12,0,0,1,56,91.88a13.69,13.69,0,0,0-6.18-2.14c-.47,0-.94,0-1.42,0s-1,0-1.53.06a13.5,13.5,0,0,0-6,2.11,13.16,13.16,0,0,1-18.1-4.27,13.21,13.21,0,0,1-1.9-8.35A14.19,14.19,0,0,1,32.47,67.6,14.44,14.44,0,0,1,33.93,67.52Z"/><path class="cls-1" d="M65.47,78.18a2.24,2.24,0,1,0-2.24-2.24A2.24,2.24,0,0,0,65.47,78.18Z"/><path class="cls-1" d="M65.47,81.18a2.24,2.24,0,1,0,2.24,2.24A2.25,2.25,0,0,0,65.47,81.18Z"/><path class="cls-1" d="M61.67,82.19A2.24,2.24,0,1,0,59.42,80,2.24,2.24,0,0,0,61.67,82.19Z"/><path class="cls-1" d="M67,80a2.25,2.25,0,1,0,2.24-2.24A2.24,2.24,0,0,0,67,80Z"/><path class="cls-1" d="M96.72,111.4l-7.32-84,0-.21A7.61,7.61,0,0,0,81.88,21H68.28V20A19.9,19.9,0,0,0,48.58,0h-.17A19.91,19.91,0,0,0,28.53,19.72v1.22H15.17a7.61,7.61,0,0,0-7.5,6.26l-7.56,84A7.62,7.62,0,0,0,6.34,120a7.81,7.81,0,0,0,1.28.11H89.19a7.61,7.61,0,0,0,7.61-7.62A6.67,6.67,0,0,0,96.72,111.4ZM28.53,36.1a4.91,4.91,0,0,0-1.7,2.5,5,5,0,1,0,9.53,2.82,4.89,4.89,0,0,0-.4-3.78,4.84,4.84,0,0,0-1.3-1.54v-9h27.5v9a4.87,4.87,0,0,0-1.71,2.5,5,5,0,0,0,.4,3.78,4.92,4.92,0,0,0,3,2.4,5,5,0,0,0,3.78-.4,5,5,0,0,0,.69-8.28v-9h13.6a1.49,1.49,0,0,1,1.44,1.13L90.63,112l0,.21a1.48,1.48,0,0,1-.32,1.22h0a1.53,1.53,0,0,1-1.15.53H7.62a1.5,1.5,0,0,1-1.49-1.5,1.09,1.09,0,0,1,0-.26l7.56-84a1.51,1.51,0,0,1,1.45-1.12H28.53Zm6.13-15.16V20A13.77,13.77,0,0,1,48.28,6.14h.13A13.77,13.77,0,0,1,62.16,19.75v1.19Z"/></g></g></svg>