<svg xmlns="http://www.w3.org/2000/svg" width="95.432" height="51.129" viewBox="0 0 95.432 51.129">
  <g id="joystick" transform="translate(-5 -222.834)">
    <g id="Grupo_629" data-name="Grupo 629" transform="translate(19.915 237.45)">
      <g id="Grupo_628" data-name="Grupo 628" transform="translate(0 0)">
        <path id="Caminho_11211" data-name="Caminho 11211" d="M81.926,294H77.155v-4.771a1.193,1.193,0,0,0-1.193-1.193H71.191A1.193,1.193,0,0,0,70,289.225V294H65.227a1.193,1.193,0,0,0-1.193,1.193v4.771a1.193,1.193,0,0,0,1.193,1.193H70v4.771a1.193,1.193,0,0,0,1.193,1.193h4.771a1.193,1.193,0,0,0,1.193-1.193v-4.771h4.771a1.193,1.193,0,0,0,1.193-1.193v-4.771A1.193,1.193,0,0,0,81.926,294Z" transform="translate(-64.034 -288.032)" fill="#25475f"/>
      </g>
    </g>
    <g id="Grupo_631" data-name="Grupo 631" transform="translate(5 222.834)">
      <g id="Grupo_630" data-name="Grupo 630" transform="translate(0)">
        <path id="Caminho_11212" data-name="Caminho 11212" d="M95.266,245.612c-1.22-10.959-11.512-21.212-22.481-22.38a26.387,26.387,0,0,0-2.805-.159c-19.989-.007-22.24-.532-44.529,0a25.925,25.925,0,0,0-2.808.159C11.67,224.408,1.384,234.661.168,245.62a25.445,25.445,0,0,0,38.676,24.526,15.574,15.574,0,0,1,6.98-2.467,24.527,24.527,0,0,1,3.7-.013,15.693,15.693,0,0,1,7.09,2.494,25.445,25.445,0,0,0,38.656-24.548Zm-8.691,17.749a22.25,22.25,0,0,1-28.288,4.1,18.766,18.766,0,0,0-8.538-2.963q-1.007-.073-2.032-.073c-.724,0-1.431.03-2.144.086a18.708,18.708,0,0,0-8.41,2.936A22.264,22.264,0,0,1,3.329,245.973c1.046-9.418,10.229-18.565,19.656-19.578a22.874,22.874,0,0,1,2.467-.142H69.981a23.381,23.381,0,0,1,2.467.132c9.426,1.013,18.607,10.16,19.656,19.578A22.106,22.106,0,0,1,86.575,263.361Z" transform="translate(0 -222.834)" fill="#25475f"/>
      </g>
    </g>
    <g id="Grupo_633" data-name="Grupo 633" transform="translate(71.165 236.891)">
      <g id="Grupo_632" data-name="Grupo 632" transform="translate(0 0)">
        <path id="Caminho_11213" data-name="Caminho 11213" d="M324.38,272.032a4.346,4.346,0,1,0,4.346,4.346A4.346,4.346,0,0,0,324.38,272.032Z" transform="translate(-320.034 -272.032)" fill="#25475f"/>
      </g>
    </g>
    <g id="Grupo_635" data-name="Grupo 635" transform="translate(71.165 249.928)">
      <g id="Grupo_634" data-name="Grupo 634" transform="translate(0 0)">
        <path id="Caminho_11214" data-name="Caminho 11214" d="M324.38,368.032a4.346,4.346,0,1,0,4.346,4.346A4.346,4.346,0,0,0,324.38,368.032Z" transform="translate(-320.034 -368.032)" fill="#25475f"/>
      </g>
    </g>
    <g id="Grupo_637" data-name="Grupo 637" transform="translate(63.561 243.409)">
      <g id="Grupo_636" data-name="Grupo 636" transform="translate(0 0)">
        <path id="Caminho_11215" data-name="Caminho 11215" d="M268.38,320.032a4.346,4.346,0,1,0,4.346,4.346A4.346,4.346,0,0,0,268.38,320.032Z" transform="translate(-264.034 -320.032)" fill="#25475f"/>
      </g>
    </g>
    <g id="Grupo_639" data-name="Grupo 639" transform="translate(78.77 243.409)">
      <g id="Grupo_638" data-name="Grupo 638" transform="translate(0 0)">
        <path id="Caminho_11216" data-name="Caminho 11216" d="M380.38,320.032a4.346,4.346,0,1,0,4.346,4.346A4.346,4.346,0,0,0,380.38,320.032Z" transform="translate(-376.034 -320.032)" fill="#25475f"/>
      </g>
    </g>
  </g>
</svg>
