<svg width="32" height="32" viewBox="0 0 32 32" fill="none" xmlns="http://www.w3.org/2000/svg">
<path d="M16 31C15.5824 30.9964 15.1701 30.9055 14.7895 30.7333C14.409 30.5611 14.0686 30.3114 13.7902 30C10.1406 26 4.00121 18.39 4.00121 13.36C3.95578 10.1303 5.19387 7.01466 7.44359 4.69722C9.69331 2.37977 12.7707 1.05002 16 1C19.2293 1.05002 22.3067 2.37977 24.5564 4.69722C26.8061 7.01466 28.0442 10.1303 27.9988 13.36C27.9988 18.36 21.8594 25.95 18.2098 30.01C17.9305 30.3195 17.5897 30.5674 17.2092 30.7379C16.8287 30.9084 16.4169 30.9976 16 31ZM16 3C13.3019 3.05258 10.7347 4.17241 8.86056 6.11421C6.98642 8.05602 5.95816 10.6615 6.00101 13.36C6.00101 16.5 9.47066 22.22 15.2801 28.67C15.3733 28.7668 15.4852 28.8438 15.6089 28.8963C15.7326 28.9489 15.8656 28.976 16 28.976C16.1344 28.976 16.2674 28.9489 16.3911 28.8963C16.5148 28.8438 16.6267 28.7668 16.7199 28.67C22.5293 22.22 25.999 16.5 25.999 13.36C26.0418 10.6615 25.0136 8.05602 23.1394 6.11421C21.2653 4.17241 18.6981 3.05258 16 3V3Z" fill="#01CC22"/>
<path d="M12.1114 11.3037C12.1114 11.0406 11.898 10.8218 11.6312 10.8218C11.6284 10.8218 11.6284 10.8218 11.6256 10.8218C10.1766 10.8218 9 11.9822 9 13.4113C9 14.8403 10.1766 16.0008 11.6256 16.0008C11.6284 16.0008 11.6284 16.0008 11.6312 16.0008C11.898 16.0008 12.1114 15.782 12.1114 15.5189V11.3037V11.3037Z" fill="#01CC22"/>
<path d="M19.9297 11.3037C19.9297 11.0406 20.1431 10.8218 20.4099 10.8218C20.4127 10.8218 20.4127 10.8218 20.4155 10.8218C21.8645 10.8218 23.0411 11.9822 23.0411 13.4113C23.0411 14.8403 21.8645 16.0008 20.4155 16.0008C20.4127 16.0008 20.4127 16.0008 20.4099 16.0008C20.1431 16.0008 19.9297 15.782 19.9297 15.5189V11.3037Z" fill="#01CC22"/>
<path d="M21.7668 12.9182C21.4972 12.9182 21.2782 12.6939 21.2782 12.4142C21.2782 9.43142 18.9222 7.39306 16.0242 7.39306C13.1262 7.39306 10.7702 9.43419 10.7702 12.4142C10.7702 12.6911 10.5512 12.9182 10.2816 12.9182C10.012 12.9182 9.79297 12.6939 9.79297 12.4142C9.79297 8.87752 12.5899 6 16.0242 6C19.4585 6 22.2554 8.87752 22.2554 12.4142C22.2554 12.6939 22.0364 12.9182 21.7668 12.9182Z" fill="#01CC22"/>
<path d="M17.2689 18.3129C17.106 18.3129 16.9347 18.3046 16.7578 18.2908L16.814 17.6483C19.9647 17.9197 20.6611 15.3412 20.6892 15.2305L21.3238 15.3856C21.3154 15.4188 21.1132 16.2109 20.4477 16.9614C19.8889 17.5984 18.8948 18.3129 17.2689 18.3129Z" fill="#01CC22"/>
<path d="M16.6979 19.0001C17.2625 19.0001 17.7201 18.5487 17.7201 17.992C17.7201 17.4352 17.2625 16.9839 16.6979 16.9839C16.1334 16.9839 15.6758 17.4352 15.6758 17.992C15.6758 18.5487 16.1334 19.0001 16.6979 19.0001Z" fill="#01CC22"/>
</svg>
