<svg xmlns="http://www.w3.org/2000/svg" viewBox="0 0 144.7 121.53"><defs><style>.cls-1{fill:#00cb24;}</style></defs><g id="Camada_2" data-name="Camada 2"><g id="icon"><path class="cls-1" d="M44.52,72.87a17.39,17.39,0,0,1-4.74-.67,1.32,1.32,0,0,1-.81-.65,1.37,1.37,0,0,1,1.18-2,1.21,1.21,0,0,1,.38.06,14.62,14.62,0,0,0,4,.56c9.51,0,17.51-9,18.61-20.92V32.83a1.34,1.34,0,0,1,.06-.4l.17-.55-.57-.09-.19,0L46.73,27.27l-.19.36a10.93,10.93,0,0,1-.69,1.15l0,0,0,.07a1.55,1.55,0,0,1-.33.55c-.32.35-.66.69-1,1a22.1,22.1,0,0,1-6.35,4.37c-3.61,1.84-7.68,3-10.37,3a8.08,8.08,0,0,1-.89,0,1.64,1.64,0,0,1-.8-.34l-.81-.65V49.2a19.19,19.19,0,0,0,2.21,7.17l.05.12c.16.34.32.67.47,1a1.34,1.34,0,0,1,0,1,1.36,1.36,0,0,1-.71.76,1.38,1.38,0,0,1-.56.12,1.35,1.35,0,0,1-1.24-.8L25,57.52c-.38-.82-.81-1.74-1.19-2.71l-.12-.31H19.23l.11.59A11,11,0,0,0,30.48,64h2V63a3.29,3.29,0,0,1,3.29-3.29h2.57A3.29,3.29,0,0,1,41.65,63v.54a3.29,3.29,0,0,1-3.29,3.29H35.79a3.17,3.17,0,0,1-1-.15l-.07,0H30.48a13.72,13.72,0,0,1-14-12.36l0-.31-.29-.11a9.15,9.15,0,0,1-5.84-8.48V40.54a9.13,9.13,0,0,1,5.77-8.45l.32-.13V24.58C16.42,11.58,27.61,1,41.35,1H47C60.76,1,72,11.58,72,24.58V32l.31.13A9.13,9.13,0,0,1,78,40.54v4.88A9.08,9.08,0,0,1,69,54.5H65l-.1.36C62,65.63,53.78,72.87,44.52,72.87ZM66,34.64c0,.4-.09.79-.15,1.18v16H69a6.36,6.36,0,0,0,6.35-6.35V40.54A6.36,6.36,0,0,0,69,34.19H66.06ZM19.4,34.19a6.36,6.36,0,0,0-6.35,6.35v4.88a6.36,6.36,0,0,0,6.35,6.35h3.11V34.19Zm25.18-20.8A18.84,18.84,0,0,0,32,18.93a19.31,19.31,0,0,0-6.09,15.33l.06.63.6-.2a1.58,1.58,0,0,1,.52-.09l.21,0,.5,0c2.76,0,10-2.2,14.56-6.59a7.33,7.33,0,0,0,1.83-3.11,1.58,1.58,0,0,1,.75-1,1.61,1.61,0,0,1,.81-.22,1.52,1.52,0,0,1,.42.06l16.72,4.7-.26-.88a20.73,20.73,0,0,0-5.36-8.68,18.9,18.9,0,0,0-12.61-5.53h0Zm0-2.73a20.51,20.51,0,0,1,4.9.72A22.26,22.26,0,0,1,59.13,17,22.64,22.64,0,0,1,66,31l0,.45h3.16V24.58c0-11.5-10-20.86-22.21-20.86H41.35c-12.24,0-22.2,9.36-22.2,20.86v6.88h4l.05-.45a22.57,22.57,0,0,1,6.88-14,22.26,22.26,0,0,1,9.63-5.59A20.52,20.52,0,0,1,44.6,10.66Z" transform="translate(-0.5 -0.5)"/><path class="cls-1" d="M47,1.5c13.47,0,24.43,10.35,24.43,23.08V32.3l.63.25a8.64,8.64,0,0,1,5.46,8v4.88A8.59,8.59,0,0,1,69,54H64.59l-.2.73C61.53,65.28,53.55,72.36,44.52,72.36a16.69,16.69,0,0,1-4.6-.64.89.89,0,0,1-.52-.41A.87.87,0,0,1,40.15,70a1,1,0,0,1,.24,0,15.25,15.25,0,0,0,4.13.58c9.77,0,18-9.19,19.11-21.38V32.83a.78.78,0,0,1,0-.26l.33-1.1-1.14-.18-.11,0L47.26,26.9l-.79-.22-.37.72a10.55,10.55,0,0,1-.66,1.09l-.08.11,0,.13a1.14,1.14,0,0,1-.23.38c-.3.33-.63.67-1,1a21.86,21.86,0,0,1-6.21,4.27c-3.53,1.79-7.51,3-10.13,3a6.73,6.73,0,0,1-.83,0,1.12,1.12,0,0,1-.55-.23l-1.62-1.3V49.26A19.51,19.51,0,0,0,27,56.58l.51,1.13a.86.86,0,0,1-.43,1.14.84.84,0,0,1-.35.07.88.88,0,0,1-.79-.5l-.48-1.06,0,0c-.39-.85-.8-1.73-1.17-2.68L24,54H18.63l.22,1.18a11.48,11.48,0,0,0,11.63,9.28H33V63a2.79,2.79,0,0,1,2.79-2.79h2.57A2.79,2.79,0,0,1,41.15,63v.54a2.79,2.79,0,0,1-2.79,2.79H35.79a2.81,2.81,0,0,1-.82-.12l-.15,0H30.48A13.23,13.23,0,0,1,17,54.28l-.06-.63-.58-.22a8.63,8.63,0,0,1-5.52-8V40.54a8.64,8.64,0,0,1,5.46-8l.63-.25V24.58c0-12.73,11-23.08,24.43-23.08H47M18.65,32h4.94l.08-.91a22.16,22.16,0,0,1,6.74-13.72,21.82,21.82,0,0,1,9.29-5.44h0l.12,0a19.64,19.64,0,0,1,4.76-.7,19.6,19.6,0,0,1,4.79.7,21.78,21.78,0,0,1,9.41,5.47,22.16,22.16,0,0,1,6.74,13.72l.08.91h4.12V24.58C69.72,12.8,59.54,3.22,47,3.22H41.35c-12.52,0-22.7,9.58-22.7,21.36V32m6.83,3.61,1.21-.41a1.13,1.13,0,0,1,.36-.06h.15a4.86,4.86,0,0,0,.56,0c2.83,0,10.23-2.25,14.91-6.73l0,0,0,0a7.74,7.74,0,0,0,1.92-3.31,1.13,1.13,0,0,1,.52-.69,1.09,1.09,0,0,1,.56-.15.9.9,0,0,1,.28,0l15.85,4.45,1.76.5-.54-1.75a21,21,0,0,0-5.48-8.89,19.38,19.38,0,0,0-12.94-5.68h-.07a19.36,19.36,0,0,0-13,5.68A19.77,19.77,0,0,0,25.38,34.3l.1,1.27m39.88,16.7H69a6.86,6.86,0,0,0,6.85-6.85V40.54A6.86,6.86,0,0,0,69,33.69H65.6l-.08.91c0,.39-.08.78-.14,1.11V52.27m-46,0H23V33.69H19.4a6.86,6.86,0,0,0-6.85,6.85v4.88a6.86,6.86,0,0,0,6.85,6.85M47,.5H41.35c-14,0-25.43,10.8-25.43,24.08v7a9.6,9.6,0,0,0-6.09,8.92v4.88A9.57,9.57,0,0,0,16,54.36,14.19,14.19,0,0,0,30.48,67.18h4.19a3.8,3.8,0,0,0,1.12.17h2.57a3.79,3.79,0,0,0,3.79-3.79V63a3.79,3.79,0,0,0-3.79-3.79H35.79A3.79,3.79,0,0,0,32,63v.44H30.48A10.56,10.56,0,0,1,19.83,55h3.49c.38,1,.81,1.87,1.21,2.73l.5,1.1a1.86,1.86,0,0,0,1.7,1.09,1.89,1.89,0,0,0,.76-.16,1.86,1.86,0,0,0,.94-2.46l-.53-1.14a18.73,18.73,0,0,1-2.16-7V37.86a2.08,2.08,0,0,0,1,.44,7.06,7.06,0,0,0,1,.06A26.07,26.07,0,0,0,38.32,35.3a22.39,22.39,0,0,0,6.48-4.47c.36-.34.7-.68,1-1a2.1,2.1,0,0,0,.43-.73,10.37,10.37,0,0,0,.73-1.2l15.48,4.37a1,1,0,0,0,.24.05,2,2,0,0,0-.08.55V49.17c-1.08,11.68-8.85,20.47-18.11,20.47a14,14,0,0,1-3.85-.54,1.86,1.86,0,0,0-1,3.58,18,18,0,0,0,4.88.68c9.63,0,17.91-7.58,20.84-18.36H69a9.59,9.59,0,0,0,9.57-9.58V40.54a9.59,9.59,0,0,0-6.09-8.92v-7C72.45,11.3,61,.5,47,.5ZM19.65,31V24.58c0-11.22,9.73-20.36,21.7-20.36H47c12,0,21.7,9.14,21.7,20.36V31H66.51a23.07,23.07,0,0,0-7-14.34,22.56,22.56,0,0,0-9.85-5.72,20.39,20.39,0,0,0-5-.74,20.94,20.94,0,0,0-5,.73h0a22.68,22.68,0,0,0-9.85,5.73,23.12,23.12,0,0,0-7,14.34Zm6.72,3.25a18.88,18.88,0,0,1,5.94-14.93A18.34,18.34,0,0,1,44.6,13.89h0a18.32,18.32,0,0,1,12.27,5.39,20,20,0,0,1,5.23,8.47L46.26,23.29a2.08,2.08,0,0,0-.55-.07,2.15,2.15,0,0,0-1.07.29,2.13,2.13,0,0,0-1,1.31A6.82,6.82,0,0,1,42,27.69C37.53,32,30.4,34.14,27.76,34.14a2.89,2.89,0,0,1-.43,0l-.28,0a2.2,2.2,0,0,0-.68.11Zm40,17.06v-2h0V36a.13.13,0,0,1,0-.06c.06-.4.11-.8.14-1.2H69a5.86,5.86,0,0,1,5.85,5.85v4.88A5.86,5.86,0,0,1,69,51.27Zm-47,0a5.86,5.86,0,0,1-5.85-5.85V40.54a5.86,5.86,0,0,1,5.85-5.85H22V51.27Z" transform="translate(-0.5 -0.5)"/><path class="cls-1" d="M45.05,121.53A66.71,66.71,0,0,1,1.47,105.34,1.41,1.41,0,0,1,1,104.22,34.19,34.19,0,0,1,29.26,72.69l.25,0,.26,0,.19,0a1.38,1.38,0,0,1,.72.21l.76.48a1.36,1.36,0,0,1,.64,1,13.49,13.49,0,0,0,26.74,0,1.3,1.3,0,0,1,.2-.57l.31-.5a1.39,1.39,0,0,1,1.16-.64h.16a3.85,3.85,0,0,1,.47.08l.13,0a33.9,33.9,0,0,1,4.42,1.08l.28.09.21-.21c4.9-4.65,16-11.23,22-12.29l.21,0,.28,0h.19a1.34,1.34,0,0,1,.72.21l.71.44a1.36,1.36,0,0,1,.64,1,12.56,12.56,0,0,0,24.9,0,1.3,1.3,0,0,1,.2-.58l.29-.46a1.35,1.35,0,0,1,1.15-.64h.16l.44.07.13,0A32.2,32.2,0,0,1,144.7,90.66a1.37,1.37,0,0,1-.46,1.13,62.51,62.51,0,0,1-41.14,15.53H103c-2.16,0-9.53-.94-13.08-1.39l-1.7-.22-.17.15A66.76,66.76,0,0,1,45.2,121.53ZM29,75.51A31.34,31.34,0,0,0,3.8,103.46l0,.26.2.17A64,64,0,0,0,45.05,118.8h.14a63.92,63.92,0,0,0,41.32-15.24l.2-.17,0-.26A31.47,31.47,0,0,0,61.91,75.59l-.5-.11-.1.5a16.25,16.25,0,0,1-31.74-.08l-.1-.49ZM87.8,64.2c-4.73,1-13.48,6.15-18.38,10.21l-.61.51.72.33a34.44,34.44,0,0,1,19.85,27.48l0,.39,1,.13c3.68.47,10.54,1.34,12.59,1.34h.14a59.82,59.82,0,0,0,38.62-14.22l.2-.18,0-.26a29.44,29.44,0,0,0-23-25.65l-.49-.11-.1.5a15.33,15.33,0,0,1-29.88-.08l-.1-.49Z" transform="translate(-0.5 -0.5)"/><path class="cls-1" d="M88.82,61.77a.84.84,0,0,1,.46.13l.71.45a.87.87,0,0,1,.4.63,13.06,13.06,0,0,0,25.89,0,1,1,0,0,1,.13-.37l.29-.46a.86.86,0,0,1,.73-.4h.1a2.57,2.57,0,0,1,.4.06h.14A31.69,31.69,0,0,1,144.2,90.7a.87.87,0,0,1-.29.71,62,62,0,0,1-40.81,15.41H103c-2.12,0-9.46-.93-13-1.38l-1.52-.19-.43-.06-.33.28A66.19,66.19,0,0,1,45.2,121h-.15A66.2,66.2,0,0,1,1.8,105a.88.88,0,0,1-.3-.71A33.69,33.69,0,0,1,29.35,73.18h0l.2,0,.25,0H30a.94.94,0,0,1,.46.13l.76.48a.87.87,0,0,1,.4.64,14,14,0,0,0,27.74,0,1,1,0,0,1,.12-.36l.31-.49a.89.89,0,0,1,.74-.41h.1l.43.07h.14a33,33,0,0,1,4.36,1.07l.56.17.43-.4c4.85-4.61,15.82-11.12,21.71-12.16l.24,0,.25,0h.11M103,105.09h.14A60.33,60.33,0,0,0,142,90.75l.41-.35-.06-.52A30,30,0,0,0,119,63.79l-1-.21-.2,1a14.82,14.82,0,0,1-28.9-.07l-.2-1-1,.2c-4.8,1-13.65,6.22-18.6,10.32l-1.23,1,1.45.66a33.92,33.92,0,0,1,19.56,27.08l.08.78.79.1.51.07c3.71.47,10.61,1.35,12.7,1.35M45.05,119.3h.14a64.39,64.39,0,0,0,41.64-15.36l.4-.34,0-.53A32,32,0,0,0,62,75.1l-1-.21-.2,1a15.75,15.75,0,0,1-30.76-.07l-.19-1-1,.2A31.83,31.83,0,0,0,3.3,103.41l0,.52.4.34a64.52,64.52,0,0,0,41.4,15M88.82,60.77a1.06,1.06,0,0,0-.25,0l-.3.05-.21,0C81.71,62,70.57,68.78,65.82,73.29a34.62,34.62,0,0,0-4.49-1.1h-.11a4.17,4.17,0,0,0-.51-.08l-.22,0a1.87,1.87,0,0,0-1.58.88l-.31.49a1.88,1.88,0,0,0-.28.79,13,13,0,0,1-25.75,0,1.88,1.88,0,0,0-.86-1.38L31,72.37a1.84,1.84,0,0,0-1-.29l-.26,0-.3.05-.13,0h-.1a34.71,34.71,0,0,0-28.67,32,1.88,1.88,0,0,0,.65,1.53A67.17,67.17,0,0,0,45.05,122h.15a67.11,67.11,0,0,0,43.13-15.79c2.78.34,12.09,1.58,14.63,1.58h.14a63,63,0,0,0,41.47-15.66,1.82,1.82,0,0,0,.62-1.54,32.7,32.7,0,0,0-26.94-29.75h-.11a4.17,4.17,0,0,0-.49-.08h-.22a1.86,1.86,0,0,0-1.58.87l-.29.46a1.86,1.86,0,0,0-.27.79,12.07,12.07,0,0,1-23.91,0,1.86,1.86,0,0,0-.86-1.38l-.71-.45a1.92,1.92,0,0,0-1-.28ZM103,104.09c-2.13,0-9.6-1-13.09-1.41A34.77,34.77,0,0,0,69.74,74.8C74.38,71,83.15,65.65,87.9,64.69a15.83,15.83,0,0,0,30.86.08A29,29,0,0,1,141.4,90a59.22,59.22,0,0,1-38.3,14.11ZM45.05,118.3A63.44,63.44,0,0,1,4.29,103.5,31,31,0,0,1,29.08,76a16.75,16.75,0,0,0,32.72.08,31,31,0,0,1,24.38,27.1,63.31,63.31,0,0,1-41,15.12Z" transform="translate(-0.5 -0.5)"/><path class="cls-1" d="M103.18,60.67c-9.85,0-18.43-9.18-20.4-21.84l0-.19-.16-.13-.33-.24a6.42,6.42,0,0,1-2.84-4.33c-1-4,.61-5.8,1.64-6.5.13-.09.26-.16.39-.24l.31-.16-.05-.34c-.63-4.93,1.23-10.31,5.11-14.78a25.47,25.47,0,0,1,14.23-8.18,16.44,16.44,0,0,1,3.1-.3,15.05,15.05,0,0,1,2.5.2l.62.1a25.5,25.5,0,0,1,14.23,8.18c3.93,4.53,5.79,10,5.08,15a1.11,1.11,0,0,1-.28.61l-.27.3.24.32c1,1.4,1.26,3.42.67,5.84a6.42,6.42,0,0,1-2.84,4.33l-.33.24-.15.12,0,.2C121.62,51.48,113,60.67,103.18,60.67ZM85.43,38.2C87.16,49.66,94.62,58,103.18,58s16-8.29,17.74-19.7l0-.14A3.4,3.4,0,0,1,122.53,36a3.85,3.85,0,0,0,1.77-2.73c.57-2.39,0-3.65-.69-4a1.13,1.13,0,0,0-.54-.13,1.31,1.31,0,0,0-1,.44,1.16,1.16,0,0,1-.24.2l-.33.23.68,1.72a1.35,1.35,0,0,1-.76,1.77,1.24,1.24,0,0,1-.5.1,1.36,1.36,0,0,1-1.27-.86l-3.83-9.66-.53.46a14.53,14.53,0,0,1-2.63,1.8,17.15,17.15,0,0,1-8,1.87A17.87,17.87,0,0,1,98.2,26a28,28,0,0,1-6.26-3.49l-.48-.35L86.54,32.37a1.38,1.38,0,0,1-1.82.64,1.36,1.36,0,0,1-.69-.78,1.34,1.34,0,0,1,.06-1l.64-1.32-.36-.25a1.54,1.54,0,0,0-.83-.21,1.71,1.71,0,0,0-1,.28c-.77.53-1,1.81-.53,3.62A3.85,3.85,0,0,0,83.83,36a3.39,3.39,0,0,1,1.57,2l0,.11ZM104.1,5.63a23,23,0,0,0-15.55,7.8c-3.37,3.89-5.08,8.71-4.57,12.91l0,.36.36.07a4.38,4.38,0,0,1,1.11.36l.45.22,3.83-7.91a1.37,1.37,0,0,1,1-.75,1,1,0,0,1,.25,0,1.35,1.35,0,0,1,.93.37,25.35,25.35,0,0,0,7.27,4.47,15.26,15.26,0,0,0,5.49,1A14.39,14.39,0,0,0,111.41,23a10.81,10.81,0,0,0,3.77-3.26,1.34,1.34,0,0,1,1.11-.57h.17a1.34,1.34,0,0,1,1.1.85l2.92,7.36L121,27a4,4,0,0,1,2.8-.54l.54.1.05-.54c.4-4.12-1.32-8.84-4.6-12.62a23,23,0,0,0-15.55-7.8h-.12Z" transform="translate(-0.5 -0.5)"/><path class="cls-1" d="M104.15,3.94a15.09,15.09,0,0,1,2.42.19l.6.1a25,25,0,0,1,14,8c3.84,4.42,5.65,9.73,5,14.55a.63.63,0,0,1-.16.34l-.54.6.48.66c.93,1.28,1.14,3.15.59,5.43a6,6,0,0,1-2.67,4.05l-.33.24-.31.24-.06.39c-1.93,12.41-10.3,21.42-19.91,21.42s-18-9-19.91-21.42l-.06-.39-.31-.24-.35-.26a6,6,0,0,1-2.65-4c-.9-3.74.52-5.35,1.44-6a4.05,4.05,0,0,1,.35-.21l.61-.32-.09-.68c-.62-4.79,1.2-10,5-14.39a25,25,0,0,1,14-8,14.88,14.88,0,0,1,3-.29M86.17,28l.44-.91,3.61-7.47a.88.88,0,0,1,.62-.47H91a.83.83,0,0,1,.6.24A25.83,25.83,0,0,0,99,24a15.54,15.54,0,0,0,5.67,1,15,15,0,0,0,7-1.6A11.38,11.38,0,0,0,115.59,20a.86.86,0,0,1,.7-.36h.11a.89.89,0,0,1,.7.54L119.79,27l.44,1.11,1-.63a3.5,3.5,0,0,1,1.83-.52,4.07,4.07,0,0,1,.61.05l1.07.2.11-1.08c.41-4.26-1.35-9.11-4.73-13a23.5,23.5,0,0,0-15.88-8h-.2a23.54,23.54,0,0,0-15.89,8c-3.46,4-5.22,9-4.69,13.3l.09.73.72.13a3.88,3.88,0,0,1,1,.32l.9.45m-.86,4.61a.81.81,0,0,1-.37-.09.82.82,0,0,1-.44-.49.84.84,0,0,1,0-.66l.45-.93.37-.77-.7-.49a2.08,2.08,0,0,0-1.12-.3,2.17,2.17,0,0,0-1.23.37c-1,.65-1.22,2.12-.73,4.14a4.35,4.35,0,0,0,2,3,2.88,2.88,0,0,1,1.38,1.77.25.25,0,0,1,0,.07v.05C86.71,50,94.37,58.45,103.18,58.45S119.66,50,121.41,38.33v0l0-.07a2.85,2.85,0,0,1,1.38-1.76,4.35,4.35,0,0,0,2-3c.55-2.26.2-4-.94-4.58a1.6,1.6,0,0,0-.77-.19,1.79,1.79,0,0,0-1.32.6l-.16.13-.66.45.29.75.54,1.35a.89.89,0,0,1,0,.66.87.87,0,0,1-.8.52.88.88,0,0,1-.8-.55l-3.56-9-.52-1.31-1.07.92a14.05,14.05,0,0,1-2.54,1.74,16.65,16.65,0,0,1-7.77,1.81,17.56,17.56,0,0,1-6.31-1.14,27.79,27.79,0,0,1-6.14-3.43l-1-.71-.52,1.08-4.66,9.63a.85.85,0,0,1-.78.49m18.84-29.7a16,16,0,0,0-3.16.31h0A25.84,25.84,0,0,0,86.44,11.6c-4,4.58-5.88,10.1-5.22,15.16a4,4,0,0,0-.44.27c-1.14.77-2.89,2.71-1.85,7a6.94,6.94,0,0,0,3,4.62c.1.07.23.16.31.23,2,12.91,10.78,22.26,20.9,22.26s18.89-9.35,20.9-22.27l.31-.22a6.94,6.94,0,0,0,3-4.62c.76-3.15.09-5.1-.75-6.25a1.67,1.67,0,0,0,.4-.87c.72-5.11-1.18-10.71-5.2-15.34a25.84,25.84,0,0,0-14.52-8.35l-.63-.11a16,16,0,0,0-2.58-.2ZM85.71,26.68a4.8,4.8,0,0,0-1.23-.4c-.5-4.07,1.15-8.73,4.45-12.52a22.61,22.61,0,0,1,15.22-7.63h0a22.61,22.61,0,0,1,15.22,7.63c3.22,3.71,4.87,8.24,4.48,12.24a4.15,4.15,0,0,0-.79-.07,4.54,4.54,0,0,0-2.36.67L118,19.79a1.85,1.85,0,0,0-1.5-1.16h-.23a1.83,1.83,0,0,0-1.51.78,10.45,10.45,0,0,1-3.61,3.11A14,14,0,0,1,104.69,24,14.63,14.63,0,0,1,99.38,23a25.11,25.11,0,0,1-7.11-4.36,1.86,1.86,0,0,0-3,.54l-3.61,7.46Zm-.4,7a1.87,1.87,0,0,0,1.68-1L91.65,23A28.88,28.88,0,0,0,98,26.51a18.36,18.36,0,0,0,6.67,1.21,17.6,17.6,0,0,0,8.24-1.93,15.61,15.61,0,0,0,2.73-1.86l3.57,9A1.84,1.84,0,0,0,121,34.11h0a1.82,1.82,0,0,0,.68-.13,1.86,1.86,0,0,0,1-2.42l-.54-1.35a1.75,1.75,0,0,0,.33-.28.79.79,0,0,1,.59-.28.63.63,0,0,1,.3.07c.56.3.92,1.49.44,3.47a3.35,3.35,0,0,1-1.57,2.44A3.83,3.83,0,0,0,120.47,38v0a.29.29,0,0,0,0,.09v.08c-1.69,11.16-8.94,19.27-17.25,19.27S87.62,49.34,85.94,38.18c0,0,0,0,0-.08h0l0-.15a3.93,3.93,0,0,0-1.77-2.32,3.32,3.32,0,0,1-1.57-2.44c-.37-1.54-.25-2.7.32-3.09a1.22,1.22,0,0,1,.67-.19,1.1,1.1,0,0,1,.55.13l-.45.93a1.87,1.87,0,0,0,.86,2.49,2,2,0,0,0,.81.18Z" transform="translate(-0.5 -0.5)"/></g></g></svg>