<svg xmlns="http://www.w3.org/2000/svg" width="73.055" height="73.055" viewBox="0 0 73.055 73.055">
  <g id="startup" transform="translate(-0.001 0)">
    <g id="Grupo_663" data-name="Grupo 663" transform="translate(44.32 14.47)">
      <g id="Grupo_662" data-name="Grupo 662">
        <path id="Caminho_11268" data-name="Caminho 11268" d="M322.779,103.506a7.134,7.134,0,1,0,0,10.09A7.131,7.131,0,0,0,322.779,103.506Zm-2.018,8.072a4.281,4.281,0,1,1,0-6.054A4.286,4.286,0,0,1,320.761,111.578Z" transform="translate(-310.603 -101.415)" fill="#25475f"/>
      </g>
    </g>
    <g id="Grupo_665" data-name="Grupo 665" transform="translate(13.702 0)">
      <g id="Grupo_664" data-name="Grupo 664" transform="translate(0 0)">
        <path id="Caminho_11269" data-name="Caminho 11269" d="M154.954.418A1.422,1.422,0,0,0,153.894,0a63.386,63.386,0,0,0-17.135,3.548,47.772,47.772,0,0,0-18.127,10.994c-1.056,1.056-2.083,2.175-3.066,3.338-4.658-2.742-8.391-1.882-10.751-.619-5.434,2.908-8.8,10.8-8.8,16.451a1.427,1.427,0,0,0,2.436,1.009,9.083,9.083,0,0,1,7.555-2.535l.5.5a50.188,50.188,0,0,0-2.357,6.93,4.039,4.039,0,0,0,.173,2.478,13.512,13.512,0,0,0-3.853,2.717c-3.673,3.673-4.419,12.624-4.449,13a1.427,1.427,0,0,0,1.422,1.539q.056,0,.112,0c.379-.03,9.331-.776,13-4.449a13.513,13.513,0,0,0,2.716-3.852,4.029,4.029,0,0,0,2.48.172,50.192,50.192,0,0,0,6.929-2.356l.5.5a9.084,9.084,0,0,1-2.535,7.554,1.427,1.427,0,0,0,1.009,2.436c5.648,0,13.543-3.363,16.451-8.8,1.263-2.36,2.123-6.093-.619-10.751,1.162-.983,2.282-2.01,3.338-3.066a47.776,47.776,0,0,0,10.994-18.127,63.388,63.388,0,0,0,3.548-17.136A1.427,1.427,0,0,0,154.954.418ZM99.208,30.643c.886-4.29,3.461-9,6.954-10.866,2.334-1.249,4.886-1.127,7.6.358a57.692,57.692,0,0,0-5.995,9.772,1.5,1.5,0,0,0-.755-.444A12.2,12.2,0,0,0,99.208,30.643Zm9.335,22.24c-1.962,1.962-6.564,3-9.473,3.419.423-2.909,1.458-7.511,3.419-9.473a10.283,10.283,0,0,1,3.653-2.4l4.8,4.8A10.281,10.281,0,0,1,108.543,52.883Zm6.505-4.427a1.339,1.339,0,0,1-1.247-.4l-2.795-2.794-3.685-3.685a1.34,1.34,0,0,1-.406-1.247,46.328,46.328,0,0,1,1.782-5.45l11.8,11.8A46.3,46.3,0,0,1,115.048,48.456Zm20.547.755c-1.869,3.493-6.576,6.067-10.866,6.954a12.144,12.144,0,0,0,1.169-7.836,1.49,1.49,0,0,0-.434-.721,57.712,57.712,0,0,0,9.772-5.995C136.722,44.325,136.844,46.877,135.6,49.211Zm3.217-14.488a51.79,51.79,0,0,1-4.115,3.692,54.819,54.819,0,0,1-11.375,7.051L109.908,32.05a54.811,54.811,0,0,1,7.051-11.374,51.778,51.778,0,0,1,3.692-4.115A44.491,44.491,0,0,1,136.87,6.547L148.826,18.5A44.488,44.488,0,0,1,138.812,34.722Zm11.04-19.229-9.973-9.973A64.15,64.15,0,0,1,152.4,2.974,64.155,64.155,0,0,1,149.852,15.494Z" transform="translate(-96.018 0)" fill="#25475f"/>
      </g>
    </g>
    <g id="Grupo_671" data-name="Grupo 671" transform="translate(12.108 60.537)">
      <g id="Grupo_670" data-name="Grupo 670">
        <path id="Caminho_11272" data-name="Caminho 11272" d="M96.953,424.689a1.427,1.427,0,0,0-2.018,0l-9.666,9.664a1.427,1.427,0,0,0,2.018,2.018l9.666-9.664A1.427,1.427,0,0,0,96.953,424.689Z" transform="translate(-84.851 -424.271)" fill="#25475f"/>
      </g>
    </g>
    <g id="Grupo_673" data-name="Grupo 673" transform="translate(0.693 60.537)">
      <g id="Grupo_672" data-name="Grupo 672">
        <path id="Caminho_11273" data-name="Caminho 11273" d="M16.953,424.689a1.427,1.427,0,0,0-2.018,0l-9.666,9.664a1.427,1.427,0,0,0,2.018,2.018l9.666-9.664A1.427,1.427,0,0,0,16.953,424.689Z" transform="translate(-4.851 -424.271)" fill="#25475f"/>
      </g>
    </g>
    <g id="Grupo_675" data-name="Grupo 675" transform="translate(0.001 48.429)">
      <g id="Grupo_674" data-name="Grupo 674" transform="translate(0)">
        <path id="Caminho_11274" data-name="Caminho 11274" d="M12.1,339.828a1.427,1.427,0,0,0-2.018,0L.419,349.494a1.427,1.427,0,1,0,2.018,2.018l9.664-9.665A1.427,1.427,0,0,0,12.1,339.828Z" transform="translate(-0.001 -339.41)" fill="#25475f"/>
      </g>
    </g>
  </g>
</svg>
