<svg xmlns="http://www.w3.org/2000/svg" width="91.107" height="58.953" viewBox="0 0 91.107 58.953">
  <g id="barcode" transform="translate(-64 -128)">
    <g id="Grupo_659" data-name="Grupo 659" transform="translate(64 128)">
      <path id="Caminho_11233" data-name="Caminho 11233" d="M66.68,186.952a2.68,2.68,0,0,1-2.68-2.68V130.68a2.68,2.68,0,1,1,5.359,0v53.592A2.68,2.68,0,0,1,66.68,186.952Z" transform="translate(-64 -128)" fill="#25475f"/>
      <path id="Caminho_11234" data-name="Caminho 11234" d="M109.346,176.233a2.68,2.68,0,0,1-2.68-2.68V130.68a2.68,2.68,0,1,1,5.359,0v42.874A2.68,2.68,0,0,1,109.346,176.233Z" transform="translate(-95.948 -128)" fill="#25475f"/>
      <path id="Caminho_11235" data-name="Caminho 11235" d="M152.013,176.233a2.68,2.68,0,0,1-2.68-2.68V130.68a2.68,2.68,0,1,1,5.359,0v42.874A2.68,2.68,0,0,1,152.013,176.233Z" transform="translate(-127.896 -128)" fill="#25475f"/>
      <path id="Caminho_11236" data-name="Caminho 11236" d="M194.68,176.233a2.68,2.68,0,0,1-2.68-2.68V130.68a2.68,2.68,0,1,1,5.359,0v42.874A2.68,2.68,0,0,1,194.68,176.233Z" transform="translate(-159.844 -128)" fill="#25475f"/>
      <path id="Caminho_11237" data-name="Caminho 11237" d="M237.346,186.952a2.68,2.68,0,0,1-2.68-2.68V130.68a2.68,2.68,0,1,1,5.359,0v53.592A2.68,2.68,0,0,1,237.346,186.952Z" transform="translate(-191.792 -128)" fill="#25475f"/>
      <path id="Caminho_11238" data-name="Caminho 11238" d="M280.013,176.233a2.68,2.68,0,0,1-2.68-2.68V130.68a2.68,2.68,0,1,1,5.359,0v42.874A2.68,2.68,0,0,1,280.013,176.233Z" transform="translate(-223.741 -128)" fill="#25475f"/>
      <path id="Caminho_11239" data-name="Caminho 11239" d="M322.68,176.233a2.68,2.68,0,0,1-2.68-2.68V130.68a2.68,2.68,0,1,1,5.359,0v42.874A2.68,2.68,0,0,1,322.68,176.233Z" transform="translate(-255.689 -128)" fill="#25475f"/>
      <path id="Caminho_11240" data-name="Caminho 11240" d="M365.346,176.233a2.68,2.68,0,0,1-2.68-2.68V130.68a2.68,2.68,0,1,1,5.359,0v42.874A2.68,2.68,0,0,1,365.346,176.233Z" transform="translate(-287.637 -128)" fill="#25475f"/>
      <path id="Caminho_11241" data-name="Caminho 11241" d="M408.013,186.952a2.68,2.68,0,0,1-2.68-2.68V130.68a2.68,2.68,0,1,1,5.359,0v53.592A2.68,2.68,0,0,1,408.013,186.952Z" transform="translate(-319.585 -128)" fill="#25475f"/>
      <path id="Caminho_11242" data-name="Caminho 11242" d="M109.344,346.737a2.174,2.174,0,0,1-1.018-.214,1.9,1.9,0,0,1-.857-.59,2.588,2.588,0,0,1-.092-3.659q.045-.047.092-.092a1.893,1.893,0,0,1,.857-.59,2.647,2.647,0,0,1,2.894.59,2.68,2.68,0,0,1-1.876,4.555Z" transform="translate(-95.946 -287.785)" fill="#25475f"/>
      <path id="Caminho_11243" data-name="Caminho 11243" d="M152.011,346.725a2.174,2.174,0,0,1-1.018-.214,1.9,1.9,0,0,1-.857-.59,2.588,2.588,0,0,1-.092-3.659q.045-.047.092-.092a1.893,1.893,0,0,1,.857-.59,2.626,2.626,0,0,1,2.894.59,1.9,1.9,0,0,1,.59.857,2.525,2.525,0,0,1,0,2.037,1.875,1.875,0,0,1-.59.857A2.509,2.509,0,0,1,152.011,346.725Z" transform="translate(-127.894 -287.773)" fill="#25475f"/>
      <path id="Caminho_11244" data-name="Caminho 11244" d="M194.678,346.725a2.174,2.174,0,0,1-1.018-.214,1.9,1.9,0,0,1-.857-.59,2.588,2.588,0,0,1-.092-3.659q.045-.047.092-.092a1.893,1.893,0,0,1,.857-.59,2.626,2.626,0,0,1,2.894.59,1.9,1.9,0,0,1,.59.857,2.525,2.525,0,0,1,0,2.037,1.875,1.875,0,0,1-.59.857A2.509,2.509,0,0,1,194.678,346.725Z" transform="translate(-159.843 -287.773)" fill="#25475f"/>
      <path id="Caminho_11245" data-name="Caminho 11245" d="M280.125,346.806A2.664,2.664,0,1,1,282,342.251a1.9,1.9,0,0,1,.59.857,2.525,2.525,0,0,1,0,2.037A1.875,1.875,0,0,1,282,346,2.508,2.508,0,0,1,280.125,346.806Z" transform="translate(-223.853 -287.855)" fill="#25475f"/>
      <path id="Caminho_11246" data-name="Caminho 11246" d="M322.792,346.806a2.68,2.68,0,1,1,1.838-.766A2.68,2.68,0,0,1,322.792,346.806Z" transform="translate(-255.801 -287.854)" fill="#25475f"/>
      <path id="Caminho_11247" data-name="Caminho 11247" d="M365.345,346.806a2.508,2.508,0,0,1-1.876-.8,1.872,1.872,0,0,1-.59-.857,2.525,2.525,0,0,1,0-2.037,1.891,1.891,0,0,1,.59-.857,2.653,2.653,0,1,1,1.876,4.555Z" transform="translate(-287.636 -287.854)" fill="#25475f"/>
    </g>
    <path id="Caminho_11252" data-name="Caminho 11252" d="M66.68,186.952a2.68,2.68,0,0,1-2.68-2.68V130.68a2.68,2.68,0,1,1,5.359,0v53.592A2.68,2.68,0,0,1,66.68,186.952Z" fill="#25475f"/>
    <path id="Caminho_11253" data-name="Caminho 11253" d="M109.346,176.233a2.68,2.68,0,0,1-2.68-2.68V130.68a2.68,2.68,0,1,1,5.359,0v42.874A2.68,2.68,0,0,1,109.346,176.233Z" transform="translate(-31.948)" fill="#25475f"/>
    <path id="Caminho_11254" data-name="Caminho 11254" d="M152.013,176.233a2.68,2.68,0,0,1-2.68-2.68V130.68a2.68,2.68,0,1,1,5.359,0v42.874A2.68,2.68,0,0,1,152.013,176.233Z" transform="translate(-63.896)" fill="#25475f"/>
    <path id="Caminho_11255" data-name="Caminho 11255" d="M194.68,176.233a2.68,2.68,0,0,1-2.68-2.68V130.68a2.68,2.68,0,1,1,5.359,0v42.874A2.68,2.68,0,0,1,194.68,176.233Z" transform="translate(-95.844)" fill="#25475f"/>
    <path id="Caminho_11256" data-name="Caminho 11256" d="M237.346,186.952a2.68,2.68,0,0,1-2.68-2.68V130.68a2.68,2.68,0,1,1,5.359,0v53.592A2.68,2.68,0,0,1,237.346,186.952Z" transform="translate(-127.792)" fill="#25475f"/>
    <path id="Caminho_11257" data-name="Caminho 11257" d="M280.013,176.233a2.68,2.68,0,0,1-2.68-2.68V130.68a2.68,2.68,0,1,1,5.359,0v42.874A2.68,2.68,0,0,1,280.013,176.233Z" transform="translate(-159.741)" fill="#25475f"/>
    <path id="Caminho_11258" data-name="Caminho 11258" d="M322.68,176.233a2.68,2.68,0,0,1-2.68-2.68V130.68a2.68,2.68,0,1,1,5.359,0v42.874A2.68,2.68,0,0,1,322.68,176.233Z" transform="translate(-191.689)" fill="#25475f"/>
    <path id="Caminho_11259" data-name="Caminho 11259" d="M365.346,176.233a2.68,2.68,0,0,1-2.68-2.68V130.68a2.68,2.68,0,1,1,5.359,0v42.874A2.68,2.68,0,0,1,365.346,176.233Z" transform="translate(-223.637)" fill="#25475f"/>
    <path id="Caminho_11260" data-name="Caminho 11260" d="M408.013,186.952a2.68,2.68,0,0,1-2.68-2.68V130.68a2.68,2.68,0,1,1,5.359,0v53.592A2.68,2.68,0,0,1,408.013,186.952Z" transform="translate(-255.585)" fill="#25475f"/>
    <path id="Caminho_11261" data-name="Caminho 11261" d="M109.351,346.733a2.2,2.2,0,0,1-1.018-.214,1.912,1.912,0,0,1-.857-.59,2.594,2.594,0,0,1-.084-3.667q.041-.043.084-.084a1.908,1.908,0,0,1,.857-.59,2.68,2.68,0,0,1,2.037,0,1.88,1.88,0,0,1,.857.59,2.68,2.68,0,0,1-1.876,4.555Z" transform="translate(-31.953 -159.781)" fill="#25475f"/>
    <path id="Caminho_11262" data-name="Caminho 11262" d="M152.109,346.719a2.68,2.68,0,0,1-1.881-4.556,2.616,2.616,0,0,1,2.894-.59,1.88,1.88,0,0,1,.857.59,2.68,2.68,0,0,1-1.87,4.556Z" transform="translate(-63.993 -159.767)" fill="#25475f"/>
    <path id="Caminho_11263" data-name="Caminho 11263" d="M194.776,346.736a2.68,2.68,0,0,1-1.881-4.556,1.909,1.909,0,0,1,.857-.59,2.647,2.647,0,0,1,2.894.59,2.68,2.68,0,0,1-1.876,4.555h.006Z" transform="translate(-95.941 -159.784)" fill="#25475f"/>
    <path id="Caminho_11264" data-name="Caminho 11264" d="M280.018,346.733a2.348,2.348,0,0,1-1.018-.214,1.912,1.912,0,0,1-.857-.59,2.594,2.594,0,0,1-.084-3.667q.041-.043.084-.084a1.908,1.908,0,0,1,.857-.59,2.68,2.68,0,0,1,2.037,0,1.88,1.88,0,0,1,.857.59,2.68,2.68,0,0,1-1.876,4.555Z" transform="translate(-159.746 -159.781)" fill="#25475f"/>
    <path id="Caminho_11265" data-name="Caminho 11265" d="M322.685,346.806a2.349,2.349,0,0,1-1.018-.214,1.912,1.912,0,0,1-.857-.59,2.594,2.594,0,0,1-.084-3.667q.041-.043.084-.084a2.679,2.679,0,0,1,3.751,0,2.583,2.583,0,0,1,.1,3.652q-.049.051-.1.1a1.886,1.886,0,0,1-.857.59A2.332,2.332,0,0,1,322.685,346.806Z" transform="translate(-191.694 -159.854)" fill="#25475f"/>
    <path id="Caminho_11266" data-name="Caminho 11266" d="M365.342,346.737a2.349,2.349,0,0,1-1.018-.214,1.913,1.913,0,0,1-.857-.59,2.514,2.514,0,0,1-.8-1.876,2.142,2.142,0,0,1,.214-1.018,1.886,1.886,0,0,1,.584-.857,1.908,1.908,0,0,1,.857-.59,2.647,2.647,0,0,1,2.894.59,1.942,1.942,0,0,1,.59.857,2.143,2.143,0,0,1,.214,1.018,2.755,2.755,0,0,1-2.68,2.68Z" transform="translate(-223.633 -159.785)" fill="#25475f"/>
  </g>
</svg>
