<svg xmlns="http://www.w3.org/2000/svg" width="86.493" height="86.509" viewBox="0 0 86.493 86.509"><defs><style>.a{fill:#fafafa;}</style></defs><g transform="translate(0 0)"><g transform="translate(0 0)"><g transform="translate(17.53 48.798)"><path class="a" d="M83.427,110.606a12.631,12.631,0,0,1-8.988-3.722L61.463,93.908a2.465,2.465,0,0,0-3.408,0L45.032,106.931a12.646,12.646,0,0,1-8.988,3.722H33.49l16.431,16.431a13.138,13.138,0,0,0,18.588,0l16.478-16.478Z" transform="translate(-33.49 -93.224)"/></g><g transform="translate(17.53)"><path class="a" d="M36.044,20.284a12.625,12.625,0,0,1,8.988,3.722L58.055,37.028a2.413,2.413,0,0,0,3.408,0l12.976-12.95a12.61,12.61,0,0,1,8.988-3.722H85L68.508,3.847a13.149,13.149,0,0,0-18.588,0L33.49,20.284Z" transform="translate(-33.49 0)"/></g><g transform="translate(0 23.942)"><path class="a" d="M82.657,55.759l-9.945-9.945a1.874,1.874,0,0,1-.707.147H67.477A8.946,8.946,0,0,0,61.2,48.577L48.2,61.522a6.234,6.234,0,0,1-8.81,0L26.371,48.493a8.951,8.951,0,0,0-6.281-2.617H14.515a1.885,1.885,0,0,1-.665-.136l-10,10.019a13.149,13.149,0,0,0,0,18.588l10,10a1.937,1.937,0,0,1,.67-.136h5.569a8.951,8.951,0,0,0,6.281-2.617L39.394,68.583a6.376,6.376,0,0,1,8.81,0L61.18,81.554a8.925,8.925,0,0,0,6.281,2.617h4.528a1.869,1.869,0,0,1,.707.141l9.945-9.945a13.138,13.138,0,0,0,0-18.588" transform="translate(0 -45.74)"/></g></g></g></svg>