<svg xmlns="http://www.w3.org/2000/svg" width="107.816" height="107.82" viewBox="0 0 107.816 107.82">
  <g id="smartphone_1_" data-name="smartphone (1)" transform="translate(-0.001)">
    <path id="Caminho_11220" data-name="Caminho 11220" d="M66.182,0H20.916A7.927,7.927,0,0,0,13,7.916V99.9a7.927,7.927,0,0,0,7.916,7.918H66.18A7.927,7.927,0,0,0,74.1,99.9V7.916A7.927,7.927,0,0,0,66.182,0ZM16.594,14.376H70.5V82.662H16.594ZM20.916,3.594H66.18A4.327,4.327,0,0,1,70.5,7.916v2.866H16.594V7.916A4.327,4.327,0,0,1,20.916,3.594ZM66.182,104.226H20.916A4.327,4.327,0,0,1,16.594,99.9V86.256H70.5V99.9A4.327,4.327,0,0,1,66.182,104.226Z" transform="translate(10.36)" fill="#25475f"/>
    <path id="Caminho_11221" data-name="Caminho 11221" d="M33.188,49a7.188,7.188,0,1,0,7.188,7.188A7.2,7.2,0,0,0,33.188,49Zm0,10.782a3.594,3.594,0,1,1,3.594-3.594A3.6,3.6,0,0,1,33.188,59.782Z" transform="translate(20.721 39.053)" fill="#25475f"/>
    <path id="Caminho_11222" data-name="Caminho 11222" d="M26.8,6.594h7.188a1.8,1.8,0,0,0,0-3.594H26.8a1.8,1.8,0,1,0,0,3.594Z" transform="translate(19.924 2.391)" fill="#25475f"/>
    <path id="Caminho_11223" data-name="Caminho 11223" d="M33.8,6.594h1.8a1.8,1.8,0,0,0,0-3.594H33.8a1.8,1.8,0,1,0,0,3.594Z" transform="translate(25.503 2.391)" fill="#25475f"/>
    <path id="Caminho_11224" data-name="Caminho 11224" d="M57.973,4.8a1.8,1.8,0,0,0-2.541,2.541,17.241,17.241,0,0,1,0,24.353,1.8,1.8,0,1,0,2.541,2.541A20.837,20.837,0,0,0,57.973,4.8Z" transform="translate(43.758 3.408)" fill="#25475f"/>
    <path id="Caminho_11225" data-name="Caminho 11225" d="M53.762,7.079A1.8,1.8,0,1,0,51.221,9.62a11.8,11.8,0,0,1,0,16.671,1.8,1.8,0,1,0,2.541,2.541,15.395,15.395,0,0,0,0-21.753Z" transform="translate(40.402 5.222)" fill="#25475f"/>
    <path id="Caminho_11226" data-name="Caminho 11226" d="M8.628,7.344A1.8,1.8,0,0,0,6.087,4.8a20.837,20.837,0,0,0,0,29.435A1.8,1.8,0,1,0,8.628,31.7,17.237,17.237,0,0,1,8.628,7.344Z" transform="translate(0 3.408)" fill="#25475f"/>
    <path id="Caminho_11227" data-name="Caminho 11227" d="M12.136,6.8a1.8,1.8,0,0,0-2.541,0,15.395,15.395,0,0,0,0,21.753,1.8,1.8,0,1,0,2.541-2.541,11.8,11.8,0,0,1,0-16.671A1.8,1.8,0,0,0,12.136,6.8Z" transform="translate(4.06 5.002)" fill="#25475f"/>
  </g>
</svg>
