<svg id="Grupo_1527" data-name="Grupo 1527" xmlns="http://www.w3.org/2000/svg" width="285.14" height="299.594" viewBox="0 0 285.14 299.594">
  <path id="Caminho_12766" data-name="Caminho 12766" d="M449.314-892.229a4.378,4.378,0,0,0,4.378,4.378,4.378,4.378,0,0,0,4.377-4.378c0-12.468-10.718-22.827-24.66-24.644V-921a4.378,4.378,0,0,0-4.378-4.378A4.378,4.378,0,0,0,424.654-921v4.125c-13.942,1.817-24.66,12.176-24.66,24.644s10.718,22.827,24.66,24.644v32.244c-9.085-1.6-15.9-8.069-15.9-15.789a4.378,4.378,0,0,0-4.378-4.378,4.378,4.378,0,0,0-4.378,4.378c0,12.468,10.718,22.826,24.66,24.644v4.125a4.378,4.378,0,0,0,4.378,4.378,4.378,4.378,0,0,0,4.378-4.378v-4.125c13.941-1.818,24.66-12.176,24.66-24.644s-10.718-22.826-24.66-24.643v-32.244C442.495-906.417,449.314-899.948,449.314-892.229Zm-24.66,15.789c-9.086-1.6-15.905-8.07-15.905-15.789s6.819-14.188,15.905-15.788Zm24.66,25.311c0,7.719-6.819,14.188-15.9,15.788v-31.577C442.495-865.317,449.314-858.849,449.314-851.13Z" transform="translate(-318.661 982.047)" fill="#00cb24"/>
  <path id="Caminho_12767" data-name="Caminho 12767" d="M543.277-796.1a4.376,4.376,0,0,0-4.071-2.769h-27.6v-214.273a4.377,4.377,0,0,0-4.378-4.378H430.9a4.377,4.377,0,0,0-4.378,4.378v5.4a109.456,109.456,0,0,0-57.706-16.267,110.5,110.5,0,0,0-110.37,110.37,110.5,110.5,0,0,0,110.37,110.37,109.473,109.473,0,0,0,57.706-16.267v20.667h-27.6a4.377,4.377,0,0,0-4.071,2.77,4.377,4.377,0,0,0,1.078,4.8l70.143,65.7a4.363,4.363,0,0,0,2.992,1.182,4.362,4.362,0,0,0,2.992-1.182l70.143-65.7A4.374,4.374,0,0,0,543.277-796.1ZM426.52-856.8a4.345,4.345,0,0,0-1.7,1.018,80.011,80.011,0,0,1-55.994,22.671c-.205,0-.411,0-.617,0A80.05,80.05,0,0,1,311.875-856.7a79.992,79.992,0,0,1-23.583-56.937,79.992,79.992,0,0,1,23.583-56.938,80.056,80.056,0,0,1,56.334-23.579A80.034,80.034,0,0,1,424.82-971.49a4.359,4.359,0,0,0,1.7,1.017Zm-57.706,44.345A101.292,101.292,0,0,1,267.637-913.636a101.291,101.291,0,0,1,101.177-101.177A100.333,100.333,0,0,1,426.52-996.75v14.994a88.741,88.741,0,0,0-58.377-21.155,88.763,88.763,0,0,0-62.459,26.144,88.69,88.69,0,0,0-26.148,63.129,88.691,88.691,0,0,0,26.148,63.129,88.758,88.758,0,0,0,62.459,26.148l.684,0a88.656,88.656,0,0,0,57.693-21.16v15A100.354,100.354,0,0,1,368.814-812.459Zm100.25,77.671L410-790.11h20.9a4.377,4.377,0,0,0,4.378-4.378V-1008.76h67.576v214.272a4.377,4.377,0,0,0,4.378,4.378h20.9Z" transform="translate(-258.444 1024.006)" fill="#00cb24"/>
</svg>
