<svg xmlns="http://www.w3.org/2000/svg" width="73.866" height="73.889" viewBox="0 0 73.866 73.889">
  <g id="hand" transform="translate(-0.501)">
    <path id="Caminho_11276" data-name="Caminho 11276" d="M188.449,15.87A15.87,15.87,0,1,0,204.319,0,15.889,15.889,0,0,0,188.449,15.87Zm28.855,0A12.985,12.985,0,1,1,204.319,2.886,13,13,0,0,1,217.3,15.87Zm0,0" transform="translate(-160.824)" fill="#25475f"/>
    <path id="Caminho_11277" data-name="Caminho 11277" d="M17.119,255.14a1.442,1.442,0,0,0,2.036.012l6.995-6.891a4.36,4.36,0,0,0,1.027-4.477l1.5-1.451a4.3,4.3,0,0,1,3-1.214h19.18a12.917,12.917,0,0,0,9.057-3.679c.1-.1-.762.918,13.085-15.631a5.771,5.771,0,0,0-8.782-7.49l-8.513,8.75a5.8,5.8,0,0,0-4.486-2.148H35.138a18.613,18.613,0,0,0-7.225-1.443c-6.947,0-13.014,3.209-16.269,9.225a4.31,4.31,0,0,0-3.859,1.2L.922,236.782a1.443,1.443,0,0,0,0,2.035Zm10.794-32.777a15.75,15.75,0,0,1,6.352,1.322,1.44,1.44,0,0,0,.578.121H51.226a2.885,2.885,0,1,1,0,5.771H39.455a1.443,1.443,0,0,0,0,2.885H51.226a5.762,5.762,0,0,0,5.72-6.525c8.235-8.465,9.4-9.655,9.446-9.714a2.886,2.886,0,1,1,4.406,3.728l-12.94,15.47a10.046,10.046,0,0,1-6.993,2.812H31.686a7.173,7.173,0,0,0-5.008,2.023l-1.226,1.183-11.3-11.3c2.642-4.956,7.6-7.774,13.764-7.774ZM9.827,231.938a1.439,1.439,0,0,1,1.786-.2c.25.152-.467-.5,12.5,12.445a1.446,1.446,0,0,1,.008,2.033l-5.963,5.875L3.979,237.8Zm0,0" transform="translate(0 -181.678)" fill="#25475f"/>
    <path id="Caminho_11278" data-name="Caminho 11278" d="M268.765,41.431v1.691a4.328,4.328,0,0,0,1.443,8.409,1.443,1.443,0,0,1,0,2.885,2.609,2.609,0,0,1-1.873-1.091,1.443,1.443,0,0,0-2.209,1.857,5.984,5.984,0,0,0,2.639,1.879v1.684a1.443,1.443,0,0,0,2.885,0V57.053a4.328,4.328,0,0,0-1.443-8.409,1.443,1.443,0,0,1,0-2.886,2.317,2.317,0,0,1,1.56.754,1.443,1.443,0,1,0,2.007-2.073,5.574,5.574,0,0,0-2.125-1.328v-1.68a1.443,1.443,0,1,0-2.885,0Zm0,0" transform="translate(-227.001 -34.217)" fill="#25475f"/>
  </g>
</svg>
