<svg id="pay" xmlns="http://www.w3.org/2000/svg" width="69.219" height="69.219" viewBox="0 0 69.219 69.219">
  <path id="Caminho_11231" data-name="Caminho 11231" d="M114.665,323.733l-2.938-1.76a5.782,5.782,0,0,0-2.964-.819h-4.422a10.439,10.439,0,0,0-2.682.346l-13.323,3.576a4.646,4.646,0,0,0-3.137,2.909l-11.719-6.34a4.592,4.592,0,0,0-3.136-.518,4.328,4.328,0,0,0-1.167.383,4.535,4.535,0,0,0-1.982,1.846,4.623,4.623,0,0,0-.61,2.3,4.572,4.572,0,0,0,2.28,3.99l21,12.567a5.768,5.768,0,0,0,3.037.864H109.16a5.748,5.748,0,0,0,2.12-.4l3.385-1.337v1.741H126.2V320H114.665Zm-4.233,16.79a3.471,3.471,0,0,1-1.269.242H92.906a3.472,3.472,0,0,1-1.838-.528L70.035,327.656a2.3,2.3,0,0,1-1.147-2A2.344,2.344,0,0,1,69.2,324.5a2.268,2.268,0,0,1,.991-.915,2.175,2.175,0,0,1,.577-.187,2.426,2.426,0,0,1,.442-.041,2.262,2.262,0,0,1,1.131.3l12.708,6.867c.015.07.015.14.033.21a4.626,4.626,0,0,0,4.46,3.415,11.332,11.332,0,0,0,1.9-.339l11.986-3.207-.595-2.229-11.947,3.193c-.526.121-1.2.26-1.345.272a2.307,2.307,0,0,1-2.23-1.7,2.107,2.107,0,0,1-.067-.427s-.009-.279,0-.377a2.332,2.332,0,0,1,1.7-2.035l13.318-3.563a8.063,8.063,0,0,1,2.084-.274h4.422a3.459,3.459,0,0,1,1.778.492l4.125,2.469v12.428Zm6.54-18.216h6.922v18.458h-6.922Zm0,0" transform="translate(-56.983 -273.854)" fill="#00cd23"/>
  <path id="Caminho_11232" data-name="Caminho 11232" d="M47.581,9.229,41.393,3.041A10.311,10.311,0,0,0,34.051,0h-14.5a5.808,5.808,0,0,0-2.579.609L14.382,1.9a3.419,3.419,0,0,1-1.674.362l-1.172-.041V0H0V25.38H11.536V21.919H13.5l.7.461a12.719,12.719,0,0,0,6.57,2.115V39.224H69.219V9.229ZM9.229,23.073H2.307V2.307H9.229Zm6.244-2.612-1.283-.849H11.536V4.532l1.088.039a5.792,5.792,0,0,0,2.789-.6L18,2.673a3.468,3.468,0,0,1,1.55-.366h14.5a8.021,8.021,0,0,1,5.71,2.365l4.557,4.557H34.8L32,6.429,30.368,8.06l8.149,8.15a2.313,2.313,0,0,1-3.265,3.278l-6.806-6.806-.808.692a6.115,6.115,0,0,1-7.776.115l-.669-.542L17.739,14.74l.676.548a8.41,8.41,0,0,0,2.35,1.324v5.574a10.4,10.4,0,0,1-5.293-1.726Zm16.411-1.08,1.741,1.741a4.648,4.648,0,0,0,6.518.006,5.84,5.84,0,1,0,.656-.837,4.537,4.537,0,0,0,.378-4.14H56.624A6.941,6.941,0,0,0,62.3,21.823v4.806A6.941,6.941,0,0,0,56.624,32.3H33.36a6.941,6.941,0,0,0-5.672-5.672V21.823a6.887,6.887,0,0,0,4.2-2.442Zm9.648,4.846a3.461,3.461,0,1,1,3.461,3.461A3.461,3.461,0,0,1,41.531,24.226Zm25.38,12.69H23.073V17.1a8.389,8.389,0,0,0,5.191-1.327l1.968,1.968a4.6,4.6,0,0,1-3.7,1.875H25.38v9.229h1.154a4.615,4.615,0,0,1,4.615,4.615v1.154H58.836V33.455a4.615,4.615,0,0,1,4.615-4.615H64.6V19.612H63.45A4.615,4.615,0,0,1,58.836,15V13.844H39.413l-2.307-2.307H66.911Zm0,0" transform="translate(0 0)" fill="#00cd23"/>
</svg>
