<svg xmlns="http://www.w3.org/2000/svg" width="101.082" height="101.082" viewBox="0 0 101.082 101.082">
  <g id="pay" transform="translate(0 0)">
    <path id="Caminho_11231" data-name="Caminho 11231" d="M136.8,325.452l-4.291-2.571a8.442,8.442,0,0,0-4.329-1.2h-6.457a15.24,15.24,0,0,0-3.916.505l-19.456,5.223a6.785,6.785,0,0,0-4.581,4.249L76.654,322.4a6.705,6.705,0,0,0-4.58-.757,6.321,6.321,0,0,0-1.7.559,6.623,6.623,0,0,0-2.894,2.7,6.751,6.751,0,0,0-.891,3.352,6.676,6.676,0,0,0,3.33,5.827l30.672,18.352a8.422,8.422,0,0,0,4.435,1.262h23.737a8.4,8.4,0,0,0,3.1-.59l4.943-1.952v2.542h16.847V320H136.8Zm-6.181,24.52a5.069,5.069,0,0,1-1.853.354H105.022a5.069,5.069,0,0,1-2.684-.772L71.624,331.181a3.352,3.352,0,0,1-1.675-2.925,3.422,3.422,0,0,1,.452-1.685,3.312,3.312,0,0,1,1.447-1.336,3.176,3.176,0,0,1,.842-.273,3.546,3.546,0,0,1,.646-.06,3.3,3.3,0,0,1,1.651.438l18.557,10.028c.021.1.021.2.049.307a6.756,6.756,0,0,0,6.513,4.987,16.556,16.556,0,0,0,2.776-.5l17.5-4.684-.869-3.255-17.447,4.663c-.768.177-1.76.379-1.964.4a3.369,3.369,0,0,1-3.257-2.482,3.076,3.076,0,0,1-.1-.624s-.013-.408,0-.551a3.405,3.405,0,0,1,2.479-2.971l19.448-5.2a11.774,11.774,0,0,1,3.044-.4h6.458a5.052,5.052,0,0,1,2.6.718l6.023,3.606v18.149Zm9.551-26.6h10.108v26.955H140.168Zm0,0" transform="translate(-52.563 -252.612)" fill="#25475f"/>
    <path id="Caminho_11232" data-name="Caminho 11232" d="M69.484,13.477,60.447,4.441A15.057,15.057,0,0,0,49.726,0H28.545a8.481,8.481,0,0,0-3.767.889L21,2.778a4.993,4.993,0,0,1-2.444.529l-1.712-.06V0H0V37.063H16.847V32.009h2.864l1.019.674a18.573,18.573,0,0,0,9.594,3.088V57.28h70.758v-43.8ZM13.478,33.694H3.369V3.369H13.478ZM22.6,29.879l-1.874-1.24H16.847V6.618l1.588.057a8.458,8.458,0,0,0,4.074-.883L26.281,3.9a5.064,5.064,0,0,1,2.264-.534H49.726a11.713,11.713,0,0,1,8.339,3.453l6.655,6.655h-13.9L46.728,9.389l-2.381,2.381,11.9,11.9A3.378,3.378,0,0,1,51.48,28.46l-9.94-9.94-1.18,1.011a8.929,8.929,0,0,1-11.355.168l-.976-.791-2.123,2.618.987.8a12.281,12.281,0,0,0,3.432,1.934V32.4a15.192,15.192,0,0,1-7.729-2.52ZM46.56,28.3,49.1,30.845a6.788,6.788,0,0,0,9.518.008,8.528,8.528,0,1,0,.958-1.222,6.626,6.626,0,0,0,.552-6.046H82.69a10.137,10.137,0,0,0,8.284,8.284v7.018a10.137,10.137,0,0,0-8.284,8.284H48.717a10.137,10.137,0,0,0-8.284-8.284V31.869A10.057,10.057,0,0,0,46.561,28.3Zm14.089,7.076A5.054,5.054,0,1,1,65.7,40.433,5.054,5.054,0,0,1,60.649,35.379ZM97.713,53.91H33.694V24.965a12.25,12.25,0,0,0,7.581-1.937L44.149,25.9a6.723,6.723,0,0,1-5.4,2.738H37.063V42.117h1.685a6.739,6.739,0,0,1,6.739,6.739v1.685H85.92V48.856a6.739,6.739,0,0,1,6.739-6.739h1.685V28.64H92.659A6.739,6.739,0,0,1,85.92,21.9V20.216H57.556l-3.369-3.369H97.713Zm0,0" transform="translate(0 0)" fill="#25475f"/>
  </g>
</svg>
