<svg xmlns="http://www.w3.org/2000/svg" width="112.394" height="97.734" viewBox="0 0 112.394 97.734">
  <g id="valid" transform="translate(-0.5 55.024)">
    <path id="Caminho_11318" data-name="Caminho 11318" d="M.5,15.019A11.425,11.425,0,0,1,11.828,3.5H91.792a11.425,11.425,0,0,1,11.328,11.519l-.678,38.21a2.443,2.443,0,1,1-4.887,0l.678-38.21a6.539,6.539,0,0,0-6.442-6.632H11.828a6.539,6.539,0,0,0-6.442,6.632V60.4a6.539,6.539,0,0,0,6.442,6.632l49.145.229a2.443,2.443,0,1,1,0,4.887l-49.145-.229A11.425,11.425,0,0,1,.5,60.4Z" transform="translate(0 -58.524)" fill="#01cc25" fill-rule="evenodd"/>
    <path id="Caminho_11319" data-name="Caminho 11319" d="M.5,8.943A2.443,2.443,0,0,1,2.943,6.5h97.734a2.443,2.443,0,1,1,0,4.887H2.943A2.443,2.443,0,0,1,.5,8.943Z" transform="translate(0 -46.864)" fill="#01cc25" fill-rule="evenodd"/>
    <path id="Caminho_11320" data-name="Caminho 11320" d="M2.5,13.943A2.443,2.443,0,0,1,4.943,11.5h9.773a2.443,2.443,0,1,1,0,4.887H4.943A2.443,2.443,0,0,1,2.5,13.943Z" transform="translate(7.773 -27.431)" fill="#01cc25" fill-rule="evenodd"/>
    <path id="Caminho_11321" data-name="Caminho 11321" d="M2.5,16.443A2.443,2.443,0,0,1,4.943,14H24.49a2.443,2.443,0,1,1,0,4.887H4.943A2.443,2.443,0,0,1,2.5,16.443Z" transform="translate(7.773 -17.714)" fill="#01cc25" fill-rule="evenodd"/>
    <path id="Caminho_11322" data-name="Caminho 11322" d="M39.377,17.387a21.99,21.99,0,1,0,21.99,21.99A21.99,21.99,0,0,0,39.377,17.387ZM12.5,39.377A26.877,26.877,0,1,1,39.377,66.254,26.877,26.877,0,0,1,12.5,39.377Z" transform="translate(46.641 -23.544)" fill="#01cc25" fill-rule="evenodd"/>
    <path id="Caminho_11323" data-name="Caminho 11323" d="M33.819,17.715a2.444,2.444,0,1,1,3.456,3.456L27.5,30.945a2.444,2.444,0,0,1-3.456,0l-7.33-7.33a2.444,2.444,0,1,1,3.456-3.456l5.6,5.6Z" transform="translate(60.244 -6.054)" fill="#01cc25" fill-rule="evenodd"/>
  </g>
</svg>
