<svg xmlns="http://www.w3.org/2000/svg" width="124.514" height="124.512" viewBox="0 0 124.514 124.512">
  <g id="fast-food" transform="translate(0 -0.002)">
    <path id="Caminho_11522" data-name="Caminho 11522" d="M124.514,96.016a9.891,9.891,0,0,0-4.691-8.417,13.236,13.236,0,0,0,.8-4.658,5.736,5.736,0,0,0-.4-2.1,5.217,5.217,0,0,0,2-4.1v-4c0-7.88-4.376-15.225-12.321-20.68-7.666-5.264-17.815-8.163-28.577-8.163A57.89,57.89,0,0,0,71.07,44.8l2.174-11.124A2.432,2.432,0,0,0,70.08,30.9c-.993.334-1.99.648-2.989.952V8.426a3.874,3.874,0,0,0-2.483-3.452c-.073-.038-8.574-4.6-8.574-4.6a3.1,3.1,0,0,0-3.084.083,4.163,4.163,0,0,0-1.932,3.484V9.022l-6.338,2.537V3.941A4.163,4.163,0,0,0,42.75.457,3.1,3.1,0,0,0,39.672.37s-8.508,4.565-8.581,4.6a3.874,3.874,0,0,0-2.482,3.452V11.56L22.27,9.022V3.941A4.163,4.163,0,0,0,20.339.457,3.094,3.094,0,0,0,17.262.37s-8.508,4.566-8.581,4.6A3.874,3.874,0,0,0,6.2,8.426V31.857c-1-.3-2-.618-2.988-.952a2.432,2.432,0,0,0-3.164,2.77L10.889,89.244a2.432,2.432,0,0,0,2.387,1.966h26.11a9.893,9.893,0,0,0,2.473,12.53,6.861,6.861,0,0,0-1.435,4.205V111.8a12.726,12.726,0,0,0,12.71,12.712H93.663a2.432,2.432,0,0,0,0-4.864H53.134a7.856,7.856,0,0,1-7.846-7.848v-3.857a2.057,2.057,0,0,1,2.028-2.032h68.018a2.032,2.032,0,0,1,2.028,2.032V111.8a7.853,7.853,0,0,1-7.839,7.848H92.234a2.432,2.432,0,0,0,0,4.864h17.289a12.722,12.722,0,0,0,12.7-12.712v-3.857a6.861,6.861,0,0,0-1.434-4.2,9.882,9.882,0,0,0,3.722-7.726ZM81.328,48.757c9.788,0,18.959,2.6,25.823,7.309,6.584,4.521,10.21,10.442,10.21,16.671v4a.366.366,0,0,1-.36.362H45.655a.374.374,0,0,1-.367-.362v-4c0-4.789,2.147-9.4,6.132-13.324a2.429,2.429,0,0,0,.2-.2A30.167,30.167,0,0,1,55.5,56.066c6.866-4.713,16.038-7.309,25.827-7.309Zm34.434,34.184a7.348,7.348,0,0,1-1.207,4.315c-.037.046-.072.095-.107.144a6.437,6.437,0,0,1-2.336,1.906,10.7,10.7,0,0,1-8.109.256l5.572-7.6H114.7A1.036,1.036,0,0,1,115.762,82.941Zm-38.227,6.6a11.6,11.6,0,0,1-13-1.51,2.432,2.432,0,0,0-3.282,0c-2.446,2.234-7.107,2.875-10.389,1.428a6.558,6.558,0,0,1-3.978-6.518,1.04,1.04,0,0,1,1.07-.977H71.975ZM55.883,10.717V5.812l6.194,3.325.151.08V33.208q-3.156.794-6.345,1.386ZM44.681,16.8l6.338-2.537V35.375q-3.159.43-6.338.662ZM33.472,15.114v-5.9l.145-.077,6.2-3.328V36.274c-1.052.027-2.1.042-3.158.036H36.63c-1.054.007-2.106-.009-3.158-.035V15.114Zm-11.2-.853L28.609,16.8V36.041q-3.179-.231-6.338-.661ZM11.062,9.217l.145-.077,6.2-3.328V34.6q-3.189-.592-6.345-1.388ZM5.6,36.762a107.255,107.255,0,0,0,31.041,4.412,107.24,107.24,0,0,0,31.04-4.413L65.879,46a45.052,45.052,0,0,0-13.131,6.056,35.7,35.7,0,0,0-3.91,3.1H9.192ZM12.441,71.8l-2.3-11.785H44.555A22.279,22.279,0,0,0,40.447,71.8Zm2.838,14.544L13.39,76.666H40.424v.073a5.214,5.214,0,0,0,2,4.1,5.727,5.727,0,0,0-.4,2.1,13.632,13.632,0,0,0,.418,3.405Zm32.754,14.7a5.033,5.033,0,0,1-2.52-9.386A11.686,11.686,0,0,0,48.9,93.91,15.6,15.6,0,0,0,62.849,92.9a16.444,16.444,0,0,0,17.587.6l5.543,7.555H48.033ZM78.008,81.965h25.536L98.472,88.88l-.009.011-.015.022L90.778,99.37Zm36.608,19.085H95.578l5.473-7.463a15.606,15.606,0,0,0,6.774,1.518,14.569,14.569,0,0,0,6.454-1.444,11.715,11.715,0,0,0,2.867-1.994,5.031,5.031,0,0,1-2.529,9.382Z" transform="translate(0 0)" fill="#00cb24"/>
    <path id="Caminho_11523" data-name="Caminho 11523" d="M326.795,492a2.432,2.432,0,0,0,0,4.864h.014a2.432,2.432,0,1,0-.014-4.864Z" transform="translate(-262.107 -434.117)" fill="#00cb24"/>
    <path id="Caminho_11524" data-name="Caminho 11524" d="M326.795,492a2.432,2.432,0,0,0,0,4.864h.014a2.432,2.432,0,1,0-.014-4.864Z" transform="translate(-238.671 -434.117)" fill="#00cb24"/>
    <path id="Caminho_11525" data-name="Caminho 11525" d="M326.795,492a2.432,2.432,0,0,0,0,4.864h.014a2.432,2.432,0,1,0-.014-4.864Z" transform="translate(-249.612 -426.578)" fill="#00cb24"/>
    <path id="Caminho_11526" data-name="Caminho 11526" d="M326.795,492a2.432,2.432,0,0,0,0,4.864h.014a2.432,2.432,0,1,0-.014-4.864Z" transform="translate(-225.539 -426.578)" fill="#00cb24"/>
  </g>
</svg>
