<svg xmlns="http://www.w3.org/2000/svg" width="120.455" height="150.648" viewBox="0 0 120.455 150.648">
  <g id="office-chair" transform="translate(-48.127)">
    <g id="Grupo_884" data-name="Grupo 884" transform="translate(48.127 0)">
      <path id="Caminho_11543" data-name="Caminho 11543" d="M161.054,50.194H151.016a7.534,7.534,0,0,0-2.509.452V30.118A30.741,30.741,0,0,0,117.238,0H98.317A29.788,29.788,0,0,0,68.2,29.462q0,.328,0,.656V50.646a7.534,7.534,0,0,0-2.509-.452H55.655a7.528,7.528,0,1,0,0,15.057h2.509V80.684a7.177,7.177,0,0,0,7.152,7.152h3.237a10.038,10.038,0,0,0,9.687,7.528H95.807v7.528a2.51,2.51,0,0,0,2.509,2.509h2.509v7.528a.477.477,0,0,1-.4.477l-20.778,3.463a12.547,12.547,0,0,0-10.239,9.912l-1,5.019a10.038,10.038,0,1,0,14.856,8.733,9.9,9.9,0,0,0-.2-1.932l2.083-8.357,15.559-1.957v5.646a10.038,10.038,0,1,0,15.057,0v-5.621l15.559,1.957,2.133,8.357a9.884,9.884,0,0,0,0,1.907,10.038,10.038,0,1,0,14.856-8.758l-1-5.019a12.547,12.547,0,0,0-10.239-9.912l-20.778-3.463a.477.477,0,0,1-.4-.452V105.4h2.509a2.51,2.51,0,0,0,2.509-2.509V95.365h17.566a10.038,10.038,0,0,0,9.687-7.528h3.237a7.177,7.177,0,0,0,7.152-7.152V65.251h2.509a7.528,7.528,0,1,0,0-15.057ZM68.2,82.817H65.317a2.133,2.133,0,0,1-2.133-2.133V65.251h2.509A7.534,7.534,0,0,0,68.2,64.8ZM65.693,60.232H55.655a2.509,2.509,0,0,1,0-5.019H65.693a2.509,2.509,0,1,1,0,5.019Zm7.528,85.322a5.019,5.019,0,1,1,5.019-5.019A5.019,5.019,0,0,1,73.222,145.554Zm35.133,0a5.019,5.019,0,1,1,5.019-5.019A5.019,5.019,0,0,1,108.355,145.554Zm40.152-5.019a5.019,5.019,0,1,1-5.019-5.019A5.019,5.019,0,0,1,148.506,140.536ZM136.235,121.79a7.528,7.528,0,0,1,6.148,5.947l.552,2.76a10.038,10.038,0,0,0-5.7,2.208l-1.28-5.32a2.509,2.509,0,0,0-2.133-1.882l-20.076-2.509a2.619,2.619,0,0,0-2.886,2.484v5.37a9.134,9.134,0,0,0-5.019,0v-5.37a2.5,2.5,0,0,0-2.811-2.484L82.959,125.5a2.509,2.509,0,0,0-2.133,1.882l-1.355,5.37a10.037,10.037,0,0,0-5.7-2.259l.552-2.811a7.529,7.529,0,0,1,6.148-5.947l20.778-3.463a5.471,5.471,0,0,0,4.592-5.345V105.4h5.019v7.528a5.471,5.471,0,0,0,4.592,5.4Zm-20.352-21.406H100.826V95.365h15.057Zm20.778-10.038H80.048a6.776,6.776,0,0,1-6.826-5.922,5.019,5.019,0,0,1,5.019-4.116h60.228a5.019,5.019,0,0,1,5.019,4.116A6.776,6.776,0,0,1,136.661,90.346Zm6.826-13.652a9.814,9.814,0,0,0-5.019-1.405H78.241a9.814,9.814,0,0,0-5.019,1.405V30.118A24.819,24.819,0,0,1,97.761,5.024q.278,0,.555,0h18.921a25.722,25.722,0,0,1,26.249,25.095Zm10.038,3.99a2.133,2.133,0,0,1-2.133,2.133h-2.886V64.8a7.534,7.534,0,0,0,2.509.452h2.509Zm7.528-20.452H151.016a2.509,2.509,0,0,1,0-5.019h10.038a2.509,2.509,0,1,1,0,5.019Z" transform="translate(-48.127 0)" fill="#00cb24"/>
    </g>
  </g>
</svg>
