<svg height="106.116" viewBox="0 0 129.654 106.116" width="129.654" xmlns="http://www.w3.org/2000/svg"><path d="m128.414 24.109-48.047-18.318a1.926 1.926 0 1 0 -1.367 3.599l43.327 16.518-25.12 9.576-31.586-14.3a1.926 1.926 0 0 0 -1.589 3.509l28.106 12.724-27.312 10.412-57.496-21.921 57.5-21.921 14.17 5.403a1.926 1.926 0 1 0 1.372-3.6l-14.859-5.663a1.926 1.926 0 0 0 -1.373 0l-62.901 23.981a1.927 1.927 0 0 0 -1.239 1.8v8.792a1.927 1.927 0 0 0 1.239 1.8l19.642 7.488v14.457a1.925 1.925 0 1 0 3.851 0v-12.987l39.408 15.025a1.925 1.925 0 0 0 1.373 0l29.705-11.326v30.475a65.242 65.242 0 0 1 -70.486-6.244v-15.023a1.925 1.925 0 1 0 -3.851 0v15.956a1.924 1.924 0 0 0 .721 1.5 69.081 69.081 0 0 0 73.616 8.124v7.794a7.316 7.316 0 1 0 3.851 0v-9.825a68.63 68.63 0 0 0 8.983-6.09 1.925 1.925 0 0 0 .722-1.5v-30.336l19.64-7.488a1.925 1.925 0 0 0 1.239-1.8v-8.792a1.927 1.927 0 0 0 -1.239-1.8zm-27.805 74.691a3.466 3.466 0 1 1 -3.466-3.466 3.47 3.47 0 0 1 3.466 3.466zm-96.759-70.1 59.05 22.517v4.671l-59.05-22.514zm62.9 27.185v-4.668l28.468-10.853v4.672zm38.169 17.5a64.5 64.5 0 0 1 -5.853 4.054v-29.75l5.853-2.232zm-5.851-29.818v-4.667l26.732-10.2v4.671zm0 0" fill="#00cb24" transform="translate(.001)"/></svg>