<svg xmlns="http://www.w3.org/2000/svg" width="84.104" height="137.221" viewBox="0 0 84.104 137.221">
  <g id="speaker" transform="translate(-104 -8)">
    <path id="Caminho_11544" data-name="Caminho 11544" d="M180.357,8h-68.61A7.755,7.755,0,0,0,104,15.746V137.474a7.755,7.755,0,0,0,7.746,7.746h68.61a7.755,7.755,0,0,0,7.746-7.746V15.746A7.755,7.755,0,0,0,180.357,8Zm3.32,129.474a3.323,3.323,0,0,1-3.32,3.32h-68.61a3.323,3.323,0,0,1-3.32-3.32V15.746a3.323,3.323,0,0,1,3.32-3.32h68.61a3.323,3.323,0,0,1,3.32,3.32Z" transform="translate(0)" fill="#00cb24"/>
    <path id="Caminho_11545" data-name="Caminho 11545" d="M169.2,232a33.2,33.2,0,1,0,33.2,33.2A33.2,33.2,0,0,0,169.2,232Zm0,61.971A28.772,28.772,0,1,1,197.971,265.2,28.772,28.772,0,0,1,169.2,293.971Z" transform="translate(-23.147 -162.029)" fill="#00cb24"/>
    <path id="Caminho_11546" data-name="Caminho 11546" d="M203.919,280a19.919,19.919,0,1,0,19.919,19.919A19.919,19.919,0,0,0,203.919,280Zm0,35.412a15.493,15.493,0,1,1,15.493-15.493A15.493,15.493,0,0,1,203.919,315.412Z" transform="translate(-57.868 -196.75)" fill="#00cb24"/>
    <path id="Caminho_11547" data-name="Caminho 11547" d="M203.919,95.838A19.919,19.919,0,1,0,184,75.919,19.919,19.919,0,0,0,203.919,95.838Zm0-35.412a15.493,15.493,0,1,1-15.493,15.493A15.493,15.493,0,0,1,203.919,60.426Z" transform="translate(-57.868 -34.721)" fill="#00cb24"/>
    <path id="Caminho_11548" data-name="Caminho 11548" d="M227.066,110.132A11.066,11.066,0,1,0,216,99.066,11.066,11.066,0,0,0,227.066,110.132Zm0-17.706a6.64,6.64,0,1,1-6.64,6.64A6.64,6.64,0,0,1,227.066,92.426Z" transform="translate(-81.015 -57.868)" fill="#00cb24"/>
    <circle id="Elipse_1042" data-name="Elipse 1042" cx="2.263" cy="2.263" r="2.263" transform="translate(110.789 14.713)" fill="#00cb24"/>
    <circle id="Elipse_1043" data-name="Elipse 1043" cx="2.263" cy="2.263" r="2.263" transform="translate(177.175 14.713)" fill="#00cb24"/>
    <circle id="Elipse_1044" data-name="Elipse 1044" cx="2.263" cy="2.263" r="2.263" transform="translate(110.789 133.905)" fill="#00cb24"/>
    <circle id="Elipse_1045" data-name="Elipse 1045" cx="2.263" cy="2.263" r="2.263" transform="translate(177.175 133.905)" fill="#00cb24"/>
  </g>
</svg>
