<svg id="Page-1" xmlns="http://www.w3.org/2000/svg" width="121.684" height="140.404" viewBox="0 0 121.684 140.404">
  <g id="_007---Gamer" data-name="007---Gamer" transform="translate(0 0)">
    <path id="Shape" d="M6.819,84.243H9.693a9.36,9.36,0,0,0,9.028,7.02h7.02c.094,0,.18-.021.271-.028a48.439,48.439,0,0,0,11.195,14.536c1.736,1.666,3.248,3.061,4.633,4.271-.164,3.311-.4,6.423-.721,9.3H39.126A37.57,37.57,0,0,0,8.642,135.022l-1.191,1.685a2.34,2.34,0,0,0,1.909,3.7H112.324a2.34,2.34,0,0,0,1.91-3.693l-1.207-1.69a37.563,37.563,0,0,0-30.468-15.678H80.574c-.316-2.869-.557-5.984-.721-9.3,1.383-1.21,2.9-2.6,4.631-4.271.166-.161.311-.311.468-.468H95.943a9.36,9.36,0,0,0,9.36-9.36V90.93a9.36,9.36,0,0,0,6.688-6.688h2.874a6.931,6.931,0,0,0,6.819-7.02V58.5a6.931,6.931,0,0,0-6.819-7.02h-2.874a9.307,9.307,0,0,0-2.008-3.786V35.1A35.141,35.141,0,0,0,74.883,0H46.8A35.141,35.141,0,0,0,11.7,35.1V47.7a9.306,9.306,0,0,0-2.008,3.786H6.819A6.931,6.931,0,0,0,0,58.5V77.222a6.931,6.931,0,0,0,6.819,7.02Zm7.221-2.34V53.822a4.68,4.68,0,0,1,4.68-4.68h7.02V86.583h-7.02A4.68,4.68,0,0,1,14.041,81.9Zm81.9-37.441a4.68,4.68,0,0,0-4.68,4.68h-4.68a9.36,9.36,0,0,1-9.36-9.36V35.1a2.34,2.34,0,1,0-4.68,0v4.68a9.36,9.36,0,0,1-9.36,9.36h-9.36v-4.68A2.344,2.344,0,0,0,49.839,42.8c-.063.058-6.021,5.684-19.423,6.285a4.68,4.68,0,0,0-4.675-4.619V35.1A21.084,21.084,0,0,1,46.8,14.04H74.883A21.084,21.084,0,0,1,95.943,35.1ZM30.716,125.175a36.037,36.037,0,0,0,2.162,10.549H14.022A32.869,32.869,0,0,1,30.716,125.175Zm76.946,10.549H88.806a36.037,36.037,0,0,0,2.162-10.551A32.876,32.876,0,0,1,107.662,135.724Zm-31.5-13.769c.318,2.719.679,5.078,1.107,7.207a2.34,2.34,0,0,0,2.293,1.881,2.218,2.218,0,0,0,.468-.047,2.34,2.34,0,0,0,1.825-2.761c-.253-1.266-.468-2.705-.7-4.212h1.4a32.858,32.858,0,0,1,3.786.234c-.543,6.973-1.872,10.53-2.86,11.466H38.2c-.988-.948-2.317-4.5-2.86-11.466a32.858,32.858,0,0,1,3.786-.234h1.4c-.215,1.514-.442,2.953-.7,4.212A2.34,2.34,0,0,0,41.654,131a2.218,2.218,0,0,0,.468.047,2.34,2.34,0,0,0,2.291-1.872c.428-2.129.789-4.488,1.1-7.184.33-2.593.592-5.417.793-8.406C51.091,116.8,54.454,117,60.842,117s9.753-.2,14.529-3.433c.213,2.988.463,5.808.791,8.384Zm-15.32-9.632c-8.342,0-10.081,0-20.4-9.924a42.3,42.3,0,0,1-10.479-13.83,4.631,4.631,0,0,0,.459-1.987V53.747a41.354,41.354,0,0,0,18.721-4.795v.19a4.68,4.68,0,0,0,4.68,4.68h9.36a14.04,14.04,0,0,0,11.7-6.288,14.04,14.04,0,0,0,11.7,6.288h4.68V86.583a4.631,4.631,0,0,0,.468,1.987,38.846,38.846,0,0,1-8.7,12.054H71.864a4.547,4.547,0,0,1-1.292-.208,15.33,15.33,0,0,0,3.77-2.974,2.34,2.34,0,0,0-3.585-3.009,13.338,13.338,0,0,1-9.915,3.852,13.338,13.338,0,0,1-9.9-3.838,2.341,2.341,0,0,0-3.6,3,17.993,17.993,0,0,0,13.5,5.523,20.222,20.222,0,0,0,3.51-.321l3.309,1.654a9.241,9.241,0,0,0,4.212,1.006h6.285C70.476,112.3,68.27,112.323,60.842,112.323Zm35.1-11.7H89.407a39.844,39.844,0,0,0,6.264-9.388c.091,0,.178.028.271.028h4.68v4.68a4.68,4.68,0,0,1-4.68,4.68Zm11.7-18.721a4.68,4.68,0,0,1-4.68,4.68h-7.02V49.141h7.02a4.68,4.68,0,0,1,4.68,4.68ZM117,58.5V77.222a2.277,2.277,0,0,1-2.139,2.34h-2.541v-23.4h2.541A2.277,2.277,0,0,1,117,58.5ZM46.8,4.68H74.883A30.456,30.456,0,0,1,105.3,35.1v9.693a9.218,9.218,0,0,0-2.34-.332h-2.34V35.1A25.771,25.771,0,0,0,74.883,9.36H46.8A25.771,25.771,0,0,0,21.061,35.1v9.36h-2.34a9.218,9.218,0,0,0-2.34.332V35.1A30.456,30.456,0,0,1,46.8,4.68ZM4.68,58.5a2.277,2.277,0,0,1,2.139-2.34H9.361v23.4H6.819a2.277,2.277,0,0,1-2.139-2.34Z" transform="translate(0 0)" fill="#00cb24"/>
  </g>
</svg>
