<svg id="Page-1" xmlns="http://www.w3.org/2000/svg" width="117.43" height="117.433" viewBox="0 0 117.43 117.433">
  <g id="_008---Scooter-With-Seat" data-name="008---Scooter-With-Seat" transform="translate(0 0)">
    <path id="Shape" d="M99.814,86.114a17.552,17.552,0,0,0-1.851.1,17.632,17.632,0,0,0-15.346-9.852l4.03-27.645L94.935,50.1a5.991,5.991,0,0,0,.979.08,5.871,5.871,0,0,0,5.871-5.871V37.186a5.871,5.871,0,0,0-5.871-5.871H68.5a5.871,5.871,0,0,0-5.871,5.871v2.556a5.854,5.854,0,0,0,4.907,5.791l7.539,1.256-4.341,29.6A17.687,17.687,0,0,0,56.4,85.071L50.1,95.9H33.369a17.718,17.718,0,0,0-5.731-6.637L29.923,73.54a7.731,7.731,0,0,0-1.2-5.359L36.4,15.657h11.96a8.719,8.719,0,0,0,5.458,1.957A8.807,8.807,0,1,0,53.822,0a8.719,8.719,0,0,0-5.468,1.957H26.421a6.832,6.832,0,0,0-1.85,13.414L17.1,66.5a7.774,7.774,0,0,0-2.672,4.8L12.134,87A17.636,17.636,0,0,0,0,103.729a3.914,3.914,0,0,0,3.914,3.914H4.5A13.655,13.655,0,0,0,29.944,109.6H87.5a13.637,13.637,0,0,0,25.423-1.957h.587a3.914,3.914,0,0,0,3.914-3.914A17.634,17.634,0,0,0,99.814,86.114ZM66.543,39.742V37.186A1.957,1.957,0,0,1,68.5,35.229H95.9a1.957,1.957,0,0,1,1.957,1.957v7.122a1.957,1.957,0,0,1-2.28,1.93l-27.4-4.566A1.957,1.957,0,0,1,66.543,39.742Zm16.244,8.332-4.11,28.255H74.7l4.235-28.9ZM59.777,87.046a13.771,13.771,0,0,1,11.835-6.8H82.2a13.755,13.755,0,0,1,11.854,6.85,17.687,17.687,0,0,0-10,8.807H54.622ZM82.654,99.814a17.557,17.557,0,0,0-.454,3.914,3.871,3.871,0,0,0,.544,1.957H34.685a3.871,3.871,0,0,0,.544-1.957,17.557,17.557,0,0,0-.454-3.914ZM25.2,65.224a7.061,7.061,0,0,0-3.879-.566l7.165-49h3.951ZM53.822,3.914a4.893,4.893,0,1,1-4.893,4.893A4.893,4.893,0,0,1,53.822,3.914ZM23.486,8.807a2.924,2.924,0,0,1,2.936-2.936H45.555a8.7,8.7,0,0,0-.54,2.936,8.7,8.7,0,0,0,.54,2.936H26.421a2.936,2.936,0,0,1-2.936-2.936ZM18.3,71.855a3.916,3.916,0,0,1,7.752,1.121L23.967,87.318a17.5,17.5,0,0,0-6.353-1.2c-.474,0-.937.035-1.4.07Zm-.685,18.174a13.72,13.72,0,0,1,13.7,13.7H3.914A13.716,13.716,0,0,1,17.614,90.029Zm0,23.486a9.7,9.7,0,0,1-8.932-5.871H26.543A9.731,9.731,0,0,1,17.614,113.514Zm82.2,0a9.729,9.729,0,0,1-8.911-5.871h17.843A9.7,9.7,0,0,1,99.814,113.514Zm-13.7-9.786a13.7,13.7,0,1,1,27.4,0Z" transform="translate(0 0)" fill="#00cb24"/>
  </g>
</svg>
