<svg xmlns="http://www.w3.org/2000/svg" width="124.657" height="124.415" viewBox="0 0 124.657 124.415"><defs><style>.a{fill:#00cb24;}</style></defs><g transform="translate(0 -0.499)"><g transform="translate(0 0.499)"><g transform="translate(0 0)"><path class="a" d="M117.882,60.914H89.073a1.827,1.827,0,1,0,0,3.654h28.809A3.125,3.125,0,0,1,121,67.69v50.448a3.125,3.125,0,0,1-3.122,3.122H6.775a3.125,3.125,0,0,1-3.122-3.122V67.69a3.125,3.125,0,0,1,3.122-3.122h82.3a1.827,1.827,0,0,0,0-3.654H70.387V56.553a3.845,3.845,0,0,0-3.841-3.841H63.932V49.624a5.2,5.2,0,0,1,5.194-5.194h3.253a8.858,8.858,0,0,0,8.848-8.848V30.624a8.858,8.858,0,0,0-8.848-8.848H69.35a5.2,5.2,0,0,1-5.194-5.194V2.326a1.827,1.827,0,0,0-3.654,0V16.582A8.858,8.858,0,0,0,69.35,25.43h3.029a5.2,5.2,0,0,1,5.194,5.194v4.958a5.2,5.2,0,0,1-5.194,5.194H69.126a8.858,8.858,0,0,0-8.848,8.848v3.088H58.029a3.845,3.845,0,0,0-3.841,3.841v4.361H6.775A6.783,6.783,0,0,0,0,67.69v50.448a6.783,6.783,0,0,0,6.775,6.775H117.882a6.783,6.783,0,0,0,6.775-6.775V67.69A6.783,6.783,0,0,0,117.882,60.914ZM58.029,56.366h8.517a.187.187,0,0,1,.187.187v4.361H57.842V56.553h0A.187.187,0,0,1,58.029,56.366Z" transform="translate(0 -0.499)"/></g></g><g transform="translate(7.915 69.519)"><path class="a" d="M43.532,283.982H35.466a2.959,2.959,0,0,0-2.956,2.956v7.423a2.96,2.96,0,0,0,2.956,2.956h8.066a2.959,2.959,0,0,0,2.956-2.956v-7.423A2.959,2.959,0,0,0,43.532,283.982Zm-.7,9.681h-6.67v-6.027h6.67Z" transform="translate(-32.51 -283.982)"/></g><g transform="translate(23.723 69.519)"><path class="a" d="M108.46,283.983h-8.066a2.959,2.959,0,0,0-2.956,2.956v7.423a2.959,2.959,0,0,0,2.956,2.956h8.066a2.959,2.959,0,0,0,2.956-2.956v-7.423A2.96,2.96,0,0,0,108.46,283.983Zm-.7,9.681h-6.671v-6.027h6.671Z" transform="translate(-97.438 -283.983)"/></g><g transform="translate(39.531 69.519)"><path class="a" d="M173.388,283.983h-8.066a2.959,2.959,0,0,0-2.956,2.956v7.423a2.959,2.959,0,0,0,2.956,2.956h8.066a2.959,2.959,0,0,0,2.956-2.956v-7.423A2.959,2.959,0,0,0,173.388,283.983Zm-.7,9.681h-6.67v-6.027h6.67Z" transform="translate(-162.366 -283.983)"/></g><g transform="translate(55.34 69.519)"><path class="a" d="M238.316,283.983H230.25a2.959,2.959,0,0,0-2.956,2.956v7.423a2.959,2.959,0,0,0,2.956,2.956h8.066a2.959,2.959,0,0,0,2.956-2.956v-7.423A2.96,2.96,0,0,0,238.316,283.983Zm-.7,9.681h-6.671v-6.027h6.671Z" transform="translate(-227.294 -283.983)"/></g><g transform="translate(71.148 69.519)"><path class="a" d="M303.244,283.983h-8.066a2.959,2.959,0,0,0-2.956,2.956v7.423a2.959,2.959,0,0,0,2.956,2.956h8.066a2.959,2.959,0,0,0,2.956-2.956v-7.423A2.959,2.959,0,0,0,303.244,283.983Zm-.7,9.681h-6.67v-6.027h6.67Z" transform="translate(-292.222 -283.983)"/></g><g transform="translate(86.955 69.519)"><path class="a" d="M368.171,283.983H360.1a2.959,2.959,0,0,0-2.956,2.956v7.423a2.959,2.959,0,0,0,2.956,2.956h8.066a2.959,2.959,0,0,0,2.956-2.956v-7.423A2.959,2.959,0,0,0,368.171,283.983Zm-.7,9.681H360.8v-6.027h6.671Z" transform="translate(-357.149 -283.983)"/></g><g transform="translate(102.764 69.519)"><path class="a" d="M433.1,283.982h-8.066a2.959,2.959,0,0,0-2.956,2.956v7.423a2.959,2.959,0,0,0,2.956,2.956H433.1a2.959,2.959,0,0,0,2.956-2.956v-7.423A2.959,2.959,0,0,0,433.1,283.982Zm-.7,9.681h-6.67v-6.027h6.67Z" transform="translate(-422.078 -283.982)"/></g><g transform="translate(7.915 87.059)"><path class="a" d="M50.442,356.023H35.466a2.959,2.959,0,0,0-2.956,2.956V366.4a2.959,2.959,0,0,0,2.956,2.956H50.442A2.96,2.96,0,0,0,53.4,366.4v-7.423A2.959,2.959,0,0,0,50.442,356.023Zm-.7,9.681H36.164v-6.027h13.58Z" transform="translate(-32.51 -356.023)"/></g><g transform="translate(95.854 87.059)"><path class="a" d="M411.631,356.022H396.655a2.96,2.96,0,0,0-2.956,2.956V366.4a2.959,2.959,0,0,0,2.956,2.956h14.976a2.959,2.959,0,0,0,2.956-2.956v-7.423A2.959,2.959,0,0,0,411.631,356.022Zm-.7,9.681h-13.58v-6.027h13.58Z" transform="translate(-393.699 -356.022)"/></g><g transform="translate(30.935 87.059)"><path class="a" d="M138.079,356.022h-8.066a2.96,2.96,0,0,0-2.956,2.956V366.4a2.959,2.959,0,0,0,2.956,2.956h8.066a2.959,2.959,0,0,0,2.956-2.956v-7.423A2.959,2.959,0,0,0,138.079,356.022Zm-.7,9.681h-6.671v-6.027h6.671Z" transform="translate(-127.057 -356.022)"/></g><g transform="translate(47.205 87.059)"><path class="a" d="M204.9,356.022h-8.066a2.959,2.959,0,0,0-2.956,2.956V366.4a2.959,2.959,0,0,0,2.956,2.956H204.9a2.959,2.959,0,0,0,2.956-2.956v-7.423A2.959,2.959,0,0,0,204.9,356.022Zm-.7,9.681h-6.671v-6.027h6.671Z" transform="translate(-193.882 -356.022)"/></g><g transform="translate(63.474 87.059)"><path class="a" d="M271.728,356.022h-8.066a2.96,2.96,0,0,0-2.956,2.956V366.4a2.959,2.959,0,0,0,2.956,2.956h8.066a2.959,2.959,0,0,0,2.956-2.956v-7.423A2.959,2.959,0,0,0,271.728,356.022Zm-.7,9.681H264.36v-6.027h6.671Z" transform="translate(-260.706 -356.022)"/></g><g transform="translate(79.744 87.059)"><path class="a" d="M338.553,356.022h-8.066a2.96,2.96,0,0,0-2.956,2.956V366.4a2.959,2.959,0,0,0,2.956,2.956h8.066a2.959,2.959,0,0,0,2.956-2.956v-7.423A2.959,2.959,0,0,0,338.553,356.022Zm-.7,9.681h-6.671v-6.027h6.671Z" transform="translate(-327.531 -356.022)"/></g><g transform="translate(25.149 104.598)"><path class="a" d="M174.7,428.062H111.227a1.827,1.827,0,1,0,0,3.654H174v6.027H106.948v-6.027h4.279a1.827,1.827,0,1,0,0-3.654H106.25a2.959,2.959,0,0,0-2.956,2.956v7.423a2.959,2.959,0,0,0,2.956,2.956H174.7a2.959,2.959,0,0,0,2.956-2.956v-7.423A2.959,2.959,0,0,0,174.7,428.062Z" transform="translate(-103.294 -428.062)"/></g><g transform="translate(7.915 104.599)"><path class="a" d="M43.532,428.063H35.466a2.959,2.959,0,0,0-2.956,2.956v7.423a2.959,2.959,0,0,0,2.956,2.956h8.066a2.959,2.959,0,0,0,2.956-2.956v-7.423A2.959,2.959,0,0,0,43.532,428.063Zm-.7,9.681h-6.67v-6.027h6.67Z" transform="translate(-32.51 -428.063)"/></g><g transform="translate(102.764 104.599)"><path class="a" d="M433.1,428.063h-8.066a2.959,2.959,0,0,0-2.956,2.956v7.423a2.959,2.959,0,0,0,2.956,2.956H433.1a2.959,2.959,0,0,0,2.956-2.956v-7.423A2.959,2.959,0,0,0,433.1,428.063Zm-.7,9.681h-6.67v-6.027h6.67Z" transform="translate(-422.078 -428.063)"/></g></g></svg>