<svg height="99.368" viewBox="0 0 147.897 99.368" width="147.897" xmlns="http://www.w3.org/2000/svg"><path d="m127.1 114.042h-2.311v-18.488a11.568 11.568 0 0 0 -11.556-11.554h-78.57a11.568 11.568 0 0 0 -11.554 11.554v18.487h-2.309a20.823 20.823 0 0 0 -20.8 20.799v32.352h4.622v16.176h11.554v-16.176h115.545v16.176h11.554v-16.176h4.625v-32.352a20.823 20.823 0 0 0 -20.8-20.798zm-99.369-18.488a6.933 6.933 0 0 1 6.933-6.933h78.57a6.933 6.933 0 0 1 6.933 6.933v18.487h-6.933v-9.241a6.933 6.933 0 0 0 -6.933-6.933h-20.801a6.933 6.933 0 0 0 -6.93 6.933v9.244h-9.243v-9.244a6.933 6.933 0 0 0 -6.933-6.933h-20.794a6.933 6.933 0 0 0 -6.933 6.933v9.244h-6.936zm80.881 9.244v9.244h-25.42v-9.242a2.311 2.311 0 0 1 2.311-2.311h20.8a2.311 2.311 0 0 1 2.309 2.311zm-43.907 0v9.244h-25.42v-9.242a2.311 2.311 0 0 1 2.311-2.311h20.8a2.311 2.311 0 0 1 2.304 2.311zm-53.15 73.948h-2.311v-11.554h2.311zm127.1 0h-2.311v-11.554h2.311zm4.622-16.176h-138.655v-11.554h138.653zm0-16.176h-138.655v-11.554a16.2 16.2 0 0 1 16.178-16.177h106.3a16.2 16.2 0 0 1 16.176 16.176z" fill="#00cb24" transform="translate(0 -84)"/></svg>