<svg xmlns="http://www.w3.org/2000/svg" width="136.787" height="145.334" viewBox="0 0 136.787 145.334">
  <g id="shirt" transform="translate(-15.057)">
    <g id="Grupo_883" data-name="Grupo 883" transform="translate(15.057)">
      <g id="Grupo_882" data-name="Grupo 882">
        <path id="Caminho_11542" data-name="Caminho 11542" d="M151.778,54.7l-7.9-32.532c-.078-.322-2-7.922-9.549-11.131C128.867,8.712,111.583,2.15,107.255.512A2.285,2.285,0,0,0,105.812,0H61.418c-.074,0-.146,0-.22.011-.032,0-.062.009-.094.013s-.08.011-.12.018-.074.016-.11.025l-.1.025c-.038.011-.075.024-.112.037l-.057.019C59.715.485,38.7,8.428,32.568,11.035a17.346,17.346,0,0,0-9.53,11.058h0l-.01.039-.008.033L17.408,45.283h0L15.123,54.7a2.3,2.3,0,0,0,1.383,2.674l22.558,8.961v76.707a2.294,2.294,0,0,0,2.295,2.295h84.184a2.294,2.294,0,0,0,2.295-2.295V90.018a2.295,2.295,0,0,0-4.589,0v41.4H59.2a2.295,2.295,0,1,0,0,4.589h64.046v4.74H43.654V136H59.2a2.295,2.295,0,1,0,0-4.589H43.654V37.153a2.294,2.294,0,0,0-.331-1.187L31.75,16.826a11.08,11.08,0,0,1,2.614-1.568c4.7-2,18.786-7.371,24.938-9.707C60.777,19.113,71.31,30.02,83.615,30.02c12.268,0,22.777-10.843,24.3-24.349,6.306,2.4,20,7.624,24.621,9.587a11.086,11.086,0,0,1,2.614,1.568L123.579,35.965a2.3,2.3,0,0,0-.331,1.187v52.83a2.295,2.295,0,0,0,4.589,0V66.332L150.4,57.371A2.3,2.3,0,0,0,151.778,54.7Zm-112.714,6.7L20.053,53.842l1.18-4.86L39.064,56.46v4.934Zm0-23.6V51.483L22.33,44.465l5.147-21.207a12.6,12.6,0,0,1,1.162-2.706ZM83.615,25.43c-9.07,0-18.745-8.279-19.806-20.841h39.613C102.36,17.152,92.685,25.43,83.615,25.43Zm44.222,12.362,10.425-17.241a13.733,13.733,0,0,1,1.036,2.3v0c.015.045.028.085.04.123l.007.021c.009.03.018.056.025.081l.009.029.016.054.007.023.009.032,0,.017,0,.016,5.15,21.218-16.734,7.018V37.792Zm0,23.6V56.46l17.831-7.478,1.179,4.86Z" transform="translate(-15.057)" fill="#00cb24"/>
      </g>
    </g>
  </g>
</svg>
