<svg xmlns="http://www.w3.org/2000/svg" width="118.395" height="94.298" viewBox="0 0 118.395 94.298">
  <g id="Grupo_885" data-name="Grupo 885" transform="translate(16835 -6693.95)">
    <g id="monitor" transform="translate(-16835 6693.95)">
      <path id="Caminho_11528" data-name="Caminho 11528" d="M111.1,52.1H7.3A7.3,7.3,0,0,0,0,59.4v64.878a7.3,7.3,0,0,0,7.3,7.3H45.854l-2.84,11.361H36.954a1.734,1.734,0,0,0,0,3.469H81.441a1.734,1.734,0,1,0,0-3.469H75.38l-2.84-11.361H111.1a7.3,7.3,0,0,0,7.3-7.3V59.4a7.3,7.3,0,0,0-7.295-7.3ZM7.3,55.574H111.1a3.831,3.831,0,0,1,3.827,3.827v61.29H3.469V59.4A3.831,3.831,0,0,1,7.3,55.574Zm64.51,87.361H46.589l2.84-11.361H68.965ZM111.1,128.105H7.3a3.831,3.831,0,0,1-3.827-3.827v-.119H114.926v.119A3.831,3.831,0,0,1,111.1,128.105Z" transform="translate(0 -52.105)" fill="#00cb24"/>
    </g>
    <path id="Caminho_11538" data-name="Caminho 11538" d="M-17223.561,6724.152a40.342,40.342,0,0,1,39.875,0" transform="translate(428.061 0.62)" fill="none" stroke="#00cb24" stroke-linecap="round" stroke-width="5"/>
    <path id="Caminho_11539" data-name="Caminho 11539" d="M-17223.561,6722.273a25.991,25.991,0,0,1,25.689,0" transform="translate(435.061 13.038)" fill="none" stroke="#00cb24" stroke-linecap="round" stroke-width="5"/>
    <path id="Caminho_11540" data-name="Caminho 11540" d="M-17223.561,6720.751a14.359,14.359,0,0,1,14.193,0" transform="translate(441.061 25.453)" fill="none" stroke="#00cb24" stroke-linecap="round" stroke-width="5"/>
  </g>
</svg>
