<svg xmlns="http://www.w3.org/2000/svg" width="123.242" height="123.311" viewBox="0 0 123.242 123.311"><defs><style>.a{fill:#00cb24;}</style></defs><g transform="translate(57.203 -32.094) rotate(40)"><g transform="translate(49.93 0)"><g transform="translate(0 0)"><path class="a" d="M225.4,5.624A9.463,9.463,0,0,0,219.435.282a8.8,8.8,0,0,0-10.069,4.585,43.44,43.44,0,0,0-4.529,19.494V89.215a2.078,2.078,0,0,0,.037.392l5.58,28.91a6.907,6.907,0,0,0,6.813,5.932h.01a6.875,6.875,0,0,0,6.8-5.824l5.6-29.018a1.915,1.915,0,0,0,.039-.392V24.357A43.417,43.417,0,0,0,225.4,5.624Zm.164,83.391-5.575,28.931a2.743,2.743,0,0,1-5.445-.106l-5.559-28.823V24.351a39.3,39.3,0,0,1,4.1-17.639,4.624,4.624,0,0,1,5.215-2.446,5.343,5.343,0,0,1,3.333,3.072,39.418,39.418,0,0,1,3.936,17.023V89.014Z" transform="translate(-204.836 0)"/></g></g><g transform="translate(0.186 45.687)"><path class="a" d="M53.064,188.253a2.069,2.069,0,0,0-2.048-.042L1.272,215.156a2.071,2.071,0,0,0-1.086,1.822v12.436a2.076,2.076,0,0,0,2.8,1.942L52.731,212.7a2.076,2.076,0,0,0,1.345-1.942V190.033A2.074,2.074,0,0,0,53.064,188.253Zm-3.134,21.071-45.6,17.1v-8.21l45.6-24.7Z" transform="translate(-0.186 -187.96)"/></g><g transform="translate(70.657 45.688)"><path class="a" d="M342.915,215.159,293.17,188.214a2.072,2.072,0,0,0-3.059,1.822v20.727a2.073,2.073,0,0,0,1.343,1.942L341.2,231.359a2.126,2.126,0,0,0,.73.131,2.046,2.046,0,0,0,1.177-.369,2.072,2.072,0,0,0,.893-1.7V216.981A2.074,2.074,0,0,0,342.915,215.159Zm-3.059,11.267-45.6-17.1V193.516l45.6,24.7Z" transform="translate(-290.111 -187.964)"/></g><g transform="translate(27.131 47.762)"><path class="a" d="M117.257,196.5a6.226,6.226,0,0,0-6.218,6.218v6.218h4.145v-6.218a2.073,2.073,0,0,1,4.145,0v2.073h4.145v-2.073A6.225,6.225,0,0,0,117.257,196.5Z" transform="translate(-111.039 -196.497)"/></g><g transform="translate(8.477 58.123)"><path class="a" d="M40.512,239.124a6.226,6.226,0,0,0-6.218,6.218v6.218h4.145v-6.218a2.073,2.073,0,0,1,4.145,0H46.73A6.225,6.225,0,0,0,40.512,239.124Z" transform="translate(-34.294 -239.124)"/></g><g transform="translate(85.166 47.762)"><path class="a" d="M356.019,196.5a6.226,6.226,0,0,0-6.218,6.218v2.073h4.145v-2.073a2.073,2.073,0,0,1,4.145,0v6.218h4.145v-6.218A6.225,6.225,0,0,0,356.019,196.5Z" transform="translate(-349.801 -196.497)"/></g><g transform="translate(103.82 58.123)"><path class="a" d="M432.764,239.124a6.226,6.226,0,0,0-6.218,6.218h4.145a2.073,2.073,0,0,1,4.145,0v6.218h4.145v-6.218A6.225,6.225,0,0,0,432.764,239.124Z" transform="translate(-426.546 -239.124)"/></g><g transform="translate(31.276 99.873)"><path class="a" d="M154.695,427.2l-22.458,3.743v-4.67l19.722-11.833-2.133-3.555L129.1,423.324a2.067,2.067,0,0,0-1.005,1.776v8.291a2.074,2.074,0,0,0,2.073,2.073,2.324,2.324,0,0,0,.338-.027l24.872-4.145Z" transform="translate(-128.094 -410.888)"/></g><g transform="translate(66.172 99.873)"><path class="a" d="M297.936,423.324,277.21,410.888l-2.133,3.555L294.8,426.276v4.668l-22.46-3.743-.68,4.089,24.872,4.145a2.072,2.072,0,0,0,2.41-2.044V425.1A2.073,2.073,0,0,0,297.936,423.324Z" transform="translate(-271.659 -410.888)"/></g></g></svg>