<svg height="48.876" viewBox="0 0 75.533 48.876" width="75.533" xmlns="http://www.w3.org/2000/svg"><g fill="#00cb24" transform="translate(-64 -128)"><path d="m66.222 176.874a2.222 2.222 0 0 1 -2.222-2.221v-44.431a2.222 2.222 0 1 1 4.443 0v44.431a2.222 2.222 0 0 1 -2.221 2.221z"/><path d="m108.888 167.988a2.222 2.222 0 0 1 -2.222-2.222v-35.544a2.222 2.222 0 1 1 4.443 0v35.545a2.222 2.222 0 0 1 -2.221 2.221z" transform="translate(-33.78)"/><path d="m151.555 167.988a2.222 2.222 0 0 1 -2.222-2.222v-35.544a2.222 2.222 0 1 1 4.443 0v35.545a2.222 2.222 0 0 1 -2.221 2.221z" transform="translate(-67.561)"/><path d="m194.222 167.988a2.222 2.222 0 0 1 -2.222-2.222v-35.544a2.222 2.222 0 1 1 4.443 0v35.545a2.222 2.222 0 0 1 -2.221 2.221z" transform="translate(-101.341)"/><path d="m236.888 176.874a2.222 2.222 0 0 1 -2.222-2.222v-44.43a2.222 2.222 0 1 1 4.443 0v44.431a2.222 2.222 0 0 1 -2.221 2.221z" transform="translate(-135.121)"/><path d="m279.555 167.988a2.222 2.222 0 0 1 -2.222-2.222v-35.544a2.222 2.222 0 1 1 4.443 0v35.545a2.222 2.222 0 0 1 -2.221 2.221z" transform="translate(-168.902)"/><path d="m322.222 167.988a2.222 2.222 0 0 1 -2.222-2.222v-35.544a2.222 2.222 0 1 1 4.443 0v35.545a2.222 2.222 0 0 1 -2.221 2.221z" transform="translate(-202.682)"/><path d="m364.888 167.988a2.222 2.222 0 0 1 -2.222-2.222v-35.544a2.222 2.222 0 1 1 4.443 0v35.545a2.222 2.222 0 0 1 -2.221 2.221z" transform="translate(-236.462)"/><path d="m407.555 176.874a2.222 2.222 0 0 1 -2.222-2.222v-44.43a2.222 2.222 0 1 1 4.443 0v44.431a2.222 2.222 0 0 1 -2.221 2.221z" transform="translate(-270.243)"/><path d="m108.886 345.823a1.8 1.8 0 0 1 -.844-.178 1.574 1.574 0 0 1 -.711-.489 2.146 2.146 0 0 1 -.076-3.034q.037-.039.076-.076a1.569 1.569 0 0 1 .711-.489 2.195 2.195 0 0 1 2.4.489 2.222 2.222 0 0 1 -1.555 3.777z" transform="translate(-33.778 -168.949)"/><path d="m151.553 345.811a1.8 1.8 0 0 1 -.844-.178 1.574 1.574 0 0 1 -.711-.489 2.146 2.146 0 0 1 -.076-3.034q.037-.039.076-.076a1.569 1.569 0 0 1 .711-.489 2.177 2.177 0 0 1 2.4.489 1.573 1.573 0 0 1 .489.711 2.094 2.094 0 0 1 0 1.688 1.554 1.554 0 0 1 -.489.711 2.08 2.08 0 0 1 -1.556.667z" transform="translate(-67.559 -168.936)"/><path d="m194.22 345.811a1.8 1.8 0 0 1 -.844-.178 1.574 1.574 0 0 1 -.711-.489 2.146 2.146 0 0 1 -.076-3.034q.037-.039.076-.076a1.57 1.57 0 0 1 .711-.489 2.177 2.177 0 0 1 2.4.489 1.574 1.574 0 0 1 .489.711 2.094 2.094 0 0 1 0 1.688 1.554 1.554 0 0 1 -.489.711 2.08 2.08 0 0 1 -1.556.667z" transform="translate(-101.339 -168.936)"/><path d="m279.673 345.9a2.208 2.208 0 1 1 1.555-3.777 1.574 1.574 0 0 1 .489.711 2.094 2.094 0 0 1 0 1.688 1.554 1.554 0 0 1 -.489.711 2.079 2.079 0 0 1 -1.555.667z" transform="translate(-169.021 -169.022)"/><path d="m322.34 345.9a2.222 2.222 0 1 1 1.524-.635 2.222 2.222 0 0 1 -1.524.635z" transform="translate(-202.801 -169.022)"/><path d="m364.887 345.9a2.079 2.079 0 0 1 -1.555-.667 1.552 1.552 0 0 1 -.489-.711 2.094 2.094 0 0 1 0-1.688 1.568 1.568 0 0 1 .489-.711 2.2 2.2 0 1 1 1.555 3.777z" transform="translate(-236.462 -169.022)"/><path d="m66.222 176.874a2.222 2.222 0 0 1 -2.222-2.221v-44.431a2.222 2.222 0 1 1 4.443 0v44.431a2.222 2.222 0 0 1 -2.221 2.221z"/><path d="m108.888 167.988a2.222 2.222 0 0 1 -2.222-2.222v-35.544a2.222 2.222 0 1 1 4.443 0v35.545a2.222 2.222 0 0 1 -2.221 2.221z" transform="translate(-33.78)"/><path d="m151.555 167.988a2.222 2.222 0 0 1 -2.222-2.222v-35.544a2.222 2.222 0 1 1 4.443 0v35.545a2.222 2.222 0 0 1 -2.221 2.221z" transform="translate(-67.561)"/><path d="m194.222 167.988a2.222 2.222 0 0 1 -2.222-2.222v-35.544a2.222 2.222 0 1 1 4.443 0v35.545a2.222 2.222 0 0 1 -2.221 2.221z" transform="translate(-101.341)"/><path d="m236.888 176.874a2.222 2.222 0 0 1 -2.222-2.222v-44.43a2.222 2.222 0 1 1 4.443 0v44.431a2.222 2.222 0 0 1 -2.221 2.221z" transform="translate(-135.121)"/><path d="m279.555 167.988a2.222 2.222 0 0 1 -2.222-2.222v-35.544a2.222 2.222 0 1 1 4.443 0v35.545a2.222 2.222 0 0 1 -2.221 2.221z" transform="translate(-168.902)"/><path d="m322.222 167.988a2.222 2.222 0 0 1 -2.222-2.222v-35.544a2.222 2.222 0 1 1 4.443 0v35.545a2.222 2.222 0 0 1 -2.221 2.221z" transform="translate(-202.683)"/><path d="m364.888 167.988a2.222 2.222 0 0 1 -2.222-2.222v-35.544a2.222 2.222 0 1 1 4.443 0v35.545a2.222 2.222 0 0 1 -2.221 2.221z" transform="translate(-236.462)"/><path d="m407.555 176.874a2.222 2.222 0 0 1 -2.222-2.222v-44.43a2.222 2.222 0 1 1 4.443 0v44.431a2.222 2.222 0 0 1 -2.221 2.221z" transform="translate(-270.243)"/><path d="m108.893 345.819a1.826 1.826 0 0 1 -.844-.178 1.585 1.585 0 0 1 -.711-.489 2.15 2.15 0 0 1 -.07-3.04q.034-.036.07-.07a1.582 1.582 0 0 1 .711-.489 2.221 2.221 0 0 1 1.688 0 1.558 1.558 0 0 1 .711.489 2.221 2.221 0 0 1 -1.555 3.777z" transform="translate(-33.786 -168.944)"/><path d="m151.657 345.8a2.222 2.222 0 0 1 -1.56-3.777 2.168 2.168 0 0 1 2.4-.489 1.559 1.559 0 0 1 .711.489 2.222 2.222 0 0 1 -1.551 3.777z" transform="translate(-67.663 -168.929)"/><path d="m194.324 345.823a2.222 2.222 0 0 1 -1.56-3.777 1.582 1.582 0 0 1 .711-.489 2.195 2.195 0 0 1 2.4.489 2.222 2.222 0 0 1 -1.555 3.777z" transform="translate(-101.444 -168.948)"/><path d="m279.56 345.819a1.947 1.947 0 0 1 -.844-.178 1.585 1.585 0 0 1 -.711-.489 2.15 2.15 0 0 1 -.07-3.04q.034-.036.07-.07a1.582 1.582 0 0 1 .711-.489 2.221 2.221 0 0 1 1.688 0 1.558 1.558 0 0 1 .711.489 2.222 2.222 0 0 1 -1.555 3.777z" transform="translate(-168.907 -168.944)"/><path d="m322.227 345.9a1.947 1.947 0 0 1 -.844-.178 1.585 1.585 0 0 1 -.711-.489 2.15 2.15 0 0 1 -.07-3.04c.023-.024.046-.047.07-.07a2.221 2.221 0 0 1 3.11 0 2.142 2.142 0 0 1 .083 3.027q-.04.042-.083.083a1.564 1.564 0 0 1 -.711.489 1.933 1.933 0 0 1 -.844.178z" transform="translate(-202.688 -169.022)"/><path d="m364.884 345.823a1.948 1.948 0 0 1 -.844-.178 1.586 1.586 0 0 1 -.711-.489 2.084 2.084 0 0 1 -.666-1.555 1.776 1.776 0 0 1 .178-.844 1.563 1.563 0 0 1 .484-.711 1.582 1.582 0 0 1 .711-.489 2.195 2.195 0 0 1 2.4.489 1.61 1.61 0 0 1 .489.711 1.777 1.777 0 0 1 .178.844 2.284 2.284 0 0 1 -2.222 2.222z" transform="translate(-236.458 -168.949)"/></g></svg>