<svg width="300" height="185" viewBox="0 0 300 185" fill="none" xmlns="http://www.w3.org/2000/svg">
<g clip-path="url(#clip0)">
<path d="M240.042 116.232C245.817 116.232 250.498 111.551 250.498 105.776C250.498 100.002 245.817 95.3203 240.042 95.3203C234.267 95.3203 229.586 100.002 229.586 105.776C229.586 111.551 234.267 116.232 240.042 116.232Z" fill="#00CB24"/>
<path d="M240.042 147.596C245.817 147.596 250.498 142.914 250.498 137.14C250.498 131.365 245.817 126.684 240.042 126.684C234.267 126.684 229.586 131.365 229.586 137.14C229.586 142.914 234.267 147.596 240.042 147.596Z" fill="#00CB24"/>
<path d="M231.405 125.46C233.615 120.125 231.082 114.008 225.747 111.798C220.412 109.589 214.295 112.122 212.085 117.457C209.875 122.792 212.409 128.909 217.744 131.119C223.079 133.328 229.195 130.795 231.405 125.46Z" fill="#00CB24"/>
<path d="M258.335 131.916C264.11 131.916 268.791 127.235 268.791 121.46C268.791 115.685 264.11 111.004 258.335 111.004C252.56 111.004 247.879 115.685 247.879 121.46C247.879 127.235 252.56 131.916 258.335 131.916Z" fill="#00CB24"/>
<path d="M114.831 107.703C114.688 109.884 114.993 112.071 115.728 114.129C116.464 116.187 117.613 118.072 119.106 119.668C120.599 121.264 122.403 122.538 124.407 123.409C126.411 124.28 128.573 124.731 130.758 124.734C132.244 124.729 133.697 125.166 134.935 125.988C136.173 126.809 137.139 127.98 137.711 129.351C138.283 130.721 138.437 132.231 138.151 133.689C137.865 135.147 137.154 136.487 136.106 137.541C135.059 138.594 133.723 139.313 132.266 139.607C130.81 139.901 129.3 139.757 127.925 139.192C126.551 138.628 125.376 137.668 124.547 136.436C123.718 135.203 123.273 133.752 123.269 132.266C123.269 131.144 122.823 130.067 122.029 129.274C121.236 128.48 120.159 128.034 119.037 128.034C117.914 128.034 116.838 128.48 116.044 129.274C115.251 130.067 114.805 131.144 114.805 132.266C114.819 135.783 115.985 139.197 118.125 141.988C120.265 144.778 123.261 146.789 126.654 147.714V151.396C126.654 152.519 127.1 153.595 127.893 154.389C128.687 155.183 129.763 155.628 130.886 155.628C132.008 155.628 133.085 155.183 133.878 154.389C134.672 153.595 135.118 152.519 135.118 151.396V147.672C137.137 147.106 139.024 146.147 140.672 144.851C142.32 143.554 143.696 141.946 144.723 140.118C145.75 138.29 146.406 136.277 146.655 134.196C146.903 132.114 146.74 130.003 146.173 127.985L146.163 127.95C145.213 124.597 143.195 121.646 140.414 119.546C137.634 117.445 134.243 116.31 130.758 116.313C129.772 116.31 128.796 116.112 127.887 115.732C126.977 115.352 126.15 114.796 125.455 114.097C124.76 113.397 124.21 112.568 123.835 111.656C123.46 110.743 123.269 109.766 123.272 108.78C123.272 108.684 123.272 108.588 123.272 108.492C121.903 108.203 120.518 107.99 119.125 107.854C117.697 107.753 116.266 107.703 114.831 107.703Z" fill="#00CB24"/>
<path d="M135.12 93.4208V91.5133C135.12 90.3909 134.674 89.3144 133.88 88.5208C133.086 87.7271 132.01 87.2812 130.888 87.2812C129.765 87.2812 128.689 87.7271 127.895 88.5208C127.101 89.3144 126.656 90.3909 126.656 91.5133V93.3331C122.823 94.3495 119.508 96.7602 117.359 100.093C118.131 100.122 118.904 100.164 119.676 100.219C122.518 100.478 125.329 101.007 128.072 101.797C129.879 101.098 131.887 101.125 133.676 101.872C135.464 102.619 136.894 104.029 137.667 105.806C138.533 106.291 139.384 106.806 140.22 107.349C142.194 108.568 144.243 109.658 146.356 110.614C146.619 110.053 146.756 109.441 146.755 108.822C146.757 105.338 145.622 101.948 143.522 99.1686C141.422 96.3888 138.472 94.3706 135.12 93.4208V93.4208Z" fill="#00CB24"/>
<path d="M117.36 100.094C115.885 102.375 115.016 104.994 114.834 107.704C116.268 107.704 117.702 107.755 119.135 107.856C120.529 107.992 121.913 108.206 123.283 108.495C123.344 107.033 123.831 105.621 124.683 104.432C125.535 103.243 126.716 102.329 128.081 101.801C125.338 101.01 122.527 100.482 119.685 100.223C118.914 100.169 118.139 100.126 117.36 100.094Z" fill="#00CB24"/>
<path d="M137.67 105.809C138.084 106.76 138.297 107.787 138.294 108.825C138.294 109.787 138.623 110.721 139.225 111.472C139.828 112.223 140.668 112.746 141.608 112.954C142.548 113.163 143.531 113.045 144.394 112.62C145.258 112.195 145.951 111.488 146.359 110.616C144.246 109.661 142.196 108.57 140.223 107.352C139.389 106.808 138.538 106.294 137.67 105.809Z" fill="#00CB24"/>
<path d="M169.635 33.8164C167.567 33.8161 165.545 34.4291 163.825 35.578C162.105 36.7269 160.764 38.3601 159.972 40.2709C159.181 42.1818 158.973 44.2845 159.377 46.3132C159.78 48.3419 160.776 50.2054 162.238 51.6681C163.701 53.1308 165.564 54.1269 167.593 54.5306C169.621 54.9342 171.724 54.7272 173.635 53.9358C175.546 53.1443 177.179 51.8039 178.329 50.0841C179.478 48.3644 180.091 46.3424 180.091 44.274C180.091 41.5008 178.99 38.8411 177.029 36.88C175.068 34.9188 172.408 33.8168 169.635 33.8164V33.8164Z" fill="#00CB24"/>
<path d="M161.793 59.9551C161.794 58.5007 161.491 57.0621 160.904 55.7314C160.317 54.4006 159.459 53.2069 158.385 52.2265C157.31 51.2462 156.043 50.5007 154.665 50.0378C153.286 49.5749 151.826 49.4048 150.377 49.5383C148.929 49.6717 147.525 50.1059 146.254 50.813C144.983 51.52 143.873 52.4845 142.996 53.6447C142.119 54.8049 141.494 56.1353 141.16 57.5509C140.826 58.9665 140.791 60.4362 141.058 61.866C148.945 61.7005 155.681 61.6062 161.672 61.5533C161.753 61.0244 161.793 60.4901 161.793 59.9551Z" fill="#00CB24"/>
<path d="M198.383 59.9552C198.382 58.5168 198.084 57.0941 197.508 55.776C196.932 54.4579 196.091 53.2728 195.036 52.2948C193.981 51.3168 192.736 50.5669 191.378 50.0921C190.021 49.6172 188.58 49.4276 187.145 49.5351C185.711 49.6426 184.314 50.0449 183.042 50.7168C181.771 51.3887 180.651 52.3158 179.754 53.4401C178.857 54.5644 178.201 55.8617 177.828 57.2508C177.455 58.64 177.373 60.0912 177.587 61.5137C184.795 61.5435 191.252 61.6345 198.229 61.737C198.33 61.1485 198.382 60.5524 198.383 59.9552V59.9552Z" fill="#00CB24"/>
<path d="M299.597 116.306C296.662 89.9349 271.9 65.2691 245.517 62.4565C243.276 62.2099 241.022 62.0828 238.767 62.076C235.526 62.076 232.48 62.076 229.597 62.0562C229.605 59.6305 229.471 57.2064 229.193 54.7966C226.255 28.4317 201.493 3.76585 175.105 0.953334C172.863 0.706646 170.61 0.579627 168.355 0.572816C120.264 0.556272 114.848 -0.707708 61.2276 0.572816C58.9702 0.577935 56.7147 0.704959 54.471 0.953334C28.0713 3.78405 3.32443 28.4565 0.397756 54.8164C-1.16882 68.493 1.92029 82.2984 9.1662 94.0031C22.4711 115.489 46.9135 125.872 70.4146 122.31C70.2296 134.025 73.4101 145.546 79.5785 155.506C97.3784 184.25 135.109 193.123 163.853 175.323C168.893 172.024 174.653 169.989 180.646 169.389C183.606 169.154 186.58 169.145 189.541 169.359C195.629 169.947 201.482 172.006 206.597 175.358C216.244 181.341 227.371 184.51 238.723 184.508C241.07 184.51 243.416 184.376 245.749 184.11C279.345 180.253 303.452 149.891 299.597 116.306ZM55.1178 114.983C25.7286 111.611 4.63308 85.056 8.00314 55.6651C10.5195 32.9995 32.6127 10.9957 55.2932 8.56203C57.264 8.34508 59.245 8.23463 61.2276 8.23114H168.355C170.337 8.23111 172.318 8.33714 174.289 8.54879C196.967 10.9775 219.046 32.9846 221.578 55.642C221.821 57.7574 221.938 59.8855 221.928 62.0148C212.664 61.947 205.189 61.8378 198.229 61.7369C191.269 61.6359 184.8 61.545 177.587 61.5135C172.749 61.4937 167.572 61.5019 161.673 61.5532C155.682 61.6062 148.945 61.7054 141.059 61.8659C138.081 61.9271 134.954 61.9966 131.628 62.076C129.371 62.0803 127.115 62.2073 124.872 62.4565C99.1156 65.2194 74.9296 88.7768 71.0582 114.415C65.8029 115.4 60.4298 115.591 55.1178 114.983V114.983ZM284.348 151.425C268.797 176.595 235.801 184.398 210.63 168.854C204.468 164.841 197.418 162.393 190.094 161.725C188.479 161.608 186.849 161.55 185.204 161.55C183.461 161.55 181.759 161.621 180.047 161.755C172.834 162.447 165.894 164.87 159.818 168.818C149.577 175.155 137.499 177.856 125.533 176.484C97.3007 173.247 76.7279 148.612 78.1391 120.624C78.1971 119.476 78.2864 118.325 78.4204 117.168C78.6077 115.494 78.8967 113.833 79.2857 112.193C84.1861 91.3825 104.694 72.3219 125.709 70.0652C127.679 69.845 129.66 69.7312 131.643 69.7244H238.77C240.753 69.726 242.734 69.832 244.705 70.0421C267.382 72.4807 289.469 94.4878 291.993 117.145C293.371 129.106 290.677 141.182 284.348 151.425V151.425Z" fill="#00CB24"/>
<path d="M75.7564 66.45C74.8071 63.0968 72.7887 60.1454 70.0081 58.0446C67.2276 55.9437 63.8371 54.8084 60.3521 54.8111C58.8673 54.8062 57.4173 54.3613 56.1853 53.5325C54.9534 52.7037 53.9947 51.5283 53.4306 50.1548C52.8665 48.7814 52.7222 47.2715 53.0159 45.816C53.3097 44.3606 54.0283 43.0249 55.081 41.9778C56.1337 40.9306 57.4732 40.2191 58.9301 39.933C60.3871 39.6469 61.8962 39.7992 63.2667 40.3706C64.6371 40.942 65.8075 41.9068 66.6297 43.1431C67.452 44.3794 67.8893 45.8318 67.8863 47.3166C67.8752 47.8793 67.9764 48.4385 68.1841 48.9616C68.3917 49.4847 68.7016 49.9611 69.0956 50.363C69.4896 50.7649 69.9598 51.0841 70.4787 51.3021C70.9976 51.52 71.5547 51.6323 72.1175 51.6323C72.6803 51.6323 73.2375 51.52 73.7564 51.3021C74.2753 51.0841 74.7455 50.7649 75.1395 50.363C75.5335 49.9611 75.8434 49.4847 76.051 48.9616C76.2586 48.4385 76.3599 47.8793 76.3487 47.3166C76.3516 43.8318 75.2165 40.4415 73.1159 37.661C71.0154 34.8805 68.0644 32.8619 64.7115 31.9122V30.0113C64.7115 28.8889 64.2656 27.8125 63.472 27.0188C62.6783 26.2252 61.6019 25.7793 60.4795 25.7793C59.3571 25.7793 58.2807 26.2252 57.487 27.0188C56.6933 27.8125 56.2475 28.8889 56.2475 30.0113V31.8312C52.5032 32.8298 49.2497 35.1557 47.0934 38.3756C44.9371 41.5954 44.0251 45.4895 44.5273 49.332C45.0296 53.1744 46.9119 56.7032 49.8234 59.2606C52.7349 61.818 56.4769 63.2296 60.3521 63.2322C61.8372 63.2282 63.2901 63.6647 64.5271 64.4865C65.7641 65.3082 66.7297 66.4783 67.3018 67.8487C67.8739 69.2192 68.0268 70.7285 67.7411 72.1859C67.4555 73.6432 66.7442 74.9832 65.6971 76.0363C64.65 77.0894 63.3141 77.8084 61.8584 78.1024C60.4027 78.3964 58.8926 78.2521 57.5188 77.6879C56.1451 77.1237 54.9695 76.1648 54.1407 74.9325C53.3119 73.7002 52.8671 72.2498 52.8625 70.7647C52.8625 69.6423 52.4166 68.5659 51.623 67.7723C50.8293 66.9786 49.7529 66.5327 48.6305 66.5327C47.5081 66.5327 46.4317 66.9786 45.638 67.7723C44.8444 68.5659 44.3985 69.6423 44.3985 70.7647C44.4125 74.2815 45.5793 77.6967 47.7201 80.4868C49.8609 83.277 52.8575 85.2881 56.2508 86.2121V89.8932C56.2508 91.0156 56.6967 92.092 57.4903 92.8857C58.284 93.6793 59.3604 94.1252 60.4828 94.1252C61.6052 94.1252 62.6816 93.6793 63.4753 92.8857C64.2689 92.092 64.7148 91.0156 64.7148 89.8932V89.8932V86.1691C66.7336 85.6025 68.6209 84.6438 70.2691 83.3477C71.9172 82.0516 73.2939 80.4435 74.3205 78.6153C75.3471 76.787 76.0034 74.7745 76.2521 72.6925C76.5007 70.6106 76.3368 68.5 75.7697 66.4814L75.7564 66.45Z" fill="#00CB24"/>
</g>
<defs>
<clipPath id="clip0">
<rect width="300" height="184.508" fill="white"/>
</clipPath>
</defs>
</svg>
