<svg height="71.268" viewBox="0 0 71.255 71.268" width="71.255" xmlns="http://www.w3.org/2000/svg"><g fill="#01c625"><path d="m74.629 107.544a10.406 10.406 0 0 1 -7.4-3.066l-10.69-10.69a2.031 2.031 0 0 0 -2.807 0l-10.732 10.728a10.418 10.418 0 0 1 -7.4 3.066h-2.1l13.536 13.536a10.824 10.824 0 0 0 15.313 0l13.575-13.575z" transform="translate(-19.048 -53.023)"/><path d="m35.594 16.71a10.4 10.4 0 0 1 7.406 3.066l10.728 10.729a1.988 1.988 0 0 0 2.807 0l10.69-10.669a10.388 10.388 0 0 1 7.4-3.066h1.294l-13.58-13.6a10.832 10.832 0 0 0 -15.313 0l-13.536 13.54z" transform="translate(-19.048)"/><path d="m68.1 53.994-8.2-8.194a1.544 1.544 0 0 1 -.582.121h-3.728a7.37 7.37 0 0 0 -5.175 2.156l-10.7 10.664a5.136 5.136 0 0 1 -7.258 0l-10.732-10.733a7.374 7.374 0 0 0 -5.175-2.156h-4.592a1.552 1.552 0 0 1 -.548-.112l-8.24 8.254a10.832 10.832 0 0 0 0 15.313l8.236 8.236a1.6 1.6 0 0 1 .552-.112h4.588a7.374 7.374 0 0 0 5.175-2.156l10.733-10.716a5.252 5.252 0 0 1 7.258 0l10.688 10.686a7.352 7.352 0 0 0 5.177 2.155h3.73a1.54 1.54 0 0 1 .582.116l8.193-8.193a10.824 10.824 0 0 0 0-15.313" transform="translate(0 -26.016)"/></g></svg>