<svg height="427.025" viewBox="0 0 374.769 427.025" width="374.769" xmlns="http://www.w3.org/2000/svg" xmlns:xlink="http://www.w3.org/1999/xlink"><linearGradient id="a" gradientUnits="objectBoundingBox" x1=".186" x2="1.016" y1=".013" y2="1.078"><stop offset=".01" stop-color="#9f19ab"/><stop offset=".43" stop-color="#5f27bd"/><stop offset=".9" stop-color="#3d065f"/></linearGradient><linearGradient id="b" x1="-7.754" x2="-4.275" xlink:href="#a" y1=".72" y2=".27"/><path d="m326.261 247.772c0 41.187-14.215 70.361-37.32 84.484-.692.425-39.482 24.484-40.188 24.876-24.039 13.444-8.669-17.056-45.178-38.136-73.475-42.429-133.046-145.177-133.046-229.505 0-41.69-38.541-42.03-14.94-55.95.653-.392 44.068-25.176 44.741-25.541 23.97-12.981 56.74-10.616 92.884 10.288 73.486 42.412 133.047 145.157 133.047 229.484z" fill="url(#a)" transform="matrix(.985 .174 -.174 .985 53.457629 -6.406833)"/><ellipse cx="108.295" cy="187.585" fill="url(#b)" rx="108.295" ry="187.585" transform="matrix(.93817189374 -.34689263383 .34689263383 .93817189374 -.04438 75.163264)"/><path d="m165.136 53.123c-35.229-20.342-67.236-23.086-91.036-11.177 22.21-6.206 49.718-1.574 79.539 15.678 73.49 42.389 133.061 145.144 133.061 229.484 0 43.9-16.174 74.11-42.023 87.038 32.486-9.087 53.514-41.409 53.514-91.506-.002-84.373-59.539-187.096-133.055-229.517z" fill="#d75fff" transform="matrix(.985 .174 -.174 .985 46.626239 -19.898936)"/><path d="m72.76 231.333 58.733 127.905a4.978 4.978 0 0 0 8.107 1.362l102.957-108.076a11.445 11.445 0 0 0 -.581-16.331l-34.648-31.6a11.445 11.445 0 0 0 -17.546 2.613l-55.245 93.094-27.1-65.03a11.432 11.432 0 0 0 -8.375-6.833l-20.845-4.063a4.978 4.978 0 0 0 -5.455 6.964z" fill="#fff" transform="matrix(.985 .174 -.174 .985 57.299241 -76.741438)"/></svg>