<svg height="53.636" viewBox="0 0 94.652 53.636" width="94.652" xmlns="http://www.w3.org/2000/svg"><path d="m65.064 12.62-8.464-8.462a14.1 14.1 0 0 0 -10.038-4.158h-19.833a7.941 7.941 0 0 0 -3.529.832l-3.533 1.768a4.676 4.676 0 0 1 -2.288.5l-1.6-.056v-3.044h-15.779v34.705h15.775v-4.732h2.682l.954.631a17.392 17.392 0 0 0 8.989 2.896v20.14h66.252v-41.02zm-52.444 18.93h-9.465v-28.395h9.465zm8.538-3.572-1.758-1.16h-3.625v-20.618l1.487.053a7.92 7.92 0 0 0 3.814-.827l3.534-1.771a4.742 4.742 0 0 1 2.12-.5h19.832a10.968 10.968 0 0 1 7.808 3.234l6.23 6.231h-13.015l-3.829-3.828-2.23 2.23 11.143 11.144a3.163 3.163 0 0 1 -4.469 4.483l-9.3-9.307-1.1.947a8.361 8.361 0 0 1 -10.633.157l-.914-.741-1.988 2.451.924.749a11.5 11.5 0 0 0 3.211 1.811v7.623a14.226 14.226 0 0 1 -7.238-2.36zm22.442-1.478 2.38 2.381a6.356 6.356 0 0 0 8.913.008 7.985 7.985 0 1 0 .9-1.144 6.2 6.2 0 0 0 .517-5.662h21.12a9.492 9.492 0 0 0 7.757 7.757v6.572a9.492 9.492 0 0 0 -7.757 7.758h-31.813a9.492 9.492 0 0 0 -7.757-7.757v-6.571a9.417 9.417 0 0 0 5.74-3.342zm13.193 6.626a4.733 4.733 0 1 1 4.733 4.733 4.733 4.733 0 0 1 -4.735-4.731zm34.707 17.355h-59.95v-27.1a11.471 11.471 0 0 0 7.1-1.814l2.691 2.691a6.3 6.3 0 0 1 -5.058 2.563h-1.577v12.62h1.578a6.31 6.31 0 0 1 6.31 6.31v1.578h37.86v-1.581a6.31 6.31 0 0 1 6.31-6.31h1.578v-12.62h-1.578a6.31 6.31 0 0 1 -6.31-6.31v-1.578h-26.559l-3.155-3.155h40.76zm0 0" fill="#00cb24"/></svg>