<svg viewBox="0 0 1242 1320.12" xmlns="http://www.w3.org/2000/svg" xmlns:xlink="http://www.w3.org/1999/xlink"><linearGradient id="a" gradientUnits="userSpaceOnUse" x1="679.54" x2="958.86" y1="742.6" y2="742.6"><stop offset=".06" stop-color="#200041"/><stop offset=".26" stop-color="#210243"/><stop offset=".36" stop-color="#25084b"/><stop offset=".43" stop-color="#2c1358"/><stop offset=".47" stop-color="#311b61"/><stop offset=".48" stop-color="#351f65"/><stop offset=".5" stop-color="#422c73"/><stop offset=".51" stop-color="#584188"/><stop offset=".52" stop-color="#765fa7"/><stop offset=".53" stop-color="#8770b8"/><stop offset=".54" stop-color="#7e67ae"/><stop offset=".56" stop-color="#5c468d"/><stop offset=".59" stop-color="#442e75"/><stop offset=".61" stop-color="#362066"/><stop offset=".63" stop-color="#311b61"/><stop offset=".67" stop-color="#2a1155"/><stop offset=".75" stop-color="#230446"/><stop offset=".81" stop-color="#200041"/><stop offset="1" stop-color="#200041"/></linearGradient><linearGradient id="b" x1="679.54" x2="958.86" xlink:href="#a" y1="703.13" y2="703.13"/><linearGradient id="c" gradientUnits="userSpaceOnUse" x1="755.59" x2="875.91" y1="719.45" y2="652.88"><stop offset="0" stop-color="#311b61"/><stop offset=".2" stop-color="#290f52"/><stop offset=".49" stop-color="#200041"/><stop offset="1" stop-color="#0f001f"/></linearGradient><radialGradient id="d" cx="822.26" cy="741.37" gradientUnits="userSpaceOnUse" r="99.9"><stop offset="0" stop-color="#af8afc"/><stop offset="1" stop-color="#10054d"/></radialGradient><radialGradient id="e" cx="895.6" cy="408.06" gradientUnits="userSpaceOnUse" r="251.47"><stop offset="0" stop-color="#fa45c1"/><stop offset=".21" stop-color="#cb389d"/><stop offset=".67" stop-color="#571843"/><stop offset="1"/></radialGradient><radialGradient id="f" cx="1031.61" cy="906.1" r="108.56" xlink:href="#e"/><linearGradient id="g" x1="824.39" x2="1181.28" xlink:href="#a" y1="877.04" y2="877.04"/><linearGradient id="h" x1="824.39" x2="1181.28" xlink:href="#a" y1="829.8" y2="829.8"/><linearGradient id="i" x1="802.6" x2="1145.94" xlink:href="#c" y1="817.41" y2="817.41"/><linearGradient id="j" gradientUnits="userSpaceOnUse" x1="953.01" x2="979.34" y1="726.86" y2="823.26"><stop offset=".04" stop-color="#138bbd"/><stop offset=".23" stop-color="#169ac7"/><stop offset=".59" stop-color="#1fc3df"/><stop offset="1" stop-color="#2af6ff"/></linearGradient><radialGradient id="k" cx="974.26" cy="854" r="129.21" xlink:href="#d"/><linearGradient id="l" x1="824.39" x2="1181.28" xlink:href="#a" y1="807.42" y2="807.42"/><linearGradient id="m" x1="836.82" x2="1181.81" xlink:href="#a" y1="821.32" y2="821.32"/><linearGradient id="n" gradientUnits="userSpaceOnUse" x1="881.56" x2="1290.04" y1="732.68" y2="1007.35"><stop offset=".01" stop-color="#9f19ab"/><stop offset=".43" stop-color="#5f27bd"/><stop offset=".9" stop-color="#3d065f"/></linearGradient><radialGradient id="o" cx="974.26" cy="831.61" r="129.21" xlink:href="#d"/><linearGradient id="p" gradientTransform="translate(61.23)" gradientUnits="userSpaceOnUse" x1="910.9" x2="920.39" y1="899.43" y2="883.06"><stop offset="0" stop-color="#25054d"/><stop offset="1" stop-color="#45108a"/></linearGradient><linearGradient id="q" gradientUnits="userSpaceOnUse" x1="967.22" x2="975.44" y1="877.27" y2="893.49"><stop offset="0" stop-color="#a56ef4"/><stop offset="1"/></linearGradient><linearGradient id="r" x1="1015.91" x2="546.73" xlink:href="#c" y1="787.46" y2="138.23"/><linearGradient id="s" x1="610.18" x2="1009.36" xlink:href="#n" y1="202.89" y2="803.13"/><linearGradient id="t" x1="1115.6" x2="746.3" xlink:href="#a" y1="801.56" y2="211.47"/><radialGradient id="u" cx="1010.84" cy="465.52" r="62.86" xlink:href="#d"/><linearGradient id="v" gradientTransform="matrix(-1 0 0 1 13253.57 0)" gradientUnits="userSpaceOnUse" x1="12867.64" x2="12867.64" y1="855.97" y2="818.86"><stop offset=".09" stop-color="#25054d"/><stop offset=".47" stop-color="#330a68"/><stop offset=".89" stop-color="#45108a"/></linearGradient><linearGradient id="w" gradientTransform="matrix(-1 0 0 1 13253.57 0)" x1="12847.76" x2="12903.59" xlink:href="#j" y1="739.28" y2="739.28"/><linearGradient id="x" x1="12799.41" x2="12814.14" xlink:href="#v" y1="897.17" y2="853.92"/><linearGradient id="y" gradientTransform="matrix(-1 0 0 1 13253.57 0)" x1="12788.93" x2="12862.93" xlink:href="#j" y1="765.79" y2="765.79"/><radialGradient id="z" cx="11703.19" cy="-2401.69" gradientTransform="matrix(-.88 .48 .48 .88 11926.55 -2984.52)" gradientUnits="userSpaceOnUse" r="45.02"><stop offset=".03" stop-color="#fedfcb"/><stop offset=".78" stop-color="#f9b69e"/><stop offset=".99" stop-color="#f2a78c"/></radialGradient><linearGradient id="A" gradientTransform="matrix(-1 .07 .07 1 13147 -474.03)" gradientUnits="userSpaceOnUse" x1="12688.82" x2="12811.62" y1="8.3" y2="8.3"><stop offset=".04" stop-color="#9d9eb3"/><stop offset=".58" stop-color="#d4d1d8"/><stop offset="1" stop-color="#eeebf2"/></linearGradient><radialGradient id="B" cx="11078.26" cy="1707.26" gradientTransform="matrix(-.98 -.21 -.21 .98 11646 1067.24)" gradientUnits="userSpaceOnUse" r="55.85"><stop offset=".03" stop-color="#fedfcb"/><stop offset="1" stop-color="#f9b69e"/></radialGradient><linearGradient id="C" gradientTransform="matrix(.99845049 .05564724 -.05564724 .99845049 1.88 -368.33)" gradientUnits="userSpaceOnUse" x1="461.29" x2="501.58" y1="795.56" y2="718.82"><stop offset=".02" stop-color="#ed9d67"/><stop offset=".42" stop-color="#ffa96f"/><stop offset=".59" stop-color="#ffb87c"/><stop offset=".92" stop-color="#fee19e"/><stop offset="1" stop-color="#feeca8"/></linearGradient><linearGradient id="D" gradientTransform="matrix(.99 .15 -.15 .99 78.29 -1011.64)" x1="551.1" x2="628.71" xlink:href="#A" y1="1542.5" y2="1417.21"/><linearGradient id="E" gradientUnits="userSpaceOnUse" x1="516.66" x2="544.69" y1="478.49" y2="499.83"><stop offset="0" stop-color="#200041"/><stop offset=".22" stop-color="#563e83"/><stop offset=".27" stop-color="#4e367c"/><stop offset=".48" stop-color="#311b61"/><stop offset=".57" stop-color="#2a1155"/><stop offset=".7" stop-color="#230446"/><stop offset=".81" stop-color="#200041"/><stop offset=".93" stop-color="#351e65"/><stop offset=".95" stop-color="#2b1055"/><stop offset=".98" stop-color="#230446"/><stop offset="1" stop-color="#200041"/></linearGradient><linearGradient id="F" x1="551.05" x2="551.12" xlink:href="#c" y1="483.1" y2="483.15"/><linearGradient id="G" x1="544.93" x2="579.32" xlink:href="#c" y1="497" y2="488.01"/><linearGradient id="H" x1="551.98" x2="556.64" xlink:href="#c" y1="502.52" y2="468.95"/><linearGradient id="I" gradientUnits="userSpaceOnUse" x1="522.08" x2="550.76" y1="481.19" y2="481.19"><stop offset="0" stop-color="#200041"/><stop offset=".03" stop-color="#2e0f51"/><stop offset=".2" stop-color="#6e559b"/><stop offset=".27" stop-color="#8770b8"/><stop offset=".41" stop-color="#5f4990"/><stop offset=".55" stop-color="#3e286e"/><stop offset=".63" stop-color="#311b61"/><stop offset=".67" stop-color="#2a1155"/><stop offset=".75" stop-color="#230446"/><stop offset=".81" stop-color="#200041"/><stop offset=".93" stop-color="#351e65"/><stop offset=".95" stop-color="#2b1055"/><stop offset=".98" stop-color="#230446"/><stop offset="1" stop-color="#200041"/></linearGradient><radialGradient id="J" cx="536.51" cy="476.58" gradientUnits="userSpaceOnUse" r="11.93"><stop offset="0" stop-color="#fff"/><stop offset="1"/></radialGradient><linearGradient id="K" x1="530.35" x2="563.63" xlink:href="#c" y1="483.07" y2="445.79"/><linearGradient id="L" x1="528.06" x2="544.46" xlink:href="#I" y1="497.03" y2="497.03"/><linearGradient id="M" x1="544.64" x2="544.64" xlink:href="#c" y1="496.82" y2="496.82"/><radialGradient id="N" cx="536.31" cy="489.75" r="6.82" xlink:href="#J"/><linearGradient id="O" x1="532.79" x2="551.81" xlink:href="#c" y1="493.46" y2="472.15"/><linearGradient id="P" x1="542.91" x2="529.37" xlink:href="#I" y1="489.54" y2="489.54"/><linearGradient id="Q" gradientUnits="userSpaceOnUse" x1="531.7" x2="540.86" y1="489.62" y2="489.62"><stop offset=".01" stop-color="#c1a1d5"/><stop offset=".05" stop-color="#c8abda"/><stop offset=".11" stop-color="#dac6e6"/><stop offset=".2" stop-color="#f7f2f9"/><stop offset=".22" stop-color="#fff"/><stop offset=".25" stop-color="#f9f5fb"/><stop offset=".3" stop-color="#e9dbf2"/><stop offset=".36" stop-color="#d1b4e3"/><stop offset=".43" stop-color="#b395d6"/><stop offset=".49" stop-color="#9c7dcb"/><stop offset=".56" stop-color="#8e6ec5"/><stop offset=".61" stop-color="#8969c3"/><stop offset=".76" stop-color="#9471c6"/><stop offset="1" stop-color="#b086cc"/></linearGradient><linearGradient id="R" x1="536.31" x2="536.31" xlink:href="#J" y1="494.05" y2="484.88"/><linearGradient id="S" x1="529.14" x2="543.4" xlink:href="#Q" y1="488.74" y2="488.74"/><radialGradient id="T" cx="536.31" cy="485.78" r="5.93" xlink:href="#J"/><linearGradient id="U" gradientUnits="userSpaceOnUse" x1="541.96" x2="528.89" y1="482.69" y2="489.38"><stop offset="0" stop-color="#9f79c8"/><stop offset=".14" stop-color="#a580cb"/><stop offset=".33" stop-color="#b492d3"/><stop offset=".55" stop-color="#cdb0e1"/><stop offset=".58" stop-color="#d1b4e3"/><stop offset=".76" stop-color="#dbc4e9"/><stop offset="1" stop-color="#ebdef3"/></linearGradient><linearGradient id="V" x1="547.74" x2="581.76" xlink:href="#c" y1="503.52" y2="492.08"/><linearGradient id="W" x1="552.53" x2="556.06" xlink:href="#c" y1="508.37" y2="482.87"/><linearGradient id="X" x1="548.34" x2="574.64" xlink:href="#n" y1="488.38" y2="488.38"/><linearGradient id="Y" x1="549.14" x2="522.4" xlink:href="#U" y1="470.44" y2="474.89"/><linearGradient id="Z" x1="550.23" x2="523.49" xlink:href="#U" y1="476.99" y2="481.45"/><linearGradient id="aa" x1="550.02" x2="523.29" xlink:href="#U" y1="475.76" y2="480.22"/><linearGradient id="ab" x1="549.34" x2="522.6" xlink:href="#U" y1="471.67" y2="476.12"/><linearGradient id="ac" x1="551.31" x2="567.71" xlink:href="#I" y1="509.73" y2="509.73"/><linearGradient id="ad" x1="567.89" x2="567.89" xlink:href="#c" y1="509.52" y2="509.52"/><radialGradient id="ae" cx="559.56" cy="502.45" r="6.82" xlink:href="#J"/><linearGradient id="af" x1="556.04" x2="575.06" xlink:href="#c" y1="506.16" y2="484.85"/><linearGradient id="ag" x1="566.16" x2="552.62" xlink:href="#I" y1="502.24" y2="502.24"/><linearGradient id="ah" x1="554.95" x2="564.11" xlink:href="#Q" y1="502.32" y2="502.32"/><linearGradient id="ai" x1="559.56" x2="559.56" xlink:href="#J" y1="506.75" y2="497.58"/><linearGradient id="aj" x1="552.39" x2="566.64" xlink:href="#Q" y1="501.44" y2="501.44"/><radialGradient id="ak" cx="559.56" cy="498.48" r="5.93" xlink:href="#J"/><linearGradient id="al" x1="565.21" x2="552.13" xlink:href="#U" y1="495.39" y2="502.08"/><linearGradient id="am" x1="562.21" x2="590.25" xlink:href="#E" y1="505.33" y2="526.66"/><linearGradient id="an" x1="596.6" x2="596.67" xlink:href="#c" y1="509.94" y2="509.99"/><linearGradient id="ao" x1="567.63" x2="596.32" xlink:href="#I" y1="508.02" y2="508.02"/><radialGradient id="ap" cx="582.07" cy="503.41" r="11.93" xlink:href="#J"/><linearGradient id="aq" x1="575.91" x2="609.18" xlink:href="#c" y1="509.91" y2="472.63"/><linearGradient id="ar" x1="595.22" x2="569.67" xlink:href="#U" y1="498.16" y2="504.47"/><linearGradient id="as" x1="595.87" x2="570.32" xlink:href="#U" y1="500.79" y2="507.11"/><linearGradient id="at" x1="594.73" x2="569.18" xlink:href="#U" y1="496.17" y2="502.48"/><linearGradient id="au" x1="596.36" x2="570.81" xlink:href="#U" y1="502.78" y2="509.1"/><radialGradient id="av" cx="11307.74" cy="-1300.63" gradientTransform="matrix(-.92138902 -.38864157 .38864157 -.92138902 11468.99 3700.86)" r="29.46" xlink:href="#z"/><radialGradient id="aw" cx="8303.84" cy="-3588.74" gradientTransform="matrix(-.55586044 -.83127563 .83127563 -.55586044 8172.68 5451.56)" r="39.21" xlink:href="#B"/><linearGradient id="ax" gradientTransform="matrix(.96953092 -.24496897 .24496897 .96953092 79.02 1175.35)" x1="538.52" x2="567.53" xlink:href="#A" y1="-486.18" y2="-537.03"/><radialGradient id="ay" cx="12041.12" cy="-1231.27" gradientTransform="matrix(-.96 .29 .29 .96 12422.12 -1837.96)" r="46.42" xlink:href="#B"/><linearGradient id="az" gradientTransform="matrix(-1 0 0 1 13285.17 0)" x1="12776.62" x2="12752.04" xlink:href="#I" y1="1077.26" y2="1077.26"/><linearGradient id="aA" x1="650.36" x2="674.94" xlink:href="#I" y1="994.93" y2="994.93"/><linearGradient id="aB" x1="187.17" x2="162.59" xlink:href="#I" y1="876.13" y2="876.13"/><linearGradient id="aC" x1="574.99" x2="928.74" xlink:href="#p" y1="1020.73" y2="914.8"/><linearGradient id="aD" x1="-160.49" x2="860.08" xlink:href="#p" y1="1064.67" y2="835.9"/><linearGradient id="aE" gradientUnits="userSpaceOnUse" x1="595.24" x2="405.78" y1="550.36" y2="911.44"><stop offset=".1" stop-color="#45108a"/><stop offset="1" stop-color="#7c1dc9"/></linearGradient><linearGradient id="aF" x1="542.74" x2="1034.54" xlink:href="#aE" y1="1020.72" y2="913.92"/><linearGradient id="aG" x1="-40.24" x2="817.56" xlink:href="#n" y1="838.46" y2="1086.36"/><linearGradient id="aH" x1="595.24" x2="405.78" xlink:href="#aE" y1="547.48" y2="908.57"/><linearGradient id="aI" x1="450.27" x2="216.96" xlink:href="#aE" y1="329.34" y2="773.98"/><linearGradient id="aJ" x1="236.6" x2="599.81" xlink:href="#aE" y1="765.68" y2="656.93"/><linearGradient id="aK" x1="-16.75" x2="604.23" xlink:href="#aE" y1="771.44" y2="836.03"/><radialGradient id="aL" cx="11763.86" cy="-1997.52" gradientTransform="matrix(-.89 .46 .46 .89 11984.78 -2875.12)" r="43.8" xlink:href="#z"/><linearGradient id="aM" gradientTransform="matrix(-1 .05 .05 1 13152.95 -339.95)" gradientUnits="userSpaceOnUse" x1="12579.88" x2="12706.1" y1="403.24" y2="403.24"><stop offset=".04" stop-color="#9f19ab"/><stop offset=".24" stop-color="#ae25b1"/><stop offset=".65" stop-color="#d744bf"/><stop offset="1" stop-color="#ff63ce"/></linearGradient><linearGradient id="aN" gradientUnits="userSpaceOnUse" x1="557.01" x2="537.18" y1="868.67" y2="837.97"><stop offset=".04" stop-color="#ffa98c"/><stop offset=".32" stop-color="#ffb892"/><stop offset=".86" stop-color="#fee1a3"/><stop offset="1" stop-color="#feeca8"/></linearGradient><linearGradient id="aO" x1="588.95" x2="568.25" xlink:href="#aN" y1="884.31" y2="850.43"/><radialGradient id="aP" cx="11011.93" cy="1612.02" gradientTransform="matrix(-.99 -.15 -.15 .99 11705.77 784.79)" r="53.62" xlink:href="#B"/><linearGradient id="aQ" gradientTransform="matrix(-.99 -.15 -.15 .99 11705.77 784.79)" gradientUnits="userSpaceOnUse" x1="11054.43" x2="11019.47" y1="1638.35" y2="1576.53"><stop offset=".04" stop-color="#602213"/><stop offset=".57" stop-color="#6d310e"/><stop offset="1" stop-color="#7a4108"/></linearGradient><linearGradient id="aR" gradientTransform="matrix(.99 .15 -.15 .99 78.29 -1011.64)" x1="706.42" x2="771.65" xlink:href="#aM" y1="1759.75" y2="1654.44"/><linearGradient id="aS" x1="483.45" x2="322.24" xlink:href="#aE" y1="540.74" y2="847.97"/><linearGradient id="aT" x1="501.6" x2="642.88" xlink:href="#aE" y1="939.48" y2="897.18"/><linearGradient id="aU" x1="-106.57" x2="814.87" xlink:href="#aE" y1="955.29" y2="748.73"/><linearGradient id="aV" x1="487.27" x2="575.38" xlink:href="#aE" y1="947.62" y2="921.24"/><linearGradient id="aW" x1="-16.34" x2="841.46" xlink:href="#n" y1="755.74" y2="1003.64"/><linearGradient id="aX" x1="363.84" x2="340.07" xlink:href="#aE" y1="742.54" y2="787.83"/><linearGradient id="aY" x1="785.44" x2="552.13" xlink:href="#aE" y1="525.25" y2="969.89"/><linearGradient id="aZ" x1="531.43" x2="1023.23" xlink:href="#aE" y1="968.66" y2="861.85"/><linearGradient id="a0" x1="151.04" x2="772.02" xlink:href="#aE" y1="949.94" y2="1014.53"/><linearGradient id="a1" x1="638.07" x2="669.57" xlink:href="#E" y1="741.05" y2="765.03"/><linearGradient id="a2" x1="676.72" x2="676.8" xlink:href="#c" y1="746.23" y2="746.29"/><linearGradient id="a3" x1="669.85" x2="708.5" xlink:href="#c" y1="761.86" y2="751.76"/><linearGradient id="a4" x1="677.77" x2="683" xlink:href="#c" y1="768.06" y2="730.32"/><linearGradient id="a5" x1="644.15" x2="676.4" xlink:href="#I" y1="744.08" y2="744.08"/><radialGradient id="a6" cx="660.38" cy="738.9" r="13.4" xlink:href="#J"/><linearGradient id="a7" x1="653.46" x2="690.86" xlink:href="#c" y1="746.2" y2="704.29"/><linearGradient id="a8" x1="650.88" x2="669.31" xlink:href="#I" y1="761.89" y2="761.89"/><linearGradient id="a9" x1="650.79" x2="650.8" xlink:href="#c" y1="761.65" y2="761.65"/><linearGradient id="ba" x1="669.52" x2="669.52" xlink:href="#c" y1="761.65" y2="761.65"/><radialGradient id="bb" cx="660.16" cy="753.7" r="7.66" xlink:href="#J"/><linearGradient id="bc" x1="656.2" x2="677.58" xlink:href="#c" y1="757.87" y2="733.92"/><linearGradient id="bd" x1="667.57" x2="652.36" xlink:href="#I" y1="753.47" y2="753.47"/><linearGradient id="be" x1="654.97" x2="665.27" xlink:href="#Q" y1="753.55" y2="753.55"/><linearGradient id="bf" x1="660.16" x2="660.16" xlink:href="#J" y1="758.54" y2="748.23"/><linearGradient id="bg" x1="652.09" x2="668.12" xlink:href="#Q" y1="752.57" y2="752.57"/><radialGradient id="bh" cx="660.16" cy="749.24" r="6.66" xlink:href="#J"/><linearGradient id="bi" x1="666.5" x2="651.81" xlink:href="#U" y1="745.77" y2="753.28"/><linearGradient id="bj" x1="673" x2="711.23" xlink:href="#c" y1="769.18" y2="756.33"/><linearGradient id="bk" x1="678.38" x2="682.35" xlink:href="#c" y1="774.64" y2="745.97"/><linearGradient id="bl" x1="673.67" x2="703.24" xlink:href="#n" y1="752.17" y2="752.17"/><linearGradient id="bm" x1="674.57" x2="644.52" xlink:href="#U" y1="732" y2="737.01"/><linearGradient id="bn" x1="675.8" x2="645.75" xlink:href="#U" y1="739.36" y2="744.37"/><linearGradient id="bo" x1="675.57" x2="645.52" xlink:href="#U" y1="737.98" y2="742.99"/><linearGradient id="bp" x1="674.8" x2="644.75" xlink:href="#U" y1="733.38" y2="738.39"/><linearGradient id="bq" x1="677.01" x2="695.44" xlink:href="#I" y1="776.16" y2="776.16"/><linearGradient id="br" x1="695.64" x2="695.65" xlink:href="#c" y1="775.92" y2="775.92"/><radialGradient id="bs" cx="686.28" cy="767.97" r="7.66" xlink:href="#J"/><linearGradient id="bt" x1="682.33" x2="703.71" xlink:href="#c" y1="772.15" y2="748.2"/><linearGradient id="bu" x1="693.7" x2="678.48" xlink:href="#I" y1="767.74" y2="767.74"/><linearGradient id="bv" x1="681.1" x2="691.4" xlink:href="#Q" y1="767.83" y2="767.83"/><linearGradient id="bw" x1="686.28" x2="686.28" xlink:href="#J" y1="772.82" y2="762.51"/><linearGradient id="bx" x1="678.22" x2="694.25" xlink:href="#Q" y1="766.85" y2="766.85"/><radialGradient id="by" cx="686.28" cy="763.52" r="6.66" xlink:href="#J"/><linearGradient id="bz" x1="692.63" x2="677.94" xlink:href="#U" y1="760.05" y2="767.56"/><linearGradient id="bA" x1="689.27" x2="720.77" xlink:href="#E" y1="771.21" y2="795.19"/><linearGradient id="bB" x1="727.92" x2="728" xlink:href="#c" y1="776.39" y2="776.45"/><linearGradient id="bC" x1="695.35" x2="727.6" xlink:href="#I" y1="774.24" y2="774.24"/><radialGradient id="bD" cx="711.58" cy="769.06" r="13.4" xlink:href="#J"/><linearGradient id="bE" x1="704.66" x2="742.06" xlink:href="#c" y1="776.36" y2="734.46"/><linearGradient id="bF" x1="726.36" x2="697.65" xlink:href="#U" y1="763.16" y2="770.25"/><linearGradient id="bG" x1="727.09" x2="698.38" xlink:href="#U" y1="766.12" y2="773.21"/><linearGradient id="bH" x1="725.81" x2="697.09" xlink:href="#U" y1="760.92" y2="768.01"/><linearGradient id="bI" x1="727.65" x2="698.93" xlink:href="#U" y1="768.35" y2="775.45"/><radialGradient id="bJ" cx="11083.04" cy="-1488.5" gradientTransform="matrix(-.92138902 -.38864157 .38864157 -.92138902 11468.99 3700.86)" r="37.4" xlink:href="#z"/><radialGradient id="bK" cx="8006.48" cy="-3633.93" gradientTransform="matrix(-.55586044 -.83127563 .83127563 -.55586044 8172.68 5451.56)" r="39.96" xlink:href="#B"/><linearGradient id="bL" gradientTransform="matrix(.97511067 -.22171869 .22171869 .97511067 61.04 1125.45)" x1="592.65" x2="623.27" xlink:href="#aM" y1="-157.63" y2="-211.29"/><radialGradient id="bM" cx="11999.72" cy="-946.87" gradientTransform="matrix(-.96 .29 .29 .96 12422.12 -1837.96)" r="49.1" xlink:href="#B"/><clipPath id="bN"><path d="m990.41 764.72-373.82-216c-15.6-9.91-25.25-29.72-25.25-50v-291.85a6.22 6.22 0 0 1 9.37-5.36l1.1.64 374.19 216.25c18.57 10.7 25.25 29.72 25.25 50v291a6.72 6.72 0 0 1 -10 5.83z"/></clipPath><linearGradient id="bO" gradientUnits="userSpaceOnUse" x1="978.39" x2="895.41" y1="356.38" y2="396.71"><stop offset=".01" stop-color="#fff"/><stop offset=".15" stop-color="#f9f5fb"/><stop offset=".38" stop-color="#e9dbf2"/><stop offset=".66" stop-color="#d1b4e3"/><stop offset=".67" stop-color="#cfb2e2"/><stop offset=".79" stop-color="#be9ad6"/><stop offset=".9" stop-color="#b48bcf"/><stop offset="1" stop-color="#b086cc"/></linearGradient><linearGradient id="bP" x1="753.42" x2="779.61" xlink:href="#Q" y1="433.54" y2="478.91"/><linearGradient id="bQ" gradientTransform="matrix(.86330748 .50467831 -.50467831 .86330748 344.57 -288.54)" gradientUnits="userSpaceOnUse" x1="653.87" x2="758.26" y1="503.24" y2="479.84"><stop offset="0" stop-color="#9f79c8"/><stop offset=".14" stop-color="#a27dca"/><stop offset=".27" stop-color="#ac88cf"/><stop offset=".4" stop-color="#bc9bd7"/><stop offset=".52" stop-color="#d1b4e3"/><stop offset=".65" stop-color="#dbc4e9"/><stop offset=".9" stop-color="#f4edf8"/><stop offset="1" stop-color="#fff"/></linearGradient><linearGradient id="bR" x1="710.58" x2="736.75" xlink:href="#I" y1="458.23" y2="503.56"/><radialGradient id="bS" cx="708.73" cy="491.17" r="19.91" xlink:href="#J"/><linearGradient id="bT" x1="818.07" x2="844.26" xlink:href="#Q" y1="469.15" y2="514.52"/><linearGradient id="bU" gradientTransform="matrix(.86330748 .50467831 -.50467831 .86330748 371.38 -316.3)" x1="718.52" x2="822.91" xlink:href="#bQ" y1="538.86" y2="515.46"/><linearGradient id="bV" x1="775.23" x2="801.4" xlink:href="#I" y1="493.85" y2="539.18"/><radialGradient id="bW" cx="773.37" cy="526.79" r="19.91" xlink:href="#J"/><linearGradient id="bX" x1="597.57" x2="834.41" xlink:href="#bO" y1="281.46" y2="422.25"/><linearGradient id="bY" x1="550.49" x2="787.32" xlink:href="#p" y1="253.47" y2="394.26"/><linearGradient id="bZ" x1="1046.89" x2="824.53" xlink:href="#bO" y1="548.04" y2="403.74"/><linearGradient id="b0" x1="1016.89" x2="912.47" xlink:href="#p" y1="528.56" y2="460.8"/><linearGradient id="b1" x1="824.65" x2="868.25" xlink:href="#p" y1="421.23" y2="421.23"/><linearGradient id="b2" x1="860.01" x2="905.53" xlink:href="#Q" y1="365.53" y2="426.22"/><linearGradient id="b3" x1="784.92" x2="849.59" xlink:href="#p" y1="436.71" y2="436.71"/><radialGradient id="b4" cx="847.08" cy="420.32" gradientUnits="userSpaceOnUse" r="59.74"><stop offset="0" stop-color="#5c2db3"/><stop offset=".1" stop-color="#764fbf"/><stop offset=".27" stop-color="#a084d2"/><stop offset=".44" stop-color="#c2b0e2"/><stop offset=".6" stop-color="#dcd2ef"/><stop offset=".75" stop-color="#efebf8"/><stop offset=".89" stop-color="#fbfafd"/><stop offset="1" stop-color="#fff"/></radialGradient><radialGradient id="b5" cx="807.42" cy="431.55" gradientTransform="matrix(.62018985 .78445175 -.78445175 .62018985 653.57 -471.09)" gradientUnits="userSpaceOnUse" r="44.79"><stop offset="0" stop-color="#2af6ff"/><stop offset="1" stop-color="#138bbd"/></radialGradient><radialGradient id="b6" cx="805.46" cy="423.88" gradientUnits="userSpaceOnUse" r="64.32"><stop offset=".01" stop-color="#fff"/><stop offset=".16" stop-color="#e6d7f0"/><stop offset=".28" stop-color="#d7bde7"/><stop offset=".36" stop-color="#d1b4e3"/><stop offset=".48" stop-color="#c4a4dc"/><stop offset=".71" stop-color="#a17bc9"/><stop offset=".72" stop-color="#9f79c8"/><stop offset=".81" stop-color="#a37cc9"/><stop offset=".9" stop-color="#ae84cc"/><stop offset=".91" stop-color="#b086cc"/><stop offset=".96" stop-color="#ad84cb"/><stop offset=".99" stop-color="#a57dc9"/><stop offset="1" stop-color="#9f79c8"/></radialGradient><radialGradient id="b7" cx="808.42" cy="429.79" gradientTransform="matrix(.62087418 .78391023 -.78391023 .62087418 653.02 -472.64)" gradientUnits="userSpaceOnUse" r="51.23"><stop offset="0" stop-color="#2af6ff"/><stop offset=".02" stop-color="#29eef7"/><stop offset=".13" stop-color="#1fb7be"/><stop offset=".25" stop-color="#17868b"/><stop offset=".37" stop-color="#105d60"/><stop offset=".49" stop-color="#0a3b3e"/><stop offset=".62" stop-color="#062123"/><stop offset=".74" stop-color="#030f0f"/><stop offset=".87" stop-color="#010404"/><stop offset="1"/></radialGradient><radialGradient id="b8" cx="782.61" cy="435.87" r="68.14" xlink:href="#b6"/><radialGradient id="b9" cx="789.22" cy="430.15" gradientUnits="userSpaceOnUse" r="33.37"><stop offset="0" stop-color="#972a74"/><stop offset=".04" stop-color="#8a266a"/><stop offset=".19" stop-color="#601b4a"/><stop offset=".35" stop-color="#3d112f"/><stop offset=".51" stop-color="#230a1b"/><stop offset=".67" stop-color="#0f040c"/><stop offset=".83" stop-color="#040103"/><stop offset="1"/></radialGradient><linearGradient id="ca" gradientTransform="matrix(.86 .5 -.5 .86 389.97 -300.35)" x1="712.74" x2="730.43" xlink:href="#p" y1="467.18" y2="436.69"/><radialGradient id="cb" cx="780.1" cy="457.05" gradientUnits="userSpaceOnUse" r="10.38"><stop offset="0" stop-color="#43e8e1"/><stop offset=".14" stop-color="#34b5b0"/><stop offset=".3" stop-color="#257f7b"/><stop offset=".46" stop-color="#17514f"/><stop offset=".62" stop-color="#0d2e2d"/><stop offset=".76" stop-color="#061514"/><stop offset=".89" stop-color="#020505"/><stop offset="1"/></radialGradient><linearGradient id="cc" x1="982.7" x2="932.65" xlink:href="#aE" y1="470.26" y2="470.26"/><linearGradient id="cd" x1="982.7" x2="932.65" xlink:href="#aE" y1="534.95" y2="534.95"/><linearGradient id="ce" x1="982.7" x2="932.65" xlink:href="#aE" y1="599.64" y2="599.64"/><linearGradient id="cf" x1="982.7" x2="932.65" xlink:href="#aE" y1="664.33" y2="664.33"/><linearGradient id="cg" x1="656.96" x2="605.09" xlink:href="#j" y1="272.64" y2="272.64"/><linearGradient id="ch" x1="656.96" x2="605.09" xlink:href="#j" y1="337.33" y2="337.33"/><linearGradient id="ci" x1="656.96" x2="605.09" xlink:href="#j" y1="402.02" y2="402.02"/><linearGradient id="cj" x1="656.96" x2="605.09" xlink:href="#j" y1="466.71" y2="466.71"/><linearGradient id="ck" x1="934.26" x2="987.02" xlink:href="#aE" y1="476.96" y2="465.14"/><linearGradient id="cl" x1="934.26" x2="987.02" xlink:href="#aE" y1="605.29" y2="593.47"/><linearGradient id="cm" x1="602.56" x2="655.32" xlink:href="#j" y1="343.09" y2="331.26"/><path d="m189 1122.39 18.35-8.49-8.49-18.35a4.79 4.79 0 0 1 8.69-4l8.49 18.35 18.35-8.48a4.78 4.78 0 0 1 4 8.68l-18.35 8.49 8.48 18.36a4.78 4.78 0 1 1 -8.68 4l-8.49-18.35-18.35 8.48a4.78 4.78 0 1 1 -4-8.68z" fill="#50f73e" opacity=".43"/><path d="m933.72 714.21c0 4.11-3 8.45-8.86 11.84l-59 57.23c-10.73 6.2-27 6.87-36.27 1.5l-154.39-89.66c-4.49-2.59-6.52-6.13-6.22-9.79a3.91 3.91 0 0 0 -.05.65v11.66c.07 3.35 2.13 6.54 6.27 8.93l154.39 89.66c9.3 5.37 25.54 4.7 36.27-1.5l59-57.23c6-3.44 9-7.86 8.88-12-.01-.73.11-8.42-.02-11.29z" fill="url(#a)" opacity=".2"/><g opacity=".2"><path d="m845.35 794.75c-8.48 0-16.16-1.85-22.24-5.36l-154.38-89.66c-8.11-4.68-12.76-12.09-12.76-20.32 0-9 5.6-17.43 15.36-23.07l93-37.53a54.68 54.68 0 0 1 27-6.87c8.47 0 16.16 1.86 22.23 5.36l120.4 70c8.11 4.68 12.75 12.09 12.75 20.32 0 9-5.59 17.43-15.36 23.07l-59 57.23a54.66 54.66 0 0 1 -27 6.83z" opacity="0"/><path d="m671.92 657.36 93-37.53a53.65 53.65 0 0 1 26.56-6.71 46.94 46.94 0 0 1 17.15 3.12 38.27 38.27 0 0 1 4.68 2.28l118.44 68.83c7.37 4.26 12.84 11.94 13.22 19.41.42 8.36-3.91 16.51-13.05 22.18-.37.24-.85.56-1.25.79l-58.9 57.14a53.62 53.62 0 0 1 -26.35 6.71c-8.26 0-15.79-1.79-21.71-5.21l-154.4-89.66c-7.78-4.5-12.2-11.56-12.16-19.39.04-8.55 5.4-16.55 14.77-21.96z" opacity=".09"/><path d="m672.51 658.38 93-37.53a52.41 52.41 0 0 1 26.13-6.54 45.67 45.67 0 0 1 16.84 3.16 43.36 43.36 0 0 1 4.58 2.27l116.48 67.69c6.63 3.83 13 11.81 13.68 18.51.85 8.16-2.73 16.29-12 22-.34.21-.88.6-1.23.81l-58.81 57.05a52.42 52.42 0 0 1 -25.7 6.55c-8.05 0-15.42-1.72-21.18-5l-154.4-89.66c-7.47-4.31-11.64-11-11.56-18.45.07-8.08 5.2-15.68 14.17-20.86z" opacity=".18"/><path d="m673.1 659.4 93-37.53a51.29 51.29 0 0 1 25.7-6.38 44.72 44.72 0 0 1 16.52 3.21 48.28 48.28 0 0 1 4.48 2.3l114.52 66.55c5.9 3.4 13.19 11.69 14.14 17.6 1.28 8-1.53 16.1-11 21.93-.3.19-.89.65-1.2.83l-58.72 57a51.34 51.34 0 0 1 -25.05 6.39c-7.84 0-15-1.65-20.65-4.89l-154.35-89.74c-7.15-4.13-11.09-10.51-11-17.52.14-7.61 5.03-14.8 13.61-19.75z" opacity=".27"/><path d="m673.69 660.42 93-37.53a50.33 50.33 0 0 1 25.31-6.22 43.42 43.42 0 0 1 16.21 3.26c1.06.44 3.44 1.69 4.39 2.24l112.56 65.42c5.16 3 14.6 11.45 14.6 16.69 3.38 7.44-.34 15.91-9.91 21.81-.27.16-.91.69-1.18.85l-58.67 56.87a50.12 50.12 0 0 1 -24.4 6.23c-7.63 0-14.67-1.58-20.12-4.73l-154.4-89.66c-6.83-3.95-10.53-10-10.38-16.58.15-7.14 4.8-13.92 12.99-18.65z" opacity=".36"/><path d="m674.28 661.44 93-37.53a49.21 49.21 0 0 1 24.85-6.06 42.31 42.31 0 0 1 15.87 3.31c.91.38 3.49 1.76 4.3 2.23l110.61 64.28c4.42 2.55 15.09 11.33 15.09 15.79 4.23 7.14.86 15.71-8.87 21.68-.22.14-.92.73-1.16.87l-58.57 56.78a48.93 48.93 0 0 1 -23.75 6.07c-7.42 0-14.29-1.51-19.59-4.57l-154.39-89.66c-6.51-3.76-10-9.46-9.79-15.65.2-6.66 4.61-13.04 12.4-17.54z" opacity=".45"/><path d="m674.86 662.46 93-37.53a48.11 48.11 0 0 1 24.42-5.9 41.41 41.41 0 0 1 15.58 3.35c.75.33 3.52 1.84 4.2 2.23l108.64 63.14c3.68 2.12 15.51 11.14 15.51 14.88 5.07 6.85 2 15.52-7.82 21.56-.19.12-.94.77-1.14.89l-58.44 56.69a47.71 47.71 0 0 1 -23.1 5.91c-7.2.05-13.92-1.44-19.06-4.41l-154.39-89.66c-6.19-3.58-9.42-8.93-9.19-14.72.23-6.19 4.4-12.16 11.79-16.43z" opacity=".55"/><path d="m675.45 663.48 93-37.53a47.08 47.08 0 0 1 24-5.74 40.31 40.31 0 0 1 15.27 3.4c.6.27 3.57 1.9 4.11 2.22l106.69 62c3 1.71 16 11 16 14 5.92 6.55 3.25 15.33-6.78 21.44-.15.09-.95.82-1.11.91l-58.35 56.6a46.52 46.52 0 0 1 -22.45 5.75c-7 .06-13.54-1.37-18.53-4.25l-154.45-89.69c-5.88-3.39-8.86-8.4-8.6-13.78.27-5.72 4.2-11.29 11.2-15.33z" opacity=".64"/><path d="m676 664.5 93-37.5a46 46 0 0 1 23.55-5.58 39.26 39.26 0 0 1 15 3.45c.44.2 3.6 2 4 2.2l104.73 60.83c2.21 1.28 16.43 10.83 16.43 13.07 6.77 6.26 4.44 15.14-5.73 21.32-.12.07-1 .86-1.09.93l-58.26 56.51a45.54 45.54 0 0 1 -21.8 5.6c-6.78.06-13.17-1.31-18-4.1l-154.39-89.66c-5.56-3.21-8.31-7.88-8-12.85.3-5.24 3.99-10.4 10.56-14.22z" opacity=".73"/><path d="m676.63 665.52 93-37.53a44.74 44.74 0 0 1 23.12-5.42 38.13 38.13 0 0 1 14.64 3.5c.3.14 3.65 2 3.92 2.19l102.76 59.74c1.48.85 16.9 10.67 16.9 12.17 7.6 6 5.63 14.94-4.7 21.19-.07 0-1 .9-1.06.95l-58.21 56.4a44.35 44.35 0 0 1 -21.15 5.44c-6.57.07-12.8-1.24-17.48-3.94l-154.37-89.66c-5.24-3-7.75-7.35-7.41-11.91.41-4.77 3.83-9.53 10.04-13.12z" opacity=".82"/><path d="m677.22 666.54 93-37.53a43.62 43.62 0 0 1 22.69-5.25 37 37 0 0 1 14.33 3.54l3.82 2.18 100.81 58.58c.74.43 17.36 10.51 17.36 11.26 8.45 5.66 6.82 14.75-3.65 21.07 0 0-1 1-1.05 1l-58.07 56.33a43.11 43.11 0 0 1 -20.46 5.28c-6.36.08-12.42-1.17-17-3.78l-154.38-89.69c-4.92-2.84-7.2-6.82-6.82-11s3.6-8.63 9.42-11.99z" opacity=".91"/><path d="m829.59 778.17-154.39-89.66c-9.29-5.37-8.13-14.75 2.61-21l93-37.53c10.73-6.2 27-6.87 36.27-1.5l120.4 70c9.3 5.37 8.13 14.75-2.61 21l-59 57.23c-10.74 6.16-26.98 6.83-36.28 1.46z"/></g><path d="m829.59 778-154.39-89.71c-4.14-2.39-6.2-5.58-6.27-8.93v-11.66c.07-4.07 3.08 3 8.88-.35l93-37.54c10.73-6.19 27-6.87 36.27-1.5l120.4 70c3.1 1.79 5.35-5.82 6.16-3.4.27.81.1 11.48.11 12.31.09 4.17-2.92 8.59-8.88 12l-59 57.23c-10.74 6.2-26.98 6.87-36.28 1.55z" fill="url(#b)"/><path d="m829.59 766.51-154.39-89.67c-9.29-5.37-8.13-14.74 2.61-20.94l93-37.53c10.73-6.2 27-6.87 36.27-1.51l120.4 70c9.3 5.37 8.13 14.74-2.61 20.94l-59 57.23c-10.74 6.17-26.98 6.85-36.28 1.48z" fill="url(#c)"/><path d="m924.86 705.83-59 57.23c-10.73 6.2-27 6.87-36.27 1.5l-154.39-89.66c-3.85-2.23-5.88-5.15-6.2-8.24-.48 3.8 1.55 7.49 6.2 10.18l154.39 89.67c9.3 5.37 25.54 4.69 36.27-1.51l59-57.23c6.29-3.62 9.26-8.34 8.81-12.7-.48 3.78-3.45 7.67-8.81 10.76z" fill="url(#d)" opacity=".6"/><path d="m1059.65 737.66h-2.09v-290c0-25.48-15.51-55.16-34.57-66.16l-379.17-219.07 1-1.81 379.18 219.09c19.64 11.34 35.62 41.83 35.62 68z" fill="url(#e)"/><path d="m1019.93 959.27c-6.1 0-11.92-1.23-16.27-3.74l-154.39-89.66 1.05-1.81 154.39 89.67c9 5.17 24.68 4.52 35.12-1.45l101.73-60.49 1.44 1.51-102 60.7a43.23 43.23 0 0 1 -21.07 5.27z" fill="url(#f)"/><path d="m1145.91 858.94c0 4.46-3.23 9.15-9.59 12.83l-96.48 56c-11.63 6.71-29.21 7.44-39.28 1.63l-191.16-110.4c-4.87-2.81-7.06-6.64-6.74-10.6a5.91 5.91 0 0 0 -.06.7v12.63c.08 3.62 2.31 7.07 6.8 9.66l191.16 110.4c10.07 5.81 27.65 5.08 39.28-1.63l96.48-56c6.45-3.72 9.71-8.51 9.61-13-.01-.79.12-9.11-.02-12.22z" fill="url(#g)" opacity=".2"/><g opacity=".2"><path d="m1025.66 939.83c-9.31 0-17.75-2-24.42-5.89l-194.82-112.5c-8.91-5.14-14-13.28-14-22.32 0-9.91 6.15-19.15 16.87-25.34l98.55-57.17a60.14 60.14 0 0 1 29.66-7.54c9.3 0 17.75 2 24.42 5.89l194.82 112.5c8.9 5.14 14 13.27 14 22.32 0 9.91-6.15 19.14-16.87 25.33l-98.56 57.18a60.13 60.13 0 0 1 -29.65 7.54z" opacity="0"/><path d="m809.55 775.47 92.17-53.47c.22-.12 6.64-3.81 6.88-3.89 8.64-4.73 19.37-6.49 29.84-6.7 8.46-.17 17.9 2.87 24 6.37l192.73 111.29c8.55 4.94 13.39 12.69 13.35 21.28 0 9.38-5.93 18.17-16.21 24.1l-97.61 56.64a61 61 0 0 1 -9.58 4.38 62.71 62.71 0 0 1 -19.7 3.39c-9.19.07-17.61-1.89-24.2-5.69l-194.53-112.32c-8.55-4.94-13.39-12.69-13.35-21.28.04-9.39 5.92-18.17 16.21-24.1z" opacity=".09"/><path d="m809.81 777.15 92.61-53.73c.42-.24 6.46-3.67 7-3.83 8.85-4.6 19.78-5.44 30-5.86 7.61-.31 18.05 3.7 23.5 6.85l190.64 110.08c8.19 4.73 12.77 12.11 12.69 20.24-.08 8.86-5.7 17.19-15.54 22.88l-96.71 56.08a68.2 68.2 0 0 1 -9.45 4.43 62 62 0 0 1 -19.44 3.57c-9.09.16-17.49-1.72-24-5.48l-194.11-112.12c-8.19-4.73-12.77-12.1-12.69-20.23.04-8.87 5.69-17.2 15.5-22.88z" opacity=".18"/><path d="m810.08 778.83 93-54c.63-.37 6.28-3.54 7-3.78 9.06-4.47 20.17-4.39 30.21-5 6.75-.43 18.19 4.53 23 7.33l188.54 108.88c7.84 4.52 12.15 11.51 12 19.19-.13 8.34-5.48 16.22-14.88 21.65l-95.74 55.54a77.54 77.54 0 0 1 -9.31 4.46 61.28 61.28 0 0 1 -19.19 3.77c-9 .23-17.37-1.57-23.78-5.28l-193.7-111.91c-7.83-4.53-12.15-11.52-12-19.2.1-8.34 5.45-16.22 14.85-21.65z" opacity=".27"/><path d="m810.35 780.52 93.47-54.23c.84-.49 6.1-3.4 7.08-3.71 9.28-4.35 20.55-3.34 30.4-4.19 5.9-.51 18.34 5.36 22.58 7.81l186.45 107.67c7.48 4.32 11.53 10.93 11.37 18.16-.17 7.81-5.25 15.24-14.21 20.41l-94.8 55a94.12 94.12 0 0 1 -9.18 4.5 60.67 60.67 0 0 1 -19 4c-8.88.31-17.23-1.42-23.57-5.08l-193.44-111.77c-7.48-4.32-11.53-10.93-11.37-18.16.17-7.81 5.26-15.24 14.22-20.41z" opacity=".36"/><path d="m810.61 782.2 93.9-54.48a80.18 80.18 0 0 1 7.16-3.65c9.49-4.21 20.91-2.29 30.58-3.35 5-.56 18.49 6.19 22.13 8.29l184.35 106.46c7.12 4.11 10.91 10.34 10.71 17.12-.21 7.29-5 14.26-13.55 19.18l-93.89 54.46c-1.64.94-7.2 3.83-9 4.54a60.16 60.16 0 0 1 -18.69 4.15c-8.78.38-17.11-1.27-23.36-4.88l-193.18-111.54c-7.12-4.11-10.91-10.34-10.7-17.11.2-7.29 5.03-14.27 13.54-19.19z" opacity=".45"/><path d="m810.88 783.89 94.33-54.73a67.61 67.61 0 0 1 7.23-3.6c9.7-4.08 21.25-1.23 30.77-2.51 4.19-.56 18.63 7 21.66 8.78l182.27 105.25c6.76 3.9 10.28 9.75 10 16.07-.25 6.76-4.81 13.29-12.88 18l-92.89 53.85c-1.36.78-7.37 4-8.91 4.58a59.63 59.63 0 0 1 -18.45 4.34c-8.67.46-17-1.11-23.14-4.67l-192.87-111.34c-6.76-3.9-10.29-9.75-10-16.07.25-6.77 4.8-13.29 12.88-17.95z" opacity=".55"/><path d="m811.15 785.57 94.76-55a59.18 59.18 0 0 1 7.29-3.54c9.92-3.95 21.59-.17 31-1.67 3.34-.54 18.78 7.86 21.21 9.26l180.17 104c6.4 3.7 9.66 9.16 9.38 15-.29 6.24-4.58 12.32-12.22 16.73l-92 53.37c-1.09.62-7.55 4.12-8.78 4.62a58.84 58.84 0 0 1 -18.19 4.53c-8.56.53-16.85-1-22.93-4.47l-192.53-111.07c-6.4-3.7-9.67-9.17-9.38-15 .29-6.28 4.58-12.33 12.22-16.76z" opacity=".64"/><path d="m811.42 787.25 95.19-55.25a50.19 50.19 0 0 1 7.36-3.48c10.14-3.83 22.37-4.22 31.14-.84 2.54 0 18.93 8.69 20.75 9.74l178.08 102.83c6 3.5 9 8.58 8.72 14-.33 5.72-4.36 11.34-11.55 15.5l-91 52.82c-.82.48-7.73 4.29-8.65 4.67a58.61 58.61 0 0 1 -18 4.72c-8.45.61-16.71-.81-22.71-4.27l-192.17-111c-6.05-3.49-9-8.57-8.72-14 .34-5.69 4.36-11.28 11.56-15.44z" opacity=".73"/><path d="m811.68 788.94 95.62-55.48a45.82 45.82 0 0 1 7.44-3.42c10.35-3.7 22.79-3.81 31.33 0 1.69 0 19.07 9.52 20.29 10.22l176 101.62c5.69 3.29 8.43 8 8.06 13-.37 5.19-4.13 10.36-10.89 14.26l-90.11 52.28c-.54.32-7.91 4.45-8.51 4.71-5.42 2.31-11.44 4.39-17.7 4.91-8.35.68-16.59-.66-22.5-4.07l-191.85-110.82c-5.7-3.28-8.43-8-8.07-12.95.38-5.2 4.14-10.36 10.89-14.26z" opacity=".82"/><path d="m812 790.62 96-55.73a41.84 41.84 0 0 1 7.51-3.36c10.56-3.57 23.22-3.39 31.51.84.85 0 19.22 10.35 19.83 10.7l173.89 100.42c5.34 3.08 7.81 7.4 7.4 11.91-.42 4.67-3.91 9.39-10.22 13l-89.18 51.74c-.27.16-8.07 4.61-8.38 4.74-5.33 2.34-11.26 4.53-17.45 5.11-8.24.76-16.46-.5-22.29-3.87l-191.49-110.55c-5.34-3.08-7.81-7.4-7.4-11.91.41-4.66 3.91-9.39 10.27-13.04z" opacity=".91"/><path d="m1000.56 925.37-191.16-110.37c-10.07-5.81-8.81-16 2.82-22.68l96.48-56c11.62-6.71 29.21-7.44 39.27-1.63l191.17 110.39c10.07 5.81 8.8 16-2.82 22.68l-96.48 56c-11.63 6.69-29.21 7.42-39.28 1.61z"/></g><path d="m1000.56 925.14-191.16-110.39c-4.49-2.59-6.72-6-6.8-9.67v-12.63c.08-4.41 3.34 3.24 9.62-.38l96.48-56c11.62-6.71 29.21-7.44 39.27-1.63l191.17 110.4c3.36 1.94 5.8-6.3 6.67-3.68.29.87.11 12.43.12 13.33.1 4.51-3.16 9.3-9.61 13l-96.48 56c-11.63 6.73-29.21 7.51-39.28 1.65z" fill="url(#h)"/><path d="m1000.56 912.74-191.16-110.39c-10.07-5.81-8.81-16 2.82-22.67l96.48-56c11.62-6.71 29.21-7.44 39.27-1.63l191.17 110.39c10.07 5.81 8.8 16-2.82 22.68l-96.48 56c-11.63 6.71-29.21 7.44-39.28 1.62z" fill="url(#i)"/><path d="m1000.56 906-191.16-110.44c-4.49-2.59-6.72-6-6.8-9.67v-12.63c.08-4.4 3.34 3.25 9.62-.38l96.48-56c11.62-6.71 29.21-7.44 39.27-1.63l191.17 110.39c3.36 1.94 5.8-6.29 6.67-3.68.29.88.11 12.43.12 13.33.1 4.52-3.16 9.3-9.61 13l-96.48 56c-11.63 6.71-29.21 7.47-39.28 1.71z" fill="url(#j)"/><path d="m1136.32 853-96.48 56c-11.63 6.71-29.21 7.44-39.28 1.63l-191.16-110.38c-4.18-2.41-6.38-5.58-6.72-8.93-.52 4.12 1.67 8.12 6.72 11l191.16 110.39c10.07 5.81 27.65 5.09 39.28-1.63l96.48-56c6.8-3.93 10-9 9.54-13.76-.52 4.16-3.74 8.36-9.54 11.68z" fill="url(#k)" opacity=".6"/><path d="m1000.56 902.75-191.16-110.39c-4.49-2.59-6.72-6-6.8-9.66v-12.63c.08-4.41 3.34 3.24 9.62-.38l96.48-56c11.62-6.71 29.21-7.44 39.27-1.63l191.17 110.39c3.36 1.94 5.8-6.29 6.67-3.67.29.87.11 12.42.12 13.33.1 4.51-3.16 9.29-9.61 13l-96.48 56c-11.63 6.73-29.21 7.46-39.28 1.64z" fill="url(#l)"/><path d="m1145.81 818.8c-.87-2.62-3.31 5.61-6.67 3.67l-188.58-108.9v182.69l50 28.88c10.07 5.81 27.65 5.08 39.28-1.63l96.48-56c6.45-3.72 9.71-8.51 9.61-13-.02-.9.17-34.84-.12-35.71z" fill="url(#m)"/><path d="m1000.56 890.36-191.16-110.36c-10.07-5.81-8.81-16 2.82-22.68l96.48-56c11.62-6.71 29.21-7.44 39.27-1.62l191.17 110.39c10.07 5.81 8.8 16-2.82 22.67l-96.48 56c-11.63 6.68-29.21 7.41-39.28 1.6z" fill="url(#n)"/><path d="m1136.32 830.65-96.48 56c-11.63 6.71-29.21 7.44-39.28 1.62l-191.16-110.41c-4.18-2.41-6.38-5.57-6.72-8.92-.52 4.11 1.67 8.12 6.72 11l191.16 110.39c10.07 5.81 27.65 5.08 39.28-1.63l96.48-56c6.8-3.92 10-9 9.54-13.75-.52 4.15-3.74 8.35-9.54 11.7z" fill="url(#o)" opacity=".6"/><g fill="#a56ef4"><path d="m986.11 899.48c0 6.35-4.48 8.91-10 5.71s-10-10.92-10-17.27 4.48-8.9 10-5.71 10 10.93 10 17.27z" opacity=".05"/><path d="m985.78 899.34c0 6.18-4.36 8.67-9.75 5.56s-9.75-10.64-9.75-16.82 4.36-8.67 9.75-5.56 9.75 10.64 9.75 16.82z" opacity=".07"/><path d="m985.46 899.2c0 6-4.25 8.43-9.49 5.41s-9.49-10.36-9.49-16.37 4.25-8.44 9.49-5.41 9.49 10.35 9.49 16.37z" opacity=".1"/><path d="m985.13 899.05c0 5.85-4.13 8.21-9.23 5.26s-9.22-10.06-9.22-15.91 4.13-8.2 9.22-5.26 9.23 10.07 9.23 15.91z" opacity=".12"/><path d="m984.8 898.91c0 5.68-4 8-9 5.11s-9-9.78-9-15.46 4-8 9-5.11 9 9.78 9 15.46z" opacity=".14"/><path d="m984.48 898.77c0 5.51-3.9 7.73-8.7 5s-8.7-9.49-8.7-15 3.89-7.73 8.7-5 8.7 9.48 8.7 15z" opacity=".16"/><path d="m984.15 898.62c0 5.35-3.78 7.5-8.44 4.81s-8.43-9.2-8.43-14.55 3.77-7.5 8.43-4.81 8.44 9.21 8.44 14.55z" opacity=".19"/><path d="m983.82 898.48c0 5.18-3.66 7.27-8.17 4.66s-8.18-8.92-8.18-14.1 3.66-7.26 8.18-4.66 8.17 8.92 8.17 14.1z" opacity=".21"/><path d="m983.49 898.34c0 5-3.54 7-7.91 4.51s-7.91-8.63-7.91-13.65 3.55-7 7.91-4.51 7.91 8.63 7.91 13.65z" opacity=".23"/><path d="m983.17 898.19c0 4.85-3.43 6.8-7.65 4.36a16.84 16.84 0 0 1 -7.65-13.19c0-4.84 3.43-6.79 7.65-4.36s7.65 8.35 7.65 13.19z" opacity=".25"/><path d="m982.84 898.05c0 4.68-3.31 6.56-7.38 4.21a16.27 16.27 0 0 1 -7.39-12.74c0-4.67 3.31-6.56 7.39-4.21a16.3 16.3 0 0 1 7.38 12.74z" opacity=".28"/><path d="m982.51 897.91c0 4.51-3.18 6.33-7.12 4.06a15.7 15.7 0 0 1 -7.12-12.29c0-4.51 3.19-6.33 7.12-4a15.65 15.65 0 0 1 7.12 12.23z" opacity=".3"/></g><path d="m982.51 897.91c0 4.51-3.18 6.33-7.12 4.06a15.7 15.7 0 0 1 -7.12-12.29c0-4.51 3.19-6.33 7.12-4a15.65 15.65 0 0 1 7.12 12.23z" fill="url(#p)"/><path d="m979.58 894.56c0 3.22-2.28 4.52-5.08 2.89a11.18 11.18 0 0 1 -5.08-8.76c0-3.22 2.27-4.52 5.08-2.9a11.22 11.22 0 0 1 5.08 8.77z" fill="url(#q)"/><path d="m985.89 784.91-379.17-219.09c-19.38-11.19-35.1-41.22-35.1-67.06v-290c0-25.84 15.72-37.72 35.1-26.53l379.17 219.1c19.39 11.19 35.1 41.22 35.1 67.06v290c.01 25.83-15.71 37.71-35.1 26.52z" fill="url(#r)"/><path d="m990.41 764.72-373.82-216c-15.6-9.91-25.25-29.72-25.25-50v-291.85a6.22 6.22 0 0 1 9.37-5.36l1.1.64 374.19 216.25c18.57 10.7 25.25 29.72 25.25 50v291a6.72 6.72 0 0 1 -10 5.83z" fill="url(#s)"/><path d="m995.84 396-379.17-219c-7.67-4.42-14.76-5.24-20.54-3-.73.28-10.52 5.48-11.21 5.87 6-2.92 13.59-2.38 21.85 2.4l379.12 219.06c19.39 11.19 35.1 41.22 35.1 67.06v290c0 16.13-6.12 26.81-15.44 29.85a5.85 5.85 0 0 0 3.08-1c.44-.26 11.06-6.25 11.49-6.55 6.67-4.67 10.82-14.26 10.82-27.55v-290c0-25.88-15.72-55.9-35.1-67.14z" fill="url(#t)"/><path d="m987.57 400.49-379.16-219.09c-7.95-4.59-15.26-5.25-21.14-2.7 5-.8 10.79.41 16.93 4l379.16 219.05c19.39 11.19 35.1 41.22 35.1 67.06v290c0 15.25-5.49 25.58-14 29.23 10.83-1.71 18.17-12.84 18.17-30.5v-290c.04-25.84-15.63-55.86-35.06-67.05z" fill="url(#u)" opacity=".6"/><path d="m475.54 903.83c-49 18.66-71 4.43-104.59-15s-48.19-36-11.57-50.59c35.8-14.22 71.55.76 105.12 20.14s37.67 35.29 11.04 45.45z" opacity=".1"/><path d="m354.43 859s-2.46 9.44-.57 13.4 10.57 7.17 17.56 3.78 10-10.58 12.64-12.46 17.56-3.59 28.7-13 9.63-19.82-1.51-20-31.34 4.91-38.51 9.63-18.31 18.65-18.31 18.65z" fill="#10054d"/><path d="m359.71 869.16c8 1.66 18.12-5.28 22.84-9.25s13-1.89 23.79-10.38 14.54-14.35 9.63-17.18-22.77-2-36.74 5.53-23.29 13-23.29 13-3.4 10.38-1.7 12.65.94 4.69 5.47 5.63z" fill="url(#v)"/><path d="m361.31 614.56c-8.59 14.31-7.64 41.94-3.68 74.22s-2.26 97.13-3.68 120.06-9.39 51.12 2.27 56.92c6.7 3.34 18.69 1.42 28-9.34s11.33-21.24 10.2-23.22-2.83-10.76.85-29.74 11-65.13 10.47-80.13-5.94-85.52-5.94-85.52-29.9-37.57-38.49-23.25z" fill="url(#w)"/><path d="m413.7 892.57s-4.15 12.27.95 14.91 13 4.16 19.44 1.33 9.06-5.67 15.86-5.67 33.23-13 38.32-19.44 0-13.78-12.65-12.84-30.77 2.45-34 3.59-27.92 18.12-27.92 18.12z" fill="#10054d"/><path d="m419.37 901.63c11.86 1.4 15.67-1.89 26.62-4.15s42.08-14.89 41.52-21.88-7.73-5.49-13.77-4.93-25.3 1.89-26.81 1.89-32.85 14.16-32.85 14.16-2.26 10.19-.19 11.7 2.27 2.83 5.48 3.21z" fill="url(#x)"/><path d="m390.76 630.51a184.24 184.24 0 0 0 5.39 50.62c6.79 26.34 14.72 57.49 15 90.9s-3.68 119.79 1.42 124.6 23 6.46 30.3 1.13c11.81-8.66 18.12-21 17-25.2s-10.19-19.54-7.08-33.13 13.59-60.6 11.61-92.6-7.4-115.54-7.4-115.54z" fill="url(#y)"/><path d="m483.8 477.53s21.42-12.38 32.32-12 31.69 7.83 33.74 12.33c1.83 4-8 14.73-16.15 15.94s-9.52.48-16 1.9-21.47 4.81-29.62 3c-5.18-1.11-4.29-21.17-4.29-21.17z" fill="url(#z)"/><path d="m489.34 472.82a12.22 12.22 0 0 1 5.18 10.8c-.42 7.33-6.46 18.91-6.46 18.91l-72.68 1.4s-50.82 4.86-42.28-16.44 9.94-26.28 35.67-20.7c32.68 7.08 45.6 6.39 56.18 6.56s24.39-.53 24.39-.53z" fill="url(#A)"/><path d="m457.31 400.68c6.86 5.38 13.28 13.28 9.58 32.62s-5.46 28.61-9.84 30.3-6.61-1.07-9.49 3.69c-4.29 7.06-1.12 22.83-1.12 22.83l-12.95 2.49-27.31-29.14a20.28 20.28 0 0 0 3.09-13.63c-1.23-7.5-10.5-23.55 2.94-41.42s36.99-14.08 45.1-7.74z" fill="url(#B)"/><path d="m470 420.48c-.64 3.7-4.16 9.17-9.44 8.46s-9.09 4.91-8.54 8-.39 3.74-.39 3.74-3.53-2.35-5.91.36-10.5 21.15-17.72 20.21-16.71-3.74-19-8.05-11-19-2.85-37.82 28.8-26.69 44.85-19.86 19.92 19.72 19 24.96z" fill="url(#C)"/><path d="m421.23 472c-8.3-4.27-15.24-8.89-15.24-8.89s-6.61.05-14.57 0-19 5.66-22.41 20c-3.29 13.74-4.4 32.26-5.1 53.49-2.09 63.39-6.89 79.69-11.68 106.87-1.13 6.39 6.39 6.72 13.71 9.81 22.65 9.57 54.55 11.53 77.74 6.5 7.08-1.53 16.37-5.27 16.63-8 1.92-20.47-5-45.4-1.35-74.61 4.13-33.22 16.11-47.93 4.75-67.21-4.77-8.1-6.87-15.74-11.56-20.78-6.47-7-15.37-10.07-20.35-12.22-8.58-3.62-10.57-4.96-10.57-4.96z" fill="url(#D)"/><path d="m551.08 477.09h-1.37a7.76 7.76 0 0 0 -3-4c-5.69-3.28-14.87-3.3-20.52 0s-24.33 24.53-16.9 28.1c8 3.82 28.31-4.47 35.85-8.34 3.6-1.54 5.94-4 5.94-6.83v-.12z" fill="url(#E)"/><path d="m545.14 490c-7.54 3.87-27.89 12.15-35.85 8.33a2.86 2.86 0 0 1 -1.58-2c-.39 2.3 0 4.05 1.58 4.8 8 3.82 28.31-4.47 35.85-8.34 3.6-1.54 5.94-4 5.94-6.83v-.12-2.66c0 2.82-2.34 5.3-5.94 6.82z" fill="#8969c3"/><path d="m551.08 483.18v-.11z" fill="url(#F)"/><path d="m574.47 511.08-44.53-25.72 20.1-11.48 44.53 25.71z" fill="url(#G)"/><path d="m574.47 511.08-44.53-25.72.03 5.19 44.53 25.71z" fill="url(#H)"/><path d="m551.08 476.12h-29.14v1.53.12c0 4.68 6.52 8.48 14.57 8.48s14.57-3.8 14.57-8.48v-.12z" fill="url(#I)"/><path d="m551.08 476.58c0 4.68-6.52 8.48-14.57 8.48s-14.57-3.8-14.57-8.48 6.52-8.49 14.57-8.49 14.57 3.8 14.57 8.49z" fill="url(#J)"/><ellipse cx="536.51" cy="476.17" fill="url(#K)" rx="14.57" ry="8.49"/><path d="m544.64 489.48h-16.64v10.18.06c0 2.68 3.73 4.86 8.33 4.86s8.33-2.18 8.33-4.86v-.06z" fill="url(#L)"/><path d="m544.64 496.85v-.06z" fill="url(#M)"/><path d="m536.31 501.7c-4.6 0-8.33-2.17-8.33-4.85v2.81.06c0 2.68 3.73 4.86 8.33 4.86s8.33-2.18 8.33-4.86v-.06-2.81c0 2.68-3.73 4.85-8.33 4.85z" fill="#8969c3"/><path d="m544.64 489.75c0 2.67-3.73 4.85-8.33 4.85s-8.33-2.18-8.33-4.85 3.73-4.86 8.33-4.86 8.33 2.18 8.33 4.86z" fill="url(#N)"/><path d="m544.64 489.52c0 2.68-3.73 4.85-8.33 4.85s-8.31-2.17-8.31-4.85 3.73-4.85 8.33-4.85 8.31 2.17 8.31 4.85z" fill="url(#O)"/><path d="m542.91 489.54c0 2.12-2.95 3.84-6.6 3.84s-6.6-1.72-6.6-3.84 3-3.84 6.6-3.84 6.6 1.72 6.6 3.84z" fill="url(#P)"/><path d="m541 492.27v-5.45a8.38 8.38 0 0 0 -2.86-1h-3.6a8.33 8.33 0 0 0 -2.85 1v5.45a10.32 10.32 0 0 0 9.31 0z" fill="url(#Q)"/><path d="m542.91 489.54c0 2.12-2.95 3.84-6.6 3.84s-6.6-1.72-6.6-3.84 3-3.84 6.6-3.84 6.6 1.72 6.6 3.84z" fill="url(#R)"/><path d="m543.56 485.55h-14.49v2.11.06c0 2.33 3.24 4.22 7.24 4.22s7.25-1.89 7.25-4.22c0 0 0 0 0-.06z" fill="url(#S)"/><path d="m543.56 485.78c0 2.33-3.25 4.22-7.25 4.22s-7.24-1.89-7.24-4.22 3.24-4.22 7.24-4.22 7.25 1.89 7.25 4.22z" fill="url(#T)"/><path d="m543.56 485.58c0 2.33-3.25 4.22-7.25 4.22s-7.24-1.89-7.24-4.22 3.24-4.22 7.24-4.22 7.25 1.89 7.25 4.22z" fill="url(#U)"/><path d="m565.12 510.22-24.86-14.26 10.23-5.91 24.86 14.26z" fill="url(#V)"/><path d="m565.12 510.22-24.86-14.26.03 7.97 24.86 14.26z" fill="url(#W)"/><path d="m565.12 515.27-24.86-14.26.03 2.92 24.86 14.26z" fill="#8969c3"/><path d="m566.85 495.98-18.51-10.69 7.8-4.5 18.5 10.69z" fill="url(#X)"/><g fill="#8969c3"><path d="m530.53 474.07-2.37-1.37 3.28-1.89 2.37 1.37.53 2.19z"/><path d="m541.74 476.76 2.37 1.37-3.27 1.89-2.37-1.37-.54-2.18z"/><path d="m533.84 478.65-2.35 1.35-3.3-1.9 2.36-1.36 3.78-.29z"/><path d="m538.43 472.19 2.36-1.36 3.29 1.9-2.35 1.36-3.79.3z"/></g><path d="m530.88 474.57-2.37-1.37 3.27-1.89 2.37 1.37.53 2.18z" fill="url(#Y)"/><path d="m542.09 477.26 2.37 1.37-3.28 1.89-2.37-1.37-.53-2.19z" fill="url(#Z)"/><path d="m534.19 479.14-2.36 1.36-3.29-1.9 2.35-1.36 3.79-.3z" fill="url(#aa)"/><path d="m538.78 472.69 2.35-1.37 3.3 1.91-2.36 1.36-3.78.29z" fill="url(#ab)"/><path d="m567.89 502.18h-16.66v10.18.06c0 2.68 3.73 4.86 8.33 4.86s8.33-2.18 8.33-4.86v-.06z" fill="url(#ac)"/><path d="m567.89 509.55v-.06z" fill="url(#ad)"/><path d="m559.56 514.4c-4.6 0-8.33-2.17-8.33-4.85v2.81.06c0 2.68 3.73 4.86 8.33 4.86s8.33-2.18 8.33-4.86v-.06-2.81c0 2.68-3.73 4.85-8.33 4.85z" fill="#8969c3"/><path d="m567.89 502.45c0 2.68-3.73 4.85-8.33 4.85s-8.33-2.17-8.33-4.85 3.73-4.86 8.33-4.86 8.33 2.18 8.33 4.86z" fill="url(#ae)"/><path d="m567.89 502.22c0 2.68-3.73 4.85-8.33 4.85s-8.33-2.17-8.33-4.85 3.73-4.85 8.33-4.85 8.33 2.17 8.33 4.85z" fill="url(#af)"/><path d="m566.16 502.24c0 2.12-2.95 3.85-6.6 3.85s-6.6-1.73-6.6-3.85 2.95-3.84 6.6-3.84 6.6 1.72 6.6 3.84z" fill="url(#ag)"/><path d="m564.21 505v-5.45a8.33 8.33 0 0 0 -2.85-1h-3.6a8.33 8.33 0 0 0 -2.85 1v5.45a10.21 10.21 0 0 0 9.3 0z" fill="url(#ah)"/><path d="m566.16 502.24c0 2.12-2.95 3.85-6.6 3.85s-6.6-1.73-6.6-3.85 2.95-3.84 6.6-3.84 6.6 1.72 6.6 3.84z" fill="url(#ai)"/><path d="m566.8 498.25h-14.48v2.11.06c0 2.33 3.24 4.22 7.24 4.22s7.24-1.89 7.24-4.22v-.06z" fill="url(#aj)"/><path d="m566.8 498.48c0 2.33-3.24 4.22-7.24 4.22s-7.24-1.89-7.24-4.22 3.24-4.22 7.24-4.22 7.24 1.89 7.24 4.22z" fill="url(#ak)"/><path d="m566.8 498.28c0 2.33-3.24 4.22-7.24 4.22s-7.24-1.89-7.24-4.22 3.24-4.22 7.24-4.22 7.24 1.94 7.24 4.22z" fill="url(#al)"/><path d="m596.64 503.93h-1.38a7.7 7.7 0 0 0 -3-4c-5.68-3.28-14.87-3.3-20.52 0s-24.32 24.53-16.9 28.1c8 3.81 28.31-4.47 35.86-8.34 3.6-1.54 5.94-4 5.94-6.84 0 0 0-.07 0-.11z" fill="url(#am)"/><path d="m590.7 516.86c-7.55 3.87-27.9 12.15-35.86 8.33a2.84 2.84 0 0 1 -1.57-2c-.4 2.3 0 4 1.57 4.8 8 3.81 28.31-4.47 35.86-8.34 3.6-1.54 5.94-4 5.94-6.84 0 0 0-.07 0-.11v-2.7c0 2.83-2.34 5.31-5.94 6.86z" fill="#8969c3"/><path d="m596.64 510v-.12s0 .12 0 .12z" fill="url(#an)"/><path d="m596.64 503h-29.15v1.54s0 .08 0 .11c0 4.69 6.53 8.49 14.57 8.49s14.58-3.8 14.58-8.49c0 0 0-.07 0-.11z" fill="url(#ao)"/><ellipse cx="582.06" cy="503.41" fill="url(#ap)" rx="14.57" ry="8.49"/><path d="m596.64 503c0 4.69-6.53 8.49-14.58 8.49s-14.57-3.8-14.57-8.49 6.53-8.48 14.57-8.48 14.58 3.81 14.58 8.48z" fill="url(#aq)"/><g fill="#8969c3"><path d="m588 501a4.42 4.42 0 0 1 -4 0 1.22 1.22 0 0 1 0-2.31 4.42 4.42 0 0 1 4 0 1.22 1.22 0 0 1 0 2.31z"/><path d="m579.55 505.88a4.42 4.42 0 0 1 -4 0c-1.11-.64-1.12-1.68 0-2.31a4.44 4.44 0 0 1 4 0c1.09.65 1.1 1.68 0 2.31z"/><path d="m579.51 498.68c1.11.64 1.11 1.67 0 2.3a4.42 4.42 0 0 1 -4 0 1.22 1.22 0 0 1 0-2.31 4.39 4.39 0 0 1 4 .01z"/><path d="m588 503.59a1.22 1.22 0 0 1 0 2.31 4.44 4.44 0 0 1 -4 0c-1.1-.64-1.11-1.67 0-2.3a4.41 4.41 0 0 1 4-.01z"/></g><path d="m588.31 501.52a4.42 4.42 0 0 1 -4 0c-1.11-.64-1.12-1.67 0-2.31a4.44 4.44 0 0 1 4 0 1.22 1.22 0 0 1 0 2.31z" fill="url(#ar)"/><path d="m579.85 506.4a4.44 4.44 0 0 1 -4 0 1.22 1.22 0 0 1 0-2.31 4.41 4.41 0 0 1 4 0c1.09.65 1.15 1.68 0 2.31z" fill="url(#as)"/><path d="m579.81 499.2c1.11.64 1.11 1.67 0 2.3a4.42 4.42 0 0 1 -4 0 1.22 1.22 0 0 1 0-2.31 4.41 4.41 0 0 1 4 .01z" fill="url(#at)"/><path d="m588.32 504.11c1.11.64 1.12 1.67 0 2.31a4.44 4.44 0 0 1 -4 0c-1.1-.64-1.11-1.67 0-2.3a4.39 4.39 0 0 1 4-.01z" fill="url(#au)"/><path d="m558.77 523.87a49.5 49.5 0 0 1 11-13.55c3.53-3.11 6-7.33 7.82-5.72s-8.59 18.63-8.59 18.63z" fill="url(#av)"/><path d="m550.09 544s21.55-.39 30.46-2.22c4.77-1 10.14-3.65 16.2-10.14 2.83-3 7.91-11 6.69-12.89-.56-.86-7.63 8.27-7.63 8.27s9.25-10.15 7.58-13.28c-1.28-2.43-8.43 7.76-8.43 7.76s9.49-10.5 8.43-14.22c-1-3.41-9.35 8.69-9.35 8.69s9-11.35 8.25-13.49c-1.5-4.17-8.23 6.22-10.63 8.25-2.8 2.37-9.47 7.71-16.07 9-7 1.35-12.43-1.33-16.68 2.74s-11.83 4.53-11.83 4.53z" fill="url(#aw)"/><path d="m436.23 515c-8.42 6.67-8.44 18.43-.81 26.19s46.75 25.08 58.64 25.42 60-19.39 60-19.39-.39-8.92-2.37-14.63-5.93-6.58-5.93-6.58-33.71 12.78-44.25 12.2-27.69-12.21-38.65-18.41c-12.02-6.8-18.5-11.21-26.63-4.8z" fill="url(#ax)"/><path d="m514.94 467.44c5.2 1.65 12.68 1.55 16.86 2.65s7.3-.69 8.61.84 1.69 6.35-8.17 6.31-15.52-.27-21.08 1.19-13.45 3.55-16.16.93.3-7.58.3-7.58z" fill="url(#ay)"/><g opacity=".3"><path d="m508.85 1100.17-359.67-208.17c-11-6.36-9.64-17.46 3.08-24.8l150.66-86.8c12.72-7.34 31.95-8.14 43-1.78l359.63 208.15c11 6.36 9.63 17.47-3.08 24.81l-150.66 86.81c-12.72 7.35-31.95 8.14-42.96 1.78z" opacity=".1"/><path d="m508.56 1098.17-356.56-206.36c-10.83-6.25-9.47-17.17 3-24.38l148.11-85.35c12.5-7.22 31.41-8 42.23-1.75l356.6 206.36c10.83 6.25 9.47 17.16-3 24.38l-148.14 85.35c-12.5 7.21-31.41 8-42.24 1.75z" opacity=".16"/><path d="m508.28 1096.16-353.45-204.56c-10.63-6.14-9.3-16.87 3-24l145.57-83.88c12.28-7.09 30.86-7.86 41.5-1.72l353.43 204.6c10.64 6.14 9.3 16.87-3 24l-145.56 83.88c-12.27 7.05-30.85 7.82-41.49 1.68z" opacity=".21"/><path d="m508 1094.16-350.34-202.77c-10.45-6-9.14-16.57 2.93-23.54l143-82.41c12.07-7 30.33-7.72 40.78-1.69l350.35 202.76c10.45 6 9.14 16.58-2.93 23.55l-143 82.41c-12.08 6.96-30.34 7.72-40.79 1.69z" opacity=".27"/><path d="m507.71 1092.15-347.22-201c-10.26-5.92-9-16.28 2.88-23.12l140.46-80.94c11.85-6.84 29.79-7.59 40.05-1.66l347.22 201c10.27 5.92 9 16.28-2.87 23.12l-140.46 80.94c-11.86 6.84-29.77 7.59-40.06 1.66z" opacity=".33"/><path d="m507.43 1090.14-344.11-199.14c-10.08-5.82-8.81-16 2.83-22.7l137.91-79.5c11.64-6.72 29.24-7.45 39.32-1.63l344.11 199.17c10.08 5.82 8.82 16-2.82 22.7l-137.91 79.47c-11.64 6.72-29.25 7.49-39.33 1.63z" opacity=".39"/><path d="m507.15 1088.14-341-197.38c-9.89-5.71-8.65-15.69 2.77-22.28l135.36-78c11.43-6.6 28.71-7.31 38.6-1.6l341 197.37c9.89 5.71 8.65 15.69-2.77 22.29l-135.36 78c-11.43 6.59-28.75 7.31-38.6 1.6z" opacity=".44"/><path d="m506.87 1086.13-337.87-195.58c-9.71-5.6-8.49-15.39 2.72-21.86l132.81-76.53c11.21-6.47 28.17-7.17 37.87-1.57l337.87 195.58c9.7 5.6 8.49 15.39-2.72 21.86l-132.81 76.53c-11.21 6.44-28.17 7.17-37.87 1.57z" opacity=".5"/><path d="m506.58 1084.12-334.77-193.78c-9.52-5.49-8.33-15.09 2.67-21.44l130.26-75.06c11-6.35 27.62-7 37.14-1.54l334.78 193.78c9.52 5.5 8.32 15.1-2.67 21.44l-130.26 75.06c-11 6.35-27.63 7.04-37.15 1.54z" opacity=".56"/><path d="m506.3 1082.12-331.66-192c-9.33-5.39-8.16-14.81 2.62-21l127.74-73.6c10.77-6.22 27.08-6.9 36.41-1.51l331.59 191.99c9.34 5.39 8.17 14.8-2.61 21l-127.71 73.59c-10.74 6.24-27.05 6.92-36.38 1.53z" opacity=".61"/><path d="m506 1080.11-328.53-190.18c-9.15-5.29-8-14.51 2.56-20.61l125.16-72.12c10.57-6.1 26.55-6.76 35.69-1.48l328.55 190.18c9.15 5.29 8 14.51-2.56 20.61l-125.16 72.12c-10.57 6.1-26.54 6.76-35.71 1.48z" opacity=".67"/><path d="m505.73 1078.1-325.43-188.38c-9-5.18-7.84-14.22 2.51-20.19l122.61-70.65c10.35-6 26-6.62 35-1.45l325.4 188.39c9 5.17 7.84 14.21-2.51 20.18l-122.61 70.66c-10.35 5.97-26 6.62-34.97 1.44z" opacity=".73"/></g><path d="m508.43 1066.05h25v15 .1c0 4-5.59 7.27-12.49 7.27s-12.48-3.26-12.48-7.27v-.1z" fill="url(#az)"/><path d="m675.21 983.72h-25v15 .1c0 4 5.59 7.27 12.49 7.27s12.48-3.26 12.48-7.27v-.1z" fill="url(#aA)"/><path d="m187.29 864.92h-25v15s0 .07 0 .1c0 4 19.39 7.27 12.49 7.27 6.9 0 12.49-3.25 12.49-7.27 0 0 0-.06 0-.1z" fill="url(#aB)"/><path d="m521.43 1038.19v41.23l160.89-92.26v-41.24z" fill="url(#aC)"/><path d="m521.5 1038.19v41.23l-365.58-212.15v-41.15z" fill="url(#aD)"/><path d="m155.92 826.12 365.58 212.07 160.82-92.27-365.73-212.15z" fill="url(#aE)"/><path d="m521.43 1035.31v37.4l160.89-92.27v-37.39z" fill="url(#aF)"/><path d="m521.5 1035.31v37.4l-365.58-212.15v-37.32z" fill="url(#aG)"/><path d="m155.92 823.24 365.58 212.07 160.82-92.26-365.73-212.16z" fill="url(#aH)"/><path d="m338.39 678.57-25.91-15.33c-5.19-3.78-11.7-5.56-17.88-2l-138.07 79.17v83.15l160.88-92.26v-35.56z" fill="url(#aI)"/><path d="m186.27 758.31v83.16l160.88-92.26v-56.87a15.23 15.23 0 0 0 -22.81-13.21z" fill="url(#aJ)"/><path d="m186.34 758.31v83.16l-30.3-17.88v-83.08z" fill="url(#aK)"/><path d="m602.94 738.84s22.27-12.28 33.46-11.69 32.4 8.71 34.41 13.38c1.79 4.16-8.49 15-16.94 16s-9.78.29-16.43 1.62-20.55 2.52-26 2-8.5-21.31-8.5-21.31z" fill="url(#aL)"/><path d="m608.73 735a12.54 12.54 0 0 1 5.09 11.2c-.58 7.52-7 19.3-7 19.3l-74.7-.1s-52.33 3.92-43.1-17.79 10.76-26.78 37.09-20.51c33.43 8 46.72 7.52 57.58 7.92s25.04-.02 25.04-.02z" fill="url(#aM)"/><path d="m513.81 837.84c7.67-3.2 49.89-26.09 62.67-22.38 19.83 5.75 58.2 43.48 58.2 43.48s-99.77 71.63-135.58 45.41 14.71-66.51 14.71-66.51z" fill="url(#aN)"/><path d="m553.46 858.3c7.67-3.19 49.4-23.41 62.67-22.38 30.6 2.38 51.06 45 51.06 45s-84.31 70.08-128.44 43.9 14.71-66.52 14.71-66.52z" fill="url(#aO)"/><path d="m577.28 661.29c7.16 5 14 12.52 11.39 32s-3.87 28.87-8.15 30.8-6.8-1-8.42 4.28-5.65 19.9-5.65 19.9l-29.11-12.75-10.43-12.12s6.78-3 5.14-10.38-11.79-22.93.64-41.52 36.14-16.09 44.59-10.21z" fill="url(#aP)"/><path d="m591.07 680.35c-.44 3.73-3.64 9.39-9 9s-8.8 5.41-8.08 8.51-.18 3.75-.18 3.75-3.65-2.15-5.88.69-.92 9.81-.14 12.52-9.18 9.14-16.47 8.61-16.89-2.81-19.43-7-12.05-18.43-4.89-37.62 27.27-28.24 43.68-22.32 21 18.58 20.39 23.86z" fill="url(#aQ)"/><path d="m542.89 734.44a74.87 74.87 0 0 1 -15.43-11.15s-7.78.07-15.74 0-19 5.67-22.41 20c-3.3 13.74-2.52 34.53-3.75 55.74-4.12 71.4-17.3 75.28 4.39 86.87s53.16 18.86 71.3 3.56 15.23-16.65 19.36-49.86 16.12-47.93 4.76-67.21-23.32-29.29-31.91-33-10.57-4.95-10.57-4.95z" fill="url(#aR)"/><path d="m525.08 862.65-299.14-176.27c-5.19-3.77-11.7-5.56-17.88-2l-15.2 8.93v143l38-22 273.24 65.5z" fill="url(#aS)"/><path d="m495.83 872.14v143l38-22v-116.72a15.23 15.23 0 0 0 -22.83-13.21z" fill="url(#aT)"/><path d="m495.9 872.14v142.96l-303.53-178.82v-142.87z" fill="url(#aU)"/><path d="m491.03 875.36v144l5.87-3.49v-144z" fill="url(#aV)"/><path d="m491.11 875.36v144l-304.52-178.02v-143.92z" fill="url(#aW)"/><path d="m186.59 697.42 304.52 177.94 5.79-3.49-304.66-178.02z" fill="url(#aX)"/><path d="m190.15 700.09 300.96 175.27.32 57.13 2.34-56.33 17.26-12.95-18.7 8.63z" fill="#d75fff"/><path d="m673.56 874.48-25.91-15.33c-5.19-3.78-11.7-5.56-17.88-2l-138.08 79.16v83.16l160.89-92.26v-35.57z" fill="url(#aY)"/><path d="m521.43 954.22v83.16l160.89-92.26v-56.87a15.23 15.23 0 0 0 -22.81-13.25z" fill="url(#aZ)"/><path d="m521.5 954.22v83.16l-30.29-17.88v-83.08z" fill="url(#a0)"/><path d="m676.76 739.48h-1.55a8.7 8.7 0 0 0 -3.37-4.52c-6.39-3.69-16.72-3.71-23.07 0s-27.33 27.57-19 31.57c9 4.3 31.82-5 40.3-9.36 4-1.74 6.68-4.53 6.68-7.69 0 0 0-.09 0-.13z" fill="url(#a1)"/><path d="m670.08 754c-8.48 4.35-31.35 13.66-40.3 9.37a3.25 3.25 0 0 1 -1.78-2.27c-.44 2.59 0 4.55 1.77 5.39 9 4.3 31.82-5 40.3-9.36 4-1.74 6.68-4.53 6.68-7.69 0 0 0-.09 0-.13v-3c.01 3.17-2.62 5.96-6.67 7.69z" fill="#8969c3"/><path d="m676.76 746.33v-.14s0 .09 0 .14z" fill="url(#a2)"/><path d="m703.04 777.67-50.05-28.9 22.6-12.91 50.05 28.9z" fill="url(#a3)"/><path d="m703.04 777.67-50.05-28.9.04 5.83 50.05 28.9z" fill="url(#a4)"/><path d="m676.76 738.38h-32.76v1.73.13c0 5.27 7.33 9.54 16.38 9.54s16.38-4.27 16.38-9.54c0 0 0-.09 0-.13z" fill="url(#a5)"/><path d="m676.76 738.9c0 5.27-7.34 9.54-16.38 9.54s-16.38-4.27-16.38-9.54 7.33-9.54 16.38-9.54 16.38 4.27 16.38 9.54z" fill="url(#a6)"/><path d="m676.76 738.45c0 5.27-7.34 9.54-16.38 9.54s-16.38-4.27-16.38-9.54 7.33-9.54 16.38-9.54 16.38 4.27 16.38 9.54z" fill="url(#a7)"/><path d="m669.52 753.4h-18.73v11.44s0 0 0 .08c0 3 4.19 5.45 9.37 5.45s9.36-2.44 9.36-5.45v-.08z" fill="url(#a8)"/><path d="m650.79 761.61v.08s0-.05 0-.08z" fill="url(#a9)"/><path d="m669.52 761.69v-.08z" fill="url(#ba)"/><path d="m660.16 767.14c-5.18 0-9.37-2.44-9.37-5.45v3.15s0 0 0 .08c0 3 4.19 5.45 9.37 5.45s9.36-2.44 9.36-5.45v-.08-3.15c0 3.01-4.19 5.45-9.36 5.45z" fill="#8969c3"/><path d="m669.52 753.7c0 3-4.19 5.45-9.36 5.45s-9.37-2.44-9.37-5.45 4.19-5.45 9.37-5.45 9.36 2.44 9.36 5.45z" fill="url(#bb)"/><path d="m669.52 753.44c0 3-4.19 5.45-9.36 5.45s-9.37-2.44-9.37-5.45 4.21-5.44 9.37-5.44 9.36 2.43 9.36 5.44z" fill="url(#bc)"/><path d="m667.57 753.47c0 2.39-3.32 4.32-7.41 4.32s-7.42-1.93-7.42-4.32 3.32-4.32 7.42-4.32 7.41 1.93 7.41 4.32z" fill="url(#bd)"/><path d="m665.39 756.53v-6.12a9.49 9.49 0 0 0 -3.21-1.09h-4a9.49 9.49 0 0 0 -3.21 1.09v6.12a11.51 11.51 0 0 0 10.47 0z" fill="url(#be)"/><path d="m667.57 753.47c0 2.39-3.32 4.32-7.41 4.32s-7.42-1.93-7.42-4.32 3.32-4.32 7.42-4.32 7.41 1.93 7.41 4.32z" fill="url(#bf)"/><path d="m668.3 749h-16.3v2.38s0 0 0 .06c0 2.62 3.65 4.74 8.15 4.74s8.14-2.12 8.14-4.74a.13.13 0 0 0 0-.06z" fill="url(#bg)"/><path d="m668.3 749.24c0 2.62-3.65 4.74-8.14 4.74s-8.15-2.12-8.15-4.74 3.65-4.74 8.15-4.74 8.14 2.12 8.14 4.74z" fill="url(#bh)"/><path d="m668.3 749c0 2.61-3.65 4.74-8.14 4.74s-8.16-2.11-8.16-4.74 3.65-4.74 8.15-4.74 8.15 2.14 8.15 4.74z" fill="url(#bi)"/><path d="m692.53 776.71-27.93-16.03 11.49-6.64 27.94 16.03z" fill="url(#bj)"/><path d="m692.53 776.71-27.93-16.03.03 8.96 27.94 16.03z" fill="url(#bk)"/><path d="m692.53 782.39-27.93-16.03.03 3.28 27.94 16.03z" fill="#8969c3"/><path d="m694.47 760.71-20.8-12.01 8.77-5.06 20.8 12z" fill="url(#bl)"/><g fill="#8969c3"><path d="m653.66 736.08-2.66-1.53 3.68-2.13 2.66 1.54.6 2.46z"/><path d="m666.26 739.11 2.66 1.54-3.68 2.12-2.66-1.54-.6-2.46z"/><path d="m657.38 741.22-2.65 1.53-3.7-2.14 2.64-1.52 4.26-.33z"/><path d="m662.54 733.97 2.64-1.53 3.71 2.14-2.65 1.53-4.25.33z"/></g><path d="m654.05 736.64-2.67-1.54 3.69-2.12 2.66 1.53.6 2.46z" fill="url(#bm)"/><path d="m666.65 739.66 2.66 1.54-3.68 2.13-2.66-1.54-.6-2.46z" fill="url(#bn)"/><path d="m657.77 741.78-2.65 1.53-3.7-2.14 2.64-1.53 4.26-.33z" fill="url(#bo)"/><path d="m662.93 734.52 2.65-1.52 3.7 2.13-2.65 1.53-4.25.33z" fill="url(#bp)"/><path d="m695.65 767.68h-18.73v11.43a.25.25 0 0 0 0 .08c0 3 4.19 5.45 9.36 5.45s9.37-2.44 9.37-5.45c0 0 0-.05 0-.08z" fill="url(#bq)"/><path d="m695.65 776v-.07s0 .01 0 .07z" fill="url(#br)"/><path d="m686.28 781.41c-5.17 0-9.36-2.44-9.36-5.45v3.15.08c0 3 4.19 5.45 9.36 5.45s9.37-2.44 9.37-5.45c0 0 0-.05 0-.08v-3.11c0 3-4.19 5.41-9.37 5.41z" fill="#8969c3"/><path d="m695.65 768c0 3-4.19 5.46-9.37 5.46s-9.36-2.44-9.36-5.46 4.19-5.45 9.36-5.45 9.37 2.45 9.37 5.45z" fill="url(#bs)"/><path d="m695.65 767.72c0 3-4.19 5.45-9.37 5.45s-9.36-2.44-9.36-5.45 4.19-5.46 9.36-5.46 9.37 2.45 9.37 5.46z" fill="url(#bt)"/><path d="m693.7 767.74c0 2.39-3.32 4.32-7.42 4.32s-7.41-1.93-7.41-4.32 3.32-4.32 7.41-4.32 7.42 1.94 7.42 4.32z" fill="url(#bu)"/><path d="m691.52 770.81v-6.13a9.49 9.49 0 0 0 -3.21-1.09h-4a9.49 9.49 0 0 0 -3.21 1.09v6.13a11.59 11.59 0 0 0 10.47 0z" fill="url(#bv)"/><path d="m693.7 767.74c0 2.39-3.32 4.32-7.42 4.32s-7.41-1.93-7.41-4.32 3.32-4.32 7.41-4.32 7.42 1.94 7.42 4.32z" fill="url(#bw)"/><path d="m694.43 763.26h-16.29v2.37s0 0 0 .07c0 2.61 3.65 4.74 8.14 4.74s8.15-2.13 8.15-4.74c0 0 0-.05 0-.07z" fill="url(#bx)"/><path d="m694.43 763.52c0 2.61-3.65 4.74-8.15 4.74s-8.14-2.13-8.14-4.74 3.65-4.75 8.14-4.75 8.15 2.13 8.15 4.75z" fill="url(#by)"/><path d="m694.43 763.29c0 2.62-3.65 4.74-8.15 4.74s-8.14-2.12-8.14-4.74 3.65-4.74 8.14-4.74 8.15 2.12 8.15 4.74z" fill="url(#bz)"/><path d="m728 769.64h-1.55a8.65 8.65 0 0 0 -3.37-4.52c-6.39-3.69-16.72-3.71-23.06 0s-27.34 27.57-19 31.58c8.95 4.29 31.82-5 40.3-9.37 4.05-1.74 6.68-4.53 6.68-7.68 0-.05 0-.09 0-.14z" fill="url(#bA)"/><path d="m721.28 784.17c-8.48 4.35-31.35 13.66-40.3 9.37a3.23 3.23 0 0 1 -1.77-2.28c-.44 2.59 0 4.55 1.77 5.4 8.95 4.29 31.82-5 40.3-9.37 4.05-1.74 6.68-4.53 6.68-7.68 0-.05 0-.09 0-.14v-3c.04 3.17-2.63 5.97-6.68 7.7z" fill="#8969c3"/><path d="m728 776.49v-.13s0 .09 0 .13z" fill="url(#bB)"/><path d="m728 768.55h-32.8v1.72.13c0 5.27 7.33 9.54 16.38 9.54s16.42-4.27 16.42-9.54c0 0 0-.09 0-.13z" fill="url(#bC)"/><path d="m728 769.06c0 5.27-7.33 9.54-16.38 9.54s-16.38-4.27-16.38-9.54 7.33-9.54 16.38-9.54 16.38 4.27 16.38 9.54z" fill="url(#bD)"/><path d="m728 768.61c0 5.27-7.33 9.54-16.38 9.54s-16.38-4.27-16.38-9.54 7.33-9.54 16.38-9.54 16.38 4.27 16.38 9.54z" fill="url(#bE)"/><path d="m718.26 766.35a5 5 0 0 1 -4.49 0c-1.24-.72-1.25-1.88 0-2.59a4.94 4.94 0 0 1 4.49 0 1.37 1.37 0 0 1 0 2.59z" fill="#8969c3"/><path d="m708.75 771.84a5 5 0 0 1 -4.49 0c-1.24-.72-1.25-1.88 0-2.59a4.94 4.94 0 0 1 4.49 0 1.37 1.37 0 0 1 0 2.59z" fill="#8969c3"/><path d="m708.71 763.74c1.24.72 1.25 1.88 0 2.59a5 5 0 0 1 -4.49 0c-1.24-.72-1.25-1.88 0-2.59a5 5 0 0 1 4.49 0z" fill="#8969c3"/><path d="m718.28 769.26c1.24.72 1.25 1.88 0 2.6a5 5 0 0 1 -4.49 0c-1.24-.72-1.25-1.88 0-2.59a5 5 0 0 1 4.49-.01z" fill="#8969c3"/><path d="m718.6 766.93a4.94 4.94 0 0 1 -4.49 0 1.37 1.37 0 0 1 0-2.59 5 5 0 0 1 4.49 0c1.23.72 1.23 1.88 0 2.59z" fill="url(#bF)"/><path d="m709.09 772.42a4.94 4.94 0 0 1 -4.49 0 1.37 1.37 0 0 1 0-2.59 5 5 0 0 1 4.49 0c1.23.72 1.23 1.88 0 2.59z" fill="url(#bG)"/><path d="m709 764.32c1.25.72 1.25 1.88 0 2.59a5 5 0 0 1 -4.49 0c-1.25-.72-1.25-1.88 0-2.6a5 5 0 0 1 4.49.01z" fill="url(#bH)"/><path d="m718.61 769.85c1.25.72 1.25 1.88 0 2.59a5 5 0 0 1 -4.49 0c-1.25-.72-1.25-1.88 0-2.59a5 5 0 0 1 4.49 0z" fill="url(#bI)"/><path d="m685.19 791.15c5.76-6.08 10.08-10.71 13.08-14.8 3.21-4.38 6.92-8.4 9-6.61 4.11 3.5-9.88 21.52-9.88 21.52z" fill="url(#bJ)"/><path d="m678 815.22s22.43-.45 32.72-2.56c5.51-1.13 9-2.35 16-9.85 3.26-3.5 5.3-6.44 3.9-8.6-.65-1-2.31 1.39-2.31 1.39s3.68-4.35 2.25-7.18-3.24.81-3.24.81 4-4.81 2.44-7.54-3.5 1.15-3.5 1.15 3.35-4.21 2.42-6.66-2.4-1.74-5.17.6c-3.24 2.74-10.94 8.92-18.57 10.38-8.11 1.56-14.36-1.54-19.27 3.16s-13.67 5.27-13.67 5.27z" fill="url(#bK)"/><path d="m557.06 779c-9 6.83-9.36 19.24-1.5 27.61s48.69 27.64 61.22 28.3 63.8-18.91 63.8-18.91-.18-9.42-2.13-15.49-6.09-7.09-6.09-7.09-35.88 12.64-47 11.75-28.92-13.65-40.32-20.43c-12.51-7.49-19.23-12.34-27.98-5.74z" fill="url(#bL)"/><path d="m491.21 936.42 28.14 18.88 1.92 111.07 1.7-111.28 127.48-75.04-129.18 71.2z" fill="#d75fff"/><path d="m636.59 729.41c5.21 1.65 12.68 1.55 16.87 2.65s7.29-.68 8.61.85 1.69 6.35-8.18 6.31-15.51-.27-21.07 1.18-16.47 3.66-19.19 1.05.3-7.59.3-7.59z" fill="url(#bM)"/><g clip-path="url(#bN)"><path d="m819.72 402.21 52.57 37.02 51.57-52.23-23.8-14.21z" fill="url(#bO)"/><path d="m839.22 435.8c0 5.71-2 9.75-5.17 11.7l-115.39 66.5c-3.33 1.86-1.2-2.37-6.26-5.29-10.18-5.88-18.4-20.11-18.4-31.79 0-5.78-5.34-5.83-2.06-7.75l116-66.59c3.32-1.8 7.86-1.46 12.87 1.43 10.19 5.87 18.41 20.11 18.41 31.79z" fill="url(#bP)"/><ellipse cx="704.93" cy="491.8" fill="url(#bQ)" rx="15" ry="25.99" transform="matrix(.86330748 -.50467831 .50467831 .86330748 -151.84 423)"/><path d="m723.84 459.53c-5-2.89-9.54-3.22-12.86-1.42l-12.5 7.29a2.5 2.5 0 0 0 -.93.79c3.38-2.56 8.38-2.54 14 .69 10.15 5.88 18.45 20.12 18.45 31.79 0 6-2.18 10.14-5.67 12a3.92 3.92 0 0 0 1-.41l11.86-7.2c3.2-1.95 5.17-6 5.17-11.7-.08-11.71-8.36-25.95-18.52-31.83z" fill="url(#bR)"/><path d="m705.82 470.2c-4.88-2.82-9.32-3.2-12.62-1.55 3.08-.86 6.89-.21 11 2.17 10.18 5.88 18.44 20.11 18.44 31.8 0 6.08-2.24 10.26-5.83 12 4.5-1.25 7.42-5.73 7.42-12.67.02-11.64-8.23-25.87-18.41-31.75z" fill="url(#bS)"/><g fill="#fff"><path d="m719.06 501.45c0 9.59-6.77 13.45-15.13 8.62s-15.12-16.49-15.12-26.07 6.77-13.44 15.12-8.62 15.13 16.49 15.13 26.07z" opacity=".05"/><ellipse cx="703.84" cy="492.74" opacity=".07" rx="11.98" ry="20.76" transform="matrix(.86330748 -.50467831 .50467831 .86330748 -152.46 422.58)"/><ellipse cx="703.74" cy="492.75" opacity=".1" rx="11.66" ry="20.2" transform="matrix(.86330748 -.50467831 .50467831 .86330748 -152.48 422.53)"/><ellipse cx="703.65" cy="492.76" opacity=".12" rx="11.34" ry="19.64" transform="matrix(.86330748 -.50467831 .50467831 .86330748 -152.5 422.48)"/><ellipse cx="703.55" cy="492.77" opacity=".14" rx="11.01" ry="19.08" transform="matrix(.86330748 -.50467831 .50467831 .86330748 -152.52 422.43)"/><ellipse cx="703.45" cy="492.79" opacity=".16" rx="10.69" ry="18.52" transform="matrix(.86330748 -.50467831 .50467831 .86330748 -152.54 422.39)"/><ellipse cx="703.36" cy="492.8" opacity=".19" rx="10.37" ry="17.96" transform="matrix(.86330748 -.50467831 .50467831 .86330748 -152.56 422.34)"/><ellipse cx="703.26" cy="492.81" opacity=".21" rx="10.04" ry="17.4" transform="matrix(.86330748 -.50467831 .50467831 .86330748 -152.58 422.29)"/><ellipse cx="703.16" cy="492.83" opacity=".23" rx="9.72" ry="16.84" transform="matrix(.86330748 -.50467831 .50467831 .86330748 -152.6 422.24)"/><ellipse cx="703.07" cy="492.84" opacity=".25" rx="9.4" ry="16.28" transform="matrix(.86330748 -.50467831 .50467831 .86330748 -152.62 422.2)"/><ellipse cx="702.97" cy="492.85" opacity=".28" rx="9.07" ry="15.72" transform="matrix(.86 -.5 .5 .86 -152.64 422.15)"/><ellipse cx="702.88" cy="492.86" opacity=".3" rx="8.75" ry="15.16" transform="matrix(.86 -.5 .5 .86 -152.66 422.1)"/></g><ellipse cx="702.88" cy="492.86" fill="#2af6ff" rx="8.75" ry="15.16" transform="matrix(.86 -.5 .5 .86 -152.66 422.1)"/><path d="m903.87 471.41c0 5.71-2 9.75-5.17 11.71l-115.39 66.49c-3.33 1.86-1.2-2.36-6.26-5.28-10.18-5.88-18.44-20.12-18.44-31.8 0-5.77-5.34-5.82-2.07-7.75l116-66.58c3.32-1.8 7.86-1.47 12.86 1.42 10.21 5.88 18.47 20.11 18.47 31.79z" fill="url(#bT)"/><ellipse cx="769.58" cy="527.41" fill="url(#bU)" rx="15" ry="25.99" transform="matrix(.86330748 -.50467831 .50467831 .86330748 -160.98 460.49)"/><path d="m788.49 495.15c-5-2.89-9.54-3.22-12.86-1.42l-12.5 7.27a2.5 2.5 0 0 0 -.93.79c3.38-2.56 8.38-2.54 14 .68 10.18 5.88 18.43 20.12 18.43 31.8 0 6-2.18 10.13-5.67 12a3.73 3.73 0 0 0 1-.41l11.87-7.2c3.2-2 5.17-6 5.17-11.71-.07-11.69-8.33-25.95-18.51-31.8z" fill="url(#bV)"/><path d="m770.46 505.82c-4.88-2.82-9.31-3.2-12.61-1.55 3.08-.86 6.89-.22 11 2.17 10.18 5.87 18.43 20.11 18.43 31.79 0 6.08-2.24 10.27-5.82 12.06 4.5-1.26 7.42-5.74 7.42-12.68.02-11.68-8.24-25.92-18.42-31.79z" fill="url(#bW)"/><g fill="#fff"><ellipse cx="768.58" cy="528.34" opacity=".05" rx="12.31" ry="21.32" transform="matrix(.86330748 -.50467831 .50467831 .86330748 -161.58 460.12)"/><ellipse cx="768.49" cy="528.35" opacity=".07" rx="11.98" ry="20.76" transform="matrix(.86330748 -.50467831 .50467831 .86330748 -161.6 460.07)"/><ellipse cx="768.39" cy="528.36" opacity=".1" rx="11.66" ry="20.2" transform="matrix(.86330748 -.50467831 .50467831 .86330748 -161.62 460.03)"/><ellipse cx="768.29" cy="528.38" opacity=".12" rx="11.34" ry="19.64" transform="matrix(.86330748 -.50467831 .50467831 .86330748 -161.64 459.98)"/><ellipse cx="768.2" cy="528.39" opacity=".14" rx="11.01" ry="19.08" transform="matrix(.86330748 -.50467831 .50467831 .86330748 -161.66 459.93)"/><ellipse cx="768.1" cy="528.4" opacity=".16" rx="10.69" ry="18.52" transform="matrix(.86330748 -.50467831 .50467831 .86330748 -161.68 459.89)"/><ellipse cx="768.01" cy="528.41" opacity=".19" rx="10.37" ry="17.96" transform="matrix(.86330748 -.50467831 .50467831 .86330748 -161.7 459.84)"/><ellipse cx="767.91" cy="528.43" opacity=".21" rx="10.04" ry="17.4" transform="matrix(.86330748 -.50467831 .50467831 .86330748 -161.72 459.79)"/><path d="m779.76 535.34c0 7.56-5.35 10.61-12 6.8s-11.94-13-11.94-20.59 5.35-10.62 11.94-6.81 12 13.03 12 20.6z" opacity=".23"/><path d="m779.26 535.12c0 7.32-5.17 10.26-11.54 6.58s-11.55-12.6-11.55-19.91 5.17-10.27 11.55-6.58 11.54 12.59 11.54 19.91z" opacity=".25"/><path d="m778.77 534.9c0 7.07-5 9.91-11.15 6.36s-11.15-12.17-11.15-19.26 5-9.91 11.15-6.36 11.15 12.2 11.15 19.26z" opacity=".28"/><path d="m778.27 534.69c0 6.81-4.81 9.55-10.75 6.13s-10.75-11.73-10.75-18.55 4.82-9.56 10.75-6.13 10.75 11.73 10.75 18.55z" opacity=".3"/></g><path d="m778.27 534.69c0 6.81-4.81 9.55-10.75 6.13s-10.75-11.73-10.75-18.55 4.82-9.56 10.75-6.13 10.75 11.73 10.75 18.55z" fill="#2af6ff"/><path d="m957.43 353.75-223.76 100.65-76.47 4.14-35.66-33.01z" fill="url(#bX)"/><path d="m957.43 353.75-300.23 104.79-35.66-33.01z" fill="url(#bY)"/><path d="m957.43 353.75-171.31 140.61 45.72 50.35 56.12 20.46z" fill="url(#bZ)"/><path d="m957.43 353.75-125.59 190.96 56.12 20.46z" fill="url(#b0)"/><path d="m868.25 433.82c0-13.82-9.76-30.65-21.8-37.61-5.6-3.22-10.7-3.75-14.55-2-.66.35-1.29.73-1.91 1.12-3.33 2.47-5.34 7-5.34 13.31 0 13.82 9.76 30.66 21.8 37.61 5.59 3.23 10.69 3.75 14.55 2 .65-.35 1.28-.73 1.91-1.13 3.32-2.46 5.34-7.03 5.34-13.3z" fill="url(#b1)"/><path d="m868.25 433.82c0-13.82-9.76-30.65-21.8-37.61-5.6-3.22-10.7-3.75-14.55-2-.66.35-1.29.73-1.91 1.12-3.33 2.47-5.34 7-5.34 13.31 0 13.82 9.76 30.66 21.8 37.61 5.59 3.23 10.69 3.75 14.55 2 .65-.35 1.28-.73 1.91-1.13 3.32-2.46 5.34-7.03 5.34-13.3z" fill="url(#b1)"/><path d="m846.45 396.21c12 7 21.8 23.79 21.8 37.61 0 6.27-2 10.84-5.34 13.31 8.55-5.45 63.58-60.66 63.58-67.63 0-10.85-15-10.72-25.89-10.72-3.38 0-64.37 23.09-68.7 25.43 3.85-1.75 8.95-1.21 14.55 2z" fill="url(#b2)"/><path d="m849.59 455.38c0-20.49-14.47-45.46-32.33-55.77-8.3-4.79-15.86-5.57-21.59-3-1 .52-1.9 1.08-2.82 1.67-4.93 3.66-7.93 10.44-7.93 19.74 0 20.49 14.48 45.46 32.34 55.77 8.29 4.79 15.86 5.57 21.58 3 1-.52 1.91-1.08 2.83-1.67 4.93-3.66 7.92-10.43 7.92-19.74z" fill="url(#b3)"/><path d="m849.59 455.38c0-20.49-14.47-45.46-32.33-55.77-8.3-4.79-15.86-5.57-21.59-3-1 .52-1.9 1.08-2.82 1.67-4.93 3.66-7.93 10.44-7.93 19.74 0 20.49 14.48 45.46 32.34 55.77 8.29 4.79 15.86 5.57 21.58 3 1-.52 1.91-1.08 2.83-1.67 4.93-3.66 7.92-10.43 7.92-19.74z" fill="url(#b3)"/><path d="m849.59 455.38c0-20.49-14.47-45.46-32.33-55.77-8.3-4.79-15.86-5.57-21.59-3-1 .52-1.9 1.08-2.82 1.67-4.93 3.66-7.93 10.44-7.93 19.74 0 20.49 14.48 45.46 32.34 55.77 8.29 4.79 15.86 5.57 21.58 3 1-.52 1.91-1.08 2.83-1.67 4.93-3.66 7.92-10.43 7.92-19.74z" fill="url(#b4)"/><circle cx="813.28" cy="439.4" fill="url(#b5)" r="38.7" transform="matrix(.62018985 -.78445175 .78445175 .62018985 -35.8 804.86)"/><path d="m817.26 399.61c17.86 10.31 32.33 35.28 32.33 55.77 0 9.31-3 16.08-7.92 19.74a45.52 45.52 0 0 0 -46-78.49c5.73-2.63 13.33-1.81 21.59 2.98z" fill="url(#b6)"/><circle cx="815.12" cy="438.77" fill="url(#b7)" r="44.27" transform="matrix(.62087418 -.78391023 .78391023 .62087418 -34.92 805.36)"/><path d="m807.22 404.62c-8.29-4.79-15.86-5.56-21.58-3-1 .53-1.9 1.09-2.83 1.68a45.52 45.52 0 0 0 46 78.49c1-.52 1.9-1.08 2.82-1.67 4.94-3.67 7.93-10.44 7.93-19.74 0-20.48-14.48-45.45-32.34-55.76z" fill="url(#b8)"/><circle cx="793.59" cy="436" fill="url(#b9)" r="28.84"/><g fill="#fff"><ellipse cx="781.36" cy="456.52" opacity=".05" rx="15.19" ry="26.3" transform="matrix(.86330748 -.50467831 .50467831 .86330748 -123.59 456.75)"/><ellipse cx="781.24" cy="456.53" opacity=".07" rx="14.79" ry="25.61" transform="matrix(.86330748 -.50467831 .50467831 .86330748 -123.61 456.69)"/><ellipse cx="781.13" cy="456.55" opacity=".1" rx="14.39" ry="24.92" transform="matrix(.86 -.5 .5 .86 -123.64 456.63)"/><ellipse cx="781.01" cy="456.57" opacity=".12" rx="13.99" ry="24.23" transform="matrix(.86330748 -.50467831 .50467831 .86330748 -123.66 456.58)"/><ellipse cx="780.89" cy="456.58" opacity=".14" rx="13.59" ry="23.54" transform="matrix(.86330748 -.50467831 .50467831 .86330748 -123.69 456.52)"/><ellipse cx="780.77" cy="456.6" opacity=".16" rx="13.19" ry="22.85" transform="matrix(.86330748 -.50467831 .50467831 .86330748 -123.71 456.46)"/><ellipse cx="780.65" cy="456.61" opacity=".19" rx="12.79" ry="22.16" transform="matrix(.86330748 -.50467831 .50467831 .86330748 -123.73 456.4)"/><ellipse cx="780.53" cy="456.63" opacity=".21" rx="12.39" ry="21.47" transform="matrix(.86330748 -.50467831 .50467831 .86330748 -123.76 456.34)"/><ellipse cx="780.41" cy="456.65" opacity=".23" rx="11.99" ry="20.78" transform="matrix(.86330748 -.50467831 .50467831 .86330748 -123.78 456.28)"/><ellipse cx="780.29" cy="456.66" opacity=".25" rx="11.6" ry="20.08" transform="matrix(.86330748 -.50467831 .50467831 .86330748 -123.81 456.22)"/><ellipse cx="780.18" cy="456.68" opacity=".28" rx="11.2" ry="19.39" transform="matrix(.86 -.5 .5 .86 -123.83 456.16)"/><ellipse cx="780.06" cy="456.69" opacity=".3" rx="10.8" ry="18.7" transform="matrix(.86330748 -.50467831 .50467831 .86330748 -123.86 456.1)"/></g><ellipse cx="780.06" cy="456.69" fill="url(#ca)" rx="10.8" ry="18.7" transform="matrix(.86330748 -.50467831 .50467831 .86330748 -123.86 456.1)"/><path d="m782.86 458.64c0 1.75-1.23 2.46-2.76 1.58a6.08 6.08 0 0 1 -2.76-4.77c0-1.75 1.23-2.45 2.76-1.57a6.06 6.06 0 0 1 2.76 4.76z" fill="#2af6ff"/><path d="m790.48 457.05a10.38 10.38 0 1 1 -10.38-10.38 10.37 10.37 0 0 1 10.38 10.38z" fill="url(#cb)"/><g fill="#b086cc"><path d="m781.36 434.12a18.27 18.27 0 0 0 -9-2.74c-5.18 0-9 3.17-10.58 8.44 0 .63-.07 1.27-.07 1.91a45.51 45.51 0 0 0 23.45 39.81 15.12 15.12 0 0 0 4.35.68c6.93 0 11.4-5.65 11.4-14.39-.01-12.36-8.77-27.49-19.55-33.71zm8.14 46.35a16.51 16.51 0 0 1 -8.14-2.5c-10.29-6-18.66-20.39-18.66-32.2 0-7.8 3.7-12.64 9.65-12.64a16.43 16.43 0 0 1 8.14 2.51c10.29 5.94 18.67 20.38 18.67 32.19 0 7.8-3.7 12.64-9.66 12.64z"/><path d="m852.4 407.78c-.51-.62-1-1.22-1.58-1.81a110.17 110.17 0 0 0 -21.94 2.86c.48.49 1 1 1.44 1.49a110.67 110.67 0 0 1 22.08-2.54z"/><path d="m862.7 434.12a112.11 112.11 0 0 1 -13.63 14.49c.1.71.19 1.42.26 2.13a112.89 112.89 0 0 0 13.44-13.74c0-.09 0-.17 0-.26.01-.9-.02-1.74-.07-2.62z"/><path d="m787.4 438.72c10.71-14.28 28.54-23.68 31.26-25.06-.44-.44-.87-.88-1.31-1.3-4.12 2.11-20.87 11.24-31.3 25.15.46.39.95.79 1.35 1.21z"/><path d="m767.77 419c-.73 1.28-1.4 2.6-2 3.95a68.32 68.32 0 0 0 .49 10.28 8.94 8.94 0 0 1 1.71-1 72.8 72.8 0 0 1 -.2-13.23z"/><path d="m795.13 480.69a10.18 10.18 0 0 1 -1.79.86c1.41 1.05 4.17 3 7.9 5.3 1.36.18 2.74.28 4.14.34a115.58 115.58 0 0 1 -10.25-6.5z"/><path d="m839.21 455c-1.05.51-20 9.54-38.55 9.35.08.6.13 1.2.17 1.79h.58c17.31 0 34.42-7.63 38-9.32-.05-.56-.13-1.18-.2-1.82z"/></g></g><path d="m974.05 500.42a9.25 9.25 0 0 1 -4.58-1.36l-18.89-10.91c-5.93-3.42-10.57-12.24-10.57-20.08v-18c0-6.06 2.85-10 7.27-10a9.25 9.25 0 0 1 4.58 1.36l18.89 10.91c5.93 3.42 10.57 12.24 10.57 20.08v18c0 6.08-2.86 10-7.27 10zm-26.77-57.75c-2.86 0-4.71 2.91-4.71 7.42v18c0 6.89 4.17 14.91 9.29 17.87l18.89 10.9a6.65 6.65 0 0 0 3.3 1c2.86 0 4.71-2.91 4.71-7.42v-18c0-6.89-4.17-14.91-9.29-17.87l-18.89-10.9a6.65 6.65 0 0 0 -3.3-1z" fill="url(#cc)"/><path d="m974.05 565.11a9.25 9.25 0 0 1 -4.58-1.36l-18.89-10.91c-5.93-3.42-10.58-12.24-10.58-20.08v-18c0-6.06 2.85-10 7.27-10a9.25 9.25 0 0 1 4.58 1.36l18.89 10.91c5.93 3.42 10.57 12.24 10.57 20.08v18c.01 6.08-2.85 10-7.26 10zm-26.77-57.75c-2.86 0-4.71 2.91-4.71 7.42v18c0 6.89 4.17 14.91 9.29 17.86l18.89 10.91a6.65 6.65 0 0 0 3.3 1c2.86 0 4.71-2.91 4.71-7.42v-18c0-6.89-4.17-14.91-9.29-17.87l-18.89-10.9a6.65 6.65 0 0 0 -3.3-1z" fill="url(#cd)"/><path d="m974.05 629.8a9.25 9.25 0 0 1 -4.58-1.36l-18.89-10.91c-5.93-3.42-10.57-12.24-10.57-20.08v-18c0-6.06 2.85-10 7.27-10a9.25 9.25 0 0 1 4.58 1.36l18.89 10.91c5.93 3.42 10.57 12.24 10.57 20.08v18c0 6.08-2.86 10-7.27 10zm-26.77-57.75c-2.86 0-4.71 2.91-4.71 7.42v18c0 6.89 4.17 14.91 9.29 17.86l18.89 10.91a6.65 6.65 0 0 0 3.3 1c2.86 0 4.71-2.91 4.71-7.42v-18c0-6.89-4.17-14.91-9.29-17.87l-18.89-10.9a6.65 6.65 0 0 0 -3.3-1z" fill="url(#ce)"/><path d="m974.05 694.49a9.25 9.25 0 0 1 -4.58-1.36l-18.89-10.91c-5.93-3.42-10.58-12.22-10.58-20.08v-18c0-6.06 2.85-10 7.27-10a9.25 9.25 0 0 1 4.58 1.36l18.89 10.91c5.93 3.42 10.57 12.24 10.57 20.08v18c.01 6.08-2.85 10-7.26 10zm-26.77-57.75c-2.86 0-4.71 2.91-4.71 7.42v18c0 6.89 4.17 14.91 9.29 17.86l18.89 10.91a6.65 6.65 0 0 0 3.3 1c2.86 0 4.71-2.91 4.71-7.42v-18c0-6.89-4.17-14.91-9.29-17.87l-18.89-10.9a6.65 6.65 0 0 0 -3.3-1z" fill="url(#cf)"/><path d="m642.36 302.8a9.19 9.19 0 0 1 -4.58-1.36l-18.89-10.91c-5.93-3.42-10.57-12.24-10.57-20.08v-18c0-6.07 2.85-10 7.26-10a9.25 9.25 0 0 1 4.59 1.36l18.88 10.91c5.93 3.42 10.57 12.24 10.57 20.08v18c0 6.08-2.85 10-7.26 10zm-26.78-57.75c-2.86 0-4.7 2.91-4.7 7.42v18c0 6.89 4.16 14.91 9.29 17.87l18.88 10.9a6.71 6.71 0 0 0 3.31 1c2.86 0 4.71-2.91 4.71-7.42v-18c0-6.89-4.17-14.91-9.29-17.87l-18.89-10.9a6.68 6.68 0 0 0 -3.31-1z" fill="url(#cg)"/><path d="m642.36 367.49a9.19 9.19 0 0 1 -4.58-1.36l-18.89-10.91c-5.89-3.42-10.57-12.22-10.57-20.08v-18c0-6.07 2.85-10 7.26-10a9.25 9.25 0 0 1 4.59 1.36l18.88 10.91c5.93 3.42 10.57 12.24 10.57 20.08v18c0 6.08-2.85 10-7.26 10zm-26.78-57.75c-2.86 0-4.7 2.91-4.7 7.42v18c0 6.89 4.16 14.91 9.29 17.86l18.88 10.91a6.71 6.71 0 0 0 3.31 1c2.86 0 4.71-2.91 4.71-7.42v-18c0-6.89-4.17-14.91-9.29-17.87l-18.89-10.9a6.68 6.68 0 0 0 -3.31-1z" fill="url(#ch)"/><path d="m642.36 432.18a9.19 9.19 0 0 1 -4.58-1.36l-18.89-10.91c-5.93-3.42-10.57-12.24-10.57-20.08v-18c0-6.07 2.85-10 7.26-10a9.25 9.25 0 0 1 4.59 1.36l18.88 10.91c5.93 3.42 10.57 12.24 10.57 20.08v18c0 6.08-2.85 10-7.26 10zm-26.78-57.75c-2.86 0-4.7 2.91-4.7 7.42v18c0 6.89 4.16 14.91 9.29 17.86l18.88 10.91a6.71 6.71 0 0 0 3.31 1c2.86 0 4.71-2.91 4.71-7.42v-18c0-6.89-4.17-14.91-9.29-17.87l-18.89-10.9a6.68 6.68 0 0 0 -3.31-1z" fill="url(#ci)"/><path d="m642.36 496.87a9.19 9.19 0 0 1 -4.58-1.36l-18.89-10.91c-5.93-3.42-10.57-12.24-10.57-20.08v-18c0-6.07 2.85-10 7.26-10a9.25 9.25 0 0 1 4.59 1.36l18.88 10.91c5.93 3.42 10.57 12.24 10.57 20.08v18c0 6.13-2.85 10-7.26 10zm-26.78-57.75c-2.86 0-4.7 2.91-4.7 7.42v18c0 6.89 4.16 14.91 9.29 17.86l18.88 10.91a6.71 6.71 0 0 0 3.31 1c2.86 0 4.71-2.91 4.71-7.42v-18c0-6.9-4.17-14.91-9.29-17.87l-18.89-10.9a6.68 6.68 0 0 0 -3.31-1z" fill="url(#cj)"/><path d="m969.38 476.56c0 5.9-4.17 8.28-9.31 5.31s-9.32-10.17-9.32-16.07 4.17-8.28 9.32-5.31 9.31 10.16 9.31 16.07z" fill="url(#ck)"/><path d="m969.38 604.89c0 5.9-4.17 8.28-9.31 5.31s-9.32-10.16-9.32-16.07 4.17-8.28 9.32-5.31 9.31 10.18 9.31 16.07z" fill="url(#cl)"/><path d="m637.68 342.68c0 5.91-4.17 8.28-9.31 5.31s-9.32-10.16-9.32-16.07 4.17-8.28 9.32-5.31 9.31 10.17 9.31 16.07z" fill="url(#cm)"/><path d="m1001.37 1183.33a3.31 3.31 0 0 0 4 2.44l28.23-6.82 6.82 28.24a3.3 3.3 0 0 0 4 2.44l28.24-6.82 6.81 28.24a3.31 3.31 0 0 0 4 2.44l28.24-6.82 6.81 28.24a3.31 3.31 0 0 0 6.44-1.56l-7.6-31.45a3.3 3.3 0 0 0 -4-2.44l-28.24 6.82-6.81-28.24a3.31 3.31 0 0 0 -4-2.44l-28.23 6.82-6.82-28.24a3.31 3.31 0 0 0 -4-2.44l-31.45 7.59a3.31 3.31 0 0 0 -2.44 4z" fill="#50f73e" opacity=".53"/><path d="m177.86 455 28.14-42.19a4.39 4.39 0 0 1 6.08-1.22l42.16 28.13a4.38 4.38 0 0 1 1.22 6.08l-28.15 42.2a4.38 4.38 0 0 1 -6.08 1.21l-42.16-28.21a4.36 4.36 0 0 1 -1.21-6zm67.85-10.39-34.87-23.27-23.26 34.87 34.87 23.27z" fill="#50f73e" opacity=".53"/><path d="m322.2 218a31.56 31.56 0 1 1 31.56 31.56 31.6 31.6 0 0 1 -31.56-31.56zm9.3 0a22.26 22.26 0 1 0 22.26-22.26 22.28 22.28 0 0 0 -22.26 22.26z" fill="#50f73e" opacity=".43"/></svg>