<svg width="3678" height="159" viewBox="0 0 3678 159" fill="none" xmlns="http://www.w3.org/2000/svg">
<path d="M132.501 159L264.569 0H0.431641L132.501 159Z" fill="#00CB24"/>
<path d="M363.069 159L495.138 0H231L363.069 159Z" fill="#00CB24"/>
<path d="M587.069 159L719.138 0H455L587.069 159Z" fill="#00CB24"/>
<path d="M817.637 159L949.706 0H685.568L817.637 159Z" fill="#00CB24"/>
<path d="M1042.07 159L1174.14 0H910L1042.07 159Z" fill="#00CB24"/>
<path d="M1272.64 159L1404.71 0H1140.57L1272.64 159Z" fill="#00CB24"/>
<path d="M1496.64 159L1628.71 0H1364.57L1496.64 159Z" fill="#00CB24"/>
<path d="M1727.21 159L1859.27 0H1595.14L1727.21 159Z" fill="#00CB24"/>
<path d="M1951.07 159L2083.14 0H1819L1951.07 159Z" fill="#00CB24"/>
<path d="M2181.64 159L2313.71 0H2049.57L2181.64 159Z" fill="#00CB24"/>
<path d="M2405.64 159L2537.71 0H2273.57L2405.64 159Z" fill="#00CB24"/>
<path d="M2636.21 159L2768.27 0H2504.14L2636.21 159Z" fill="#00CB24"/>
<path d="M2860.64 159L2992.71 0H2728.57L2860.64 159Z" fill="#00CB24"/>
<path d="M3091.21 159L3223.27 0H2959.14L3091.21 159Z" fill="#00CB24"/>
<path d="M3315.21 159L3447.27 0H3183.14L3315.21 159Z" fill="#00CB24"/>
<path d="M3545.77 159L3677.84 0H3413.7L3545.77 159Z" fill="#00CB24"/>
</svg>
