<svg width="27" height="26" viewBox="0 0 27 26" fill="none" xmlns="http://www.w3.org/2000/svg">
<path d="M20.5199 26.0001H5.51991C4.6854 25.9999 3.86195 25.8091 3.11237 25.4424C2.36279 25.0756 1.70689 24.5424 1.19468 23.8836C0.682479 23.2248 0.327505 22.4577 0.156839 21.6408C-0.0138267 20.8239 0.00432326 19.9789 0.209905 19.1701L3.2499 6.76007C3.30466 6.53819 3.43375 6.34176 3.6157 6.20348C3.79765 6.0652 4.02147 5.99341 4.2499 6.00007H20.9999C21.2205 5.98997 21.4382 6.05317 21.6191 6.17979C21.8 6.30642 21.9339 6.48936 21.9999 6.70007L25.7799 18.8601C26.0383 19.686 26.0979 20.5613 25.9536 21.4146C25.8094 22.2679 25.4654 23.075 24.9499 23.7701C24.4428 24.4681 23.7761 25.0347 23.0055 25.4226C22.2349 25.8105 21.3826 26.0085 20.5199 26.0001V26.0001ZM4.9999 8.00007L2.1099 19.6501C1.98121 20.1641 1.9709 20.7006 2.07974 21.2191C2.18859 21.7377 2.41376 22.2248 2.73826 22.6437C3.06277 23.0625 3.47814 23.4023 3.95306 23.6372C4.42798 23.8722 4.95005 23.9963 5.4799 24.0001H20.4799C21.0241 24.0009 21.5608 23.8727 22.0458 23.6258C22.5308 23.379 22.9503 23.0206 23.2699 22.5801C23.5987 22.137 23.8181 21.6226 23.9102 21.0786C24.0023 20.5347 23.9645 19.9766 23.7999 19.4501L20.2799 8.00007H4.9999Z" fill="black"/>
<path d="M17 14C16.7348 14 16.4804 13.8946 16.2929 13.7071C16.1054 13.5196 16 13.2652 16 13V5C16 4.20435 15.6839 3.44129 15.1213 2.87868C14.5587 2.31607 13.7956 2 13 2C12.2044 2 11.4413 2.31607 10.8787 2.87868C10.3161 3.44129 10 4.20435 10 5V13C10 13.2652 9.89464 13.5196 9.70711 13.7071C9.51957 13.8946 9.26522 14 9 14C8.73478 14 8.48043 13.8946 8.29289 13.7071C8.10536 13.5196 8 13.2652 8 13V5C8 3.67392 8.52678 2.40215 9.46447 1.46447C10.4021 0.526784 11.6739 0 13 0C14.3261 0 15.5979 0.526784 16.5355 1.46447C17.4732 2.40215 18 3.67392 18 5V13C18 13.2652 17.8946 13.5196 17.7071 13.7071C17.5196 13.8946 17.2652 14 17 14Z" fill="black"/>
</svg>
