<svg xmlns="http://www.w3.org/2000/svg" viewBox="0 0 17.82 17.04"><defs><style>.cls-1{fill:#4dad33;}</style></defs><g id="Camada_2" data-name="Camada 2"><g id="arte"><path class="cls-1" d="M14.33,17a1.94,1.94,0,1,1,1.94-1.93A1.93,1.93,0,0,1,14.33,17Zm0-3.09a1.16,1.16,0,1,0,1.16,1.16A1.16,1.16,0,0,0,14.33,14Z"/><path class="cls-1" d="M6.59,17a1.94,1.94,0,1,1,1.93-1.93A1.94,1.94,0,0,1,6.59,17Zm0-3.09a1.16,1.16,0,1,0,1.16,1.16A1.16,1.16,0,0,0,6.59,14Z"/><path class="cls-1" d="M15.88,12.4H6.94a2.72,2.72,0,0,1-2.66-2.18L2.39.77h-2A.39.39,0,1,1,.39,0H2.71a.39.39,0,0,1,.38.31l2,9.75a1.94,1.94,0,0,0,1.9,1.56h8.94a.38.38,0,0,1,.39.39A.39.39,0,0,1,15.88,12.4Z"/><path class="cls-1" d="M15.29,9.3H4.65a.39.39,0,0,1,0-.78H15.29a1.16,1.16,0,0,0,1.15-1L17,3.1H3.49a.38.38,0,0,1-.39-.39.39.39,0,0,1,.39-.39H17.43a.41.41,0,0,1,.39.44L17.21,7.6A1.94,1.94,0,0,1,15.29,9.3Z"/></g></g></svg>