<svg xmlns="http://www.w3.org/2000/svg" width="61.047" height="84.669" viewBox="0 0 61.047 84.669"><defs><style>.a{fill:#25475f;}</style></defs><g transform="translate(-65.8)"><g transform="translate(65.8)"><g transform="translate(0)"><path class="a" d="M118.752,36.007V22.6a22.483,22.483,0,0,0-6.713-16.155A21.767,21.767,0,0,0,96.584,0H96.3A22.546,22.546,0,0,0,73.877,22.6V36.007A9.156,9.156,0,0,0,65.8,45.215v30.12a9.277,9.277,0,0,0,9.208,9.334h42.631a9.277,9.277,0,0,0,9.208-9.334V45.215A9.2,9.2,0,0,0,118.752,36.007ZM77.449,22.6h.018A19,19,0,0,1,96.315,3.536h.018a18.592,18.592,0,0,1,13.175,5.421A19.008,19.008,0,0,1,115.144,22.6V36.025h-3.949V22.6a15.125,15.125,0,0,0-4.469-10.86A14.553,14.553,0,0,0,96.44,7.467h-.108A15.031,15.031,0,0,0,81.4,22.581V36.025H77.449V22.6Zm30.174,0V36.025H85.006V22.6A11.431,11.431,0,0,1,96.351,11.075h.108a11.008,11.008,0,0,1,7.772,3.231A11.57,11.57,0,0,1,107.623,22.6Zm15.8,52.79h0a5.692,5.692,0,0,1-5.69,5.69H75.08a5.692,5.692,0,0,1-5.69-5.69V45.305a5.692,5.692,0,0,1,5.69-5.69h42.649a5.692,5.692,0,0,1,5.69,5.69Z" transform="translate(-65.8 0)"/></g></g><g transform="translate(89.835 54.549)"><path class="a" d="M212.39,308.585a6.471,6.471,0,1,0-8.006,8.006v5.026a1.795,1.795,0,1,0,3.59,0V316.59A6.454,6.454,0,0,0,212.39,308.585Zm-6.211,4.667a2.89,2.89,0,1,1,2.89-2.89A2.888,2.888,0,0,1,206.18,313.252Z" transform="translate(-199.7 -303.9)"/></g></g></svg>