<svg width="30" height="30" viewBox="0 0 30 30" fill="none" xmlns="http://www.w3.org/2000/svg">
<path d="M28.125 11.7185C28.9014 11.7185 29.5312 11.0891 29.5312 10.3123C29.5312 9.53547 28.9014 8.90604 28.125 8.90604H22.7351L23.9465 2.12198C24.083 1.35751 23.5739 0.626921 22.8095 0.490514C22.0514 0.355477 21.3144 0.862674 21.178 1.6276L19.8783 8.90604H12.2981L13.5095 2.12198C13.6459 1.35751 13.1369 0.626921 12.3724 0.490514C11.6162 0.355477 10.8783 0.862674 10.741 1.6276L9.44126 8.90604H1.875C1.09863 8.90604 0.46875 9.53547 0.46875 10.3123C0.46875 11.0891 1.09864 11.7185 1.875 11.7185H8.93903L7.76716 18.281H1.875C1.09863 18.281 0.46875 18.9105 0.46875 19.6873C0.46875 20.4641 1.09864 21.0935 1.875 21.0935H7.26488L6.05347 27.8776C5.91705 28.6421 6.42608 29.3727 7.19055 29.5091C7.27387 29.5242 7.35717 29.5315 7.43958 29.5315C8.10791 29.5315 8.70026 29.0531 8.82203 28.372L10.1217 21.0935H17.7019L16.4905 27.8776C16.3541 28.6421 16.8631 29.3727 17.6276 29.5091C17.7109 29.5242 17.7942 29.5315 17.8766 29.5315C18.5449 29.5315 19.1373 29.0531 19.259 28.372L20.5587 21.0935H28.125C28.9014 21.0935 29.5312 20.4641 29.5312 19.6873C29.5312 18.9105 28.9014 18.281 28.125 18.281H21.061L22.2328 11.7185H28.125ZM18.2042 18.281H10.624L11.7958 11.7185H19.3761L18.2042 18.281Z" fill="white" fill-opacity="0.53"/>
</svg>
