<svg width="33" height="24" viewBox="0 0 33 24" fill="none" xmlns="http://www.w3.org/2000/svg">
<path d="M22.5992 12.8C21.3334 12.8 20.096 12.4246 19.0436 11.7214C17.9911 11.0182 17.1708 10.0186 16.6864 8.84918C16.202 7.67973 16.0753 6.3929 16.3222 5.15142C16.5691 3.90995 17.1787 2.76958 18.0737 1.87452C18.9688 0.979463 20.1092 0.369922 21.3506 0.122977C22.5921 -0.123968 23.8789 0.002773 25.0484 0.487174C26.2178 0.971575 27.2174 1.79188 27.9206 2.84435C28.6239 3.89683 28.9992 5.1342 28.9992 6.4C28.9992 8.09739 28.3249 9.72525 27.1247 10.9255C25.9245 12.1257 24.2966 12.8 22.5992 12.8ZM22.5992 1.6C21.6499 1.6 20.7218 1.88152 19.9325 2.40895C19.1431 2.93638 18.5279 3.68604 18.1646 4.56312C17.8013 5.44021 17.7062 6.40533 17.8915 7.33644C18.0767 8.26754 18.5338 9.12282 19.2051 9.79412C19.8764 10.4654 20.7317 10.9226 21.6628 11.1078C22.5939 11.293 23.559 11.1979 24.4361 10.8346C25.3132 10.4713 26.0628 9.8561 26.5903 9.06674C27.1177 8.27738 27.3992 7.34935 27.3992 6.4C27.3992 5.12696 26.8935 3.90606 25.9933 3.00589C25.0932 2.10572 23.8723 1.6 22.5992 1.6Z" fill="#01CC22"/>
<path d="M28.2 24.0006H17C15.9391 24.0006 14.9217 23.5791 14.1716 22.829C13.4214 22.0789 13 21.0614 13 20.0006V16.8006C13 16.6617 13.0362 16.5253 13.1049 16.4047C13.1736 16.284 13.2726 16.1834 13.392 16.1126L17.392 13.7126C17.5725 13.631 17.7768 13.6193 17.9654 13.6797C18.154 13.7401 18.3135 13.8683 18.4131 14.0395C18.5126 14.2107 18.5451 14.4128 18.5043 14.6065C18.4634 14.8003 18.3522 14.9721 18.192 15.0886L14.6 17.2566V20.0006C14.6 20.6371 14.8529 21.2475 15.3029 21.6976C15.753 22.1477 16.3635 22.4006 17 22.4006H28.2C28.8365 22.4006 29.447 22.1477 29.8971 21.6976C30.3471 21.2475 30.6 20.6371 30.6 20.0006V17.2566L26.992 15.0886C26.89 15.0425 26.7988 14.9755 26.7243 14.8919C26.6498 14.8084 26.5937 14.7101 26.5596 14.6035C26.5254 14.4969 26.5141 14.3843 26.5262 14.273C26.5383 14.1617 26.5736 14.0542 26.6299 13.9575C26.6861 13.8607 26.7621 13.7768 26.8528 13.7112C26.9435 13.6457 27.047 13.5998 27.1565 13.5768C27.266 13.5537 27.3792 13.5538 27.4887 13.5772C27.5981 13.6006 27.7015 13.6467 27.792 13.7126L31.792 16.1126C31.9144 16.1814 32.0165 16.2812 32.0882 16.4019C32.1598 16.5227 32.1983 16.6602 32.2 16.8006V20.0006C32.2 21.0614 31.7786 22.0789 31.0284 22.829C30.2783 23.5791 29.2609 24.0006 28.2 24.0006Z" fill="#01CC22"/>
<path d="M9.76562 10.2088C9.37505 11.0317 8.76626 11.7284 8.00721 12.2212C7.24817 12.714 6.36876 12.9835 5.46718 12.9996H1.48247C1.48247 12.9996 2.65965 12.4567 1.7238 10.8631C1.29186 10.181 1.04379 9.39628 1.00424 8.58701C0.964691 7.77774 1.13505 6.97208 1.49838 6.25013C1.86171 5.52817 2.40535 4.91507 3.07527 4.47176C3.74519 4.02845 4.51805 3.77038 5.31701 3.7232C5.61242 3.70643 5.90873 3.71825 6.20191 3.75849" stroke="#01CC22" stroke-linecap="round" stroke-linejoin="round"/>
<path d="M14.2745 8.14833C14.6666 7.52934 14.9078 6.8249 14.9783 6.09303C15.0489 5.36117 14.9466 4.62281 14.6801 3.93876C14.4136 3.25472 13.9904 2.64457 13.4453 2.15855C12.9002 1.67253 12.2489 1.32455 11.545 1.14327C10.8411 0.961996 10.1047 0.952604 9.39655 1.11587C8.68835 1.27914 8.02859 1.6104 7.47161 2.08236C6.91463 2.55432 6.47636 3.15349 6.1929 3.83052C5.90943 4.50755 5.78887 5.24306 5.84116 5.9765C6.00742 8.35737 8.18211 10.2849 10.5311 10.2849H14.5158C14.5158 10.2849 13.3386 9.74192 14.2745 8.14833Z" stroke="#01CC22" stroke-linecap="round" stroke-linejoin="round"/>
<path d="M12.0234 5.12695H8.80564" stroke="#01CC22" stroke-linecap="round" stroke-linejoin="round"/>
<path d="M12.0234 6.48438H8.80564" stroke="#01CC22" stroke-linecap="round" stroke-linejoin="round"/>
</svg>
