<svg width="30" height="30" viewBox="0 0 30 30" fill="none" xmlns="http://www.w3.org/2000/svg">
<path d="M14.2344 5.04688C14.3734 5.04688 14.5094 5.00564 14.625 4.92838C14.7406 4.85112 14.8308 4.7413 14.884 4.61282C14.9372 4.48435 14.9511 4.34297 14.924 4.20658C14.8969 4.07018 14.8299 3.9449 14.7316 3.84657C14.6332 3.74823 14.5079 3.68127 14.3715 3.65414C14.2352 3.62701 14.0938 3.64093 13.9653 3.69415C13.8368 3.74737 13.727 3.83749 13.6497 3.95311C13.5725 4.06874 13.5312 4.20469 13.5312 4.34375C13.5312 4.53023 13.6053 4.70907 13.7372 4.84093C13.8691 4.9728 14.0479 5.04688 14.2344 5.04688ZM14.2344 4.10938C14.2807 4.10938 14.326 4.12312 14.3646 4.14887C14.4031 4.17463 14.4332 4.21123 14.4509 4.25406C14.4686 4.29689 14.4733 4.34401 14.4642 4.38947C14.4552 4.43494 14.4329 4.4767 14.4001 4.50948C14.3673 4.54226 14.3256 4.56458 14.2801 4.57362C14.2346 4.58267 14.1875 4.57802 14.1447 4.56028C14.1019 4.54255 14.0653 4.5125 14.0395 4.47396C14.0137 4.43542 14 4.39011 14 4.34375C14 4.28159 14.0247 4.22198 14.0686 4.17802C14.1126 4.13407 14.1722 4.10938 14.2344 4.10938Z" fill="white" fill-opacity="0.53"/>
<path d="M16.1094 4.8125C16.3683 4.8125 16.5781 4.60263 16.5781 4.34375C16.5781 4.08487 16.3683 3.875 16.1094 3.875C15.8505 3.875 15.6406 4.08487 15.6406 4.34375C15.6406 4.60263 15.8505 4.8125 16.1094 4.8125Z" fill="white" fill-opacity="0.53"/>
<path d="M12.3594 4.8125C12.6183 4.8125 12.8281 4.60263 12.8281 4.34375C12.8281 4.08487 12.6183 3.875 12.3594 3.875C12.1005 3.875 11.8906 4.08487 11.8906 4.34375C11.8906 4.60263 12.1005 4.8125 12.3594 4.8125Z" fill="white" fill-opacity="0.53"/>
<path d="M18.9844 2H9.23438C8.69565 2 8.179 2.21401 7.79806 2.59494C7.41713 2.97587 7.20313 3.49253 7.20312 4.03125V5.65625C7.09538 5.65625 6.99205 5.69905 6.91586 5.77524C6.83968 5.85142 6.79688 5.95476 6.79688 6.0625V7.6875C6.79688 7.79524 6.83968 7.89858 6.91586 7.97476C6.99205 8.05095 7.09538 8.09375 7.20312 8.09375V8.90625C7.09538 8.90625 6.99205 8.94905 6.91586 9.02524C6.83968 9.10142 6.79688 9.20476 6.79688 9.3125V10.9375C6.79688 11.0452 6.83968 11.1486 6.91586 11.2248C6.99205 11.3009 7.09538 11.3438 7.20312 11.3438V25.9688C7.20313 26.5075 7.41713 27.0241 7.79806 27.4051C8.179 27.786 8.69565 28 9.23438 28H18.9844C19.5231 28 20.0398 27.786 20.4207 27.4051C20.8016 27.0241 21.0156 26.5075 21.0156 25.9688V4.03125C21.0156 3.49253 20.8016 2.97587 20.4207 2.59494C20.0398 2.21401 19.5231 2 18.9844 2V2ZM9.23438 2.8125H18.9844C19.2753 2.80844 19.5581 2.90859 19.7816 3.09486C20.0052 3.28113 20.1547 3.54123 20.2031 3.82812H18.9844C18.7219 3.83152 18.4636 3.89346 18.2281 4.00942C17.9927 4.12539 17.7861 4.29246 17.6234 4.49844C17.4963 4.66436 17.3336 4.79972 17.1473 4.89462C16.961 4.98951 16.7559 5.04154 16.5469 5.04688H11.6719C11.4629 5.04154 11.2577 4.98951 11.0715 4.89462C10.8852 4.79972 10.7225 4.66436 10.5953 4.49844C10.4327 4.29246 10.2261 4.12539 9.99062 4.00942C9.75518 3.89346 9.49681 3.83152 9.23438 3.82812H8.03594C8.08385 3.54469 8.2304 3.28731 8.44969 3.10147C8.66899 2.91562 8.94692 2.81327 9.23438 2.8125V2.8125ZM18.9844 27.1875H9.23438C8.91114 27.1875 8.60115 27.0591 8.37259 26.8305C8.14403 26.602 8.01563 26.292 8.01562 25.9688V4.23438H9.23438C9.44336 4.23971 9.64851 4.29174 9.83479 4.38663C10.0211 4.48153 10.1838 4.61689 10.3109 4.78281C10.4736 4.98879 10.6802 5.15586 10.9156 5.27183C11.1511 5.38779 11.4094 5.44973 11.6719 5.45312H16.5469C16.8093 5.44973 17.0677 5.38779 17.3031 5.27183C17.5386 5.15586 17.7452 4.98879 17.9078 4.78281C18.035 4.61689 18.1977 4.48153 18.384 4.38663C18.5702 4.29174 18.7754 4.23971 18.9844 4.23438H20.2031V25.9688C20.2031 26.292 20.0747 26.602 19.8462 26.8305C19.6176 27.0591 19.3076 27.1875 18.9844 27.1875V27.1875Z" fill="white" fill-opacity="0.53"/>
</svg>
