<svg width="30" height="30" viewBox="0 0 30 30" fill="none" xmlns="http://www.w3.org/2000/svg">
<path fill-rule="evenodd" clip-rule="evenodd" d="M10 7.5H6.25C4.86929 7.5 3.75 8.61929 3.75 10V20C3.75 21.3808 4.86929 22.5 6.25 22.5H10V7.5ZM6.25 5C3.48857 5 1.25 7.23857 1.25 10V20C1.25 22.7614 3.48857 25 6.25 25H23.75C26.5114 25 28.75 22.7614 28.75 20V10C28.75 7.23857 26.5114 5 23.75 5H6.25ZM17.5 7.5H12.5V22.5H17.5V7.5ZM20 22.5H23.75C25.1308 22.5 26.25 21.3808 26.25 20V10C26.25 8.61929 25.1308 7.5 23.75 7.5H20V22.5ZM6.875 12.5C7.91054 12.5 8.75 11.6605 8.75 10.625C8.75 9.58946 7.91054 8.75 6.875 8.75C5.83946 8.75 5 9.58946 5 10.625C5 11.6605 5.83946 12.5 6.875 12.5ZM23.125 21.25C24.1605 21.25 25 20.4105 25 19.375C25 18.3395 24.1605 17.5 23.125 17.5C22.0895 17.5 21.25 18.3395 21.25 19.375C21.25 20.4105 22.0895 21.25 23.125 21.25Z" fill="white" fill-opacity="0.53"/>
</svg>
