<svg width="30" height="30" viewBox="0 0 30 30" fill="none" xmlns="http://www.w3.org/2000/svg">
<path fill-rule="evenodd" clip-rule="evenodd" d="M26.875 21.875H18.2469C18.6187 23.9381 19.855 25.3575 20.9975 26.25H22.5C22.8456 26.25 23.125 26.5294 23.125 26.875C23.125 27.2206 22.8456 27.5 22.5 27.5H7.5C7.15438 27.5 6.875 27.2206 6.875 26.875C6.875 26.5294 7.15438 26.25 7.5 26.25H9.00187C10.1438 25.3575 11.3813 23.9381 11.7525 21.875H3.125C1.74437 21.875 0.625 20.7556 0.625 19.375V5C0.625 3.61937 1.74437 2.5 3.125 2.5H26.875C28.2556 2.5 29.375 3.61937 29.375 5V19.375C29.375 20.7556 28.2556 21.875 26.875 21.875ZM10.8731 26.25H19.1262C18.1294 25.1987 17.2419 23.765 16.9644 21.875H13.035C12.7575 23.765 11.87 25.1987 10.8731 26.25ZM28.125 5C28.125 4.31 27.565 3.75 26.875 3.75H3.125C2.435 3.75 1.875 4.31 1.875 5V16.875H28.125V5ZM28.125 18.125H1.875V19.375C1.875 20.065 2.435 20.625 3.125 20.625H11.875H18.125H26.875C27.565 20.625 28.125 20.065 28.125 19.375V18.125ZM15 20C14.6544 20 14.375 19.7206 14.375 19.375C14.375 19.0294 14.6544 18.75 15 18.75C15.3456 18.75 15.625 19.0294 15.625 19.375C15.625 19.7206 15.3456 20 15 20Z" fill="white" fill-opacity="0.53"/>
</svg>
