<svg width="30" height="30" viewBox="0 0 30 30" fill="none" xmlns="http://www.w3.org/2000/svg">
<path fill-rule="evenodd" clip-rule="evenodd" d="M17.9101 7.36449C17.9896 7.75463 17.9628 8.15398 17.9676 8.54974C17.971 10.7351 17.9609 12.9213 17.9729 15.107C18.6301 15.413 19.3406 15.6466 20.0731 15.6389C20.556 15.6486 21.0437 15.5395 21.4693 15.3098C21.9134 15.0719 22.2791 14.7021 22.5421 14.2751C22.84 13.7908 23.0191 13.2419 23.1199 12.685C23.2411 12.044 23.2424 11.3893 23.2217 10.7398C23.178 9.7447 23.0292 8.73302 22.5956 7.82701C22.3574 7.32716 22.0329 6.86754 21.6367 6.48036C21.2708 6.10749 20.8429 5.8017 20.3974 5.53116C19.4025 4.94039 18.3089 4.54445 17.2106 4.19453C16.5113 3.96882 15.8076 3.75678 15.1017 3.55162C13.8683 3.20177 12.6287 2.86597 11.3676 2.63086C11.3667 9.59099 11.366 16.5503 11.3677 23.5104C12.9416 24.0107 14.5158 24.5099 16.0901 25.0093C16.0938 19.1578 16.0901 13.3062 16.0917 7.4544C16.1014 7.12251 16.1573 6.76893 16.3706 6.50236C16.4988 6.33579 16.7201 6.24777 16.9274 6.2873C17.1324 6.33043 17.3362 6.41056 17.4935 6.55255C17.7308 6.75758 17.8541 7.06211 17.9101 7.36449ZM5.57748 19.7398C7.19859 19.1607 8.81812 18.5754 10.441 18.0004C10.4546 17.8917 10.4477 17.7817 10.4491 17.6725C10.4477 16.8659 10.4509 16.0598 10.4477 15.2544C8.39456 15.9785 6.34422 16.7118 4.29205 17.4386C3.79176 17.6211 3.28314 17.784 2.79294 17.9929C2.22399 18.2323 1.66248 18.5004 1.1533 18.8518C0.933509 19.0016 0.733645 19.1938 0.619275 19.4377C0.500869 19.6823 0.493808 19.9745 0.589074 20.2277C0.702562 20.5268 0.926132 20.77 1.17587 20.963C1.62944 21.3085 2.16939 21.5177 2.71268 21.6751C4.36928 22.2202 6.11731 22.4901 7.86123 22.4507C8.72746 22.4369 9.58958 22.3332 10.4417 22.1803C10.4551 22.0444 10.4469 21.9073 10.4491 21.7711C10.4477 21.0887 10.4519 20.4067 10.4469 19.7252C9.75288 19.9735 9.06023 20.2257 8.36757 20.4766C8.10094 20.5766 7.83179 20.6708 7.55217 20.7257C7.1385 20.8171 6.71412 20.8484 6.29182 20.8553C5.91297 20.8381 5.52433 20.8174 5.16855 20.6729C5.04081 20.6168 4.90204 20.5429 4.84643 20.407C4.8023 20.2918 4.86812 20.1728 4.94889 20.0924C5.12215 19.9208 5.35278 19.8245 5.57748 19.7398ZM29.0598 18.1734C28.649 17.8047 28.1352 17.5771 27.6223 17.3897C27.3344 17.2984 27.0546 17.1843 26.7656 17.0967C25.2931 16.6346 23.7458 16.4432 22.2066 16.4374C21.7386 16.4545 21.2702 16.4671 20.8047 16.5207C19.5076 16.6699 18.2193 16.9322 16.9854 17.3653C16.9846 18.3111 16.9852 19.2567 16.985 20.2027C18.6905 19.6073 20.392 19.0027 22.0968 18.4053C22.6642 18.2139 23.2662 18.1403 23.8626 18.1366C24.2437 18.1469 24.6337 18.1742 24.9919 18.3162C25.1183 18.3711 25.2556 18.4443 25.3132 18.5769C25.3682 18.728 25.2583 18.8688 25.1458 18.9567C24.8713 19.1763 24.5227 19.2642 24.1991 19.3848C21.806 20.2389 19.4132 21.0926 17.0198 21.9444C16.9701 21.9536 16.9894 22.0151 16.9846 22.0504C16.9859 22.9309 16.9846 23.8119 16.985 24.693C20.1302 23.5622 23.2761 22.4329 26.4217 21.3033C26.9372 21.1128 27.4656 20.951 27.9571 20.7004C28.4188 20.4664 28.8784 20.1987 29.2265 19.8085C29.4095 19.6007 29.537 19.33 29.5223 19.0484C29.5194 18.7021 29.3066 18.3986 29.0598 18.1734Z" fill="white" fill-opacity="0.53"/>
</svg>
