<svg width="30" height="30" viewBox="0 0 30 30" fill="none" xmlns="http://www.w3.org/2000/svg">
<path d="M8.76677 3.42867C11.3584 3.29279 14.727 5.30308 14.9768 5.35201C15.0149 5.35746 15.542 5.12378 16.1505 4.82501C19.6222 3.13529 21.2576 3.42328 21.9857 3.45585C18.5139 1.32064 13.6892 0.739214 9.27748 2.82017C8.00611 3.42328 7.97353 3.46669 8.76677 3.42867Z" fill="white" fill-opacity="0.53"/>
<path d="M11.3373 8.90491C9.72365 7.44341 8.18064 5.97645 6.64303 5.4603C5.81715 5.18321 5.75738 5.1995 5.08373 5.9004C3.49725 7.55204 2.17695 10.2307 1.80758 12.5506C1.51408 14.4087 1.47611 14.9304 1.5793 15.8377C1.88351 18.5814 2.5192 20.4776 3.77978 22.4064C4.29588 23.1996 4.43721 23.3463 4.28504 22.9442C4.05682 22.3466 4.26869 20.9068 4.80125 19.467C5.57814 17.348 7.72965 13.333 11.3373 8.90491Z" fill="white" fill-opacity="0.53"/>
<path d="M28.2682 12.3558C27.3501 8.0093 24.6009 5.27637 24.215 5.27637C23.8183 5.27637 22.9003 5.62951 22.2591 6.03158C20.9932 6.81937 20.0315 7.73754 18.7656 8.90027C21.0693 11.7962 24.3183 16.4741 25.443 19.8915C25.8125 21.0162 25.97 22.1245 25.845 22.733C25.7528 23.1949 25.7528 23.1949 25.9212 22.983C26.2526 22.5647 27.0023 21.2824 27.3011 20.6195C27.7032 19.7394 28.1161 18.4355 28.3117 17.4303C28.5453 16.208 28.5236 13.5837 28.2682 12.3558Z" fill="white" fill-opacity="0.53"/>
<path d="M15.0894 12.4309C14.8231 12.3711 12.4054 14.5335 10.6668 16.3753C7.60783 19.6243 5.82031 22.4714 5.82031 24.096C5.82031 24.9054 6.16256 25.3129 7.6785 26.3018C9.48231 27.4753 11.5849 28.2195 13.6604 28.4207C15.399 28.5891 17.507 28.3717 19.1154 27.8665C21.0658 27.2526 23.7172 25.6498 24.1464 24.8294C24.706 23.7482 23.5978 21.3304 21.1908 18.3802C19.6695 16.5111 15.6001 12.5449 15.0894 12.4309Z" fill="white" fill-opacity="0.53"/>
</svg>
