<svg height="176" viewBox="0 0 243 176" width="243" xmlns="http://www.w3.org/2000/svg"><g fill="none"><g transform="matrix(-1 0 0 -1 98.263 129.88)"><path d="m0 5.137a32.359 32.359 0 0 1 .408-5.137h63.327a32.077 32.077 0 1 1 -63.735 5.137z"/><path d="m5.00034332 4.99999619c-.00022888.0457344-.00034332.09150314-.00034332.13722991 0 3.66226578.71533203 7.21229172 2.12613297 10.55146599 1.36358642 3.22742653 3.3166275 6.12690544 5.80489349 8.61791802 2.48788071 2.49064255 5.38348007 4.44545364 8.60638809 5.81013489 3.33374405 1.41162681 6.87789154 2.127388 10.5340004 2.127388 3.65625381 0 7.20051956-.71576119 10.53435898-2.12740136 3.22296142-1.36467933 6.11862564-3.31949424 8.60653305-5.81013298 2.48827743-2.49101448 4.44134521-5.39049339 5.8049469-8.61791992 1.41080093-3.33916092 2.12613296-6.88918686 2.12613296-10.55145264 0-.04572677-.00011444-.09149551-.00034332-.13722991zm-4.5920105-5h63.32669449c.26882553 1.6731224.40835953 3.38820266.40835953 5.13722991 0 17.7320385-14.3589592 32.1069069-32.07197189 32.1069069-17.71245575 0-32.07141495-14.3748684-32.07141495-32.1069069 0-1.74902725.13951874-3.46410751.40833282-5.13722991z" fill="#00cb24"/></g><g stroke="#00cb24" stroke-width="5"><path d="m594.817 598.8c9.474 0 17.183-7.359 17.183-16.406s-7.709-16.4-17.183-16.4-17.182 7.359-17.182 16.4 7.709 16.406 17.182 16.406z" transform="translate(-528.437 -514.49)"/><g transform="matrix(0 -1 1 0 0 176)"><rect height="243" rx="18" stroke="none" width="176"/><rect fill="none" height="238" rx="15.5" width="171" x="2.5" y="2.5"/></g><path d="m117.5 51.5h96"/><path d="m117.5 69.5h96"/><path d="m117.5 87.5h96"/><path d="m117.5 105.5h96"/><path d="m117.5 123.5h96"/></g></g></svg>