<svg height="243" viewBox="0 0 187 243" width="187" xmlns="http://www.w3.org/2000/svg"><g fill="none" transform="translate(-235 -1252)"><g transform="matrix(-1 0 0 -1 359 1355)"><path d="m0 4.966a31.279 31.279 0 0 1 .395-4.966h61.21a31.005 31.005 0 1 1 -61.605 4.966z"/><path d="m5.00002289 5c.00442886 3.50541115.69136047 6.90304947 2.04190063 10.09962463 1.30961228 3.09971238 3.18539048 5.88450051 5.57522583 8.27701188 2.38946152 2.39213943 5.17046357 4.26961326 8.26573944 5.58027648 3.20162201 1.35568619 6.60541153 2.04308701 10.11683655 2.04308701 3.51156235 0 6.91547394-.68740082 10.1171875-2.04310036 3.09535217-1.31067466 5.87638855-3.1881504 8.26588822-5.58027458 2.38986206-2.39251327 4.26564788-5.1772995 5.57527542-8.27701187 1.35054016-3.19656372 2.03747177-6.59420204 2.04190063-10.09961319zm-4.60533524-5h61.21058655c.25984955 1.61722565.3947258 3.27501297.3947258 4.96561241 0 17.13971138-13.87915039 31.03438759-31.00027466 31.03438759-17.12057495 0-30.99972534-13.89467621-30.99972534-31.03438759 0-1.69059944.13484955-3.34838676.39468765-4.96561241z" fill="#00cb24"/></g><g stroke="#00cb24" stroke-width="5"><path d="m594.242 597.7c9.157 0 16.608-7.114 16.608-15.858s-7.451-15.856-16.608-15.856-16.608 7.114-16.608 15.856 7.452 15.858 16.608 15.858z" transform="translate(-266.061 713.249)"/><rect height="243" rx="18" stroke="none" width="187" x="235" y="1252"/><rect fill="none" height="238" rx="15.5" width="182" x="237.5" y="1254.5"/><rect height="95" rx="18" stroke="none" width="85" x="286" y="1374"/><rect fill="none" height="90" rx="15.5" width="80" x="288.5" y="1376.5"/></g></g></svg>