<svg xmlns="http://www.w3.org/2000/svg" width="53.71" height="74.493" viewBox="0 0 53.71 74.493">
  <g id="padlock" transform="translate(-65.8)">
    <g id="Grupo_706" data-name="Grupo 706" transform="translate(65.8)">
      <g id="Grupo_705" data-name="Grupo 705" transform="translate(0)">
        <path id="Caminho_11331" data-name="Caminho 11331" d="M112.387,31.679v-11.8a19.78,19.78,0,0,0-5.906-14.213A19.15,19.15,0,0,0,92.884,0h-.253A19.836,19.836,0,0,0,72.907,19.883v11.8a8.055,8.055,0,0,0-7.107,8.1v26.5a8.162,8.162,0,0,0,8.1,8.212h37.507a8.162,8.162,0,0,0,8.1-8.212v-26.5A8.093,8.093,0,0,0,112.387,31.679Zm-36.338-11.8h.016A16.712,16.712,0,0,1,92.647,3.111h.016A16.358,16.358,0,0,1,104.254,7.88a16.723,16.723,0,0,1,4.959,12V31.7h-3.474V19.883a13.307,13.307,0,0,0-3.932-9.554A12.8,12.8,0,0,0,92.758,6.57h-.095a13.224,13.224,0,0,0-13.139,13.3V31.7H76.049V19.883Zm26.547,0V31.7H82.7V19.883A10.057,10.057,0,0,1,92.679,9.744h.095a9.685,9.685,0,0,1,6.838,2.843A10.18,10.18,0,0,1,102.6,19.883Zm13.9,46.445h0a5.008,5.008,0,0,1-5.006,5.006H73.965a5.008,5.008,0,0,1-5.006-5.006V39.86a5.008,5.008,0,0,1,5.006-5.006h37.523a5.008,5.008,0,0,1,5.006,5.006Z" transform="translate(-65.8)" fill="#00cb24"/>
      </g>
    </g>
    <g id="Grupo_708" data-name="Grupo 708" transform="translate(86.946 47.993)">
      <g id="Grupo_707" data-name="Grupo 707">
        <path id="Caminho_11332" data-name="Caminho 11332" d="M210.865,308.022a5.693,5.693,0,1,0-7.043,7.043v4.422a1.579,1.579,0,0,0,3.158,0v-4.422A5.678,5.678,0,0,0,210.865,308.022Zm-5.464,4.106a2.543,2.543,0,1,1,2.543-2.543A2.541,2.541,0,0,1,205.4,312.128Z" transform="translate(-199.7 -303.9)" fill="#00cb24"/>
      </g>
    </g>
  </g>
</svg>
