<svg height="56.253" viewBox="0 0 51.292 56.253" width="51.292" xmlns="http://www.w3.org/2000/svg"><g fill="#25475f"><path d="m38.561 47.268h-32.341a6.228 6.228 0 0 1 -6.22-6.219v-34.829a6.228 6.228 0 0 1 6.22-6.22l5.732.032a1.244 1.244 0 1 1 0 2.488l-5.732-.032a3.736 3.736 0 0 0 -3.732 3.732v34.829a3.736 3.736 0 0 0 3.732 3.731h32.341a3.736 3.736 0 0 0 3.732-3.732l.029-5.7a1.244 1.244 0 1 1 2.488 0l-.029 5.7a6.228 6.228 0 0 1 -6.22 6.22z" transform="matrix(-1 0 0 -1 51.292 47.268)"/><path d="m40.585 44.78h-27.365a6.228 6.228 0 0 1 -6.22-6.219v-32.341a6.228 6.228 0 0 1 6.22-6.22h27.365a6.228 6.228 0 0 1 6.215 6.22v32.341a6.228 6.228 0 0 1 -6.215 6.219zm-27.365-42.292a3.736 3.736 0 0 0 -3.732 3.732v32.341a3.736 3.736 0 0 0 3.732 3.732h27.365a3.736 3.736 0 0 0 3.732-3.732v-32.341a3.736 3.736 0 0 0 -3.732-3.732z" transform="translate(-7 11.473)"/></g></svg>