<svg xmlns="http://www.w3.org/2000/svg" width="50" height="63.948" viewBox="0 0 50 63.948">
  <g id="Grupo_722" data-name="Grupo 722" transform="translate(-138 -1773.052)">
    <g id="Interseção_7" data-name="Interseção 7" transform="translate(188 1837) rotate(180)" fill="none">
      <path d="M0,4.138A26.916,26.916,0,0,1,.318,0H49.682A26.915,26.915,0,0,1,50,4.138C50,18.421,38.807,30,25,30S0,18.421,0,4.138Z" stroke="none"/>
      <path d="M 3.026905059814453 3 C 3.008998870849609 3.378992080688477 3 3.758705139160156 3 4.138010025024414 C 3 7.238100051879883 3.585918426513672 10.24300956726074 4.741481781005859 13.06926918029785 C 5.855621337890625 15.79421997070313 7.449638366699219 18.24048042297363 9.479270935058594 20.34011077880859 C 11.50202178955078 22.43263053894043 13.85449981689453 24.07419013977051 16.47135162353516 25.21920967102051 C 19.17192077636719 26.40085983276367 22.04129028320313 27 24.99976921081543 27 C 27.95836067199707 27 30.82782936096191 26.40085029602051 33.52846908569336 25.21920013427734 C 36.14537811279297 24.07418060302734 38.49790191650391 22.43260955810547 40.52069091796875 20.34008979797363 C 42.55033111572266 18.24047088623047 44.14437103271484 15.79421043395996 45.25852203369141 13.06925964355469 C 46.41408157348633 10.24300956726074 47 7.238100051879883 47 4.138010025024414 C 47 3.75871467590332 46.99100112915039 3.378986358642578 46.97309112548828 3 L 3.026905059814453 3 M 0.31829833984375 0 L 49.68167877197266 0 C 49.89123153686523 1.347690582275391 50 2.729179382324219 50 4.138010025024414 C 50 18.42111015319824 38.80712890625 30 24.99976921081543 30 C 11.1928596496582 30 0 18.42111015319824 0 4.138010025024414 C 0 2.729179382324219 0.1087608337402344 1.347690582275391 0.31829833984375 0 Z" stroke="none" fill="#00cb24"/>
    </g>
    <path id="Op_component_1" data-name="Op component 1" d="M590.935,591.388c7.333,0,13.3-5.7,13.3-12.7s-5.967-12.7-13.3-12.7-13.3,5.7-13.3,12.7S583.6,591.388,590.935,591.388Z" transform="translate(-427.446 1208.563)" fill="none" stroke="#00cb24" stroke-width="3"/>
  </g>
</svg>
