<svg xmlns="http://www.w3.org/2000/svg" width="50.875" height="50.874" viewBox="0 0 50.875 50.874"><defs><style>.a{fill:#01c625;}</style></defs><g transform="translate(0 -0.004)"><g transform="translate(0 3.638)"><path class="a" d="M41.79,55.94a1.817,1.817,0,0,0-1.817,1.817V75.927a1.817,1.817,0,0,1-1.817,1.817H5.451a1.817,1.817,0,0,1-1.817-1.817V39.588a1.817,1.817,0,0,1,1.817-1.817h21.8a1.817,1.817,0,1,0,0-3.634H5.451A5.451,5.451,0,0,0,0,39.588V75.927a5.451,5.451,0,0,0,5.451,5.451h32.7a5.451,5.451,0,0,0,5.451-5.451V57.757A1.817,1.817,0,0,0,41.79,55.94Z" transform="translate(0 -34.137)"/></g><g transform="translate(10.903 0.004)"><g transform="translate(0 0)"><path class="a" d="M140.344,2.041a6.955,6.955,0,0,0-9.838,0L106.574,25.973a1.837,1.837,0,0,0-.438.71l-3.634,10.9a1.817,1.817,0,0,0,1.722,2.391,1.845,1.845,0,0,0,.574-.093l10.9-3.634a1.817,1.817,0,0,0,.71-.44l23.933-23.933A6.955,6.955,0,0,0,140.344,2.041Zm-2.57,7.269-23.62,23.62L107.1,35.287l2.349-7.048,23.629-23.62a3.32,3.32,0,1,1,4.7,4.691Z" transform="translate(-102.409 -0.004)"/></g></g></g></svg>