<svg height="63.948" width="63.927" xmlns="http://www.w3.org/2000/svg"><g fill="none"><path d="m50 59.81a26.916 26.916 0 0 1 -.318 4.138h-49.364a26.915 26.915 0 0 1 -.318-4.138c0-14.283 11.193-25.862 25-25.862s25 11.579 25 25.862z"/><path d="m46.973 60.948c.018-.379.027-.759.027-1.138 0-3.1-.586-6.105-1.741-8.931a22.856 22.856 0 0 0 -4.738-7.271 21.902 21.902 0 0 0 -6.992-4.88 21.147 21.147 0 0 0 -8.529-1.779c-2.958 0-5.828.6-8.528 1.78a21.903 21.903 0 0 0 -6.993 4.88 22.856 22.856 0 0 0 -4.738 7.27 23.482 23.482 0 0 0 -1.741 8.931c0 .38.009.759.027 1.138zm2.709 3h-49.364a26.915 26.915 0 0 1 -.318-4.138c0-14.283 11.193-25.862 25-25.862s25 11.579 25 25.862c0 1.409-.109 2.79-.318 4.138z" fill="#00cb24"/><path d="m25.489 26.899c7.333 0 13.3-5.7 13.3-12.7s-5.967-12.7-13.3-12.7-13.3 5.7-13.3 12.7 5.965 12.7 13.3 12.7z" stroke="#00cb24" stroke-width="3"/></g><g fill="#00cd23"><path d="m46 26.909h17.927v4.412h-17.927z"/><path d="m52.718 20.279h4.492v17.649h-4.492z"/></g></svg>