<svg height="749.43" viewBox="0 0 544.766 749.43" width="544.766" xmlns="http://www.w3.org/2000/svg" xmlns:xlink="http://www.w3.org/1999/xlink"><linearGradient id="a" gradientUnits="objectBoundingBox" x1=".759" x2="2.145" y1=".418" y2=".016"><stop offset=".04" stop-color="#9f19ab"/><stop offset=".24" stop-color="#ae25b1"/><stop offset=".65" stop-color="#d744bf"/><stop offset="1" stop-color="#ff63ce"/></linearGradient><radialGradient id="b" cx=".291" cy=".459" gradientTransform="matrix(2.282 0 0 1 -.641 0)" gradientUnits="objectBoundingBox" r=".434"><stop offset="0" stop-color="#dc3daa"/><stop offset=".32" stop-color="#ae2eb9"/><stop offset=".64" stop-color="#7c1dc9"/><stop offset="1"/></radialGradient><linearGradient id="c" x1="-5.972" x2="-2.493" xlink:href="#a" y1=".72" y2=".27"/><radialGradient id="d" cx=".749" cy=".45" gradientTransform="matrix(.554 0 0 1 .223 0)" gradientUnits="objectBoundingBox" r=".52"><stop offset="0" stop-color="#fff"/><stop offset=".07" stop-color="#d8d8d8"/><stop offset=".16" stop-color="#a6a6a6"/><stop offset=".26" stop-color="#797979"/><stop offset=".37" stop-color="#545454"/><stop offset=".47" stop-color="#353535"/><stop offset=".59" stop-color="#1e1e1e"/><stop offset=".7" stop-color="#0d0d0d"/><stop offset=".84" stop-color="#030303"/><stop offset="1"/></radialGradient><linearGradient id="e" gradientUnits="objectBoundingBox" x2="1" y1=".5" y2=".5"><stop offset=".04" stop-color="#138bbd"/><stop offset=".23" stop-color="#169ac7"/><stop offset=".59" stop-color="#1fc3df"/><stop offset="1" stop-color="#2af6ff"/></linearGradient><radialGradient id="f" cx="1.79" cy="-18.724" gradientTransform="matrix(.581 0 0 1 .21 0)" gradientUnits="objectBoundingBox" r="34.83"><stop offset=".38" stop-color="#fff"/><stop offset=".47" stop-color="#f4f2f9"/><stop offset=".63" stop-color="#d8d0e8"/><stop offset=".85" stop-color="#a9c"/><stop offset="1" stop-color="#8770b8"/></radialGradient><radialGradient id="g" cx=".36" cy=".394" gradientTransform="matrix(1.323 0 0 1 -.161 0)" gradientUnits="objectBoundingBox" r=".49"><stop offset=".03" stop-color="#fedfcb"/><stop offset="1" stop-color="#f9b69e"/></radialGradient><linearGradient id="h" gradientUnits="objectBoundingBox" x1=".618" x2=".396" y1="1.052" y2="-.184"><stop offset=".04" stop-color="#602213"/><stop offset=".57" stop-color="#6d310e"/><stop offset="1" stop-color="#7a4108"/></linearGradient><linearGradient id="i" gradientUnits="objectBoundingBox" x1=".186" x2="1.016" y1=".013" y2="1.078"><stop offset=".01" stop-color="#9f19ab"/><stop offset=".43" stop-color="#5f27bd"/><stop offset=".9" stop-color="#3d065f"/></linearGradient><linearGradient id="j" x1="-10.604" x2="-7.125" xlink:href="#i" y1=".72" y2=".27"/><g fill="#50f73e"><path d="m132.7 24.737 13.524-6.255-6.266-13.537a3.534 3.534 0 1 1 6.409-2.968l6.262 13.537 13.544-6.249a3.534 3.534 0 0 1 2.968 6.409l-13.541 6.262 6.262 13.537a3.534 3.534 0 0 1 -6.409 2.968l-6.259-13.541-13.537 6.262a3.53 3.53 0 1 1 -2.957-6.412z" opacity=".43" transform="translate(-43.523 .211)"/><path d="m562.056 1037.324a2.447 2.447 0 0 0 2.948 1.8l20.826-5.028 5.028 20.826a2.447 2.447 0 0 0 2.948 1.8l20.826-5.028 5.028 20.826a2.447 2.447 0 0 0 2.948 1.8l20.826-5.028 5.028 20.826a2.442 2.442 0 1 0 4.748-1.147l-5.6-23.2a2.441 2.441 0 0 0 -2.947-1.8l-20.829 5.029-5.028-20.826a2.441 2.441 0 0 0 -2.947-1.8l-20.826 5.028-5.033-20.827a2.434 2.434 0 0 0 -2.948-1.8l-23.2 5.6a2.441 2.441 0 0 0 -1.8 2.948z" opacity=".53" transform="translate(-187.219 -342.559)"/><path d="m653.938 182.967 20.746-31.1a3.228 3.228 0 0 1 4.481-.894l31.1 20.746a3.234 3.234 0 0 1 .9 4.481l-20.746 31.1a3.234 3.234 0 0 1 -4.488.894l-31.1-20.746a3.228 3.228 0 0 1 -.894-4.481zm50.015-7.662-25.688-17.158-17.132 25.721 25.721 17.158z" opacity=".53" transform="translate(-217.67 -49.975)"/><path d="m0 675.17a23.28 23.28 0 1 1 23.28 23.28 23.28 23.28 0 0 1 -23.28-23.28zm6.862 0a16.418 16.418 0 1 0 16.418-16.418 16.418 16.418 0 0 0 -16.418 16.418z" opacity=".43" transform="translate(0 -217.028)"/></g><path d="m563.13 465.119c0 57.757-19.933 98.7-52.329 118.462-.974.594-21.34 15.024-22.32 15.578-33.71 18.852-12.15-23.92-63.352-53.476-103.029-59.491-186.555-203.553-186.555-321.783 0-58.464-55.13-57.2-22.006-76.689.92-.547 28.835-17.725 29.782-18.239 33.617-18.205 79.563-14.851 130.232 14.4 103.023 59.457 186.548 203.519 186.548 321.747z" fill="url(#a)" transform="translate(-68.617 -39.087)"/><path d="m297.883 631.44a1.481 1.481 0 0 1 -.734-.2c-54.449-31.429-105.311-84.751-143.222-150.14s-58.817-135.917-58.817-198.449c0-47.547 12.224-87.919 35.344-116.741a1.474 1.474 0 0 1 2.3 1.841c-22.707 28.3-34.71 68.02-34.71 114.9 0 62.018 20.746 131.986 58.417 196.965s88.153 117.894 142.162 149.077a1.474 1.474 0 0 1 -.74 2.747z" fill="url(#b)" transform="translate(-31.685 -54.957)"/><ellipse cx="151.845" cy="263.011" fill="url(#c)" rx="151.845" ry="263.011" transform="matrix(.86330748 -.50467831 .50467831 .86330748 17.115 184.975)"/><path d="m602 848.607c.52-.14 1.027-.313 1.547-.467 1.114-.667 2.187-1.454 3.268-2.2-1.621.92-3.201 1.847-4.815 2.667z" fill="url(#d)" transform="translate(-200.548 -281.673)"/><path d="m365.338 164.641c-49.415-28.515-94.268-32.356-127.638-15.671 2.774-.774 5.628-1.387 8.523-1.921 31.4-9.456 70.621-3.261 113.227 21.34 103.036 59.484 186.541 203.553 186.541 321.781 0 55.09-18.139 94.841-47.934 115.574 33.276-19.452 53.823-60.685 53.823-119.322.013-118.228-83.512-262.29-186.542-321.781z" fill="#d75fff" transform="translate(-79.187 -46.186)"/><path d="m368.955 392.439c-37.955-22.006-79.09-20.426-108.655-3.481s-33.21 139.374-19.339 148.9 124.87 70.754 143.669 81.951c21.74 12.957 103.23-3.334 103.23-25.928 0-13.491 3.434-120.215-25.928-144.949-17.981-15.147-54.759-34.306-92.977-56.493z" fill="url(#e)" transform="translate(-77.683 -125.147)"/><path d="m377.865 696.813-17.225-10z" fill="#e6e7e8" transform="translate(-120.143 -228.661)"/><path d="m377.865 696.813-17.225-10z" fill="url(#f)" transform="translate(-120.142 -228.661)"/><path d="m304.9 195.907c-5.548 23.92-4.468 95.461 13.537 110.739 14.251 12.09 27.028 4.115 27.908 21.686s-6.515 19.212 4.248 26.928c10.3 7.389 69.681 2.041 68.24-16.785-1.334-17.672-5.295-24.007 2.9-40.379s31.923-42.753 28.408-66.173-125.619-120.623-145.241-36.016z" fill="url(#g)" transform="translate(-100.589 -53.805)"/><path d="m289.731 170.345c-9.416-3.621-10.717-29.555 37.078-61.5 36.724-24.554 108.859-19.686 130.205 29.689 22.207 51.348 2 79.617-14.878 116.7-10.163 22.36-28.282 25.628-28.282 25.628s7.549-22.733 14.091-31.042c9.543-12.124 16.465-28.155 9.1-37.431-4.108-5.175-10.543-8-19.492.974-14.844 14.844-30.462-33.79-67.787-41.432-31.487-6.431-50.573 2.049-60.035-1.586z" fill="url(#h)" transform="translate(-94.786 -31.317)"/><path d="m673.858 715.44c0 29.3-10.11 50.015-26.548 60.1-.494.3-28.082 17.412-28.588 17.7-17.1 9.563-6.162-12.137-32.136-27.135-52.269-30.176-94.628-103.27-94.628-163.248 0-29.662-27.441-29.9-10.67-39.772.467-.273 31.343-17.905 31.823-18.165 17.058-9.236 40.372-7.536 66.073 7.336 52.295 30.112 94.674 103.2 94.674 163.184z" fill="url(#i)" transform="translate(-158.526 -179.495)"/><ellipse cx="77.036" cy="133.433" fill="url(#j)" rx="77.036" ry="133.433" transform="matrix(.86330748 -.50467831 .50467831 .86330748 255.864 423.45)"/><path d="m558.862 576.455c-25.054-14.471-47.821-16.418-64.752-7.956 15.785-4.415 35.344-1.114 56.583 11.13 52.269 30.209 94.641 103.27 94.641 163.255 0 31.229-11.5 52.682-29.889 61.912 23.107-6.462 38.065-29.455 38.065-65.093 0-59.984-42.372-133.072-94.648-163.248z" fill="#d75fff" transform="translate(-164.606 -187.573)"/><g fill="#fff"><path d="m568.321 783.005-10.737-7.942c-3.761-2.774-6.529-9.216-6.189-14.378l7.062-105.778c.34-5.168 3.668-7.1 7.429-4.321l10.743 7.942c3.754 2.781 6.529 9.223 6.182 14.384l-7.055 105.778c-.346 5.162-3.674 7.123-7.435 4.315z" transform="translate(-183.681 -216.171)"/><path d="m506.265 701.169.987-14.751c.34-5.168 3.668-7.1 7.429-4.321l77.009 56.943c3.761 2.781 6.529 9.216 6.182 14.384l-.98 14.751c-.347 5.162-3.674 7.1-7.436 4.315l-77.009-56.937c-3.754-2.781-6.528-9.223-6.182-14.384z" transform="translate(-168.646 -226.669)"/></g></svg>