<svg xmlns="http://www.w3.org/2000/svg" width="67.552" height="75.551" viewBox="0 0 67.552 75.551">
  <g id="trophy" transform="translate(-27.103)">
    <g id="Grupo_703" data-name="Grupo 703" transform="translate(27.103)">
      <g id="Grupo_702" data-name="Grupo 702" transform="translate(0)">
        <path id="Caminho_11327" data-name="Caminho 11327" d="M94.6,13.137a3.67,3.67,0,0,0-3.674-3.361H81.381V8.369h.186A2.474,2.474,0,0,0,84.038,5.9V2.471A2.474,2.474,0,0,0,81.567,0H48.288a1.107,1.107,0,1,0,0,2.213H81.567a.258.258,0,0,1,.258.258V5.9a.258.258,0,0,1-.258.258H40.192a.258.258,0,0,1-.258-.258V2.471a.258.258,0,0,1,.258-.258h8.1a1.107,1.107,0,0,0,0-2.213h-8.1A2.474,2.474,0,0,0,37.72,2.471V5.9a2.474,2.474,0,0,0,2.472,2.471h.186V9.776H30.834a3.67,3.67,0,0,0-3.674,3.361,32.3,32.3,0,0,0,1.923,12.821C31.317,32,36.444,39.719,48.191,42.748a20.482,20.482,0,0,0,6.393,3.421l.557.919A11.45,11.45,0,0,1,56.75,53.03a11.84,11.84,0,0,1-.622,3.812l-.773,2.279H52.781a4.8,4.8,0,0,0-4.79,4.79v2.318H43.964A2.064,2.064,0,0,0,41.9,68.291v5.2a2.064,2.064,0,0,0,2.061,2.061H77.795a2.064,2.064,0,0,0,2.061-2.061v-5.2a2.064,2.064,0,0,0-2.061-2.061H73.767V63.911a4.8,4.8,0,0,0-4.79-4.79H66.4l-.773-2.279a11.835,11.835,0,0,1-.622-3.812,11.451,11.451,0,0,1,1.609-5.942l.557-.919a20.481,20.481,0,0,0,6.393-3.421C85.315,39.719,90.442,32,92.676,25.958A32.3,32.3,0,0,0,94.6,13.137ZM40.787,30.744a18.793,18.793,0,0,1-4.725-7.184A24.838,24.838,0,0,1,34.6,17.153h5.777v9.5A20.511,20.511,0,0,0,40.787,30.744ZM31.158,25.19a29.848,29.848,0,0,1-1.794-11.857,1.468,1.468,0,0,1,1.47-1.344h9.544V14.94H34.509a2.13,2.13,0,0,0-2.121,2.329,27.093,27.093,0,0,0,1.6,7.073,20.535,20.535,0,0,0,7.937,10.136,20.508,20.508,0,0,0,2.8,4.789A23.789,23.789,0,0,1,31.158,25.19ZM77.643,68.443v4.895H44.116V68.443Zm-8.665-7.108a2.579,2.579,0,0,1,2.576,2.576v2.318H50.2V63.911a2.579,2.579,0,0,1,2.576-2.576Zm-5.443-3.782.532,1.568H57.692l.532-1.568a14.048,14.048,0,0,0,.739-4.523,13.807,13.807,0,0,0-1.412-6.143,20.529,20.529,0,0,0,6.655,0A13.807,13.807,0,0,0,62.8,53.03,14.048,14.048,0,0,0,63.535,57.553ZM60.879,44.946A18.309,18.309,0,0,1,42.591,26.658V8.369H79.168V26.658A18.309,18.309,0,0,1,60.879,44.946ZM90.6,25.19a23.79,23.79,0,0,1-13.57,14.079,20.514,20.514,0,0,0,2.8-4.8A20.247,20.247,0,0,0,87.019,26.1a1.107,1.107,0,1,0-2-.947A18.29,18.29,0,0,1,80.97,30.75a20.511,20.511,0,0,0,.411-4.093v-9.5h5.777a26.291,26.291,0,0,1-.544,3.358,1.107,1.107,0,0,0,2.157.5,28.582,28.582,0,0,0,.6-3.739A2.13,2.13,0,0,0,87.25,14.94H81.381V11.989h9.544a1.468,1.468,0,0,1,1.47,1.345A29.858,29.858,0,0,1,90.6,25.19Z" transform="translate(-27.103)" fill="#00cb24"/>
        <path id="Caminho_11328" data-name="Caminho 11328" d="M208.188,116.552l-3.173-.461a.425.425,0,0,1-.319-.232l-1.419-2.876a2.638,2.638,0,0,0-4.73,0l-1.419,2.876a.424.424,0,0,1-.319.232l-3.173.461a2.638,2.638,0,0,0-1.462,4.5l2.3,2.238a.424.424,0,0,1,.122.376l-.542,3.161a2.638,2.638,0,0,0,3.827,2.78l2.838-1.492a.424.424,0,0,1,.395,0l2.838,1.492a2.638,2.638,0,0,0,3.827-2.781l-.542-3.161a.424.424,0,0,1,.122-.376l2.3-2.238a2.637,2.637,0,0,0-1.462-4.5Zm-.083,2.914-2.3,2.238a2.637,2.637,0,0,0-.759,2.334l.542,3.161a.424.424,0,0,1-.616.447l-2.838-1.492a2.637,2.637,0,0,0-2.455,0l-2.838,1.492a.424.424,0,0,1-.616-.447l.542-3.161a2.637,2.637,0,0,0-.759-2.335l-2.3-2.238a.424.424,0,0,1,.235-.724l3.173-.461a2.637,2.637,0,0,0,1.986-1.443l1.419-2.876a.424.424,0,0,1,.761,0l1.419,2.876a2.637,2.637,0,0,0,1.986,1.443l3.173.461a.424.424,0,0,1,.235.724Z" transform="translate(-167.135 -95.059)" fill="#00cb24"/>
      </g>
    </g>
  </g>
</svg>
