<svg xmlns="http://www.w3.org/2000/svg" width="81.659" height="81.659" viewBox="0 0 81.659 81.659">
  <g id="logout" transform="translate(81.659 81.659) rotate(180)">
    <g id="Grupo_710" data-name="Grupo 710">
      <g id="Grupo_709" data-name="Grupo 709">
        <path id="Caminho_11335" data-name="Caminho 11335" d="M55.031,31.954a1.776,1.776,0,0,0,1.775-1.775V8.876A8.886,8.886,0,0,0,47.93,0H8.876A8.886,8.886,0,0,0,0,8.876V72.783a8.886,8.886,0,0,0,8.876,8.876H47.93a8.886,8.886,0,0,0,8.876-8.876v-21.3a1.775,1.775,0,1,0-3.55,0v21.3a5.332,5.332,0,0,1-5.326,5.326H8.876A5.332,5.332,0,0,1,3.55,72.783V8.876A5.332,5.332,0,0,1,8.876,3.55H47.93a5.332,5.332,0,0,1,5.326,5.326v21.3A1.776,1.776,0,0,0,55.031,31.954Z" fill="#00cb24"/>
      </g>
    </g>
    <g id="Grupo_712" data-name="Grupo 712" transform="translate(21.302 39.054)">
      <g id="Grupo_711" data-name="Grupo 711">
        <path id="Caminho_11336" data-name="Caminho 11336" d="M186.582,234.667H129.775a1.775,1.775,0,1,0,0,3.55h56.806a1.775,1.775,0,1,0,0-3.55Z" transform="translate(-128 -234.667)" fill="#00cb24"/>
      </g>
    </g>
    <g id="Grupo_714" data-name="Grupo 714" transform="translate(67.457 28.409)">
      <g id="Grupo_713" data-name="Grupo 713">
        <path id="Caminho_11337" data-name="Caminho 11337" d="M419.009,181.874l-10.651-10.651a1.775,1.775,0,1,0-2.51,2.51l9.394,9.394-9.394,9.394a1.776,1.776,0,0,0,2.51,2.514l10.651-10.651A1.777,1.777,0,0,0,419.009,181.874Z" transform="translate(-405.328 -170.704)" fill="#00cb24"/>
      </g>
    </g>
  </g>
</svg>
