<svg xmlns="http://www.w3.org/2000/svg" width="61.919" height="77.905" viewBox="0 0 61.919 77.905">
  <g id="antivirus" transform="translate(-52.528)">
    <g id="Grupo_704" data-name="Grupo 704" transform="translate(52.528 0)">
      <path id="Caminho_11329" data-name="Caminho 11329" d="M113.306,33.7a1.141,1.141,0,0,0,1.141-1.141v-17.6a4.221,4.221,0,0,0-4-4.224c-13.534-.689-20.808-6.224-23.94-9.462a4.205,4.205,0,0,0-6.038,0c-3.132,3.238-10.406,8.773-23.94,9.462a4.22,4.22,0,0,0-4,4.224V46.782A25.805,25.805,0,0,0,65.4,69.067L78.306,76.52a10.386,10.386,0,0,0,10.362,0l12.911-7.453a25.806,25.806,0,0,0,12.867-22.285V31.315a1.141,1.141,0,1,0-2.282,0V46.782a23.517,23.517,0,0,1-11.726,20.309L87.527,74.544a8.1,8.1,0,0,1-8.08,0L66.536,67.091A23.517,23.517,0,0,1,54.81,46.782V14.964a1.939,1.939,0,0,1,1.834-1.945c14.316-.729,22.1-6.675,25.465-10.155a1.923,1.923,0,0,1,2.757,0c3.365,3.48,11.148,9.426,25.464,10.155a1.939,1.939,0,0,1,1.834,1.945v17.6A1.141,1.141,0,0,0,113.306,33.7Z" transform="translate(-52.528 0)" fill="#00cb24"/>
      <path id="Caminho_11330" data-name="Caminho 11330" d="M94.079,73.226a1.141,1.141,0,0,0-1.141,1.141V89.835A19.642,19.642,0,0,0,102.73,106.8l12.912,7.453a4.211,4.211,0,0,0,4.214,0l12.911-7.453a19.642,19.642,0,0,0,9.792-16.961V62.223a2.678,2.678,0,0,0-2.338-2.656c-10.236-1.287-16.97-5.176-20.817-8.213a2.67,2.67,0,0,0-3.312,0c-3.846,3.036-10.58,6.924-20.815,8.212a2.678,2.678,0,0,0-2.339,2.656V74.512a1.141,1.141,0,0,0,2.282,0V62.223a.392.392,0,0,1,.34-.391c10.757-1.353,17.871-5.469,21.944-8.683a.393.393,0,0,1,.486,0c4.074,3.215,11.188,7.332,21.946,8.685a.392.392,0,0,1,.339.391V89.835a17.353,17.353,0,0,1-8.65,14.984l-12.911,7.453a1.961,1.961,0,0,1-1.933,0l-12.911-7.453a17.354,17.354,0,0,1-8.651-14.985V74.367A1.141,1.141,0,0,0,94.079,73.226Z" transform="translate(-86.789 -43.053)" fill="#00cb24"/>
    </g>
  </g>
</svg>
