<svg xmlns="http://www.w3.org/2000/svg" width="42.68" height="45.526" viewBox="0 0 42.68 45.526"><defs><style>.a{fill:#25475f;}</style></defs><g transform="translate(0)"><g transform="translate(0)"><path class="a" d="M50.678,29.521a8,8,0,0,0-6.436,3.252L31.681,26.353a8,8,0,0,0-.26-5.258l13.165-7.91a7.97,7.97,0,1,0-1.369-2.29l-13.2,7.93a8,8,0,1,0,.491,9.924l12.525,6.4a8,8,0,1,0,7.644-5.63Zm0-26.853A5.335,5.335,0,1,1,45.343,8,5.341,5.341,0,0,1,50.678,2.668ZM24,29.432A5.335,5.335,0,1,1,29.338,24.1,5.341,5.341,0,0,1,24,29.432ZM50.678,42.858a5.335,5.335,0,1,1,5.335-5.335A5.341,5.341,0,0,1,50.678,42.858Z" transform="translate(-16)"/></g></g></svg>